<svg xmlns="http://www.w3.org/2000/svg" xmlns:xlink="http://www.w3.org/1999/xlink" width="80" zoomAndPan="magnify" viewBox="0 0 60 60" height="80" preserveAspectRatio="xMidYMid meet" version="1.0"><defs><g/><clipPath id="d35a360515"><path d="M 3.835938 3.835938 L 56.164062 3.835938 L 56.164062 56.164062 L 3.835938 56.164062 Z M 3.835938 3.835938 " clip-rule="nonzero"/></clipPath><clipPath id="ec0136ade3"><path d="M 30 3.835938 C 15.550781 3.835938 3.835938 15.550781 3.835938 30 C 3.835938 44.449219 15.550781 56.164062 30 56.164062 C 44.449219 56.164062 56.164062 44.449219 56.164062 30 C 56.164062 15.550781 44.449219 3.835938 30 3.835938 Z M 30 3.835938 " clip-rule="nonzero"/></clipPath><clipPath id="3936445372"><path d="M 24 20.871094 L 36 20.871094 L 36 35 L 24 35 Z M 24 20.871094 " clip-rule="nonzero"/></clipPath><clipPath id="e4fb8ac2fa"><path d="M 19.226562 35 L 40.976562 35 L 40.976562 49.371094 L 19.226562 49.371094 Z M 19.226562 35 " clip-rule="nonzero"/></clipPath></defs><g clip-path="url(#d35a360515)"><g clip-path="url(#ec0136ade3)"><path fill="#dc9849" d="M 3.835938 3.835938 L 56.164062 3.835938 L 56.164062 56.164062 L 3.835938 56.164062 Z M 3.835938 3.835938 " fill-opacity="1" fill-rule="nonzero"/></g></g><g clip-path="url(#3936445372)"><path fill="#ffffff" d="M 30.101562 34.808594 C 33.28125 34.808594 35.859375 31.691406 35.859375 27.847656 C 35.859375 24 35.011719 20.882812 30.101562 20.882812 C 25.191406 20.882812 24.34375 24 24.34375 27.847656 C 24.34375 31.691406 26.921875 34.808594 30.101562 34.808594 Z M 30.101562 34.808594 " fill-opacity="1" fill-rule="nonzero"/></g><g clip-path="url(#e4fb8ac2fa)"><path fill="#ffffff" d="M 40.964844 45.160156 C 40.855469 38.460938 39.976562 36.550781 33.253906 35.34375 C 33.253906 35.34375 32.308594 36.542969 30.101562 36.542969 C 27.894531 36.542969 26.949219 35.34375 26.949219 35.34375 C 20.300781 36.539062 19.367188 38.417969 19.246094 44.941406 C 19.234375 45.472656 19.230469 45.5 19.226562 45.441406 C 19.226562 45.554688 19.230469 45.769531 19.230469 46.144531 C 19.230469 46.144531 20.828125 49.355469 30.101562 49.355469 C 39.375 49.355469 40.976562 46.144531 40.976562 46.144531 C 40.976562 45.902344 40.976562 45.738281 40.976562 45.625 C 40.972656 45.660156 40.96875 45.585938 40.964844 45.160156 Z M 40.964844 45.160156 " fill-opacity="1" fill-rule="nonzero"/></g><g fill="#ffffff" fill-opacity="1"><g transform="translate(17.257705, 20.790207)"><g><path d="M 0.015625 -0.03125 L -0.453125 -0.421875 L 0.03125 -1 L -2.984375 -6.359375 L -2.359375 -7.140625 L 3.515625 -5.234375 L 3.953125 -5.78125 L 4.421875 -5.390625 L 2.703125 -3.28125 L 2.234375 -3.671875 L 2.828125 -4.390625 L 1.28125 -4.890625 L -0.265625 -3.015625 L 0.546875 -1.640625 L 1.234375 -2.453125 L 1.703125 -2.0625 Z M -0.546875 -3.515625 L 0.734375 -5.078125 L -2.140625 -6.078125 Z M -0.546875 -3.515625 "/></g></g></g><g fill="#ffffff" fill-opacity="1"><g transform="translate(21.118264, 15.890013)"><g><path d="M -0.140625 -0.609375 L 0.78125 -1.046875 L -1.40625 -5.6875 L -2.328125 -5.25 L -2.59375 -5.796875 L -0.875 -6.609375 C -0.4375 -6.816406 -0.0351562 -6.972656 0.328125 -7.078125 C 0.703125 -7.179688 1.085938 -7.25 1.484375 -7.28125 C 1.878906 -7.300781 2.242188 -7.257812 2.578125 -7.15625 C 2.910156 -7.050781 3.222656 -6.875 3.515625 -6.625 C 3.816406 -6.351562 4.066406 -6 4.265625 -5.5625 C 4.453125 -5.164062 4.566406 -4.78125 4.609375 -4.40625 C 4.660156 -4.03125 4.628906 -3.675781 4.515625 -3.34375 C 4.410156 -3.03125 4.238281 -2.726562 4 -2.4375 C 3.769531 -2.144531 3.484375 -1.867188 3.140625 -1.609375 C 2.804688 -1.367188 2.421875 -1.144531 1.984375 -0.9375 L 0.125 -0.0625 Z M 1.6875 -1.46875 C 2.007812 -1.625 2.289062 -1.785156 2.53125 -1.953125 C 2.769531 -2.128906 2.976562 -2.320312 3.15625 -2.53125 C 3.34375 -2.757812 3.472656 -3 3.546875 -3.25 C 3.628906 -3.507812 3.648438 -3.789062 3.609375 -4.09375 C 3.578125 -4.414062 3.472656 -4.753906 3.296875 -5.109375 C 3.171875 -5.378906 3.03125 -5.609375 2.875 -5.796875 C 2.71875 -5.992188 2.5625 -6.148438 2.40625 -6.265625 C 2.238281 -6.378906 2.0625 -6.460938 1.875 -6.515625 C 1.6875 -6.578125 1.492188 -6.609375 1.296875 -6.609375 C 1.117188 -6.609375 0.925781 -6.582031 0.71875 -6.53125 C 0.519531 -6.488281 0.316406 -6.429688 0.109375 -6.359375 C -0.078125 -6.296875 -0.28125 -6.210938 -0.5 -6.109375 Z M 1.6875 -1.46875 "/></g></g></g><g fill="#ffffff" fill-opacity="1"><g transform="translate(26.249678, 13.04856)"><g><path d="M 0.234375 -0.609375 L 1.15625 -0.5625 L 1.34375 -5.6875 L 0.34375 -5.734375 L 0.359375 -6.34375 L 2.90625 -6.25 L 4.265625 -2.1875 L 5.8125 -6.140625 L 8.171875 -6.0625 L 8.15625 -5.453125 L 7.1875 -5.484375 L 7 -0.359375 L 8.03125 -0.328125 L 8.015625 0.28125 L 5.109375 0.1875 L 5.125 -0.421875 L 6.046875 -0.390625 L 6.234375 -5.375 L 4.421875 -0.9375 C 4.335938 -0.71875 4.234375 -0.613281 4.109375 -0.625 C 4.046875 -0.625 3.984375 -0.648438 3.921875 -0.703125 C 3.859375 -0.765625 3.8125 -0.835938 3.78125 -0.921875 L 2.109375 -5.671875 L 1.921875 -0.546875 L 2.984375 -0.5 L 2.96875 0.109375 L 0.21875 0 Z M 0.234375 -0.609375 "/></g></g></g><g fill="#ffffff" fill-opacity="1"><g transform="translate(33.642655, 13.630276)"><g><path d="M 0.109375 0.046875 L 0.34375 -0.515625 L 1.296875 -0.109375 L 3.3125 -4.8125 L 2.359375 -5.21875 L 2.609375 -5.78125 L 5.359375 -4.609375 L 5.109375 -4.046875 L 4.21875 -4.421875 L 2.203125 0.28125 L 3.09375 0.65625 L 2.859375 1.21875 Z M 0.109375 0.046875 "/></g></g></g><g fill="#ffffff" fill-opacity="1"><g transform="translate(36.272862, 14.279667)"><g><path d="M 0.109375 0.09375 L 0.515625 -0.359375 L 1.25 0.328125 L 4.734375 -3.4375 L 4 -4.125 L 4.40625 -4.578125 L 6.0625 -3.046875 L 4.75 2.828125 L 7.875 -0.5625 L 7.109375 -1.25 L 7.515625 -1.703125 L 9.578125 0.1875 L 9.171875 0.640625 L 8.46875 0 L 4.578125 4.21875 L 3.75 3.453125 L 5.125 -2.671875 L 1.84375 0.875 L 2.5625 1.53125 L 2.15625 1.984375 Z M 0.109375 0.09375 "/></g></g></g><g fill="#ffffff" fill-opacity="1"><g transform="translate(40.941514, 18.985342)"><g/></g></g></svg>