<svg xmlns="http://www.w3.org/2000/svg" xmlns:xlink="http://www.w3.org/1999/xlink" width="80" zoomAndPan="magnify" viewBox="0 0 60 30.000001" height="40" preserveAspectRatio="xMidYMid meet" version="1.0"><defs><g/><clipPath id="601656f03e"><path d="M 2.710938 10.597656 L 56.128906 10.597656 L 56.128906 27.359375 L 2.710938 27.359375 Z M 2.710938 10.597656 " clip-rule="nonzero"/></clipPath><clipPath id="dfdd1485ba"><path d="M 4.160156 10.597656 L 54.675781 10.597656 C 55.480469 10.597656 56.128906 11.246094 56.128906 12.046875 L 56.128906 25.910156 C 56.128906 26.710938 55.480469 27.359375 54.675781 27.359375 L 4.160156 27.359375 C 3.359375 27.359375 2.710938 26.710938 2.710938 25.910156 L 2.710938 12.046875 C 2.710938 11.246094 3.359375 10.597656 4.160156 10.597656 Z M 4.160156 10.597656 " clip-rule="nonzero"/></clipPath></defs><g clip-path="url(#601656f03e)"><g clip-path="url(#dfdd1485ba)"><path fill="#854ab1" d="M 2.710938 10.597656 L 56.128906 10.597656 L 56.128906 27.359375 L 2.710938 27.359375 Z M 2.710938 10.597656 " fill-opacity="1" fill-rule="nonzero"/></g></g><g fill="#dc9849" fill-opacity="1"><g transform="translate(14.536748, 21.541207)"><g><path d="M 0.171875 -0.71875 L 1.390625 -0.71875 L 1.390625 -6.8125 L 0.171875 -6.8125 L 0.171875 -7.53125 L 3.4375 -7.53125 C 3.882812 -7.53125 4.328125 -7.488281 4.765625 -7.40625 C 5.222656 -7.3125 5.617188 -7.128906 5.953125 -6.859375 C 6.117188 -6.722656 6.242188 -6.550781 6.328125 -6.34375 C 6.421875 -6.144531 6.46875 -5.921875 6.46875 -5.671875 C 6.46875 -5.253906 6.351562 -4.910156 6.125 -4.640625 C 5.894531 -4.378906 5.550781 -4.179688 5.09375 -4.046875 C 5.675781 -3.898438 6.117188 -3.660156 6.421875 -3.328125 C 6.722656 -3.003906 6.875 -2.582031 6.875 -2.0625 C 6.875 -1.800781 6.832031 -1.5625 6.75 -1.34375 C 6.675781 -1.125 6.570312 -0.941406 6.4375 -0.796875 C 6.320312 -0.660156 6.164062 -0.539062 5.96875 -0.4375 C 5.78125 -0.332031 5.582031 -0.25 5.375 -0.1875 C 5.207031 -0.144531 5 -0.109375 4.75 -0.078125 C 4.507812 -0.046875 4.289062 -0.0234375 4.09375 -0.015625 C 3.863281 -0.00390625 3.660156 0 3.484375 0 L 0.171875 0 Z M 3.65625 -4.3125 C 4.09375 -4.3125 4.484375 -4.398438 4.828125 -4.578125 C 5.003906 -4.671875 5.140625 -4.796875 5.234375 -4.953125 C 5.335938 -5.109375 5.390625 -5.289062 5.390625 -5.5 C 5.390625 -5.820312 5.320312 -6.082031 5.1875 -6.28125 C 5.0625 -6.4375 4.851562 -6.566406 4.5625 -6.671875 C 4.351562 -6.734375 4.03125 -6.78125 3.59375 -6.8125 C 3.363281 -6.8125 3.15625 -6.8125 2.96875 -6.8125 L 2.578125 -6.8125 L 2.578125 -4.3125 Z M 3.171875 -0.71875 C 3.609375 -0.71875 3.972656 -0.734375 4.265625 -0.765625 C 4.429688 -0.773438 4.570312 -0.796875 4.6875 -0.828125 C 4.8125 -0.859375 4.9375 -0.898438 5.0625 -0.953125 C 5.164062 -0.992188 5.253906 -1.046875 5.328125 -1.109375 C 5.410156 -1.179688 5.484375 -1.265625 5.546875 -1.359375 C 5.648438 -1.535156 5.703125 -1.785156 5.703125 -2.109375 C 5.703125 -2.359375 5.644531 -2.582031 5.53125 -2.78125 C 5.414062 -2.988281 5.257812 -3.15625 5.0625 -3.28125 C 4.863281 -3.394531 4.644531 -3.484375 4.40625 -3.546875 C 4.164062 -3.617188 3.914062 -3.65625 3.65625 -3.65625 L 2.578125 -3.65625 L 2.578125 -0.71875 Z M 3.171875 -0.71875 "/></g></g><g transform="translate(21.769504, 21.541207)"><g><path d="M 0.046875 0 L 0.046875 -0.71875 L 0.9375 -0.71875 L 3.578125 -7.53125 L 4.765625 -7.53125 L 7.4375 -0.71875 L 8.28125 -0.71875 L 8.28125 0 L 5.046875 0 L 5.046875 -0.71875 L 6.15625 -0.71875 L 5.46875 -2.515625 L 2.578125 -2.515625 L 1.921875 -0.71875 L 3.171875 -0.71875 L 3.171875 0 Z M 2.8125 -3.15625 L 5.21875 -3.15625 L 3.984375 -6.546875 Z M 2.8125 -3.15625 "/></g></g><g transform="translate(30.088426, 21.541207)"><g><path d="M 3.984375 0.140625 C 3.472656 0.140625 2.992188 0.0351562 2.546875 -0.171875 C 2.097656 -0.390625 1.71875 -0.679688 1.40625 -1.046875 C 1.09375 -1.410156 0.847656 -1.832031 0.671875 -2.3125 C 0.503906 -2.800781 0.421875 -3.3125 0.421875 -3.84375 C 0.421875 -4.394531 0.507812 -4.90625 0.6875 -5.375 C 0.863281 -5.851562 1.109375 -6.257812 1.421875 -6.59375 C 1.742188 -6.9375 2.132812 -7.203125 2.59375 -7.390625 C 3.050781 -7.585938 3.550781 -7.6875 4.09375 -7.6875 C 4.550781 -7.6875 4.988281 -7.585938 5.40625 -7.390625 C 5.832031 -7.203125 6.179688 -6.929688 6.453125 -6.578125 C 6.722656 -6.210938 6.859375 -5.8125 6.859375 -5.375 C 6.859375 -5.21875 6.816406 -5.066406 6.734375 -4.921875 C 6.648438 -4.785156 6.53125 -4.671875 6.375 -4.578125 C 6.226562 -4.492188 6.0625 -4.453125 5.875 -4.453125 C 5.613281 -4.453125 5.40625 -4.523438 5.25 -4.671875 C 5.101562 -4.828125 5.03125 -5.035156 5.03125 -5.296875 C 5.03125 -5.453125 5.070312 -5.59375 5.15625 -5.71875 C 5.25 -5.84375 5.363281 -5.9375 5.5 -6 C 5.632812 -6.0625 5.773438 -6.09375 5.921875 -6.09375 C 5.742188 -6.351562 5.492188 -6.566406 5.171875 -6.734375 C 4.847656 -6.898438 4.484375 -6.984375 4.078125 -6.984375 C 3.628906 -6.984375 3.226562 -6.851562 2.875 -6.59375 C 2.519531 -6.332031 2.238281 -5.960938 2.03125 -5.484375 C 1.832031 -5.003906 1.734375 -4.453125 1.734375 -3.828125 C 1.734375 -3.453125 1.789062 -3.085938 1.90625 -2.734375 C 2.03125 -2.378906 2.195312 -2.054688 2.40625 -1.765625 C 2.625 -1.460938 2.894531 -1.222656 3.21875 -1.046875 C 3.550781 -0.878906 3.910156 -0.796875 4.296875 -0.796875 C 4.578125 -0.796875 4.847656 -0.847656 5.109375 -0.953125 C 5.367188 -1.054688 5.59375 -1.203125 5.78125 -1.390625 C 5.957031 -1.566406 6.101562 -1.757812 6.21875 -1.96875 C 6.34375 -2.175781 6.429688 -2.390625 6.484375 -2.609375 L 7.15625 -2.28125 C 6.976562 -1.507812 6.617188 -0.910156 6.078125 -0.484375 C 5.535156 -0.0664062 4.835938 0.140625 3.984375 0.140625 Z M 3.984375 0.140625 "/></g></g><g transform="translate(37.331194, 21.541207)"><g><path d="M 0.171875 -0.71875 L 1.375 -0.71875 L 1.375 -6.8125 L 0.171875 -6.8125 L 0.171875 -7.53125 L 3.625 -7.53125 L 3.625 -6.8125 L 2.5625 -6.8125 L 2.5625 -3.671875 C 2.59375 -3.679688 2.671875 -3.738281 2.796875 -3.84375 C 2.921875 -3.957031 3.007812 -4.039062 3.0625 -4.09375 C 3.238281 -4.257812 3.894531 -4.960938 5.03125 -6.203125 L 5.59375 -6.8125 L 4.453125 -6.8125 L 4.453125 -7.53125 L 8 -7.53125 L 8 -6.8125 L 6.859375 -6.8125 L 4.3125 -4.125 L 7.1875 -0.71875 L 8.0625 -0.71875 L 8.0625 0 L 4.53125 0 L 4.53125 -0.71875 L 5.640625 -0.71875 L 3.421875 -3.484375 L 2.5625 -2.765625 L 2.5625 -0.71875 L 3.625 -0.71875 L 3.625 0 L 0.171875 0 Z M 0.171875 -0.71875 "/></g></g></g></svg>