<svg xmlns="http://www.w3.org/2000/svg" xmlns:xlink="http://www.w3.org/1999/xlink" width="80" zoomAndPan="magnify" viewBox="0 0 60 30.000001" height="40" preserveAspectRatio="xMidYMid meet" version="1.0"><defs><g/><clipPath id="5c76fdbd01"><path d="M 2.710938 10.597656 L 56.128906 10.597656 L 56.128906 27.359375 L 2.710938 27.359375 Z M 2.710938 10.597656 " clip-rule="nonzero"/></clipPath><clipPath id="c2b6a28393"><path d="M 4.160156 10.597656 L 54.675781 10.597656 C 55.480469 10.597656 56.128906 11.246094 56.128906 12.046875 L 56.128906 25.910156 C 56.128906 26.710938 55.480469 27.359375 54.675781 27.359375 L 4.160156 27.359375 C 3.359375 27.359375 2.710938 26.710938 2.710938 25.910156 L 2.710938 12.046875 C 2.710938 11.246094 3.359375 10.597656 4.160156 10.597656 Z M 4.160156 10.597656 " clip-rule="nonzero"/></clipPath></defs><g clip-path="url(#5c76fdbd01)"><g clip-path="url(#c2b6a28393)"><path fill="#854ab1" d="M 2.710938 10.597656 L 56.128906 10.597656 L 56.128906 27.359375 L 2.710938 27.359375 Z M 2.710938 10.597656 " fill-opacity="1" fill-rule="nonzero"/></g></g><g fill="#dc9849" fill-opacity="1"><g transform="translate(5.572141, 20.653429)"><g><path d="M 2.25 0.078125 C 1.96875 0.078125 1.695312 0.0195312 1.4375 -0.09375 C 1.1875 -0.21875 0.972656 -0.382812 0.796875 -0.59375 C 0.617188 -0.800781 0.476562 -1.039062 0.375 -1.3125 C 0.28125 -1.59375 0.234375 -1.882812 0.234375 -2.1875 C 0.234375 -2.488281 0.28125 -2.773438 0.375 -3.046875 C 0.476562 -3.316406 0.625 -3.550781 0.8125 -3.75 C 0.988281 -3.9375 1.207031 -4.082031 1.46875 -4.1875 C 1.726562 -4.300781 2.007812 -4.359375 2.3125 -4.359375 C 2.582031 -4.359375 2.832031 -4.300781 3.0625 -4.1875 C 3.300781 -4.082031 3.5 -3.925781 3.65625 -3.71875 C 3.8125 -3.519531 3.890625 -3.296875 3.890625 -3.046875 C 3.890625 -2.960938 3.863281 -2.878906 3.8125 -2.796875 C 3.769531 -2.710938 3.707031 -2.644531 3.625 -2.59375 C 3.539062 -2.550781 3.441406 -2.53125 3.328125 -2.53125 C 3.179688 -2.53125 3.0625 -2.570312 2.96875 -2.65625 C 2.882812 -2.738281 2.84375 -2.851562 2.84375 -3 C 2.84375 -3.09375 2.867188 -3.171875 2.921875 -3.234375 C 2.972656 -3.304688 3.035156 -3.359375 3.109375 -3.390625 C 3.191406 -3.429688 3.273438 -3.453125 3.359375 -3.453125 C 3.253906 -3.597656 3.109375 -3.71875 2.921875 -3.8125 C 2.742188 -3.914062 2.539062 -3.96875 2.3125 -3.96875 C 2.0625 -3.96875 1.832031 -3.890625 1.625 -3.734375 C 1.425781 -3.585938 1.269531 -3.378906 1.15625 -3.109375 C 1.039062 -2.835938 0.984375 -2.523438 0.984375 -2.171875 C 0.984375 -1.960938 1.015625 -1.753906 1.078125 -1.546875 C 1.148438 -1.347656 1.242188 -1.164062 1.359375 -1 C 1.484375 -0.832031 1.640625 -0.695312 1.828125 -0.59375 C 2.015625 -0.5 2.21875 -0.453125 2.4375 -0.453125 C 2.59375 -0.453125 2.742188 -0.484375 2.890625 -0.546875 C 3.046875 -0.609375 3.175781 -0.6875 3.28125 -0.78125 C 3.375 -0.882812 3.453125 -0.992188 3.515625 -1.109375 C 3.585938 -1.234375 3.640625 -1.359375 3.671875 -1.484375 L 4.0625 -1.296875 C 3.957031 -0.859375 3.75 -0.519531 3.4375 -0.28125 C 3.132812 -0.0390625 2.738281 0.078125 2.25 0.078125 Z M 2.25 0.078125 "/></g></g><g transform="translate(9.674637, 20.653429)"><g><path d="M 3.640625 0.09375 C 3.523438 0.09375 3.421875 0.0703125 3.328125 0.03125 C 3.234375 -0.0078125 3.15625 -0.0664062 3.09375 -0.140625 C 3.03125 -0.203125 2.972656 -0.289062 2.921875 -0.40625 C 2.867188 -0.519531 2.828125 -0.644531 2.796875 -0.78125 C 2.753906 -0.9375 2.722656 -1.09375 2.703125 -1.25 C 2.679688 -1.351562 2.648438 -1.453125 2.609375 -1.546875 C 2.566406 -1.640625 2.523438 -1.707031 2.484375 -1.75 C 2.429688 -1.800781 2.378906 -1.84375 2.328125 -1.875 C 2.285156 -1.90625 2.242188 -1.925781 2.203125 -1.9375 C 2.171875 -1.945312 2.144531 -1.953125 2.125 -1.953125 L 1.453125 -1.953125 L 1.453125 -0.40625 L 2.09375 -0.40625 L 2.09375 0 L 0.09375 0 L 0.09375 -0.40625 L 0.78125 -0.40625 L 0.78125 -3.859375 L 0.09375 -3.859375 L 0.09375 -4.265625 L 1.859375 -4.265625 C 1.984375 -4.265625 2.085938 -4.265625 2.171875 -4.265625 C 2.253906 -4.265625 2.359375 -4.257812 2.484375 -4.25 C 2.648438 -4.226562 2.78125 -4.203125 2.875 -4.171875 C 2.976562 -4.148438 3.09375 -4.113281 3.21875 -4.0625 C 3.332031 -4 3.425781 -3.929688 3.5 -3.859375 C 3.570312 -3.785156 3.632812 -3.6875 3.6875 -3.5625 C 3.726562 -3.4375 3.75 -3.296875 3.75 -3.140625 C 3.75 -2.804688 3.648438 -2.5625 3.453125 -2.40625 C 3.347656 -2.320312 3.234375 -2.253906 3.109375 -2.203125 C 2.992188 -2.160156 2.859375 -2.125 2.703125 -2.09375 C 2.804688 -2.070312 2.894531 -2.039062 2.96875 -2 C 3.039062 -1.957031 3.101562 -1.90625 3.15625 -1.84375 C 3.207031 -1.78125 3.242188 -1.710938 3.265625 -1.640625 C 3.296875 -1.566406 3.328125 -1.472656 3.359375 -1.359375 C 3.390625 -1.265625 3.425781 -1.113281 3.46875 -0.90625 C 3.476562 -0.84375 3.492188 -0.773438 3.515625 -0.703125 C 3.546875 -0.640625 3.570312 -0.585938 3.59375 -0.546875 C 3.613281 -0.503906 3.640625 -0.46875 3.671875 -0.4375 C 3.710938 -0.414062 3.757812 -0.40625 3.8125 -0.40625 C 4.007812 -0.40625 4.109375 -0.582031 4.109375 -0.9375 L 4.109375 -1.34375 L 4.484375 -1.34375 L 4.484375 -0.921875 C 4.484375 -0.242188 4.203125 0.09375 3.640625 0.09375 Z M 1.8125 -2.375 C 2.113281 -2.375 2.359375 -2.394531 2.546875 -2.4375 C 2.734375 -2.476562 2.878906 -2.554688 2.984375 -2.671875 C 3.097656 -2.773438 3.15625 -2.914062 3.15625 -3.09375 C 3.15625 -3.25 3.125 -3.375 3.0625 -3.46875 C 3.007812 -3.570312 2.925781 -3.65625 2.8125 -3.71875 C 2.695312 -3.769531 2.554688 -3.804688 2.390625 -3.828125 C 2.234375 -3.847656 2.03125 -3.859375 1.78125 -3.859375 L 1.453125 -3.859375 L 1.453125 -2.375 Z M 1.8125 -2.375 "/></g></g><g transform="translate(14.162718, 20.653429)"><g><path d="M 0.09375 0 L 0.09375 -0.40625 L 0.796875 -0.40625 L 0.796875 -3.859375 L 0.09375 -3.859375 L 0.09375 -4.265625 L 3.953125 -4.265625 L 3.953125 -2.625 L 3.4375 -2.625 L 3.4375 -3.859375 L 1.453125 -3.859375 L 1.453125 -2.328125 L 2.515625 -2.328125 L 2.515625 -3.03125 L 2.890625 -3.03125 L 2.890625 -1.265625 L 2.515625 -1.265625 L 2.515625 -2 L 1.453125 -2 L 1.453125 -0.40625 L 3.4375 -0.40625 L 3.4375 -1.625 L 3.953125 -1.625 L 3.953125 0 Z M 0.09375 0 "/></g></g><g transform="translate(18.370116, 20.653429)"><g><path d="M 0.015625 0 L 0.015625 -0.40625 L 0.53125 -0.40625 L 2.03125 -4.265625 L 2.703125 -4.265625 L 4.21875 -0.40625 L 4.703125 -0.40625 L 4.703125 0 L 2.859375 0 L 2.859375 -0.40625 L 3.5 -0.40625 L 3.09375 -1.4375 L 1.453125 -1.4375 L 1.09375 -0.40625 L 1.796875 -0.40625 L 1.796875 0 Z M 1.59375 -1.796875 L 2.953125 -1.796875 L 2.25 -3.71875 Z M 1.59375 -1.796875 "/></g></g><g transform="translate(23.082175, 20.653429)"><g><path d="M 1.046875 0 L 1.046875 -0.40625 L 1.71875 -0.40625 L 1.71875 -3.859375 L 0.625 -3.859375 L 0.625 -2.546875 L 0.09375 -2.546875 L 0.09375 -4.265625 L 3.96875 -4.265625 L 3.96875 -2.546875 L 3.453125 -2.546875 L 3.453125 -3.859375 L 2.390625 -3.859375 L 2.390625 -0.40625 L 3.0625 -0.40625 L 3.0625 0 Z M 1.046875 0 "/></g></g><g transform="translate(27.150649, 20.653429)"><g><path d="M 0.09375 0 L 0.09375 -0.40625 L 0.796875 -0.40625 L 0.796875 -3.859375 L 0.09375 -3.859375 L 0.09375 -4.265625 L 3.953125 -4.265625 L 3.953125 -2.625 L 3.4375 -2.625 L 3.4375 -3.859375 L 1.453125 -3.859375 L 1.453125 -2.328125 L 2.515625 -2.328125 L 2.515625 -3.03125 L 2.890625 -3.03125 L 2.890625 -1.265625 L 2.515625 -1.265625 L 2.515625 -2 L 1.453125 -2 L 1.453125 -0.40625 L 3.4375 -0.40625 L 3.4375 -1.625 L 3.953125 -1.625 L 3.953125 0 Z M 0.09375 0 "/></g></g><g transform="translate(31.358047, 20.653429)"><g/></g><g transform="translate(32.718931, 20.653429)"><g><path d="M 0.015625 0 L 0.015625 -0.40625 L 0.53125 -0.40625 L 2.03125 -4.265625 L 2.703125 -4.265625 L 4.21875 -0.40625 L 4.703125 -0.40625 L 4.703125 0 L 2.859375 0 L 2.859375 -0.40625 L 3.5 -0.40625 L 3.09375 -1.4375 L 1.453125 -1.4375 L 1.09375 -0.40625 L 1.796875 -0.40625 L 1.796875 0 Z M 1.59375 -1.796875 L 2.953125 -1.796875 L 2.25 -3.71875 Z M 1.59375 -1.796875 "/></g></g><g transform="translate(37.43099, 20.653429)"><g><path d="M 0.09375 -0.40625 L 0.78125 -0.40625 L 0.78125 -3.859375 L 0.09375 -3.859375 L 0.09375 -4.265625 L 1.375 -4.265625 C 1.695312 -4.265625 1.988281 -4.242188 2.25 -4.203125 C 2.507812 -4.171875 2.757812 -4.101562 3 -4 C 3.257812 -3.90625 3.472656 -3.78125 3.640625 -3.625 C 3.816406 -3.46875 3.957031 -3.265625 4.0625 -3.015625 C 4.164062 -2.765625 4.21875 -2.476562 4.21875 -2.15625 C 4.21875 -1.863281 4.171875 -1.59375 4.078125 -1.34375 C 3.992188 -1.101562 3.875 -0.898438 3.71875 -0.734375 C 3.5625 -0.566406 3.367188 -0.425781 3.140625 -0.3125 C 2.910156 -0.207031 2.660156 -0.128906 2.390625 -0.078125 C 2.109375 -0.0234375 1.804688 0 1.484375 0 L 0.09375 0 Z M 1.453125 -0.40625 C 1.703125 -0.40625 1.921875 -0.421875 2.109375 -0.453125 C 2.296875 -0.492188 2.476562 -0.550781 2.65625 -0.625 C 2.832031 -0.707031 2.976562 -0.816406 3.09375 -0.953125 C 3.21875 -1.085938 3.316406 -1.253906 3.390625 -1.453125 C 3.453125 -1.648438 3.484375 -1.882812 3.484375 -2.15625 C 3.484375 -2.351562 3.460938 -2.535156 3.421875 -2.703125 C 3.390625 -2.867188 3.335938 -3.007812 3.265625 -3.125 C 3.203125 -3.238281 3.117188 -3.335938 3.015625 -3.421875 C 2.921875 -3.515625 2.816406 -3.585938 2.703125 -3.640625 C 2.585938 -3.691406 2.457031 -3.734375 2.3125 -3.765625 C 2.175781 -3.804688 2.039062 -3.832031 1.90625 -3.84375 C 1.757812 -3.851562 1.609375 -3.859375 1.453125 -3.859375 Z M 1.453125 -0.40625 "/></g></g><g transform="translate(41.876543, 20.653429)"><g><path d="M 0.140625 -0.40625 L 0.765625 -0.40625 L 0.765625 -3.859375 L 0.09375 -3.859375 L 0.09375 -4.265625 L 1.8125 -4.265625 L 2.828125 -1.578125 L 3.765625 -4.265625 L 5.359375 -4.265625 L 5.359375 -3.859375 L 4.703125 -3.859375 L 4.703125 -0.40625 L 5.40625 -0.40625 L 5.40625 0 L 3.4375 0 L 3.4375 -0.40625 L 4.0625 -0.40625 L 4.0625 -3.765625 L 2.953125 -0.734375 C 2.898438 -0.585938 2.832031 -0.515625 2.75 -0.515625 C 2.707031 -0.515625 2.664062 -0.53125 2.625 -0.5625 C 2.582031 -0.601562 2.550781 -0.65625 2.53125 -0.71875 L 1.28125 -3.859375 L 1.28125 -0.40625 L 2 -0.40625 L 2 0 L 0.140625 0 Z M 0.140625 -0.40625 "/></g></g><g transform="translate(47.368274, 20.653429)"><g><path d="M 0.078125 0 L 0.078125 -0.40625 L 0.78125 -0.40625 L 0.78125 -3.859375 L 0.078125 -3.859375 L 0.078125 -4.265625 L 2.09375 -4.265625 L 2.09375 -3.859375 L 1.4375 -3.859375 L 1.4375 -0.40625 L 2.09375 -0.40625 L 2.09375 0 Z M 0.078125 0 "/></g></g><g transform="translate(49.548523, 20.653429)"><g><path d="M 0.09375 0 L 0.09375 -0.40625 L 0.78125 -0.40625 L 0.78125 -3.859375 L 0.09375 -3.859375 L 0.09375 -4.265625 L 1.625 -4.265625 L 3.640625 -0.75 L 3.640625 -3.859375 L 2.953125 -3.859375 L 2.953125 -4.265625 L 4.84375 -4.265625 L 4.84375 -3.859375 L 4.1875 -3.859375 L 4.1875 0 L 3.421875 0 L 1.3125 -3.671875 L 1.3125 -0.40625 L 1.96875 -0.40625 L 1.96875 0 Z M 0.09375 0 "/></g></g></g></svg>