<svg xmlns="http://www.w3.org/2000/svg" xmlns:xlink="http://www.w3.org/1999/xlink" width="80" zoomAndPan="magnify" viewBox="0 0 60 60" height="80" preserveAspectRatio="xMidYMid meet" version="1.0"><defs><g/><clipPath id="7c493f7ddc"><path d="M 3.835938 3.835938 L 56.164062 3.835938 L 56.164062 56.164062 L 3.835938 56.164062 Z M 3.835938 3.835938 " clip-rule="nonzero"/></clipPath><clipPath id="6a41c0107f"><path d="M 30 3.835938 C 15.550781 3.835938 3.835938 15.550781 3.835938 30 C 3.835938 44.449219 15.550781 56.164062 30 56.164062 C 44.449219 56.164062 56.164062 44.449219 56.164062 30 C 56.164062 15.550781 44.449219 3.835938 30 3.835938 Z M 30 3.835938 " clip-rule="nonzero"/></clipPath><clipPath id="68186a663a"><path d="M 18.285156 19.378906 L 41.714844 19.378906 L 41.714844 50.160156 L 18.285156 50.160156 Z M 18.285156 19.378906 " clip-rule="nonzero"/></clipPath><clipPath id="307ec4019c"><path d="M 41.144531 33.753906 L 38.796875 34.6875 L 37.164062 33.925781 L 35.324219 34.703125 L 33.660156 33.925781 L 31.820312 34.703125 L 30.15625 33.925781 L 28.316406 34.703125 L 26.652344 33.925781 L 24.8125 34.703125 L 23.148438 33.925781 L 21.292969 34.710938 L 18.84375 33.734375 C 18.472656 33.117188 18.316406 32.378906 18.460938 31.644531 C 18.769531 30.042969 20.378906 28.929688 22.089844 29.167969 C 22.042969 29.027344 21.613281 27.667969 22.511719 26.488281 C 23.210938 25.574219 24.433594 25.128906 25.636719 25.351562 C 25.667969 24.878906 25.878906 22.347656 28 20.632812 C 28.722656 20.046875 29.46875 19.714844 30.089844 19.527344 C 30.476562 19.40625 30.851562 19.722656 30.804688 20.125 C 30.777344 20.335938 30.789062 20.558594 30.867188 20.777344 C 31.210938 21.738281 32.496094 21.707031 33.433594 22.710938 C 33.839844 23.152344 34.308594 23.921875 34.367188 25.347656 C 35.582031 25.265625 36.722656 25.484375 37.488281 26.488281 C 38.386719 27.667969 37.957031 29.027344 37.910156 29.167969 C 39.621094 28.929688 41.230469 30.042969 41.539062 31.644531 C 41.683594 32.386719 41.527344 33.132812 41.144531 33.753906 Z M 38.78125 35.476562 C 38.238281 35.222656 37.699219 34.96875 37.15625 34.714844 L 35.316406 35.496094 L 33.652344 34.714844 L 31.8125 35.496094 L 30.148438 34.714844 L 28.308594 35.496094 L 26.640625 34.714844 L 24.804688 35.496094 L 23.136719 34.714844 L 21.300781 35.496094 L 19.339844 34.714844 C 20.671875 39.179688 22.007812 43.644531 23.339844 48.109375 C 23.617188 49.035156 24.417969 49.714844 25.378906 49.828125 C 26.664062 49.980469 28.078125 50.082031 29.601562 50.097656 C 31.449219 50.117188 33.144531 50.007812 34.65625 49.828125 C 35.621094 49.714844 36.421875 49.035156 36.699219 48.109375 L 40.695312 34.714844 Z M 38.78125 35.476562 " clip-rule="nonzero"/></clipPath></defs><g clip-path="url(#7c493f7ddc)"><g clip-path="url(#6a41c0107f)"><path fill="#dc9849" d="M 3.835938 3.835938 L 56.164062 3.835938 L 56.164062 56.164062 L 3.835938 56.164062 Z M 3.835938 3.835938 " fill-opacity="1" fill-rule="nonzero"/></g></g><g clip-path="url(#68186a663a)"><g clip-path="url(#307ec4019c)"><path fill="#673f6c" d="M 18.40625 19.5 L 41.59375 19.5 L 41.59375 50.101562 L 18.40625 50.101562 Z M 18.40625 19.5 " fill-opacity="1" fill-rule="nonzero"/></g></g><g fill="#ffffff" fill-opacity="1"><g transform="translate(18.000339, 19.51604)"><g><path d="M 0.125 -0.09375 L -0.296875 -0.609375 L 0.5625 -1.3125 L -2.953125 -5.640625 L -3.8125 -4.9375 L -4.234375 -5.453125 L -1.71875 -7.515625 L -1.296875 -7 L -2.109375 -6.328125 L -0.640625 -4.515625 L 1.609375 -6.34375 L 0.140625 -8.15625 L -0.6875 -7.484375 L -1.109375 -8 L 1.421875 -10.0625 L 1.84375 -9.546875 L 0.96875 -8.84375 L 4.484375 -4.515625 L 5.359375 -5.21875 L 5.78125 -4.703125 L 3.25 -2.640625 L 2.828125 -3.15625 L 3.65625 -3.828125 L 1.984375 -5.890625 L -0.265625 -4.0625 L 1.40625 -2 L 2.21875 -2.671875 L 2.640625 -2.15625 Z M 0.125 -0.09375 "/></g></g></g><g fill="#ffffff" fill-opacity="1"><g transform="translate(23.147406, 15.126345)"><g><path d="M 3.578125 -0.75 C 3.171875 -0.644531 2.773438 -0.613281 2.390625 -0.65625 C 2.003906 -0.707031 1.65625 -0.816406 1.34375 -0.984375 C 1.050781 -1.140625 0.78125 -1.347656 0.53125 -1.609375 C 0.289062 -1.867188 0.0859375 -2.15625 -0.078125 -2.46875 C -0.242188 -2.78125 -0.367188 -3.113281 -0.453125 -3.46875 C -0.628906 -4.1875 -0.625 -4.878906 -0.4375 -5.546875 C -0.320312 -5.898438 -0.171875 -6.21875 0.015625 -6.5 C 0.203125 -6.789062 0.445312 -7.039062 0.75 -7.25 C 1.070312 -7.46875 1.441406 -7.628906 1.859375 -7.734375 C 2.265625 -7.828125 2.65625 -7.851562 3.03125 -7.8125 C 3.414062 -7.769531 3.765625 -7.660156 4.078125 -7.484375 C 4.378906 -7.328125 4.648438 -7.117188 4.890625 -6.859375 C 5.140625 -6.609375 5.34375 -6.328125 5.5 -6.015625 C 5.664062 -5.691406 5.789062 -5.359375 5.875 -5.015625 C 6.050781 -4.285156 6.046875 -3.585938 5.859375 -2.921875 C 5.765625 -2.566406 5.617188 -2.25 5.421875 -1.96875 C 5.234375 -1.6875 4.984375 -1.441406 4.671875 -1.234375 C 4.359375 -1.015625 3.992188 -0.851562 3.578125 -0.75 Z M 3.421875 -1.375 C 3.734375 -1.445312 4 -1.597656 4.21875 -1.828125 C 4.445312 -2.054688 4.609375 -2.320312 4.703125 -2.625 C 4.816406 -2.945312 4.875 -3.285156 4.875 -3.640625 C 4.875 -4.003906 4.828125 -4.367188 4.734375 -4.734375 C 4.660156 -5.023438 4.5625 -5.300781 4.4375 -5.5625 C 4.320312 -5.820312 4.179688 -6.054688 4.015625 -6.265625 C 3.640625 -6.734375 3.226562 -7.015625 2.78125 -7.109375 C 2.53125 -7.160156 2.273438 -7.15625 2.015625 -7.09375 C 1.703125 -7.007812 1.4375 -6.859375 1.21875 -6.640625 C 1 -6.421875 0.832031 -6.15625 0.71875 -5.84375 C 0.625 -5.53125 0.570312 -5.191406 0.5625 -4.828125 C 0.550781 -4.472656 0.59375 -4.113281 0.6875 -3.75 C 0.84375 -3.125 1.085938 -2.609375 1.421875 -2.203125 C 1.609375 -1.960938 1.800781 -1.769531 2 -1.625 C 2.195312 -1.488281 2.425781 -1.40625 2.6875 -1.375 C 2.914062 -1.3125 3.160156 -1.3125 3.421875 -1.375 Z M 3.421875 -1.375 "/></g></g></g><g fill="#ffffff" fill-opacity="1"><g transform="translate(29.338819, 13.195335)"><g><path d="M 0.390625 -0.578125 L 1.359375 -0.34375 L 2.6875 -5.78125 L 1.640625 -6.046875 L 1.796875 -6.671875 L 4.5 -6 L 5.046875 -1.40625 L 7.5625 -5.25 L 10.078125 -4.640625 L 9.921875 -4.015625 L 8.875 -4.265625 L 7.546875 1.171875 L 8.65625 1.4375 L 8.5 2.078125 L 5.40625 1.328125 L 5.5625 0.6875 L 6.546875 0.921875 L 7.84375 -4.375 L 4.921875 -0.015625 C 4.785156 0.203125 4.65625 0.296875 4.53125 0.265625 C 4.457031 0.242188 4.390625 0.191406 4.328125 0.109375 C 4.273438 0.0351562 4.25 -0.0507812 4.25 -0.15625 L 3.5 -5.578125 L 2.171875 -0.140625 L 3.296875 0.125 L 3.140625 0.765625 L 0.234375 0.0625 Z M 0.390625 -0.578125 "/></g></g></g><g fill="#ffffff" fill-opacity="1"><g transform="translate(37.088006, 15.121909)"><g><path d="M 0.125 0.09375 L 0.546875 -0.40625 L 1.390625 0.328125 L 5.03125 -3.921875 L 4.1875 -4.65625 L 4.609375 -5.15625 L 9.34375 -1.109375 L 7.625 0.90625 L 7 0.375 L 8.296875 -1.140625 L 5.859375 -3.21875 L 4.234375 -1.328125 L 5.546875 -0.21875 L 6.296875 -1.09375 L 6.75 -0.6875 L 4.890625 1.484375 L 4.4375 1.078125 L 5.21875 0.171875 L 3.90625 -0.9375 L 2.21875 1.03125 L 4.65625 3.109375 L 5.9375 1.609375 L 6.5625 2.140625 L 4.859375 4.140625 Z M 0.125 0.09375 "/></g></g></g></svg>