<svg xmlns="http://www.w3.org/2000/svg" xmlns:xlink="http://www.w3.org/1999/xlink" width="80" zoomAndPan="magnify" viewBox="0 0 60 60" height="80" preserveAspectRatio="xMidYMid meet" version="1.0"><defs><g/><clipPath id="0498306012"><path d="M 3.835938 3.835938 L 56.164062 3.835938 L 56.164062 56.164062 L 3.835938 56.164062 Z M 3.835938 3.835938 " clip-rule="nonzero"/></clipPath><clipPath id="acd98ed8b7"><path d="M 30 3.835938 C 15.550781 3.835938 3.835938 15.550781 3.835938 30 C 3.835938 44.449219 15.550781 56.164062 30 56.164062 C 44.449219 56.164062 56.164062 44.449219 56.164062 30 C 56.164062 15.550781 44.449219 3.835938 30 3.835938 Z M 30 3.835938 " clip-rule="nonzero"/></clipPath><clipPath id="5d0b2f244e"><path d="M 15 30 L 46.851562 30 L 46.851562 40 L 15 40 Z M 15 30 " clip-rule="nonzero"/></clipPath><clipPath id="7c0697c683"><path d="M 26 15.582031 L 31 15.582031 L 31 21 L 26 21 Z M 26 15.582031 " clip-rule="nonzero"/></clipPath></defs><g clip-path="url(#0498306012)"><g clip-path="url(#acd98ed8b7)"><path fill="#dc9849" d="M 3.835938 3.835938 L 56.164062 3.835938 L 56.164062 56.164062 L 3.835938 56.164062 Z M 3.835938 3.835938 " fill-opacity="1" fill-rule="nonzero"/></g></g><g clip-path="url(#5d0b2f244e)"><path fill="#673f6c" d="M 20.433594 30.664062 C 20.417969 30.671875 15.382812 33.34375 18.230469 36.667969 C 20.734375 39.589844 26.117188 37.578125 30.230469 36.042969 C 31.855469 35.4375 33.492188 34.902344 35.128906 34.324219 C 39.007812 32.953125 45.785156 29.425781 46.785156 35.785156 C 46.085938 31.421875 37.769531 34.824219 35.578125 35.597656 C 33.949219 36.171875 32.320312 36.703125 30.699219 37.304688 C 13.277344 43.8125 13.164062 31.5625 20.433594 30.664062 Z M 20.433594 30.664062 " fill-opacity="1" fill-rule="nonzero"/></g><path fill="#673f6c" d="M 43.523438 31.492188 C 43.515625 31.484375 40.789062 27.910156 36.898438 29.28125 C 35.371094 29.820312 33.34375 31.066406 31.226562 32.367188 C 28.054688 34.320312 23.902344 37.667969 19.882812 35.480469 C 21.953125 36.128906 26.898438 33.445312 30.515625 31.222656 C 32.703125 29.875 34.792969 28.589844 36.449219 28.003906 C 39.242188 27.019531 42.421875 27.976562 43.523438 31.492188 Z M 43.523438 31.492188 " fill-opacity="1" fill-rule="nonzero"/><path fill="#673f6c" d="M 40.347656 26.433594 C 40.335938 26.417969 36.554688 22.699219 32.292969 25.800781 C 30.386719 27.1875 28.816406 28.589844 27.476562 29.78125 C 26.015625 31.085938 23.253906 32.929688 21.484375 32.238281 C 22.683594 31.996094 24.707031 30.441406 26.574219 28.777344 C 27.933594 27.566406 29.527344 26.144531 31.496094 24.710938 C 34.355469 22.628906 38.800781 22.871094 40.347656 26.433594 Z M 40.347656 26.433594 " fill-opacity="1" fill-rule="nonzero"/><path fill="#673f6c" d="M 30.121094 25.765625 C 35.363281 20.96875 27.015625 17.957031 26.636719 23.851562 C 24.222656 16.824219 38.757812 17.75 31.117188 26.675781 Z M 30.121094 25.765625 " fill-opacity="1" fill-rule="nonzero"/><path fill="#673f6c" d="M 44.667969 35.996094 C 44.667969 35.996094 40.953125 43.617188 40.316406 49.332031 C 40.316406 49.332031 28.84375 50.8125 23.109375 49.332031 C 23.109375 49.332031 20.765625 44.300781 20.722656 40.070312 C 20.722656 40.070312 23.082031 47.132812 24.09375 47.769531 C 25.765625 47.953125 35.722656 48.5625 38.90625 47.609375 C 40.023438 43.773438 40.953125 40.96875 44.667969 35.996094 Z M 44.667969 35.996094 " fill-opacity="1" fill-rule="evenodd"/><g clip-path="url(#7c0697c683)"><path fill="#673f6c" d="M 26.722656 16.492188 C 26.523438 16.296875 26.515625 15.976562 26.710938 15.777344 C 26.90625 15.578125 27.226562 15.570312 27.429688 15.765625 C 27.433594 15.769531 29.472656 17.742188 30.039062 19.835938 C 30.113281 20.101562 29.949219 20.382812 29.679688 20.453125 C 29.410156 20.527344 29.128906 20.367188 29.054688 20.09375 C 28.558594 18.273438 26.730469 16.5 26.722656 16.492188 Z M 26.722656 16.492188 " fill-opacity="1" fill-rule="nonzero"/></g><g fill="#ffffff" fill-opacity="1"><g transform="translate(18.066756, 17.294393)"><g><path d="M 0.125 -0.09375 L -0.296875 -0.609375 L 0.5625 -1.3125 L -2.9375 -5.625 L -3.796875 -4.921875 L -4.21875 -5.421875 L -1.71875 -7.46875 L -1.296875 -6.96875 L -2.109375 -6.3125 L -0.640625 -4.5 L 1.59375 -6.3125 L 0.125 -8.125 L -0.703125 -7.453125 L -1.125 -7.953125 L 1.40625 -10 L 1.828125 -9.5 L 0.96875 -8.796875 L 4.46875 -4.484375 L 5.328125 -5.1875 L 5.75 -4.671875 L 3.21875 -2.625 L 2.796875 -3.140625 L 3.625 -3.8125 L 1.953125 -5.859375 L -0.28125 -4.046875 L 1.390625 -2 L 2.203125 -2.65625 L 2.625 -2.140625 Z M 0.125 -0.09375 "/></g></g></g><g fill="#ffffff" fill-opacity="1"><g transform="translate(23.192146, 12.923187)"><g><path d="M 3.5625 -0.75 C 3.15625 -0.644531 2.757812 -0.613281 2.375 -0.65625 C 2 -0.707031 1.65625 -0.816406 1.34375 -0.984375 C 1.050781 -1.140625 0.78125 -1.347656 0.53125 -1.609375 C 0.289062 -1.867188 0.0859375 -2.15625 -0.078125 -2.46875 C -0.234375 -2.769531 -0.359375 -3.097656 -0.453125 -3.453125 C -0.628906 -4.171875 -0.625 -4.863281 -0.4375 -5.53125 C -0.332031 -5.875 -0.1875 -6.1875 0 -6.46875 C 0.195312 -6.757812 0.445312 -7 0.75 -7.1875 C 1.070312 -7.414062 1.441406 -7.582031 1.859375 -7.6875 C 2.253906 -7.78125 2.644531 -7.804688 3.03125 -7.765625 C 3.414062 -7.734375 3.753906 -7.625 4.046875 -7.4375 C 4.359375 -7.28125 4.632812 -7.070312 4.875 -6.8125 C 5.125 -6.5625 5.328125 -6.285156 5.484375 -5.984375 C 5.640625 -5.671875 5.757812 -5.34375 5.84375 -5 C 6.019531 -4.269531 6.015625 -3.570312 5.828125 -2.90625 C 5.734375 -2.550781 5.585938 -2.234375 5.390625 -1.953125 C 5.203125 -1.671875 4.957031 -1.425781 4.65625 -1.21875 C 4.332031 -1 3.96875 -0.84375 3.5625 -0.75 Z M 3.40625 -1.375 C 3.707031 -1.445312 3.972656 -1.59375 4.203125 -1.8125 C 4.429688 -2.03125 4.59375 -2.300781 4.6875 -2.625 C 4.789062 -2.9375 4.84375 -3.269531 4.84375 -3.625 C 4.84375 -3.976562 4.800781 -4.335938 4.71875 -4.703125 C 4.644531 -4.992188 4.546875 -5.265625 4.421875 -5.515625 C 4.304688 -5.773438 4.160156 -6.015625 3.984375 -6.234375 C 3.617188 -6.691406 3.207031 -6.972656 2.75 -7.078125 C 2.519531 -7.128906 2.273438 -7.125 2.015625 -7.0625 C 1.703125 -6.976562 1.429688 -6.828125 1.203125 -6.609375 C 0.984375 -6.390625 0.816406 -6.125 0.703125 -5.8125 C 0.617188 -5.5 0.570312 -5.164062 0.5625 -4.8125 C 0.550781 -4.457031 0.585938 -4.097656 0.671875 -3.734375 C 0.828125 -3.117188 1.078125 -2.601562 1.421875 -2.1875 C 1.597656 -1.957031 1.785156 -1.769531 1.984375 -1.625 C 2.191406 -1.488281 2.421875 -1.398438 2.671875 -1.359375 C 2.898438 -1.296875 3.144531 -1.300781 3.40625 -1.375 Z M 3.40625 -1.375 "/></g></g></g><g fill="#ffffff" fill-opacity="1"><g transform="translate(29.357478, 11.000307)"><g><path d="M 0.390625 -0.578125 L 1.359375 -0.34375 L 2.6875 -5.75 L 1.640625 -6.015625 L 1.796875 -6.640625 L 4.484375 -5.984375 L 5.03125 -1.390625 L 7.53125 -5.234375 L 10.03125 -4.625 L 9.875 -4 L 8.84375 -4.25 L 7.515625 1.15625 L 8.609375 1.421875 L 8.453125 2.0625 L 5.375 1.3125 L 5.53125 0.671875 L 6.515625 0.921875 L 7.796875 -4.34375 L 4.90625 -0.015625 C 4.769531 0.203125 4.632812 0.289062 4.5 0.25 C 4.4375 0.238281 4.375 0.191406 4.3125 0.109375 C 4.257812 0.0351562 4.238281 -0.0507812 4.25 -0.15625 L 3.484375 -5.5625 L 2.15625 -0.15625 L 3.28125 0.125 L 3.125 0.765625 L 0.234375 0.0625 Z M 0.390625 -0.578125 "/></g></g></g><g fill="#ffffff" fill-opacity="1"><g transform="translate(37.074031, 12.918768)"><g><path d="M 0.125 0.09375 L 0.546875 -0.40625 L 1.390625 0.328125 L 5 -3.90625 L 4.15625 -4.640625 L 4.59375 -5.140625 L 9.3125 -1.109375 L 7.59375 0.90625 L 6.953125 0.375 L 8.234375 -1.140625 L 5.8125 -3.21875 L 4.21875 -1.34375 L 5.515625 -0.234375 L 6.234375 -1.078125 L 6.703125 -0.6875 L 4.859375 1.46875 L 4.390625 1.078125 L 5.171875 0.171875 L 3.875 -0.9375 L 2.203125 1.015625 L 4.625 3.09375 L 5.890625 1.609375 L 6.53125 2.140625 L 4.84375 4.125 Z M 0.125 0.09375 "/></g></g></g></svg>