<svg xmlns="http://www.w3.org/2000/svg" xmlns:xlink="http://www.w3.org/1999/xlink" width="80" zoomAndPan="magnify" viewBox="0 0 60 30.000001" height="40" preserveAspectRatio="xMidYMid meet" version="1.0"><defs><g/><clipPath id="537cf42fae"><path d="M 2.710938 10.597656 L 56.128906 10.597656 L 56.128906 27.359375 L 2.710938 27.359375 Z M 2.710938 10.597656 " clip-rule="nonzero"/></clipPath><clipPath id="51038e2c09"><path d="M 4.160156 10.597656 L 54.675781 10.597656 C 55.480469 10.597656 56.128906 11.246094 56.128906 12.046875 L 56.128906 25.910156 C 56.128906 26.710938 55.480469 27.359375 54.675781 27.359375 L 4.160156 27.359375 C 3.359375 27.359375 2.710938 26.710938 2.710938 25.910156 L 2.710938 12.046875 C 2.710938 11.246094 3.359375 10.597656 4.160156 10.597656 Z M 4.160156 10.597656 " clip-rule="nonzero"/></clipPath></defs><g clip-path="url(#537cf42fae)"><g clip-path="url(#51038e2c09)"><path fill="#854ab1" d="M 2.710938 10.597656 L 56.128906 10.597656 L 56.128906 27.359375 L 2.710938 27.359375 Z M 2.710938 10.597656 " fill-opacity="1" fill-rule="nonzero"/></g></g><g fill="#dc9849" fill-opacity="1"><g transform="translate(10.529038, 21.466029)"><g><path d="M 0.171875 0 L 0.171875 -0.71875 L 1.375 -0.71875 L 1.375 -6.8125 L 0.171875 -6.8125 L 0.171875 -7.53125 L 3.703125 -7.53125 L 3.703125 -6.8125 L 2.5625 -6.8125 L 2.5625 -0.71875 L 5.390625 -0.71875 L 5.390625 -3.125 L 6.328125 -3.125 L 6.328125 0 Z M 0.171875 0 "/></g></g><g transform="translate(16.985963, 21.466029)"><g><path d="M 3.984375 0.140625 C 3.523438 0.140625 3.097656 0.0664062 2.703125 -0.078125 C 2.304688 -0.222656 1.96875 -0.425781 1.6875 -0.6875 C 1.414062 -0.9375 1.179688 -1.226562 0.984375 -1.5625 C 0.796875 -1.894531 0.65625 -2.25 0.5625 -2.625 C 0.46875 -3 0.421875 -3.382812 0.421875 -3.78125 C 0.421875 -4.59375 0.609375 -5.328125 0.984375 -5.984375 C 1.179688 -6.328125 1.421875 -6.625 1.703125 -6.875 C 1.984375 -7.125 2.3125 -7.320312 2.6875 -7.46875 C 3.09375 -7.613281 3.523438 -7.6875 3.984375 -7.6875 C 4.429688 -7.6875 4.851562 -7.613281 5.25 -7.46875 C 5.644531 -7.320312 5.984375 -7.117188 6.265625 -6.859375 C 6.535156 -6.609375 6.765625 -6.316406 6.953125 -5.984375 C 7.148438 -5.648438 7.296875 -5.296875 7.390625 -4.921875 C 7.484375 -4.546875 7.53125 -4.164062 7.53125 -3.78125 C 7.53125 -2.957031 7.34375 -2.21875 6.96875 -1.5625 C 6.769531 -1.21875 6.53125 -0.921875 6.25 -0.671875 C 5.96875 -0.429688 5.640625 -0.238281 5.265625 -0.09375 C 4.867188 0.0625 4.441406 0.140625 3.984375 0.140625 Z M 3.984375 -0.5625 C 4.328125 -0.5625 4.644531 -0.648438 4.9375 -0.828125 C 5.238281 -1.003906 5.484375 -1.25 5.671875 -1.5625 C 5.859375 -1.863281 6 -2.203125 6.09375 -2.578125 C 6.195312 -2.960938 6.25 -3.359375 6.25 -3.765625 C 6.25 -4.085938 6.21875 -4.40625 6.15625 -4.71875 C 6.09375 -5.03125 6 -5.316406 5.875 -5.578125 C 5.59375 -6.171875 5.226562 -6.582031 4.78125 -6.8125 C 4.539062 -6.925781 4.273438 -6.984375 3.984375 -6.984375 C 3.628906 -6.984375 3.304688 -6.894531 3.015625 -6.71875 C 2.722656 -6.539062 2.476562 -6.296875 2.28125 -5.984375 C 2.09375 -5.679688 1.945312 -5.335938 1.84375 -4.953125 C 1.75 -4.578125 1.703125 -4.1875 1.703125 -3.78125 C 1.703125 -3.09375 1.828125 -2.484375 2.078125 -1.953125 C 2.210938 -1.660156 2.367188 -1.414062 2.546875 -1.21875 C 2.722656 -1.019531 2.929688 -0.863281 3.171875 -0.75 C 3.421875 -0.625 3.691406 -0.5625 3.984375 -0.5625 Z M 3.984375 -0.5625 "/></g></g><g transform="translate(24.939492, 21.466029)"><g><path d="M 3.9375 0.140625 C 3.488281 0.140625 3.066406 0.0664062 2.671875 -0.078125 C 2.285156 -0.234375 1.953125 -0.441406 1.671875 -0.703125 C 1.398438 -0.960938 1.164062 -1.257812 0.96875 -1.59375 C 0.78125 -1.9375 0.644531 -2.296875 0.5625 -2.671875 C 0.46875 -3.035156 0.421875 -3.410156 0.421875 -3.796875 C 0.421875 -4.304688 0.507812 -4.789062 0.6875 -5.25 C 0.863281 -5.71875 1.113281 -6.132812 1.4375 -6.5 C 1.769531 -6.863281 2.179688 -7.148438 2.671875 -7.359375 C 3.160156 -7.578125 3.695312 -7.6875 4.28125 -7.6875 C 4.820312 -7.6875 5.316406 -7.582031 5.765625 -7.375 C 6.210938 -7.175781 6.5625 -6.90625 6.8125 -6.5625 C 7.050781 -6.21875 7.171875 -5.84375 7.171875 -5.4375 C 7.171875 -5.289062 7.132812 -5.15625 7.0625 -5.03125 C 7 -4.90625 6.898438 -4.800781 6.765625 -4.71875 C 6.628906 -4.644531 6.476562 -4.609375 6.3125 -4.609375 C 6.15625 -4.609375 6.015625 -4.644531 5.890625 -4.71875 C 5.765625 -4.789062 5.660156 -4.882812 5.578125 -5 C 5.503906 -5.125 5.46875 -5.253906 5.46875 -5.390625 C 5.46875 -5.535156 5.5 -5.664062 5.5625 -5.78125 C 5.632812 -5.90625 5.71875 -6.003906 5.8125 -6.078125 C 5.914062 -6.148438 6.015625 -6.1875 6.109375 -6.1875 L 6.125 -6.1875 C 6 -6.375 5.820312 -6.53125 5.59375 -6.65625 C 5.375 -6.789062 5.160156 -6.878906 4.953125 -6.921875 C 4.765625 -6.960938 4.570312 -6.984375 4.375 -6.984375 C 3.84375 -6.984375 3.375 -6.84375 2.96875 -6.5625 C 2.5625 -6.28125 2.253906 -5.898438 2.046875 -5.421875 C 1.835938 -4.941406 1.734375 -4.40625 1.734375 -3.8125 C 1.734375 -3.414062 1.796875 -3.03125 1.921875 -2.65625 C 2.046875 -2.289062 2.21875 -1.96875 2.4375 -1.6875 C 2.664062 -1.394531 2.9375 -1.164062 3.25 -1 C 3.570312 -0.84375 3.910156 -0.765625 4.265625 -0.765625 C 4.515625 -0.765625 4.757812 -0.8125 5 -0.90625 C 5.238281 -1 5.441406 -1.125 5.609375 -1.28125 C 5.773438 -1.425781 5.90625 -1.582031 6 -1.75 C 6.09375 -1.925781 6.140625 -2.085938 6.140625 -2.234375 L 6.140625 -2.9375 L 4.71875 -2.9375 L 4.71875 -3.6875 L 7.984375 -3.6875 L 7.984375 -2.9375 L 7.171875 -2.9375 L 7.171875 0 L 6.5625 0 L 6.3125 -1.0625 C 6.207031 -0.84375 6.0625 -0.648438 5.875 -0.484375 C 5.6875 -0.316406 5.484375 -0.191406 5.265625 -0.109375 C 4.835938 0.0546875 4.394531 0.140625 3.9375 0.140625 Z M 3.9375 0.140625 "/></g></g><g transform="translate(32.943076, 21.466029)"><g><path d="M 0.15625 0 L 0.15625 -0.71875 L 1.375 -0.71875 L 1.375 -6.8125 L 0.15625 -6.8125 L 0.15625 -7.53125 L 3.703125 -7.53125 L 3.703125 -6.8125 L 2.546875 -6.8125 L 2.546875 -0.71875 L 3.703125 -0.71875 L 3.703125 0 Z M 0.15625 0 "/></g></g><g transform="translate(36.792204, 21.466029)"><g><path d="M 0.171875 0 L 0.171875 -0.71875 L 1.375 -0.71875 L 1.375 -6.8125 L 0.171875 -6.8125 L 0.171875 -7.53125 L 2.875 -7.53125 L 6.421875 -1.328125 L 6.421875 -6.8125 L 5.203125 -6.8125 L 5.203125 -7.53125 L 8.53125 -7.53125 L 8.53125 -6.8125 L 7.375 -6.8125 L 7.375 0 L 6.046875 0 L 2.328125 -6.46875 L 2.328125 -0.71875 L 3.46875 -0.71875 L 3.46875 0 Z M 0.171875 0 "/></g></g></g></svg>