<svg xmlns="http://www.w3.org/2000/svg" xmlns:xlink="http://www.w3.org/1999/xlink" width="500" zoomAndPan="magnify" viewBox="0 0 375 374.999991" height="500" preserveAspectRatio="xMidYMid meet" version="1.0"><defs><g/><clipPath id="bde1ce97aa"><path d="M 58.5 58.5 L 316.5 58.5 L 316.5 316.5 L 58.5 316.5 Z M 58.5 58.5 " clip-rule="nonzero"/></clipPath><clipPath id="858441f3f0"><path d="M 187.5 316.5 C 153.058594 316.5 120.628906 303.09375 96.292969 278.707031 C 71.90625 254.371094 58.5 221.941406 58.5 187.5 C 58.5 153.058594 71.90625 120.628906 96.292969 96.292969 C 120.628906 71.90625 153.058594 58.5 187.5 58.5 C 221.941406 58.5 254.371094 71.90625 278.707031 96.292969 C 303.09375 120.679688 316.5 153.058594 316.5 187.5 C 316.5 221.941406 303.09375 254.371094 278.707031 278.707031 C 254.371094 303.09375 221.941406 316.5 187.5 316.5 Z M 187.5 66.234375 C 155.121094 66.234375 124.648438 78.867188 101.757812 101.757812 C 78.867188 124.648438 66.234375 155.121094 66.234375 187.5 C 66.234375 219.878906 78.867188 250.351562 101.757812 273.242188 C 124.648438 296.132812 155.121094 308.765625 187.5 308.765625 C 219.878906 308.765625 250.351562 296.132812 273.242188 273.242188 C 296.132812 250.351562 308.765625 219.878906 308.765625 187.5 C 308.765625 155.121094 296.132812 124.648438 273.242188 101.757812 C 250.351562 78.867188 219.878906 66.234375 187.5 66.234375 Z M 187.5 66.234375 " clip-rule="nonzero"/></clipPath><clipPath id="3bc91b7588"><path d="M 80.125 145.417969 L 294.625 145.417969 L 294.625 236.917969 L 80.125 236.917969 Z M 80.125 145.417969 " clip-rule="nonzero"/></clipPath><clipPath id="b6d27ad2b4"><path d="M 145 135.058594 L 230 135.058594 L 230 247.425781 L 145 247.425781 Z M 145 135.058594 " clip-rule="nonzero"/></clipPath><clipPath id="c89b6ff66d"><path d="M 228.175781 187.535156 L 219.605469 190.945312 L 213.648438 188.15625 L 206.9375 191 L 200.855469 188.15625 L 194.144531 191 L 188.066406 188.15625 L 181.355469 191 L 175.277344 188.15625 L 168.566406 191 L 162.484375 188.15625 L 155.722656 191.023438 L 146.78125 187.464844 C 145.417969 185.210938 144.859375 182.519531 145.378906 179.828125 C 146.507812 173.992188 152.386719 169.925781 158.632812 170.792969 C 158.460938 170.28125 156.890625 165.320312 160.171875 161.015625 C 162.722656 157.671875 167.179688 156.054688 171.574219 156.871094 C 171.691406 155.136719 172.453125 145.898438 180.199219 139.632812 C 182.835938 137.5 185.566406 136.292969 187.824219 135.597656 C 189.234375 135.160156 190.601562 136.320312 190.429688 137.789062 C 190.34375 138.558594 190.386719 139.367188 190.667969 140.164062 C 191.921875 143.679688 196.605469 143.558594 200.027344 147.230469 C 201.515625 148.835938 203.226562 151.648438 203.441406 156.851562 C 207.878906 156.546875 212.03125 157.351562 214.828125 161.015625 C 218.113281 165.320312 216.539062 170.28125 216.367188 170.792969 C 222.617188 169.925781 228.492188 173.992188 229.621094 179.828125 C 230.148438 182.546875 229.570312 185.269531 228.175781 187.535156 Z M 219.558594 193.828125 C 217.578125 192.902344 215.597656 191.972656 213.617188 191.046875 L 206.90625 193.894531 L 200.828125 191.046875 L 194.113281 193.894531 L 188.035156 191.046875 L 181.324219 193.894531 L 175.246094 191.046875 L 168.53125 193.894531 L 162.453125 191.046875 L 155.742188 193.894531 L 148.589844 191.046875 C 153.457031 207.34375 158.320312 223.636719 163.183594 239.933594 C 164.195312 243.320312 167.121094 245.796875 170.632812 246.210938 C 175.328125 246.761719 180.484375 247.132812 186.039062 247.191406 C 192.785156 247.265625 198.976562 246.859375 204.5 246.210938 C 208.011719 245.796875 210.9375 243.320312 211.949219 239.929688 L 226.542969 191.046875 Z M 219.558594 193.828125 " clip-rule="nonzero"/></clipPath></defs><g clip-path="url(#bde1ce97aa)"><g clip-path="url(#858441f3f0)"><path fill="#854ab1" d="M 58.5 58.5 L 316.5 58.5 L 316.5 316.5 L 58.5 316.5 Z M 58.5 58.5 " fill-opacity="1" fill-rule="nonzero"/></g></g><g clip-path="url(#3bc91b7588)"><path fill="#dc9849" d="M 287.988281 215.972656 C 285.269531 225.230469 281.117188 234.011719 275.964844 242.101562 C 271.710938 248.6875 266.875 254.875 261.441406 260.5 C 260.738281 261.269531 259.953125 261.957031 259.207031 262.683594 C 258.445312 263.394531 257.710938 264.132812 256.933594 264.828125 L 254.578125 266.878906 L 253.402344 267.902344 L 252.179688 268.875 L 249.738281 270.824219 C 248.910156 271.453125 248.058594 272.050781 247.222656 272.671875 C 245.566406 273.9375 243.804688 275.050781 242.082031 276.222656 C 241.835938 276.390625 241.574219 276.566406 241.300781 276.75 C 241.019531 276.917969 240.726562 277.09375 240.421875 277.277344 C 239.816406 277.640625 239.160156 278.03125 238.464844 278.449219 C 237.085938 279.3125 235.457031 280.128906 233.699219 281.0625 C 233.257812 281.289062 232.8125 281.539062 232.34375 281.765625 C 231.875 281.984375 231.394531 282.207031 230.90625 282.433594 C 229.929688 282.882812 228.914062 283.351562 227.871094 283.835938 C 225.726562 284.671875 223.492188 285.679688 221.054688 286.460938 C 211.433594 289.949219 199.425781 292.105469 187.375 292.15625 C 175.324219 292.105469 163.316406 289.949219 153.695312 286.460938 C 151.257812 285.679688 149.023438 284.671875 146.878906 283.835938 C 145.835938 283.351562 144.824219 282.882812 143.84375 282.433594 C 143.355469 282.207031 142.875 281.984375 142.40625 281.765625 C 141.9375 281.542969 141.496094 281.289062 141.050781 281.0625 C 139.292969 280.128906 137.664062 279.3125 136.289062 278.449219 C 135.589844 278.03125 134.9375 277.640625 134.328125 277.277344 C 134.023438 277.09375 133.730469 276.917969 133.449219 276.75 C 133.179688 276.566406 132.917969 276.390625 132.667969 276.226562 C 126.121094 271.933594 119.972656 267.0625 114.382812 261.585938 C 108.484375 255.699219 103.332031 249.101562 98.785156 242.105469 C 93.632812 234.015625 89.480469 225.230469 86.761719 215.972656 C 83.929688 206.746094 82.621094 197.058594 82.535156 187.375 C 82.621094 177.691406 83.929688 168.007812 86.761719 158.777344 C 89.480469 149.519531 93.632812 140.738281 98.785156 132.648438 C 103.039062 126.0625 107.875 119.875 113.308594 114.25 C 114.011719 113.480469 114.796875 112.792969 115.542969 112.066406 C 116.304688 111.355469 117.039062 110.617188 117.816406 109.921875 L 120.171875 107.875 L 121.347656 106.847656 L 122.570312 105.875 L 125.011719 103.925781 C 125.839844 103.296875 126.691406 102.699219 127.527344 102.078125 C 129.183594 100.8125 130.945312 99.699219 132.667969 98.527344 C 132.917969 98.359375 133.175781 98.183594 133.449219 98 C 133.730469 97.832031 134.023438 97.65625 134.328125 97.472656 C 134.933594 97.109375 135.589844 96.71875 136.285156 96.300781 C 137.664062 95.4375 139.292969 94.621094 141.050781 93.6875 C 141.496094 93.460938 141.9375 93.210938 142.40625 92.984375 C 142.875 92.765625 143.355469 92.542969 143.84375 92.316406 C 144.820312 91.867188 145.835938 91.398438 146.878906 90.914062 C 149.023438 90.078125 151.257812 89.070312 153.695312 88.292969 C 163.316406 84.800781 175.324219 82.644531 187.375 82.59375 C 199.425781 82.644531 211.433594 84.800781 221.054688 88.292969 C 223.492188 89.070312 225.726562 90.078125 227.871094 90.914062 C 228.914062 91.398438 229.925781 91.867188 230.90625 92.316406 C 231.394531 92.542969 231.875 92.765625 232.34375 92.984375 C 232.8125 93.210938 233.253906 93.460938 233.699219 93.6875 C 235.457031 94.621094 237.085938 95.4375 238.460938 96.300781 C 239.160156 96.71875 239.8125 97.109375 240.421875 97.472656 C 240.726562 97.65625 241.019531 97.832031 241.300781 98 C 241.570312 98.183594 241.832031 98.359375 242.082031 98.523438 C 248.628906 102.816406 254.777344 107.6875 260.367188 113.164062 C 266.265625 119.050781 271.417969 125.648438 275.964844 132.644531 C 281.117188 140.734375 285.269531 149.519531 287.988281 158.777344 C 290.820312 168.007812 292.128906 177.691406 292.214844 187.375 C 292.128906 197.058594 290.820312 206.746094 287.988281 215.972656 Z M 294.625 187.304688 L 294.621094 187.296875 C 294.535156 177.40625 293.203125 167.511719 290.324219 158.078125 C 287.550781 148.613281 283.308594 139.628906 278.019531 131.378906 L 275.476562 127.554688 C 275.476562 127.554688 274.738281 126.527344 273.636719 124.984375 C 272.574219 123.410156 270.953125 121.472656 269.398438 119.476562 C 267.726562 117.585938 266.125 115.628906 264.777344 114.296875 C 263.464844 112.929688 262.59375 112.019531 262.59375 112.019531 C 262.59375 112.019531 262.371094 111.792969 261.972656 111.410156 C 261.578125 111.027344 261.011719 110.476562 260.328125 109.820312 C 259 108.464844 257.070312 106.835938 255.179688 105.164062 C 254.210938 104.355469 253.210938 103.585938 252.289062 102.839844 C 251.824219 102.472656 251.378906 102.117188 250.953125 101.777344 C 250.511719 101.460938 250.097656 101.160156 249.710938 100.886719 C 248.175781 99.777344 247.152344 99.039062 247.152344 99.039062 C 247.152344 99.039062 246.929688 98.855469 246.570312 98.621094 C 246.210938 98.382812 245.734375 98.066406 245.257812 97.746094 C 244.304688 97.109375 243.351562 96.472656 243.351562 96.472656 C 243.097656 96.300781 242.832031 96.117188 242.554688 95.933594 C 242.269531 95.757812 241.96875 95.578125 241.660156 95.390625 C 241.035156 95.015625 240.367188 94.613281 239.65625 94.1875 C 238.246094 93.296875 236.582031 92.460938 234.78125 91.503906 C 234.332031 91.269531 233.875 91.011719 233.398438 90.78125 C 232.917969 90.558594 232.425781 90.328125 231.925781 90.097656 C 230.925781 89.632812 229.890625 89.152344 228.820312 88.65625 C 226.628906 87.796875 224.339844 86.769531 221.847656 85.964844 C 212 82.390625 199.703125 80.171875 187.375 80.125 C 175.046875 80.171875 162.75 82.390625 152.902344 85.964844 C 150.410156 86.769531 148.121094 87.796875 145.929688 88.660156 C 144.859375 89.152344 143.824219 89.632812 142.824219 90.097656 C 142.324219 90.332031 141.832031 90.558594 141.351562 90.78125 C 140.875 91.011719 140.417969 91.269531 139.964844 91.503906 C 138.167969 92.460938 136.5 93.296875 135.09375 94.1875 C 134.382812 94.613281 133.714844 95.015625 133.089844 95.390625 C 132.78125 95.578125 132.480469 95.757812 132.195312 95.933594 C 131.917969 96.121094 131.652344 96.300781 131.394531 96.472656 C 131.394531 96.472656 130.445312 97.109375 129.492188 97.746094 C 129.015625 98.066406 128.539062 98.382812 128.179688 98.625 C 127.820312 98.855469 127.597656 99.039062 127.597656 99.039062 C 127.597656 99.039062 126.574219 99.777344 125.039062 100.886719 C 124.652344 101.160156 124.238281 101.460938 123.796875 101.777344 C 123.375 102.117188 122.925781 102.472656 122.460938 102.839844 C 121.539062 103.585938 120.539062 104.355469 119.570312 105.164062 C 117.679688 106.835938 115.75 108.464844 114.421875 109.820312 C 113.742188 110.476562 113.171875 111.027344 112.777344 111.410156 C 112.378906 111.792969 112.15625 112.019531 112.15625 112.019531 C 112.15625 112.019531 111.285156 112.929688 109.972656 114.296875 C 108.625 115.628906 107.023438 117.585938 105.351562 119.476562 C 103.800781 121.472656 102.171875 123.414062 101.113281 124.984375 C 100.007812 126.527344 99.273438 127.554688 99.273438 127.554688 L 96.730469 131.378906 C 91.441406 139.628906 87.199219 148.613281 84.425781 158.078125 C 81.546875 167.511719 80.214844 177.40625 80.128906 187.296875 L 80.125 187.304688 L 80.125 187.445312 L 80.128906 187.453125 C 80.214844 197.34375 81.546875 207.238281 84.425781 216.671875 C 87.199219 226.136719 91.441406 235.121094 96.730469 243.371094 L 99.273438 247.195312 C 99.273438 247.195312 100.011719 248.222656 101.113281 249.765625 C 102.175781 251.339844 103.800781 253.277344 105.351562 255.273438 C 107.023438 257.164062 108.625 259.121094 109.972656 260.453125 C 111.285156 261.820312 112.15625 262.730469 112.15625 262.730469 C 112.15625 262.730469 112.378906 262.957031 112.777344 263.339844 C 113.171875 263.722656 113.742188 264.273438 114.421875 264.929688 C 115.75 266.285156 117.679688 267.914062 119.570312 269.585938 C 120.539062 270.394531 121.539062 271.167969 122.460938 271.910156 C 122.925781 272.277344 123.375 272.632812 123.796875 272.972656 C 124.238281 273.289062 124.652344 273.589844 125.039062 273.863281 C 126.574219 274.972656 127.597656 275.710938 127.597656 275.710938 C 127.597656 275.710938 127.820312 275.894531 128.179688 276.125 C 128.539062 276.367188 129.015625 276.683594 129.492188 277.003906 C 130.445312 277.640625 131.398438 278.28125 131.398438 278.28125 C 131.652344 278.449219 131.917969 278.632812 132.195312 278.820312 C 132.480469 278.992188 132.78125 279.171875 133.089844 279.359375 C 133.714844 279.734375 134.382812 280.136719 135.09375 280.5625 C 136.503906 281.453125 138.167969 282.289062 139.96875 283.246094 C 140.417969 283.480469 140.875 283.738281 141.351562 283.96875 C 141.832031 284.191406 142.324219 284.421875 142.824219 284.652344 C 143.824219 285.117188 144.859375 285.597656 145.929688 286.09375 C 148.121094 286.953125 150.410156 287.980469 152.902344 288.785156 C 162.75 292.359375 175.046875 294.574219 187.375 294.625 C 199.703125 294.574219 212 292.359375 221.847656 288.785156 C 224.339844 287.980469 226.628906 286.953125 228.820312 286.089844 C 229.890625 285.597656 230.925781 285.117188 231.925781 284.652344 C 232.425781 284.417969 232.917969 284.191406 233.398438 283.96875 C 233.878906 283.738281 234.332031 283.480469 234.785156 283.246094 C 236.582031 282.289062 238.25 281.453125 239.65625 280.5625 C 240.367188 280.136719 241.035156 279.734375 241.660156 279.359375 C 241.96875 279.171875 242.269531 278.992188 242.554688 278.820312 C 242.832031 278.628906 243.101562 278.449219 243.355469 278.28125 C 243.355469 278.28125 244.304688 277.640625 245.257812 277.003906 C 245.734375 276.683594 246.210938 276.367188 246.570312 276.125 C 246.929688 275.894531 247.152344 275.710938 247.152344 275.710938 C 247.152344 275.710938 248.175781 274.972656 249.710938 273.863281 C 250.097656 273.589844 250.511719 273.289062 250.953125 272.972656 C 251.378906 272.632812 251.824219 272.277344 252.289062 271.910156 C 253.210938 271.167969 254.210938 270.394531 255.179688 269.585938 C 257.070312 267.914062 259 266.285156 260.328125 264.929688 C 261.011719 264.273438 261.578125 263.722656 261.972656 263.339844 C 262.371094 262.957031 262.59375 262.730469 262.59375 262.730469 C 262.59375 262.730469 263.464844 261.820312 264.777344 260.453125 C 266.125 259.121094 267.726562 257.164062 269.398438 255.273438 C 270.953125 253.277344 272.578125 251.335938 273.636719 249.765625 C 274.742188 248.222656 275.476562 247.195312 275.476562 247.195312 L 278.019531 243.371094 C 283.308594 235.121094 287.550781 226.136719 290.324219 216.671875 C 293.203125 207.238281 294.535156 197.34375 294.621094 187.453125 L 294.625 187.445312 L 294.625 187.304688 " fill-opacity="1" fill-rule="nonzero"/></g><g fill="#997c50" fill-opacity="1"><g transform="translate(110.232922, 124.470182)"><g><path d="M -1.375 -4.140625 C -1.25 -4.285156 -1.117188 -4.382812 -0.984375 -4.4375 C -0.859375 -4.488281 -0.738281 -4.53125 -0.625 -4.5625 C -0.03125 -4.6875 0.53125 -4.878906 1.0625 -5.140625 C 1.601562 -5.398438 2.085938 -5.765625 2.515625 -6.234375 C 2.929688 -6.679688 3.164062 -7.097656 3.21875 -7.484375 C 3.28125 -7.867188 3.164062 -8.191406 2.875 -8.453125 L 2.84375 -8.484375 C 2.707031 -8.617188 2.5625 -8.707031 2.40625 -8.75 C 2.257812 -8.800781 2.070312 -8.796875 1.84375 -8.734375 C 1.613281 -8.679688 1.34375 -8.566406 1.03125 -8.390625 C 0.71875 -8.222656 0.316406 -7.988281 -0.171875 -7.6875 C -0.734375 -7.300781 -1.265625 -6.972656 -1.765625 -6.703125 C -2.273438 -6.441406 -2.769531 -6.269531 -3.25 -6.1875 C -3.726562 -6.113281 -4.195312 -6.148438 -4.65625 -6.296875 C -5.113281 -6.453125 -5.578125 -6.75 -6.046875 -7.1875 L -6.078125 -7.21875 C -6.523438 -7.613281 -6.847656 -8.054688 -7.046875 -8.546875 C -7.253906 -9.035156 -7.347656 -9.546875 -7.328125 -10.078125 C -7.304688 -10.617188 -7.175781 -11.160156 -6.9375 -11.703125 C -6.695312 -12.253906 -6.347656 -12.773438 -5.890625 -13.265625 C -4.828125 -14.429688 -3.609375 -15.195312 -2.234375 -15.5625 C -2.046875 -15.601562 -1.835938 -15.609375 -1.609375 -15.578125 C -1.390625 -15.554688 -1.171875 -15.445312 -0.953125 -15.25 C -0.671875 -14.988281 -0.523438 -14.675781 -0.515625 -14.3125 C -0.503906 -13.945312 -0.625 -13.625 -0.875 -13.34375 C -1.050781 -13.144531 -1.269531 -13.015625 -1.53125 -12.953125 C -2.601562 -12.660156 -3.441406 -12.179688 -4.046875 -11.515625 C -4.429688 -11.097656 -4.632812 -10.710938 -4.65625 -10.359375 C -4.6875 -10.003906 -4.582031 -9.71875 -4.34375 -9.5 L -4.3125 -9.46875 C -4.144531 -9.320312 -3.976562 -9.222656 -3.8125 -9.171875 C -3.644531 -9.128906 -3.445312 -9.148438 -3.21875 -9.234375 C -2.988281 -9.316406 -2.703125 -9.453125 -2.359375 -9.640625 C -2.023438 -9.828125 -1.613281 -10.082031 -1.125 -10.40625 C -0.550781 -10.757812 -0.0078125 -11.054688 0.5 -11.296875 C 1.019531 -11.535156 1.507812 -11.679688 1.96875 -11.734375 C 2.4375 -11.785156 2.878906 -11.738281 3.296875 -11.59375 C 3.722656 -11.457031 4.148438 -11.195312 4.578125 -10.8125 L 4.609375 -10.78125 C 5.085938 -10.34375 5.429688 -9.863281 5.640625 -9.34375 C 5.847656 -8.820312 5.9375 -8.289062 5.90625 -7.75 C 5.882812 -7.207031 5.738281 -6.65625 5.46875 -6.09375 C 5.207031 -5.539062 4.835938 -5.003906 4.359375 -4.484375 C 3.773438 -3.847656 3.101562 -3.304688 2.34375 -2.859375 C 1.582031 -2.421875 0.753906 -2.101562 -0.140625 -1.90625 C -0.335938 -1.863281 -0.539062 -1.867188 -0.75 -1.921875 C -0.957031 -1.984375 -1.140625 -2.085938 -1.296875 -2.234375 C -1.578125 -2.484375 -1.722656 -2.796875 -1.734375 -3.171875 C -1.742188 -3.546875 -1.625 -3.867188 -1.375 -4.140625 Z M -1.375 -4.140625 "/></g></g></g><g fill="#997c50" fill-opacity="1"><g transform="translate(120.280051, 113.704594)"><g><path d="M 0.40625 -2.03125 L -6.078125 -10.234375 C -6.328125 -10.546875 -6.425781 -10.894531 -6.375 -11.28125 C -6.320312 -11.675781 -6.144531 -12 -5.84375 -12.25 C -5.519531 -12.5 -5.160156 -12.597656 -4.765625 -12.546875 C -4.378906 -12.503906 -4.0625 -12.328125 -3.8125 -12.015625 L -1.421875 -9 L 2.75 -12.296875 L 0.359375 -15.3125 C 0.109375 -15.625 0.00390625 -15.976562 0.046875 -16.375 C 0.0976562 -16.769531 0.285156 -17.09375 0.609375 -17.34375 C 0.921875 -17.582031 1.269531 -17.679688 1.65625 -17.640625 C 2.050781 -17.597656 2.375 -17.421875 2.625 -17.109375 L 9.109375 -8.90625 C 9.359375 -8.59375 9.457031 -8.238281 9.40625 -7.84375 C 9.363281 -7.445312 9.1875 -7.128906 8.875 -6.890625 C 8.550781 -6.640625 8.191406 -6.535156 7.796875 -6.578125 C 7.410156 -6.617188 7.09375 -6.796875 6.84375 -7.109375 L 4.40625 -10.1875 L 0.234375 -6.890625 L 2.671875 -3.8125 C 2.921875 -3.5 3.019531 -3.144531 2.96875 -2.75 C 2.925781 -2.363281 2.742188 -2.046875 2.421875 -1.796875 C 2.117188 -1.546875 1.769531 -1.441406 1.375 -1.484375 C 0.976562 -1.535156 0.65625 -1.71875 0.40625 -2.03125 Z M 0.40625 -2.03125 "/></g></g></g><g fill="#997c50" fill-opacity="1"><g transform="translate(133.752258, 103.417164)"><g><path d="M 0.671875 -2.015625 L -4.296875 -10.984375 C -4.484375 -11.328125 -4.519531 -11.691406 -4.40625 -12.078125 C -4.289062 -12.460938 -4.0625 -12.753906 -3.71875 -12.953125 L 2.640625 -16.484375 C 2.960938 -16.660156 3.289062 -16.695312 3.625 -16.59375 C 3.96875 -16.5 4.226562 -16.289062 4.40625 -15.96875 C 4.582031 -15.644531 4.617188 -15.316406 4.515625 -14.984375 C 4.410156 -14.660156 4.195312 -14.410156 3.875 -14.234375 L -1.25 -11.390625 L 0.046875 -9.0625 L 4.4375 -11.484375 C 4.757812 -11.660156 5.085938 -11.703125 5.421875 -11.609375 C 5.765625 -11.515625 6.023438 -11.304688 6.203125 -10.984375 C 6.378906 -10.671875 6.414062 -10.34375 6.3125 -10 C 6.21875 -9.664062 6.007812 -9.410156 5.6875 -9.234375 L 1.296875 -6.8125 L 2.625 -4.390625 L 7.84375 -7.28125 C 8.15625 -7.457031 8.484375 -7.492188 8.828125 -7.390625 C 9.171875 -7.296875 9.425781 -7.097656 9.59375 -6.796875 C 9.769531 -6.472656 9.804688 -6.144531 9.703125 -5.8125 C 9.609375 -5.476562 9.40625 -5.222656 9.09375 -5.046875 L 2.640625 -1.46875 C 2.296875 -1.269531 1.929688 -1.222656 1.546875 -1.328125 C 1.160156 -1.441406 0.867188 -1.671875 0.671875 -2.015625 Z M 0.671875 -2.015625 "/></g></g></g><g fill="#997c50" fill-opacity="1"><g transform="translate(147.502164, 96.237324)"><g/></g></g><g fill="#997c50" fill-opacity="1"><g transform="translate(155.581819, 93.038077)"><g><path d="M 0.078125 -6.78125 C 0.546875 -6.96875 0.863281 -7.226562 1.03125 -7.5625 C 1.207031 -7.894531 1.203125 -8.382812 1.015625 -9.03125 C 0.992188 -9.101562 0.960938 -9.195312 0.921875 -9.3125 C 0.890625 -9.425781 0.851562 -9.539062 0.8125 -9.65625 C 0.769531 -9.78125 0.726562 -9.890625 0.6875 -9.984375 C 0.65625 -10.085938 0.628906 -10.175781 0.609375 -10.25 C 0.484375 -10.6875 0.425781 -11.09375 0.4375 -11.46875 C 0.457031 -11.851562 0.5625 -12.222656 0.75 -12.578125 C 0.9375 -12.941406 1.222656 -13.296875 1.609375 -13.640625 C 1.992188 -13.992188 2.5 -14.335938 3.125 -14.671875 C 3.175781 -14.710938 3.222656 -14.738281 3.265625 -14.75 C 3.316406 -14.769531 3.363281 -14.785156 3.40625 -14.796875 C 3.6875 -14.878906 3.941406 -14.851562 4.171875 -14.71875 C 4.398438 -14.59375 4.554688 -14.390625 4.640625 -14.109375 C 4.722656 -13.828125 4.707031 -13.59375 4.59375 -13.40625 C 4.488281 -13.226562 4.378906 -13.097656 4.265625 -13.015625 C 3.953125 -12.796875 3.707031 -12.59375 3.53125 -12.40625 C 3.363281 -12.21875 3.242188 -12.023438 3.171875 -11.828125 C 3.097656 -11.640625 3.070312 -11.441406 3.09375 -11.234375 C 3.113281 -11.035156 3.15625 -10.816406 3.21875 -10.578125 C 3.269531 -10.398438 3.34375 -10.179688 3.4375 -9.921875 C 3.539062 -9.671875 3.617188 -9.445312 3.671875 -9.25 C 3.859375 -8.59375 3.84375 -8.035156 3.625 -7.578125 C 3.40625 -7.117188 3.023438 -6.695312 2.484375 -6.3125 C 3.148438 -6.28125 3.695312 -6.125 4.125 -5.84375 C 4.550781 -5.5625 4.859375 -5.09375 5.046875 -4.4375 C 5.109375 -4.238281 5.164062 -4.007812 5.21875 -3.75 C 5.269531 -3.488281 5.320312 -3.265625 5.375 -3.078125 C 5.4375 -2.835938 5.515625 -2.625 5.609375 -2.4375 C 5.703125 -2.257812 5.832031 -2.109375 6 -1.984375 C 6.164062 -1.867188 6.367188 -1.773438 6.609375 -1.703125 C 6.859375 -1.628906 7.171875 -1.585938 7.546875 -1.578125 C 7.679688 -1.566406 7.84375 -1.507812 8.03125 -1.40625 C 8.226562 -1.300781 8.367188 -1.113281 8.453125 -0.84375 C 8.535156 -0.550781 8.507812 -0.285156 8.375 -0.046875 C 8.25 0.179688 8.046875 0.335938 7.765625 0.421875 C 7.722656 0.429688 7.675781 0.4375 7.625 0.4375 C 7.570312 0.445312 7.519531 0.457031 7.46875 0.46875 C 6.757812 0.550781 6.148438 0.554688 5.640625 0.484375 C 5.140625 0.410156 4.710938 0.257812 4.359375 0.03125 C 4.003906 -0.1875 3.71875 -0.460938 3.5 -0.796875 C 3.28125 -1.140625 3.109375 -1.523438 2.984375 -1.953125 C 2.960938 -2.035156 2.9375 -2.128906 2.90625 -2.234375 C 2.882812 -2.347656 2.859375 -2.460938 2.828125 -2.578125 C 2.804688 -2.703125 2.78125 -2.820312 2.75 -2.9375 C 2.71875 -3.050781 2.691406 -3.144531 2.671875 -3.21875 C 2.484375 -3.875 2.226562 -4.300781 1.90625 -4.5 C 1.59375 -4.695312 1.191406 -4.734375 0.703125 -4.609375 C 0.347656 -4.546875 0.046875 -4.582031 -0.203125 -4.71875 C -0.460938 -4.851562 -0.640625 -5.078125 -0.734375 -5.390625 C -0.828125 -5.703125 -0.796875 -5.984375 -0.640625 -6.234375 C -0.492188 -6.484375 -0.253906 -6.664062 0.078125 -6.78125 Z M 0.078125 -6.78125 "/></g></g></g><g fill="#997c50" fill-opacity="1"><g transform="translate(167.193608, 89.803951)"><g><path d="M 1.375 -1.53125 L -0.09375 -11.78125 C -0.144531 -12.175781 -0.0546875 -12.535156 0.171875 -12.859375 C 0.410156 -13.179688 0.726562 -13.367188 1.125 -13.421875 L 8.40625 -14.46875 C 8.757812 -14.519531 9.082031 -14.4375 9.375 -14.21875 C 9.664062 -14 9.835938 -13.707031 9.890625 -13.34375 C 9.941406 -12.988281 9.859375 -12.664062 9.640625 -12.375 C 9.421875 -12.082031 9.132812 -11.910156 8.78125 -11.859375 L 2.9375 -11.015625 L 3.328125 -8.25 L 8.34375 -8.96875 C 8.695312 -9.019531 9.019531 -8.9375 9.3125 -8.71875 C 9.601562 -8.507812 9.773438 -8.222656 9.828125 -7.859375 C 9.878906 -7.492188 9.796875 -7.164062 9.578125 -6.875 C 9.359375 -6.59375 9.070312 -6.425781 8.71875 -6.375 L 3.703125 -5.65625 L 4.234375 -1.9375 C 4.285156 -1.550781 4.191406 -1.195312 3.953125 -0.875 C 3.722656 -0.5625 3.40625 -0.375 3 -0.3125 C 2.601562 -0.257812 2.242188 -0.351562 1.921875 -0.59375 C 1.609375 -0.832031 1.425781 -1.144531 1.375 -1.53125 Z M 1.375 -1.53125 "/></g></g></g><g fill="#997c50" fill-opacity="1"><g transform="translate(182.081446, 87.821437)"><g><path d="M 3.0625 -13.1875 C 3.457031 -13.175781 3.789062 -13.023438 4.0625 -12.734375 C 4.34375 -12.453125 4.476562 -12.113281 4.46875 -11.71875 L 4.359375 -5.625 C 4.335938 -4.519531 4.566406 -3.695312 5.046875 -3.15625 C 5.535156 -2.613281 6.234375 -2.332031 7.140625 -2.3125 C 8.035156 -2.300781 8.734375 -2.550781 9.234375 -3.0625 C 9.742188 -3.570312 10.007812 -4.359375 10.03125 -5.421875 L 10.140625 -11.609375 C 10.148438 -12.003906 10.296875 -12.335938 10.578125 -12.609375 C 10.867188 -12.890625 11.210938 -13.023438 11.609375 -13.015625 C 12.015625 -13.003906 12.351562 -12.851562 12.625 -12.5625 C 12.90625 -12.28125 13.039062 -11.941406 13.03125 -11.546875 L 12.921875 -5.46875 C 12.898438 -4.476562 12.742188 -3.613281 12.453125 -2.875 C 12.171875 -2.132812 11.773438 -1.523438 11.265625 -1.046875 C 10.765625 -0.566406 10.15625 -0.210938 9.4375 0.015625 C 8.726562 0.242188 7.929688 0.351562 7.046875 0.34375 C 5.285156 0.300781 3.90625 -0.210938 2.90625 -1.203125 C 1.914062 -2.191406 1.441406 -3.65625 1.484375 -5.59375 L 1.59375 -11.765625 C 1.601562 -12.160156 1.75 -12.492188 2.03125 -12.765625 C 2.320312 -13.046875 2.664062 -13.1875 3.0625 -13.1875 Z M 3.0625 -13.1875 "/></g></g></g><g fill="#997c50" fill-opacity="1"><g transform="translate(198.89235, 88.341363)"><g><path d="M 1.796875 -0.984375 L 3.78125 -11.234375 C 3.863281 -11.628906 4.066406 -11.9375 4.390625 -12.15625 C 4.722656 -12.382812 5.082031 -12.460938 5.46875 -12.390625 L 5.765625 -12.34375 C 6.109375 -12.269531 6.375 -12.132812 6.5625 -11.9375 C 6.757812 -11.738281 6.929688 -11.492188 7.078125 -11.203125 L 11.171875 -2.96875 L 12.453125 -9.609375 C 12.523438 -9.992188 12.722656 -10.296875 13.046875 -10.515625 C 13.367188 -10.734375 13.722656 -10.804688 14.109375 -10.734375 C 14.492188 -10.660156 14.796875 -10.460938 15.015625 -10.140625 C 15.234375 -9.816406 15.304688 -9.460938 15.234375 -9.078125 L 13.25 1.171875 C 13.164062 1.566406 12.957031 1.875 12.625 2.09375 C 12.300781 2.320312 11.945312 2.398438 11.5625 2.328125 L 11.46875 2.3125 C 11.125 2.238281 10.859375 2.101562 10.671875 1.90625 C 10.484375 1.707031 10.3125 1.46875 10.15625 1.1875 L 5.9375 -7.34375 L 4.59375 -0.4375 C 4.519531 -0.0507812 4.320312 0.25 4 0.46875 C 3.675781 0.6875 3.316406 0.757812 2.921875 0.6875 C 2.535156 0.601562 2.234375 0.398438 2.015625 0.078125 C 1.796875 -0.242188 1.722656 -0.597656 1.796875 -0.984375 Z M 1.796875 -0.984375 "/></g></g></g><g fill="#997c50" fill-opacity="1"><g transform="translate(215.966193, 91.896436)"><g><path d="M 5.65625 -10.34375 C 5.800781 -10.71875 6.054688 -10.984375 6.421875 -11.140625 C 6.785156 -11.296875 7.148438 -11.304688 7.515625 -11.171875 L 10.953125 -9.84375 C 11.921875 -9.476562 12.738281 -8.984375 13.40625 -8.359375 C 14.082031 -7.742188 14.601562 -7.050781 14.96875 -6.28125 C 15.34375 -5.519531 15.546875 -4.707031 15.578125 -3.84375 C 15.609375 -2.976562 15.457031 -2.113281 15.125 -1.25 L 15.125 -1.21875 C 14.789062 -0.351562 14.320312 0.390625 13.71875 1.015625 C 13.113281 1.640625 12.414062 2.113281 11.625 2.4375 C 10.832031 2.757812 9.976562 2.925781 9.0625 2.9375 C 8.15625 2.945312 7.21875 2.769531 6.25 2.40625 L 2.8125 1.078125 C 2.445312 0.941406 2.179688 0.691406 2.015625 0.328125 C 1.847656 -0.0351562 1.835938 -0.40625 1.984375 -0.78125 Z M 7.1875 -0.03125 C 7.738281 0.175781 8.273438 0.28125 8.796875 0.28125 C 9.316406 0.28125 9.796875 0.179688 10.234375 -0.015625 C 10.679688 -0.222656 11.082031 -0.515625 11.4375 -0.890625 C 11.800781 -1.265625 12.085938 -1.722656 12.296875 -2.265625 L 12.3125 -2.296875 C 12.519531 -2.835938 12.613281 -3.367188 12.59375 -3.890625 C 12.582031 -4.421875 12.476562 -4.910156 12.28125 -5.359375 C 12.09375 -5.816406 11.804688 -6.21875 11.421875 -6.5625 C 11.035156 -6.914062 10.566406 -7.195312 10.015625 -7.40625 L 7.9375 -8.203125 L 5.109375 -0.828125 Z M 7.1875 -0.03125 "/></g></g></g><g fill="#997c50" fill-opacity="1"><g transform="translate(232.054671, 98.428749)"><g><path d="M 3.75 -2.21875 C 3.914062 -2.125 4.039062 -2.019531 4.125 -1.90625 C 4.21875 -1.789062 4.28125 -1.679688 4.3125 -1.578125 C 4.570312 -1.015625 4.882812 -0.5 5.25 -0.03125 C 5.613281 0.425781 6.070312 0.816406 6.625 1.140625 C 7.144531 1.441406 7.597656 1.578125 7.984375 1.546875 C 8.378906 1.523438 8.675781 1.347656 8.875 1.015625 L 8.90625 0.984375 C 9 0.816406 9.050781 0.65625 9.0625 0.5 C 9.070312 0.351562 9.023438 0.171875 8.921875 -0.046875 C 8.828125 -0.265625 8.660156 -0.503906 8.421875 -0.765625 C 8.179688 -1.035156 7.863281 -1.378906 7.46875 -1.796875 C 6.976562 -2.265625 6.546875 -2.710938 6.171875 -3.140625 C 5.804688 -3.578125 5.535156 -4.019531 5.359375 -4.46875 C 5.191406 -4.925781 5.128906 -5.394531 5.171875 -5.875 C 5.210938 -6.351562 5.398438 -6.875 5.734375 -7.4375 L 5.75 -7.46875 C 6.050781 -7.976562 6.421875 -8.382812 6.859375 -8.6875 C 7.304688 -9 7.789062 -9.203125 8.3125 -9.296875 C 8.84375 -9.398438 9.394531 -9.390625 9.96875 -9.265625 C 10.550781 -9.148438 11.132812 -8.921875 11.71875 -8.578125 C 13.09375 -7.773438 14.09375 -6.742188 14.71875 -5.484375 C 14.8125 -5.304688 14.863281 -5.101562 14.875 -4.875 C 14.894531 -4.644531 14.832031 -4.40625 14.6875 -4.15625 C 14.5 -3.832031 14.226562 -3.625 13.875 -3.53125 C 13.519531 -3.445312 13.179688 -3.5 12.859375 -3.6875 C 12.628906 -3.832031 12.457031 -4.015625 12.34375 -4.234375 C 11.8125 -5.222656 11.160156 -5.941406 10.390625 -6.390625 C 9.898438 -6.679688 9.476562 -6.800781 9.125 -6.75 C 8.78125 -6.707031 8.53125 -6.546875 8.375 -6.265625 L 8.34375 -6.21875 C 8.238281 -6.03125 8.179688 -5.847656 8.171875 -5.671875 C 8.160156 -5.503906 8.21875 -5.3125 8.34375 -5.09375 C 8.46875 -4.882812 8.660156 -4.632812 8.921875 -4.34375 C 9.179688 -4.050781 9.519531 -3.703125 9.9375 -3.296875 C 10.40625 -2.816406 10.804688 -2.347656 11.140625 -1.890625 C 11.484375 -1.441406 11.726562 -0.992188 11.875 -0.546875 C 12.03125 -0.109375 12.082031 0.332031 12.03125 0.78125 C 11.976562 1.226562 11.8125 1.695312 11.53125 2.1875 L 11.5 2.234375 C 11.175781 2.785156 10.785156 3.21875 10.328125 3.53125 C 9.867188 3.851562 9.367188 4.054688 8.828125 4.140625 C 8.296875 4.222656 7.726562 4.191406 7.125 4.046875 C 6.519531 3.910156 5.910156 3.664062 5.296875 3.3125 C 4.554688 2.875 3.890625 2.332031 3.296875 1.6875 C 2.703125 1.039062 2.21875 0.296875 1.84375 -0.546875 C 1.75 -0.722656 1.707031 -0.914062 1.71875 -1.125 C 1.726562 -1.34375 1.789062 -1.546875 1.90625 -1.734375 C 2.09375 -2.066406 2.363281 -2.28125 2.71875 -2.375 C 3.082031 -2.46875 3.425781 -2.414062 3.75 -2.21875 Z M 3.75 -2.21875 "/></g></g></g><g fill="#997c50" fill-opacity="1"><g transform="translate(244.740894, 106.174663)"><g><path d="M 8.234375 -9.15625 C 8.421875 -9.394531 8.644531 -9.53125 8.90625 -9.5625 C 9.175781 -9.59375 9.425781 -9.515625 9.65625 -9.328125 C 9.6875 -9.304688 9.71875 -9.273438 9.75 -9.234375 C 9.78125 -9.203125 9.816406 -9.164062 9.859375 -9.125 C 10.347656 -8.601562 10.707031 -8.113281 10.9375 -7.65625 C 11.175781 -7.207031 11.3125 -6.769531 11.34375 -6.34375 C 11.375 -5.925781 11.3125 -5.53125 11.15625 -5.15625 C 11.007812 -4.789062 10.796875 -4.425781 10.515625 -4.0625 C 10.472656 -4.007812 10.414062 -3.941406 10.34375 -3.859375 C 10.269531 -3.773438 10.191406 -3.6875 10.109375 -3.59375 C 10.023438 -3.5 9.941406 -3.40625 9.859375 -3.3125 C 9.785156 -3.21875 9.726562 -3.144531 9.6875 -3.09375 C 9.269531 -2.550781 9.078125 -2.09375 9.109375 -1.71875 C 9.140625 -1.351562 9.335938 -1 9.703125 -0.65625 C 9.972656 -0.414062 10.128906 -0.15625 10.171875 0.125 C 10.222656 0.414062 10.144531 0.691406 9.9375 0.953125 C 9.738281 1.210938 9.492188 1.351562 9.203125 1.375 C 8.921875 1.40625 8.625 1.316406 8.3125 1.109375 C 7.90625 0.828125 7.515625 0.71875 7.140625 0.78125 C 6.765625 0.84375 6.367188 1.140625 5.953125 1.671875 C 5.910156 1.734375 5.851562 1.8125 5.78125 1.90625 C 5.71875 2 5.648438 2.097656 5.578125 2.203125 C 5.503906 2.304688 5.4375 2.398438 5.375 2.484375 C 5.3125 2.578125 5.253906 2.65625 5.203125 2.71875 C 4.921875 3.070312 4.617188 3.367188 4.296875 3.609375 C 3.972656 3.847656 3.601562 4 3.1875 4.0625 C 2.769531 4.132812 2.3125 4.109375 1.8125 3.984375 C 1.320312 3.867188 0.765625 3.632812 0.140625 3.28125 C 0.0859375 3.257812 0.0390625 3.234375 0 3.203125 C -0.0390625 3.179688 -0.078125 3.160156 -0.109375 3.140625 C -0.335938 2.953125 -0.46875 2.722656 -0.5 2.453125 C -0.539062 2.191406 -0.46875 1.941406 -0.28125 1.703125 C -0.101562 1.484375 0.0859375 1.359375 0.296875 1.328125 C 0.515625 1.304688 0.695312 1.316406 0.84375 1.359375 C 1.195312 1.492188 1.5 1.578125 1.75 1.609375 C 2.007812 1.640625 2.234375 1.628906 2.421875 1.578125 C 2.617188 1.523438 2.796875 1.425781 2.953125 1.28125 C 3.109375 1.144531 3.265625 0.976562 3.421875 0.78125 C 3.535156 0.632812 3.664062 0.453125 3.8125 0.234375 C 3.957031 0.015625 4.09375 -0.175781 4.21875 -0.34375 C 4.644531 -0.882812 5.109375 -1.203125 5.609375 -1.296875 C 6.109375 -1.398438 6.671875 -1.335938 7.296875 -1.109375 C 6.929688 -1.671875 6.738281 -2.207031 6.71875 -2.71875 C 6.695312 -3.226562 6.894531 -3.753906 7.3125 -4.296875 C 7.4375 -4.453125 7.585938 -4.628906 7.765625 -4.828125 C 7.953125 -5.023438 8.101562 -5.203125 8.21875 -5.359375 C 8.375 -5.554688 8.5 -5.738281 8.59375 -5.90625 C 8.6875 -6.082031 8.734375 -6.273438 8.734375 -6.484375 C 8.742188 -6.691406 8.703125 -6.910156 8.609375 -7.140625 C 8.523438 -7.378906 8.378906 -7.664062 8.171875 -8 C 8.085938 -8.125 8.03125 -8.289062 8 -8.5 C 7.96875 -8.707031 8.046875 -8.925781 8.234375 -9.15625 Z M 8.234375 -9.15625 "/></g></g></g><g fill="#997c50" fill-opacity="1"><g transform="translate(254.221027, 113.924612)"><g/></g></g><g fill="#997c50" fill-opacity="1"><g transform="translate(260.435634, 120.147968)"><g/></g></g><g fill="#997c50" fill-opacity="1"><g transform="translate(113.746857, 272.573574)"><g><path d="M 1.5625 -0.8125 L 10.203125 -5.46875 C 10.503906 -5.625 10.800781 -5.695312 11.09375 -5.6875 C 11.394531 -5.6875 11.6875 -5.578125 11.96875 -5.359375 L 12.078125 -5.265625 C 12.347656 -5.054688 12.523438 -4.804688 12.609375 -4.515625 C 12.703125 -4.234375 12.707031 -3.925781 12.625 -3.59375 L 10.25 5.921875 C 10.175781 6.160156 10.113281 6.316406 10.0625 6.390625 C 9.851562 6.648438 9.582031 6.800781 9.25 6.84375 C 8.925781 6.894531 8.632812 6.820312 8.375 6.625 C 8.132812 6.445312 7.984375 6.234375 7.921875 5.984375 C 7.867188 5.734375 7.878906 5.472656 7.953125 5.203125 L 8.4375 3.328125 L 4.46875 0.25 L 2.703125 1.21875 C 2.460938 1.351562 2.21875 1.410156 1.96875 1.390625 C 1.726562 1.378906 1.507812 1.296875 1.3125 1.140625 C 1.050781 0.941406 0.898438 0.6875 0.859375 0.375 C 0.828125 0.0625 0.910156 -0.226562 1.109375 -0.5 C 1.160156 -0.5625 1.226562 -0.617188 1.3125 -0.671875 C 1.394531 -0.734375 1.476562 -0.78125 1.5625 -0.8125 Z M 6.578125 -0.9375 L 9.0625 1 L 10.125 -2.9375 Z M 6.578125 -0.9375 "/></g></g></g><g fill="#997c50" fill-opacity="1"><g transform="translate(126.116606, 281.859754)"><g><path d="M 6.28125 -8.0625 C 6.457031 -8.363281 6.710938 -8.554688 7.046875 -8.640625 C 7.390625 -8.722656 7.710938 -8.675781 8.015625 -8.5 L 10.9375 -6.796875 C 11.53125 -6.453125 12.007812 -6.0625 12.375 -5.625 C 12.738281 -5.195312 13 -4.738281 13.15625 -4.25 C 13.3125 -3.757812 13.347656 -3.253906 13.265625 -2.734375 C 13.191406 -2.210938 13.007812 -1.703125 12.71875 -1.203125 L 12.703125 -1.171875 C 12.359375 -0.597656 11.957031 -0.15625 11.5 0.15625 C 11.050781 0.46875 10.5625 0.660156 10.03125 0.734375 C 9.507812 0.804688 8.960938 0.773438 8.390625 0.640625 C 7.816406 0.503906 7.253906 0.28125 6.703125 -0.03125 L 5.0625 -1 L 3.921875 0.953125 C 3.753906 1.253906 3.503906 1.445312 3.171875 1.53125 C 2.835938 1.613281 2.519531 1.570312 2.21875 1.40625 C 1.914062 1.226562 1.71875 0.972656 1.625 0.640625 C 1.539062 0.304688 1.582031 -0.0078125 1.75 -0.3125 Z M 6.1875 -2.921875 L 7.90625 -1.921875 C 8.445312 -1.609375 8.945312 -1.503906 9.40625 -1.609375 C 9.875 -1.722656 10.234375 -1.992188 10.484375 -2.421875 L 10.5 -2.4375 C 10.78125 -2.925781 10.835938 -3.382812 10.671875 -3.8125 C 10.515625 -4.25 10.164062 -4.625 9.625 -4.9375 L 7.953125 -5.921875 Z M 6.1875 -2.921875 "/></g></g></g><g fill="#997c50" fill-opacity="1"><g transform="translate(138.161802, 288.681107)"><g><path d="M 5.25 -8.796875 C 5.375 -9.109375 5.597656 -9.328125 5.921875 -9.453125 C 6.242188 -9.578125 6.566406 -9.570312 6.890625 -9.4375 L 10.015625 -8.09375 C 10.648438 -7.820312 11.171875 -7.492188 11.578125 -7.109375 C 11.992188 -6.722656 12.304688 -6.296875 12.515625 -5.828125 C 12.722656 -5.367188 12.820312 -4.878906 12.8125 -4.359375 C 12.8125 -3.835938 12.695312 -3.304688 12.46875 -2.765625 L 12.453125 -2.75 C 12.191406 -2.132812 11.851562 -1.644531 11.4375 -1.28125 C 11.019531 -0.914062 10.554688 -0.660156 10.046875 -0.515625 C 9.535156 -0.367188 8.988281 -0.328125 8.40625 -0.390625 C 7.820312 -0.453125 7.238281 -0.609375 6.65625 -0.859375 L 4.90625 -1.609375 L 4.015625 0.46875 C 3.878906 0.78125 3.648438 1 3.328125 1.125 C 3.015625 1.257812 2.695312 1.257812 2.375 1.125 C 2.050781 0.988281 1.820312 0.753906 1.6875 0.421875 C 1.5625 0.0976562 1.566406 -0.21875 1.703125 -0.53125 Z M 5.78125 -3.65625 L 7.609375 -2.875 C 8.179688 -2.632812 8.691406 -2.597656 9.140625 -2.765625 C 9.585938 -2.929688 9.910156 -3.238281 10.109375 -3.6875 L 10.125 -3.71875 C 10.34375 -4.226562 10.34375 -4.691406 10.125 -5.109375 C 9.90625 -5.523438 9.507812 -5.859375 8.9375 -6.109375 L 7.15625 -6.859375 Z M 5.78125 -3.65625 "/></g></g></g><g fill="#997c50" fill-opacity="1"><g transform="translate(150.948243, 293.936564)"><g><path d="M 4.1875 -9.453125 C 4.28125 -9.773438 4.476562 -10.015625 4.78125 -10.171875 C 5.082031 -10.335938 5.398438 -10.375 5.734375 -10.28125 C 6.066406 -10.1875 6.316406 -9.984375 6.484375 -9.671875 C 6.648438 -9.367188 6.6875 -9.054688 6.59375 -8.734375 L 4.359375 -1.09375 L 8.796875 0.203125 C 9.109375 0.285156 9.335938 0.460938 9.484375 0.734375 C 9.628906 1.015625 9.65625 1.304688 9.5625 1.609375 C 9.476562 1.910156 9.300781 2.132812 9.03125 2.28125 C 8.757812 2.4375 8.46875 2.472656 8.15625 2.390625 L 2.515625 0.734375 C 2.179688 0.640625 1.929688 0.4375 1.765625 0.125 C 1.597656 -0.175781 1.5625 -0.492188 1.65625 -0.828125 Z M 4.1875 -9.453125 "/></g></g></g><g fill="#997c50" fill-opacity="1"><g transform="translate(163.408364, 297.323868)"><g><path d="M 3.375 -9.765625 C 3.4375 -10.109375 3.609375 -10.375 3.890625 -10.5625 C 4.179688 -10.757812 4.5 -10.828125 4.84375 -10.765625 C 5.175781 -10.703125 5.4375 -10.523438 5.625 -10.234375 C 5.820312 -9.953125 5.890625 -9.640625 5.828125 -9.296875 L 4.125 -0.390625 C 4.0625 -0.046875 3.882812 0.21875 3.59375 0.40625 C 3.3125 0.601562 3.003906 0.671875 2.671875 0.609375 C 2.328125 0.546875 2.054688 0.367188 1.859375 0.078125 C 1.671875 -0.203125 1.609375 -0.515625 1.671875 -0.859375 Z M 3.375 -9.765625 "/></g></g></g><g fill="#997c50" fill-opacity="1"><g transform="translate(171.618845, 298.916166)"><g><path d="M 7.75 -10.953125 C 8.601562 -10.878906 9.320312 -10.71875 9.90625 -10.46875 C 10.488281 -10.21875 11.007812 -9.890625 11.46875 -9.484375 C 11.570312 -9.378906 11.664062 -9.238281 11.75 -9.0625 C 11.832031 -8.882812 11.863281 -8.6875 11.84375 -8.46875 C 11.8125 -8.113281 11.671875 -7.832031 11.421875 -7.625 C 11.171875 -7.414062 10.875 -7.320312 10.53125 -7.34375 C 10.351562 -7.363281 10.207031 -7.40625 10.09375 -7.46875 C 9.976562 -7.53125 9.878906 -7.585938 9.796875 -7.640625 C 9.472656 -7.929688 9.128906 -8.160156 8.765625 -8.328125 C 8.398438 -8.503906 7.988281 -8.613281 7.53125 -8.65625 C 7.0625 -8.695312 6.613281 -8.644531 6.1875 -8.5 C 5.769531 -8.351562 5.398438 -8.128906 5.078125 -7.828125 C 4.765625 -7.523438 4.507812 -7.164062 4.3125 -6.75 C 4.113281 -6.34375 3.992188 -5.894531 3.953125 -5.40625 L 3.953125 -5.375 C 3.910156 -4.894531 3.953125 -4.425781 4.078125 -3.96875 C 4.203125 -3.519531 4.394531 -3.125 4.65625 -2.78125 C 4.914062 -2.4375 5.238281 -2.148438 5.625 -1.921875 C 6.007812 -1.703125 6.441406 -1.570312 6.921875 -1.53125 C 7.453125 -1.488281 7.914062 -1.519531 8.3125 -1.625 C 8.71875 -1.738281 9.101562 -1.9375 9.46875 -2.21875 C 9.707031 -2.375 9.96875 -2.441406 10.25 -2.421875 C 10.5625 -2.390625 10.820312 -2.25 11.03125 -2 C 11.238281 -1.757812 11.332031 -1.484375 11.3125 -1.171875 C 11.289062 -0.984375 11.234375 -0.820312 11.140625 -0.6875 C 11.054688 -0.550781 10.953125 -0.429688 10.828125 -0.328125 C 10.285156 0.0976562 9.679688 0.40625 9.015625 0.59375 C 8.359375 0.78125 7.570312 0.832031 6.65625 0.75 C 5.832031 0.6875 5.070312 0.472656 4.375 0.109375 C 3.6875 -0.253906 3.101562 -0.71875 2.625 -1.28125 C 2.15625 -1.851562 1.804688 -2.503906 1.578125 -3.234375 C 1.347656 -3.972656 1.269531 -4.75 1.34375 -5.5625 L 1.34375 -5.59375 C 1.414062 -6.394531 1.625 -7.140625 1.96875 -7.828125 C 2.320312 -8.523438 2.78125 -9.117188 3.34375 -9.609375 C 3.90625 -10.097656 4.5625 -10.460938 5.3125 -10.703125 C 6.070312 -10.941406 6.882812 -11.023438 7.75 -10.953125 Z M 7.75 -10.953125 "/></g></g></g><g fill="#997c50" fill-opacity="1"><g transform="translate(186.619512, 300.00317)"><g><path d="M 0.65625 -1.640625 L 4.15625 -10.8125 C 4.28125 -11.125 4.457031 -11.375 4.6875 -11.5625 C 4.925781 -11.75 5.21875 -11.847656 5.5625 -11.859375 L 5.703125 -11.875 C 6.046875 -11.894531 6.34375 -11.820312 6.59375 -11.65625 C 6.84375 -11.5 7.046875 -11.269531 7.203125 -10.96875 L 11.640625 -2.21875 C 11.734375 -1.976562 11.78125 -1.8125 11.78125 -1.71875 C 11.800781 -1.382812 11.703125 -1.09375 11.484375 -0.84375 C 11.265625 -0.601562 10.988281 -0.472656 10.65625 -0.453125 C 10.363281 -0.441406 10.113281 -0.507812 9.90625 -0.65625 C 9.707031 -0.800781 9.539062 -1 9.40625 -1.25 L 8.5625 -3 L 3.5625 -2.734375 L 2.859375 -0.84375 C 2.765625 -0.582031 2.617188 -0.378906 2.421875 -0.234375 C 2.222656 -0.0859375 1.992188 -0.0078125 1.734375 0 C 1.410156 0.0195312 1.128906 -0.0703125 0.890625 -0.28125 C 0.660156 -0.5 0.535156 -0.773438 0.515625 -1.109375 C 0.515625 -1.191406 0.523438 -1.28125 0.546875 -1.375 C 0.578125 -1.46875 0.613281 -1.554688 0.65625 -1.640625 Z M 4.375 -5 L 7.515625 -5.171875 L 5.75 -8.8125 Z M 4.375 -5 "/></g></g></g><g fill="#997c50" fill-opacity="1"><g transform="translate(202.043138, 298.948537)"><g><path d="M -1.390625 -10.140625 C -1.453125 -10.453125 -1.390625 -10.738281 -1.203125 -11 C -1.023438 -11.269531 -0.785156 -11.4375 -0.484375 -11.5 L 6.734375 -12.8125 C 7.035156 -12.875 7.316406 -12.8125 7.578125 -12.625 C 7.835938 -12.4375 8 -12.1875 8.0625 -11.875 C 8.113281 -11.570312 8.050781 -11.285156 7.875 -11.015625 C 7.695312 -10.753906 7.457031 -10.59375 7.15625 -10.53125 L 4.765625 -10.09375 L 6.203125 -2.3125 C 6.265625 -1.96875 6.195312 -1.65625 6 -1.375 C 5.8125 -1.09375 5.539062 -0.921875 5.1875 -0.859375 C 4.851562 -0.796875 4.546875 -0.859375 4.265625 -1.046875 C 3.984375 -1.242188 3.8125 -1.515625 3.75 -1.859375 L 2.3125 -9.640625 L -0.0625 -9.21875 C -0.363281 -9.15625 -0.644531 -9.21875 -0.90625 -9.40625 C -1.175781 -9.59375 -1.335938 -9.835938 -1.390625 -10.140625 Z M -1.390625 -10.140625 "/></g></g></g><g fill="#997c50" fill-opacity="1"><g transform="translate(215.166166, 296.273267)"><g><path d="M -1.390625 -10.25 C -1.484375 -10.570312 -1.441406 -10.882812 -1.265625 -11.1875 C -1.097656 -11.5 -0.851562 -11.703125 -0.53125 -11.796875 C -0.195312 -11.890625 0.117188 -11.847656 0.421875 -11.671875 C 0.722656 -11.503906 0.921875 -11.257812 1.015625 -10.9375 L 3.515625 -2.203125 C 3.609375 -1.867188 3.570312 -1.550781 3.40625 -1.25 C 3.238281 -0.945312 2.988281 -0.75 2.65625 -0.65625 C 2.332031 -0.5625 2.015625 -0.597656 1.703125 -0.765625 C 1.398438 -0.929688 1.203125 -1.179688 1.109375 -1.515625 Z M -1.390625 -10.25 "/></g></g></g><g fill="#997c50" fill-opacity="1"><g transform="translate(223.266611, 294.0268)"><g><path d="M 1.96875 -13.34375 C 2.789062 -13.675781 3.597656 -13.835938 4.390625 -13.828125 C 5.191406 -13.828125 5.941406 -13.6875 6.640625 -13.40625 C 7.335938 -13.132812 7.957031 -12.726562 8.5 -12.1875 C 9.050781 -11.644531 9.484375 -10.992188 9.796875 -10.234375 L 9.8125 -10.203125 C 10.125 -9.453125 10.273438 -8.691406 10.265625 -7.921875 C 10.253906 -7.148438 10.097656 -6.410156 9.796875 -5.703125 C 9.503906 -5.003906 9.078125 -4.375 8.515625 -3.8125 C 7.953125 -3.25 7.265625 -2.796875 6.453125 -2.453125 C 5.640625 -2.117188 4.832031 -1.953125 4.03125 -1.953125 C 3.226562 -1.953125 2.476562 -2.09375 1.78125 -2.375 C 1.09375 -2.664062 0.476562 -3.082031 -0.0625 -3.625 C -0.613281 -4.164062 -1.046875 -4.8125 -1.359375 -5.5625 L -1.375 -5.578125 C -1.6875 -6.335938 -1.835938 -7.101562 -1.828125 -7.875 C -1.828125 -8.644531 -1.675781 -9.378906 -1.375 -10.078125 C -1.070312 -10.785156 -0.640625 -11.421875 -0.078125 -11.984375 C 0.484375 -12.554688 1.164062 -13.007812 1.96875 -13.34375 Z M 5.578125 -4.59375 C 6.054688 -4.789062 6.457031 -5.054688 6.78125 -5.390625 C 7.101562 -5.722656 7.335938 -6.09375 7.484375 -6.5 C 7.628906 -6.90625 7.695312 -7.335938 7.6875 -7.796875 C 7.6875 -8.265625 7.59375 -8.726562 7.40625 -9.1875 L 7.390625 -9.203125 C 7.203125 -9.660156 6.945312 -10.054688 6.625 -10.390625 C 6.3125 -10.722656 5.945312 -10.976562 5.53125 -11.15625 C 5.113281 -11.34375 4.675781 -11.441406 4.21875 -11.453125 C 3.769531 -11.472656 3.3125 -11.382812 2.84375 -11.1875 C 2.375 -11 1.976562 -10.738281 1.65625 -10.40625 C 1.332031 -10.082031 1.097656 -9.710938 0.953125 -9.296875 C 0.804688 -8.878906 0.734375 -8.441406 0.734375 -7.984375 C 0.742188 -7.523438 0.84375 -7.066406 1.03125 -6.609375 L 1.046875 -6.578125 C 1.234375 -6.140625 1.488281 -5.75 1.8125 -5.40625 C 2.132812 -5.0625 2.492188 -4.800781 2.890625 -4.625 C 3.296875 -4.445312 3.734375 -4.347656 4.203125 -4.328125 C 4.671875 -4.316406 5.128906 -4.40625 5.578125 -4.59375 Z M 5.578125 -4.59375 "/></g></g></g><g fill="#997c50" fill-opacity="1"><g transform="translate(238.791929, 287.336512)"><g><path d="M 0.59375 -1.6875 L -4.0625 -9.46875 C -4.238281 -9.757812 -4.285156 -10.070312 -4.203125 -10.40625 C -4.117188 -10.738281 -3.925781 -10.992188 -3.625 -11.171875 L -3.40625 -11.296875 C -3.144531 -11.453125 -2.894531 -11.523438 -2.65625 -11.515625 C -2.425781 -11.503906 -2.175781 -11.445312 -1.90625 -11.34375 L 5.484375 -8.375 L 2.484375 -13.421875 C 2.304688 -13.710938 2.257812 -14.019531 2.34375 -14.34375 C 2.425781 -14.675781 2.613281 -14.929688 2.90625 -15.109375 C 3.195312 -15.285156 3.507812 -15.332031 3.84375 -15.25 C 4.175781 -15.164062 4.429688 -14.976562 4.609375 -14.6875 L 9.25 -6.90625 C 9.425781 -6.613281 9.472656 -6.300781 9.390625 -5.96875 C 9.304688 -5.632812 9.113281 -5.378906 8.8125 -5.203125 L 8.75 -5.15625 C 8.476562 -5 8.222656 -4.925781 7.984375 -4.9375 C 7.753906 -4.957031 7.507812 -5.015625 7.25 -5.109375 L -0.40625 -8.171875 L 2.71875 -2.953125 C 2.882812 -2.648438 2.925781 -2.335938 2.84375 -2.015625 C 2.769531 -1.691406 2.582031 -1.441406 2.28125 -1.265625 C 1.976562 -1.078125 1.660156 -1.023438 1.328125 -1.109375 C 1.003906 -1.191406 0.757812 -1.382812 0.59375 -1.6875 Z M 0.59375 -1.6875 "/></g></g></g><g fill="#997c50" fill-opacity="1"><g transform="translate(252.257676, 278.966361)"><g><path d="M -0.59375 -3.71875 C -0.476562 -3.820312 -0.359375 -3.890625 -0.234375 -3.921875 C -0.109375 -3.953125 0 -3.972656 0.09375 -3.984375 C 0.625 -4.015625 1.132812 -4.101562 1.625 -4.25 C 2.125 -4.40625 2.585938 -4.65625 3.015625 -5 C 3.429688 -5.320312 3.691406 -5.644531 3.796875 -5.96875 C 3.898438 -6.300781 3.847656 -6.597656 3.640625 -6.859375 L 3.625 -6.875 C 3.519531 -7.007812 3.398438 -7.109375 3.265625 -7.171875 C 3.140625 -7.234375 2.976562 -7.253906 2.78125 -7.234375 C 2.582031 -7.210938 2.332031 -7.148438 2.03125 -7.046875 C 1.738281 -6.953125 1.363281 -6.800781 0.90625 -6.59375 C 0.375 -6.34375 -0.125 -6.140625 -0.59375 -5.984375 C -1.0625 -5.828125 -1.503906 -5.75 -1.921875 -5.75 C -2.335938 -5.757812 -2.726562 -5.859375 -3.09375 -6.046875 C -3.46875 -6.234375 -3.832031 -6.546875 -4.1875 -6.984375 L -4.203125 -7.015625 C -4.523438 -7.421875 -4.738281 -7.847656 -4.84375 -8.296875 C -4.957031 -8.753906 -4.96875 -9.207031 -4.875 -9.65625 C -4.789062 -10.113281 -4.609375 -10.550781 -4.328125 -10.96875 C -4.054688 -11.394531 -3.691406 -11.796875 -3.234375 -12.171875 C -2.148438 -13.023438 -0.992188 -13.507812 0.234375 -13.625 C 0.398438 -13.632812 0.578125 -13.613281 0.765625 -13.5625 C 0.953125 -13.507812 1.125 -13.382812 1.28125 -13.1875 C 1.476562 -12.9375 1.554688 -12.648438 1.515625 -12.328125 C 1.484375 -12.015625 1.335938 -11.753906 1.078125 -11.546875 C 0.898438 -11.410156 0.695312 -11.332031 0.46875 -11.3125 C -0.5 -11.195312 -1.28125 -10.90625 -1.875 -10.4375 C -2.257812 -10.125 -2.488281 -9.816406 -2.5625 -9.515625 C -2.632812 -9.210938 -2.582031 -8.953125 -2.40625 -8.734375 L -2.390625 -8.703125 C -2.265625 -8.546875 -2.132812 -8.4375 -2 -8.375 C -1.875 -8.320312 -1.703125 -8.3125 -1.484375 -8.34375 C -1.265625 -8.382812 -1.003906 -8.460938 -0.703125 -8.578125 C -0.398438 -8.703125 -0.015625 -8.863281 0.453125 -9.0625 C 0.992188 -9.300781 1.503906 -9.484375 1.984375 -9.609375 C 2.460938 -9.742188 2.90625 -9.800781 3.3125 -9.78125 C 3.71875 -9.757812 4.09375 -9.65625 4.4375 -9.46875 C 4.78125 -9.289062 5.101562 -9.007812 5.40625 -8.625 L 5.4375 -8.59375 C 5.78125 -8.144531 6.007812 -7.6875 6.125 -7.21875 C 6.238281 -6.75 6.242188 -6.285156 6.140625 -5.828125 C 6.035156 -5.367188 5.828125 -4.914062 5.515625 -4.46875 C 5.210938 -4.03125 4.820312 -3.617188 4.34375 -3.234375 C 3.757812 -2.773438 3.113281 -2.40625 2.40625 -2.125 C 1.695312 -1.851562 0.941406 -1.691406 0.140625 -1.640625 C -0.0234375 -1.628906 -0.191406 -1.664062 -0.359375 -1.75 C -0.535156 -1.832031 -0.679688 -1.945312 -0.796875 -2.09375 C -1.003906 -2.363281 -1.085938 -2.648438 -1.046875 -2.953125 C -1.015625 -3.253906 -0.863281 -3.507812 -0.59375 -3.71875 Z M -0.59375 -3.71875 "/></g></g></g><g clip-path="url(#b6d27ad2b4)"><g clip-path="url(#c89b6ff66d)"><path fill="#673f6c" d="M 145.1875 135.503906 L 229.8125 135.503906 L 229.8125 247.199219 L 145.1875 247.199219 Z M 145.1875 135.503906 " fill-opacity="1" fill-rule="nonzero"/></g></g></svg>