<svg xmlns="http://www.w3.org/2000/svg" xmlns:xlink="http://www.w3.org/1999/xlink" width="500" zoomAndPan="magnify" viewBox="0 0 375 374.999991" height="500" preserveAspectRatio="xMidYMid meet" version="1.0"><defs><filter x="0%" y="0%" width="100%" height="100%" id="8e9f9be529"><feColorMatrix values="0 0 0 0 1 0 0 0 0 1 0 0 0 0 1 0 0 0 1 0" color-interpolation-filters="sRGB"/></filter><g/><mask id="56e83409f4"><g filter="url(#8e9f9be529)"><rect x="-37.5" width="450" fill="#000000" y="-37.499999" height="449.999989" fill-opacity="0.93"/></g></mask><clipPath id="52e15b8e40"><path d="M 7.859375 7.859375 L 229.140625 7.859375 L 229.140625 229.140625 L 7.859375 229.140625 Z M 7.859375 7.859375 " clip-rule="nonzero"/></clipPath><clipPath id="ccd4badef0"><path d="M 118.5 7.859375 C 57.394531 7.859375 7.859375 57.394531 7.859375 118.5 C 7.859375 179.605469 57.394531 229.140625 118.5 229.140625 C 179.605469 229.140625 229.140625 179.605469 229.140625 118.5 C 229.140625 57.394531 179.605469 7.859375 118.5 7.859375 Z M 118.5 7.859375 " clip-rule="nonzero"/></clipPath><clipPath id="f144eb5db7"><path d="M 7.859375 7.859375 L 229.109375 7.859375 L 229.109375 229.109375 L 7.859375 229.109375 Z M 7.859375 7.859375 " clip-rule="nonzero"/></clipPath><clipPath id="49d4c9ab4f"><path d="M 118.484375 7.859375 C 57.390625 7.859375 7.859375 57.390625 7.859375 118.484375 C 7.859375 179.582031 57.390625 229.109375 118.484375 229.109375 C 179.582031 229.109375 229.109375 179.582031 229.109375 118.484375 C 229.109375 57.390625 179.582031 7.859375 118.484375 7.859375 Z M 118.484375 7.859375 " clip-rule="nonzero"/></clipPath><clipPath id="227fb234a4"><rect x="0" width="237" y="0" height="237"/></clipPath><mask id="19c5ca58a2"><g filter="url(#8e9f9be529)"><rect x="-37.5" width="450" fill="#000000" y="-37.499999" height="449.999989" fill-opacity="0.93"/></g></mask><clipPath id="c1ab5a9947"><path d="M 0.742188 0.742188 L 208.257812 0.742188 L 208.257812 208.257812 L 0.742188 208.257812 Z M 0.742188 0.742188 " clip-rule="nonzero"/></clipPath><clipPath id="6c45030a02"><path d="M 104.5 0.742188 C 47.195312 0.742188 0.742188 47.195312 0.742188 104.5 C 0.742188 161.804688 47.195312 208.257812 104.5 208.257812 C 161.804688 208.257812 208.257812 161.804688 208.257812 104.5 C 208.257812 47.195312 161.804688 0.742188 104.5 0.742188 Z M 104.5 0.742188 " clip-rule="nonzero"/></clipPath><clipPath id="f90237b584"><rect x="0" width="209" y="0" height="209"/></clipPath><clipPath id="b430a55e26"><path d="M 135 178 L 250.28125 178 L 250.28125 210 L 135 210 Z M 135 178 " clip-rule="nonzero"/></clipPath><clipPath id="16d1c8dcfd"><path d="M 175 122.027344 L 188 122.027344 L 188 141 L 175 141 Z M 175 122.027344 " clip-rule="nonzero"/></clipPath></defs><g mask="url(#56e83409f4)"><g transform="matrix(1, 0, 0, 1, 69, 69)"><g clip-path="url(#227fb234a4)"><g clip-path="url(#52e15b8e40)"><g clip-path="url(#ccd4badef0)"><path fill="#ffffff" d="M 7.859375 7.859375 L 229.140625 7.859375 L 229.140625 229.140625 L 7.859375 229.140625 Z M 7.859375 7.859375 " fill-opacity="1" fill-rule="nonzero"/></g></g><g clip-path="url(#f144eb5db7)"><g clip-path="url(#49d4c9ab4f)"><path fill="#673f6c" d="M 112.539062 9.519531 C 111.066406 9.597656 109.59375 9.707031 108.128906 9.84375 L 107.847656 6.859375 C 109.355469 6.71875 110.863281 6.605469 112.375 6.523438 Z M 106.660156 9.992188 C 105.179688 10.152344 103.707031 10.34375 102.238281 10.5625 L 101.796875 7.59375 C 103.304688 7.371094 104.820312 7.175781 106.339844 7.011719 Z M 100.777344 10.789062 C 99.324219 11.027344 97.875 11.292969 96.433594 11.589844 L 95.828125 8.652344 C 97.3125 8.347656 98.800781 8.074219 100.292969 7.828125 Z M 94.976562 11.898438 C 93.527344 12.21875 92.085938 12.566406 90.652344 12.941406 L 89.890625 10.039062 C 91.363281 9.652344 92.84375 9.296875 94.332031 8.96875 Z M 89.226562 13.328125 C 87.800781 13.722656 86.386719 14.148438 84.984375 14.597656 L 84.0625 11.746094 C 85.507812 11.277344 86.960938 10.84375 88.421875 10.4375 Z M 83.574219 15.066406 C 82.167969 15.539062 80.777344 16.039062 79.394531 16.570312 L 78.320312 13.769531 C 79.742188 13.226562 81.171875 12.707031 82.613281 12.222656 Z M 78.019531 17.109375 C 76.644531 17.65625 75.285156 18.234375 73.933594 18.839844 L 72.707031 16.101562 C 74.09375 15.480469 75.496094 14.886719 76.90625 14.324219 Z M 72.585938 19.453125 C 71.242188 20.078125 69.914062 20.726562 68.597656 21.40625 L 67.226562 18.738281 C 68.578125 18.042969 69.941406 17.375 71.320312 16.734375 Z M 67.289062 22.089844 C 65.984375 22.785156 64.691406 23.507812 63.414062 24.257812 L 61.894531 21.667969 C 63.210938 20.898438 64.539062 20.15625 65.882812 19.441406 Z M 62.140625 25.015625 C 60.875 25.777344 59.625 26.570312 58.390625 27.382812 L 56.734375 24.882812 C 58.003906 24.042969 59.289062 23.230469 60.589844 22.445312 Z M 57.164062 28.207031 C 55.9375 29.042969 54.730469 29.898438 53.539062 30.78125 L 51.753906 28.371094 C 52.976562 27.464844 54.214844 26.585938 55.472656 25.726562 Z M 52.359375 31.671875 C 51.183594 32.570312 50.023438 33.488281 48.886719 34.433594 L 46.972656 32.125 C 48.140625 31.152344 49.332031 30.207031 50.539062 29.285156 Z M 47.753906 35.386719 C 46.625 36.347656 45.519531 37.328125 44.429688 38.332031 L 42.394531 36.132812 C 43.511719 35.097656 44.648438 34.089844 45.808594 33.101562 Z M 43.351562 39.347656 C 42.277344 40.363281 41.226562 41.40625 40.195312 42.46875 L 38.042969 40.378906 C 39.101562 39.285156 40.183594 38.21875 41.285156 37.171875 Z M 39.171875 43.535156 C 38.152344 44.613281 37.160156 45.707031 36.1875 46.824219 L 33.925781 44.851562 C 34.925781 43.707031 35.945312 42.582031 36.992188 41.476562 Z M 35.222656 47.945312 C 34.265625 49.074219 33.332031 50.222656 32.421875 51.386719 L 30.054688 49.542969 C 30.992188 48.34375 31.949219 47.164062 32.933594 46.003906 Z M 31.515625 52.5625 C 30.621094 53.742188 29.75 54.9375 28.902344 56.152344 L 26.441406 54.4375 C 27.3125 53.1875 28.207031 51.957031 29.128906 50.746094 Z M 28.066406 57.375 C 27.234375 58.597656 26.433594 59.839844 25.652344 61.09375 L 23.101562 59.515625 C 23.902344 58.222656 24.730469 56.949219 25.582031 55.691406 Z M 24.882812 62.359375 C 24.117188 63.628906 23.382812 64.914062 22.671875 66.214844 L 20.039062 64.773438 C 20.769531 63.4375 21.527344 62.117188 22.3125 60.8125 Z M 21.972656 67.515625 C 21.28125 68.820312 20.613281 70.140625 19.976562 71.476562 L 17.269531 70.179688 C 17.925781 68.8125 18.609375 67.453125 19.320312 66.113281 Z M 19.347656 72.816406 C 18.726562 74.160156 18.132812 75.519531 17.570312 76.886719 L 14.796875 75.742188 C 15.375 74.335938 15.984375 72.941406 16.625 71.558594 Z M 17.015625 78.253906 C 16.46875 79.628906 15.953125 81.015625 15.464844 82.410156 L 12.632812 81.421875 C 13.136719 79.984375 13.667969 78.5625 14.226562 77.148438 Z M 14.984375 83.8125 C 14.511719 85.21875 14.074219 86.628906 13.660156 88.050781 L 10.78125 87.214844 C 11.203125 85.753906 11.65625 84.304688 12.140625 82.863281 Z M 13.261719 89.46875 C 12.867188 90.898438 12.503906 92.332031 12.167969 93.777344 L 9.246094 93.097656 C 9.589844 91.617188 9.964844 90.140625 10.367188 88.675781 Z M 11.84375 95.226562 C 11.53125 96.667969 11.246094 98.117188 10.992188 99.570312 L 8.039062 99.054688 C 8.300781 97.558594 8.589844 96.070312 8.914062 94.589844 Z M 10.75 101.027344 C 10.515625 102.492188 10.308594 103.960938 10.132812 105.433594 L 7.15625 105.078125 C 7.335938 103.566406 7.546875 102.054688 7.789062 100.550781 Z M 9.964844 106.914062 C 9.8125 108.378906 9.6875 109.84375 9.59375 111.316406 L 6.597656 111.121094 C 6.695312 109.609375 6.824219 108.101562 6.984375 106.601562 Z M 9.507812 112.792969 C 9.429688 114.273438 9.382812 115.757812 9.367188 117.246094 L 6.367188 117.214844 C 6.386719 115.6875 6.433594 114.160156 6.511719 112.636719 Z M 9.359375 118.742188 C 9.363281 120.234375 9.398438 121.722656 9.460938 123.210938 L 6.464844 123.335938 C 6.398438 121.8125 6.363281 120.28125 6.359375 118.75 Z M 9.535156 124.6875 C 9.617188 126.160156 9.726562 127.628906 9.871094 129.09375 L 6.882812 129.378906 C 6.738281 127.875 6.625 126.367188 6.539062 124.855469 Z M 10.023438 130.566406 C 10.183594 132.042969 10.375 133.515625 10.597656 134.984375 L 7.632812 135.433594 C 7.40625 133.925781 7.207031 132.414062 7.039062 130.894531 Z M 10.832031 136.445312 C 11.070312 137.898438 11.34375 139.347656 11.640625 140.789062 L 8.703125 141.398438 C 8.398438 139.917969 8.121094 138.429688 7.871094 136.933594 Z M 11.953125 142.246094 C 12.277344 143.691406 12.625 145.132812 13.007812 146.566406 L 10.109375 147.335938 C 9.714844 145.863281 9.355469 144.382812 9.027344 142.894531 Z M 13.394531 147.988281 C 13.792969 149.414062 14.222656 150.828125 14.679688 152.230469 L 11.824219 153.160156 C 11.355469 151.714844 10.917969 150.261719 10.507812 148.800781 Z M 15.144531 153.640625 C 15.621094 155.042969 16.128906 156.433594 16.660156 157.8125 L 13.863281 158.894531 C 13.316406 157.476562 12.796875 156.046875 12.304688 154.605469 Z M 17.203125 159.1875 C 17.753906 160.558594 18.335938 161.921875 18.945312 163.269531 L 16.210938 164.503906 C 15.585938 163.117188 14.988281 161.71875 14.421875 160.308594 Z M 19.5625 164.617188 C 20.1875 165.957031 20.839844 167.285156 21.523438 168.597656 L 18.859375 169.976562 C 18.160156 168.628906 17.488281 167.265625 16.84375 165.886719 Z M 22.210938 169.90625 C 22.910156 171.210938 23.632812 172.5 24.386719 173.777344 L 21.800781 175.300781 C 21.027344 173.988281 20.28125 172.660156 19.566406 171.320312 Z M 25.144531 175.050781 C 25.914062 176.3125 26.707031 177.5625 27.523438 178.792969 L 25.027344 180.453125 C 24.183594 179.1875 23.371094 177.90625 22.582031 176.605469 Z M 28.351562 180.019531 C 29.1875 181.242188 30.046875 182.445312 30.933594 183.636719 L 28.527344 185.425781 C 27.617188 184.207031 26.734375 182.96875 25.875 181.714844 Z M 31.824219 184.816406 C 32.726562 185.988281 33.648438 187.144531 34.597656 188.28125 L 32.292969 190.203125 C 31.320312 189.035156 30.371094 187.847656 29.445312 186.640625 Z M 35.550781 189.414062 C 36.515625 190.539062 37.5 191.640625 38.507812 192.726562 L 36.308594 194.769531 C 35.273438 193.652344 34.261719 192.519531 33.273438 191.363281 Z M 39.519531 193.804688 C 40.542969 194.875 41.585938 195.925781 42.648438 196.953125 L 40.566406 199.109375 C 39.472656 198.054688 38.402344 196.976562 37.351562 195.875 Z M 43.722656 197.976562 C 44.800781 198.988281 45.898438 199.980469 47.015625 200.953125 L 45.050781 203.21875 C 43.902344 202.222656 42.773438 201.203125 41.664062 200.160156 Z M 48.140625 201.914062 C 49.269531 202.867188 50.421875 203.800781 51.589844 204.707031 L 49.75 207.078125 C 48.546875 206.144531 47.367188 205.1875 46.207031 204.207031 Z M 52.761719 205.609375 C 53.945312 206.5 55.144531 207.367188 56.359375 208.214844 L 54.652344 210.675781 C 53.402344 209.8125 52.167969 208.917969 50.953125 208 Z M 57.582031 209.050781 C 58.808594 209.875 60.050781 210.675781 61.3125 211.453125 L 59.738281 214.003906 C 58.445312 213.207031 57.167969 212.386719 55.90625 211.535156 Z M 62.574219 212.21875 C 63.847656 212.980469 65.136719 213.714844 66.4375 214.421875 L 65.003906 217.058594 C 63.667969 216.332031 62.34375 215.578125 61.035156 214.792969 Z M 67.738281 215.117188 C 69.046875 215.808594 70.371094 216.46875 71.703125 217.105469 L 70.417969 219.8125 C 69.046875 219.160156 67.6875 218.480469 66.34375 217.773438 Z M 73.046875 217.730469 C 74.394531 218.347656 75.75 218.9375 77.121094 219.5 L 75.984375 222.273438 C 74.578125 221.699219 73.179688 221.089844 71.796875 220.457031 Z M 78.492188 220.050781 C 79.867188 220.59375 81.253906 221.105469 82.652344 221.589844 L 81.667969 224.425781 C 80.230469 223.925781 78.804688 223.398438 77.390625 222.839844 Z M 84.054688 222.070312 C 85.460938 222.535156 86.871094 222.972656 88.292969 223.382812 L 87.464844 226.265625 C 86.003906 225.84375 84.554688 225.394531 83.109375 224.914062 Z M 89.714844 223.777344 C 91.144531 224.167969 92.582031 224.527344 94.023438 224.859375 L 93.355469 227.78125 C 91.871094 227.441406 90.394531 227.074219 88.925781 226.671875 Z M 95.476562 225.179688 C 96.917969 225.492188 98.367188 225.769531 99.820312 226.019531 L 99.3125 228.976562 C 97.816406 228.71875 96.328125 228.433594 94.847656 228.113281 Z M 101.277344 226.261719 C 102.742188 226.496094 104.214844 226.695312 105.6875 226.867188 L 105.339844 229.847656 C 103.824219 229.671875 102.3125 229.464844 100.808594 229.226562 Z M 107.171875 227.03125 C 108.632812 227.183594 110.097656 227.304688 111.570312 227.394531 L 111.382812 230.390625 C 109.871094 230.292969 108.367188 230.171875 106.863281 230.015625 Z M 113.046875 227.476562 C 114.527344 227.550781 116.015625 227.59375 117.503906 227.605469 L 117.476562 230.605469 C 115.949219 230.59375 114.421875 230.546875 112.898438 230.472656 Z M 119 227.609375 C 120.492188 227.601562 121.980469 227.566406 123.464844 227.5 L 123.597656 230.496094 C 122.074219 230.566406 120.546875 230.601562 119.015625 230.609375 Z M 124.941406 227.421875 C 126.414062 227.335938 127.878906 227.222656 129.34375 227.078125 L 129.636719 230.0625 C 128.132812 230.210938 126.628906 230.328125 125.117188 230.417969 Z M 130.820312 226.921875 C 132.296875 226.753906 133.769531 226.558594 135.234375 226.332031 L 135.691406 229.296875 C 134.1875 229.53125 132.675781 229.730469 131.15625 229.902344 Z M 136.695312 226.097656 C 138.148438 225.855469 139.597656 225.582031 141.039062 225.277344 L 141.65625 228.214844 C 140.175781 228.523438 138.6875 228.804688 137.191406 229.058594 Z M 142.496094 224.960938 C 143.941406 224.636719 145.378906 224.28125 146.8125 223.898438 L 147.585938 226.796875 C 146.117188 227.191406 144.636719 227.554688 143.152344 227.886719 Z M 148.234375 223.507812 C 149.65625 223.105469 151.070312 222.675781 152.472656 222.214844 L 153.40625 225.066406 C 151.964844 225.539062 150.511719 225.980469 149.050781 226.394531 Z M 153.882812 221.742188 C 155.28125 221.261719 156.671875 220.753906 158.050781 220.21875 L 159.136719 223.011719 C 157.722656 223.566406 156.292969 224.085938 154.855469 224.582031 Z M 159.421875 219.671875 C 160.792969 219.117188 162.15625 218.535156 163.503906 217.921875 L 164.742188 220.65625 C 163.355469 221.28125 161.957031 221.882812 160.546875 222.453125 Z M 164.847656 217.300781 C 166.1875 216.671875 167.511719 216.015625 168.824219 215.332031 L 170.210938 217.992188 C 168.859375 218.695312 167.5 219.371094 166.125 220.015625 Z M 170.128906 214.640625 C 171.433594 213.941406 172.722656 213.210938 173.996094 212.457031 L 175.527344 215.039062 C 174.214844 215.8125 172.890625 216.5625 171.550781 217.285156 Z M 175.265625 211.695312 C 176.527344 210.921875 177.773438 210.128906 179.003906 209.304688 L 180.671875 211.800781 C 179.40625 212.644531 178.125 213.460938 176.828125 214.253906 Z M 180.230469 208.476562 C 181.449219 207.636719 182.652344 206.773438 183.839844 205.886719 L 185.636719 208.285156 C 184.417969 209.199219 183.183594 210.085938 181.929688 210.949219 Z M 185.015625 204.992188 C 186.1875 204.085938 187.34375 203.160156 188.476562 202.210938 L 190.402344 204.511719 C 189.238281 205.488281 188.050781 206.4375 186.847656 207.367188 Z M 189.605469 201.253906 C 190.726562 200.289062 191.832031 199.300781 192.914062 198.292969 L 194.960938 200.484375 C 193.847656 201.523438 192.714844 202.535156 191.5625 203.527344 Z M 193.988281 197.273438 C 195.058594 196.25 196.105469 195.203125 197.128906 194.136719 L 199.292969 196.21875 C 198.238281 197.3125 197.160156 198.386719 196.0625 199.441406 Z M 198.148438 193.066406 C 199.160156 191.984375 200.152344 190.882812 201.117188 189.765625 L 203.390625 191.722656 C 202.394531 192.875 201.378906 194.003906 200.339844 195.117188 Z M 202.078125 188.636719 C 203.03125 187.503906 203.957031 186.351562 204.863281 185.183594 L 207.238281 187.015625 C 206.308594 188.21875 205.351562 189.402344 204.375 190.566406 Z M 205.761719 184.003906 C 206.652344 182.820312 207.515625 181.621094 208.359375 180.402344 L 210.828125 182.105469 C 209.960938 183.355469 209.074219 184.589844 208.160156 185.808594 Z M 209.191406 179.175781 C 210.015625 177.949219 210.8125 176.703125 211.585938 175.445312 L 214.140625 177.011719 C 213.347656 178.308594 212.527344 179.585938 211.683594 180.847656 Z M 212.351562 174.175781 C 213.109375 172.902344 213.839844 171.613281 214.542969 170.3125 L 217.183594 171.738281 C 216.457031 173.074219 215.707031 174.398438 214.929688 175.710938 Z M 215.238281 169.007812 C 215.921875 167.695312 216.582031 166.371094 217.210938 165.035156 L 219.925781 166.316406 C 219.277344 167.691406 218.597656 169.050781 217.894531 170.398438 Z M 217.835938 163.691406 C 218.449219 162.34375 219.035156 160.984375 219.59375 159.613281 L 222.375 160.746094 C 221.800781 162.15625 221.195312 163.550781 220.566406 164.9375 Z M 220.140625 158.246094 C 220.683594 156.867188 221.191406 155.476562 221.675781 154.078125 L 224.511719 155.058594 C 224.015625 156.492188 223.488281 157.921875 222.9375 159.335938 Z M 222.148438 152.671875 C 222.613281 151.269531 223.046875 149.855469 223.449219 148.433594 L 226.335938 149.253906 C 225.917969 150.71875 225.472656 152.167969 224.996094 153.613281 Z M 223.84375 147.011719 C 224.230469 145.582031 224.589844 144.144531 224.914062 142.699219 L 227.839844 143.359375 C 227.503906 144.847656 227.136719 146.324219 226.742188 147.792969 Z M 225.234375 141.246094 C 225.539062 139.804688 225.816406 138.355469 226.0625 136.898438 L 229.019531 137.402344 C 228.765625 138.898438 228.484375 140.386719 228.167969 141.867188 Z M 226.300781 135.441406 C 226.53125 133.976562 226.730469 132.503906 226.898438 131.027344 L 229.878906 131.371094 C 229.703125 132.886719 229.5 134.398438 229.265625 135.902344 Z M 227.058594 129.546875 C 227.203125 128.085938 227.324219 126.617188 227.410156 125.148438 L 230.40625 125.328125 C 230.3125 126.839844 230.191406 128.347656 230.042969 129.847656 Z M 227.488281 123.671875 C 227.558594 122.1875 227.597656 120.699219 227.609375 119.210938 L 230.609375 119.230469 C 230.597656 120.761719 230.558594 122.289062 230.484375 123.8125 Z M 227.609375 117.714844 C 227.597656 116.222656 227.558594 114.738281 227.488281 113.253906 L 230.484375 113.113281 C 230.554688 114.636719 230.597656 116.164062 230.609375 117.695312 Z M 227.40625 111.777344 C 227.320312 110.304688 227.199219 108.839844 227.050781 107.378906 L 230.039062 107.078125 C 230.1875 108.578125 230.3125 110.085938 230.402344 111.59375 Z M 226.894531 105.894531 C 226.722656 104.421875 226.523438 102.949219 226.292969 101.484375 L 229.257812 101.019531 C 229.492188 102.527344 229.699219 104.039062 229.871094 105.554688 Z M 226.054688 100.027344 C 225.808594 98.570312 225.53125 97.121094 225.226562 95.679688 L 228.160156 95.058594 C 228.472656 96.539062 228.757812 98.027344 229.011719 99.523438 Z M 224.90625 94.226562 C 224.578125 92.78125 224.21875 91.34375 223.832031 89.914062 L 226.730469 89.132812 C 227.125 90.601562 227.492188 92.078125 227.832031 93.5625 Z M 223.4375 88.492188 C 223.03125 87.070312 222.597656 85.65625 222.132812 84.253906 L 224.984375 83.3125 C 225.460938 84.757812 225.90625 86.210938 226.324219 87.671875 Z M 221.660156 82.847656 C 221.175781 81.449219 220.664062 80.0625 220.125 78.683594 L 222.917969 77.589844 C 223.472656 79.003906 224 80.433594 224.496094 81.871094 Z M 219.578125 77.3125 C 219.019531 75.941406 218.433594 74.585938 217.816406 73.238281 L 220.546875 71.992188 C 221.179688 73.375 221.78125 74.773438 222.355469 76.183594 Z M 217.191406 71.894531 C 216.5625 70.554688 215.902344 69.234375 215.214844 67.921875 L 217.871094 66.53125 C 218.578125 67.878906 219.253906 69.238281 219.90625 70.609375 Z M 214.523438 66.621094 C 213.816406 65.316406 213.085938 64.027344 212.328125 62.753906 L 214.902344 61.21875 C 215.683594 62.53125 216.433594 63.851562 217.160156 65.191406 Z M 211.5625 61.488281 C 210.789062 60.230469 209.988281 58.984375 209.164062 57.757812 L 211.65625 56.085938 C 212.503906 57.347656 213.324219 58.625 214.117188 59.917969 Z M 208.332031 56.53125 C 207.488281 55.3125 206.625 54.113281 205.734375 52.929688 L 208.128906 51.125 C 209.042969 52.339844 209.933594 53.574219 210.800781 54.828125 Z M 204.835938 51.753906 C 203.929688 50.582031 203 49.433594 202.046875 48.300781 L 204.34375 46.367188 C 205.324219 47.53125 206.277344 48.714844 207.207031 49.917969 Z M 201.089844 47.171875 C 200.121094 46.054688 199.128906 44.953125 198.117188 43.871094 L 200.304688 41.820312 C 201.347656 42.929688 202.363281 44.0625 203.359375 45.210938 Z M 197.097656 42.800781 C 196.070312 41.734375 195.023438 40.6875 193.957031 39.664062 L 196.03125 37.5 C 197.128906 38.550781 198.203125 39.625 199.257812 40.71875 Z M 192.878906 38.648438 C 191.796875 37.640625 190.695312 36.652344 189.570312 35.6875 L 191.527344 33.414062 C 192.679688 34.402344 193.8125 35.417969 194.925781 36.453125 Z M 188.441406 34.730469 C 187.304688 33.78125 186.152344 32.855469 184.980469 31.953125 L 186.808594 29.574219 C 188.015625 30.503906 189.199219 31.453125 190.367188 32.429688 Z M 183.800781 31.058594 C 182.617188 30.171875 181.410156 29.308594 180.191406 28.46875 L 181.890625 25.996094 C 183.144531 26.859375 184.378906 27.746094 185.597656 28.65625 Z M 178.964844 27.640625 C 177.734375 26.820312 176.488281 26.023438 175.226562 25.253906 L 176.789062 22.691406 C 178.085938 23.484375 179.367188 24.300781 180.628906 25.144531 Z M 173.957031 24.492188 C 172.683594 23.738281 171.390625 23.007812 170.085938 22.308594 L 171.507812 19.664062 C 172.847656 20.386719 174.175781 21.132812 175.484375 21.910156 Z M 168.78125 21.617188 C 167.46875 20.933594 166.144531 20.277344 164.804688 19.652344 L 166.082031 16.933594 C 167.457031 17.582031 168.820312 18.253906 170.167969 18.957031 Z M 163.460938 19.03125 C 162.113281 18.417969 160.75 17.835938 159.378906 17.28125 L 160.503906 14.5 C 161.914062 15.070312 163.3125 15.667969 164.699219 16.296875 Z M 158.007812 16.738281 C 156.628906 16.199219 155.238281 15.691406 153.835938 15.214844 L 154.808594 12.375 C 156.246094 12.867188 157.675781 13.390625 159.09375 13.941406 Z M 152.429688 14.742188 C 151.027344 14.285156 149.613281 13.851562 148.191406 13.453125 L 149.003906 10.566406 C 150.464844 10.976562 151.917969 11.417969 153.363281 11.890625 Z M 146.765625 13.058594 C 145.335938 12.675781 143.894531 12.324219 142.449219 12 L 143.105469 9.074219 C 144.589844 9.40625 146.070312 9.769531 147.542969 10.164062 Z M 140.996094 11.683594 C 139.554688 11.382812 138.105469 11.109375 136.648438 10.863281 L 137.144531 7.90625 C 138.640625 8.15625 140.128906 8.4375 141.609375 8.75 Z M 135.191406 10.632812 C 133.722656 10.40625 132.25 10.210938 130.773438 10.042969 L 131.109375 7.0625 C 132.625 7.234375 134.136719 7.433594 135.644531 7.664062 Z M 129.296875 9.890625 C 127.832031 9.746094 126.367188 9.632812 124.894531 9.546875 L 125.070312 6.550781 C 126.582031 6.636719 128.085938 6.757812 129.589844 6.902344 Z M 123.417969 9.46875 C 121.933594 9.402344 120.445312 9.367188 118.953125 9.363281 L 118.964844 6.363281 C 120.496094 6.367188 122.027344 6.40625 123.550781 6.472656 Z M 118.484375 9.359375 C 116.992188 9.359375 115.503906 9.390625 114.015625 9.449219 L 113.894531 6.453125 C 115.421875 6.390625 116.953125 6.359375 118.484375 6.359375 Z M 118.484375 9.359375 " fill-opacity="1" fill-rule="nonzero"/></g></g></g></g></g><g mask="url(#19c5ca58a2)"><g transform="matrix(1, 0, 0, 1, 83, 83)"><g clip-path="url(#f90237b584)"><g clip-path="url(#c1ab5a9947)"><g clip-path="url(#6c45030a02)"><path fill="#dc9849" d="M 0.742188 0.742188 L 208.257812 0.742188 L 208.257812 208.257812 L 0.742188 208.257812 Z M 0.742188 0.742188 " fill-opacity="1" fill-rule="nonzero"/></g></g></g></g></g><g clip-path="url(#b430a55e26)"><path fill="#854ab1" d="M 152.238281 178.191406 C 152.179688 178.222656 133.503906 188.167969 144.070312 200.539062 C 153.355469 211.417969 173.335938 203.929688 188.589844 198.21875 C 194.617188 195.957031 200.691406 193.96875 206.765625 191.8125 C 221.15625 186.703125 246.308594 173.578125 250.015625 197.253906 C 247.425781 181.007812 216.558594 193.679688 208.4375 196.558594 C 202.394531 198.699219 196.351562 200.671875 190.335938 202.917969 C 125.683594 227.148438 125.261719 181.535156 152.238281 178.191406 Z M 152.238281 178.191406 " fill-opacity="1" fill-rule="nonzero"/></g><path fill="#854ab1" d="M 237.914062 181.265625 C 237.886719 181.234375 227.773438 167.929688 213.335938 173.035156 C 207.667969 175.042969 200.148438 179.683594 192.28125 184.535156 C 180.527344 191.796875 165.109375 204.261719 150.203125 196.121094 C 157.875 198.535156 176.230469 188.542969 189.644531 180.269531 C 197.765625 175.253906 205.527344 170.460938 211.664062 168.273438 C 222.03125 164.613281 233.832031 168.183594 237.914062 181.265625 Z M 237.914062 181.265625 " fill-opacity="1" fill-rule="nonzero"/><path fill="#854ab1" d="M 226.128906 162.429688 C 226.085938 162.382812 212.054688 148.535156 196.246094 160.078125 C 189.175781 165.246094 183.34375 170.460938 178.371094 174.90625 C 172.960938 179.757812 162.710938 186.628906 156.140625 184.050781 C 160.585938 183.148438 168.09375 177.363281 175.027344 171.167969 C 180.074219 166.648438 185.980469 161.359375 193.292969 156.023438 C 203.902344 148.265625 220.386719 149.167969 226.128906 162.429688 Z M 226.128906 162.429688 " fill-opacity="1" fill-rule="nonzero"/><path fill="#854ab1" d="M 188.183594 159.941406 C 207.636719 142.085938 176.667969 130.875 175.25 152.816406 C 166.300781 126.65625 220.238281 130.105469 191.890625 163.332031 Z M 188.183594 159.941406 " fill-opacity="1" fill-rule="nonzero"/><path fill="#854ab1" d="M 242.164062 198.035156 C 242.164062 198.035156 228.375 226.410156 226.007812 247.6875 C 226.007812 247.6875 183.449219 253.203125 162.171875 247.6875 C 162.171875 247.6875 153.472656 228.957031 153.308594 213.210938 C 153.308594 213.210938 162.066406 239.507812 165.816406 241.871094 C 172.027344 242.566406 208.964844 244.824219 220.78125 241.285156 C 224.925781 227 228.375 216.554688 242.164062 198.035156 Z M 242.164062 198.035156 " fill-opacity="1" fill-rule="evenodd"/><g clip-path="url(#16d1c8dcfd)"><path fill="#854ab1" d="M 175.582031 125.417969 C 174.84375 124.695312 174.8125 123.503906 175.539062 122.753906 C 176.261719 122.015625 177.453125 121.984375 178.207031 122.707031 C 178.21875 122.722656 185.785156 130.074219 187.878906 137.867188 C 188.152344 138.859375 187.550781 139.902344 186.554688 140.171875 C 185.542969 140.441406 184.503906 139.839844 184.234375 138.832031 C 182.394531 132.050781 175.613281 125.449219 175.582031 125.417969 Z M 175.582031 125.417969 " fill-opacity="1" fill-rule="nonzero"/></g><g fill="#997c50" fill-opacity="1"><g transform="translate(86.964813, 108.141007)"><g><path d="M -3.875 -6.097656 C -1.09375 -3.277344 3.105469 -2.351562 8.023438 -7.195312 C 12.308594 -11.417969 12.425781 -14.910156 9.511719 -17.867188 C 7.066406 -20.347656 4.3125 -19.984375 1.316406 -17.792969 L -2.894531 -14.710938 C -4.492188 -13.535156 -5.902344 -13.746094 -6.988281 -14.851562 C -8.480469 -16.363281 -8.464844 -18.46875 -6.027344 -20.867188 C -3.480469 -23.378906 -1.105469 -23.363281 0.898438 -21.78125 L 3.152344 -24.003906 C 0.304688 -26.488281 -3.566406 -26.851562 -7.785156 -22.695312 C -11.796875 -18.738281 -11.734375 -14.976562 -9.269531 -12.472656 C -6.957031 -10.125 -4.316406 -10.109375 -1.410156 -12.257812 L 2.550781 -15.183594 C 4.488281 -16.605469 6.078125 -16.660156 7.457031 -15.261719 C 8.96875 -13.726562 9.269531 -11.980469 6.246094 -9 C 3.292969 -6.089844 0.695312 -6.109375 -1.617188 -8.320312 Z M -3.875 -6.097656 "/></g></g></g><g fill="#997c50" fill-opacity="1"><g transform="translate(103.202204, 92.295675)"><g><path d="M 1.871094 -26.78125 L 6.890625 -19.4375 L -2.46875 -13.039062 L -7.488281 -20.386719 L -10.183594 -18.546875 L 1.699219 -1.160156 L 4.390625 -3 L -0.984375 -10.871094 L 8.375 -17.265625 L 13.75 -9.398438 L 16.445312 -11.238281 L 4.5625 -28.625 Z M 1.871094 -26.78125 "/></g></g></g><g fill="#997c50" fill-opacity="1"><g transform="translate(122.971184, 79.082971)"><g><path d="M 3.765625 -4.585938 L 0.9375 -10.847656 L 11.585938 -15.660156 L 10.527344 -17.996094 L -0.121094 -13.183594 L -2.742188 -18.984375 L 8.773438 -24.1875 L 7.691406 -26.582031 L -6.796875 -20.035156 L 1.875 -0.847656 L 16.449219 -7.433594 L 15.367188 -9.828125 Z M 3.765625 -4.585938 "/></g></g></g><g fill="#997c50" fill-opacity="1"><g transform="translate(143.333638, 70.441023)"><g/></g></g><g fill="#997c50" fill-opacity="1"><g transform="translate(153.057621, 67.418673)"><g><path d="M -0.320312 -7.855469 L 0.578125 -8.039062 C 2.34375 -8.402344 3.175781 -7.667969 3.570312 -5.746094 L 4.667969 -0.410156 C 5.34375 2.878906 7.554688 5.136719 12.921875 4.035156 L 12.660156 2.761719 C 10.003906 3.210938 8.414062 2.085938 7.710938 -1.328125 L 6.632812 -6.570312 C 6.28125 -8.273438 5.3125 -9.53125 3.300781 -9.570312 L 3.199219 -10.066406 C 5.03125 -10.894531 5.429688 -12.429688 5.078125 -14.136719 L 4 -19.378906 C 3.296875 -22.789062 4.3125 -24.453125 6.929688 -25.089844 L 6.667969 -26.359375 C 1.304688 -25.257812 0.164062 -22.308594 0.839844 -19.019531 L 1.9375 -13.683594 C 2.332031 -11.761719 1.859375 -10.761719 0.09375 -10.394531 L -0.808594 -10.210938 Z M -0.320312 -7.855469 "/></g></g></g><g fill="#997c50" fill-opacity="1"><g transform="translate(167.665367, 64.320237)"><g><path d="M 16.777344 -19.507812 L 16.613281 -22.128906 L 0.75 -21.144531 L 2.054688 -0.128906 L 5.308594 -0.328125 L 4.734375 -9.589844 L 16.394531 -10.316406 L 16.238281 -12.875 L 4.574219 -12.148438 L 4.167969 -18.722656 Z M 16.777344 -19.507812 "/></g></g></g><g fill="#997c50" fill-opacity="1"><g transform="translate(189.062701, 63.059859)"><g><path d="M 2.890625 -7.390625 C 2.3125 -2.164062 4.855469 1.050781 10.707031 1.699219 C 16.5625 2.351562 19.75 -0.257812 20.328125 -5.453125 L 21.804688 -18.765625 L 18.566406 -19.125 L 17.136719 -6.285156 C 16.59375 -1.375 14.527344 -0.582031 11.003906 -0.976562 C 7.480469 -1.367188 5.640625 -2.589844 6.1875 -7.5 L 7.613281 -20.339844 L 4.371094 -20.699219 Z M 2.890625 -7.390625 "/></g></g></g><g fill="#997c50" fill-opacity="1"><g transform="translate(212.317511, 65.761339)"><g><path d="M 22.6875 -15.125 L 17.171875 3.054688 C 17.039062 1.859375 16.871094 0.449219 16.695312 -0.496094 L 13.472656 -17.917969 L 8.082031 -19.554688 L 1.96875 0.597656 L 5.089844 1.542969 L 10.605469 -16.636719 C 10.671875 -15.558594 10.867188 -14.339844 11.09375 -13.015625 L 14.304688 4.335938 L 19.695312 5.972656 L 25.808594 -14.179688 Z M 22.6875 -15.125 "/></g></g></g><g fill="#997c50" fill-opacity="1"><g transform="translate(235.587103, 72.990138)"><g><path d="M 19.65625 -13.492188 L 11.570312 -17.710938 L 1.824219 0.953125 L 9.90625 5.175781 C 16.027344 8.371094 20.9375 5.46875 23.589844 0.386719 C 26.210938 -4.636719 25.773438 -10.296875 19.65625 -13.492188 Z M 10.5625 2.550781 L 5.933594 0.132812 L 13.246094 -13.875 L 17.878906 -11.453125 C 22.507812 -9.035156 22.992188 -5.855469 20.558594 -1.195312 C 18.125 3.464844 15.195312 4.96875 10.5625 2.550781 Z M 10.5625 2.550781 "/></g></g></g><g fill="#997c50" fill-opacity="1"><g transform="translate(256.999509, 84.434781)"><g><path d="M 5.539062 -4.636719 C 3.105469 -1.515625 2.734375 2.773438 8.183594 7.015625 C 12.929688 10.714844 16.40625 10.371094 18.953125 7.097656 C 21.09375 4.351562 20.378906 1.664062 17.8125 -1.015625 L 14.207031 -4.789062 C 12.832031 -6.21875 12.859375 -7.644531 13.8125 -8.867188 C 15.117188 -10.542969 17.203125 -10.800781 19.902344 -8.699219 C 22.726562 -6.5 23.019531 -4.144531 21.710938 -1.953125 L 24.207031 -0.0078125 C 26.300781 -3.15625 26.15625 -7.039062 21.484375 -10.679688 C 17.039062 -14.140625 13.316406 -13.589844 11.15625 -10.816406 C 9.132812 -8.21875 9.457031 -5.597656 11.96875 -3 L 15.386719 0.546875 C 17.046875 2.28125 17.308594 3.851562 16.105469 5.398438 C 14.78125 7.097656 13.085938 7.625 9.738281 5.015625 C 6.464844 2.46875 6.144531 -0.109375 8.035156 -2.691406 Z M 5.539062 -4.636719 "/></g></g></g><g fill="#997c50" fill-opacity="1"><g transform="translate(274.797691, 98.85364)"><g><path d="M 13.617188 3.007812 L 15.355469 1.34375 L 14.722656 0.679688 C 13.472656 -0.625 13.652344 -1.714844 15.074219 -3.074219 L 19.007812 -6.839844 C 21.433594 -9.160156 22.171875 -12.234375 18.382812 -16.191406 L 17.445312 -15.296875 C 19.238281 -13.285156 19.128906 -11.339844 16.613281 -8.929688 L 12.746094 -5.230469 C 11.488281 -4.027344 10.941406 -2.539062 11.976562 -0.8125 L 11.609375 -0.460938 C 9.933594 -1.574219 8.421875 -1.09375 7.164062 0.113281 L 3.296875 3.8125 C 0.78125 6.222656 -1.167969 6.246094 -3.097656 4.367188 L -4.035156 5.265625 C -0.246094 9.222656 2.855469 8.617188 5.28125 6.296875 L 9.214844 2.53125 C 10.632812 1.171875 11.734375 1.039062 12.984375 2.34375 Z M 13.617188 3.007812 "/></g></g></g><g fill="#997c50" fill-opacity="1"><g transform="translate(74.463071, 247.013891)"><g><path d="M 0.1875 0.3125 L 11.53125 -1.859375 L 12.671875 0.0625 L 5.390625 9.03125 L 4.3125 7.21875 L 6.03125 5.171875 L 3.859375 1.546875 L 1.25 2.09375 Z M 5.46875 1.234375 L 7.078125 3.921875 L 10.125 0.265625 Z M 5.46875 1.234375 "/></g></g></g><g fill="#997c50" fill-opacity="1"><g transform="translate(87.874499, 266.937917)"><g><path d="M 0.6875 0.78125 L 8.8125 -6.390625 L 11.46875 -3.375 C 12.039062 -2.726562 12.40625 -2.09375 12.5625 -1.46875 C 12.726562 -0.851562 12.710938 -0.273438 12.515625 0.265625 C 12.316406 0.804688 11.988281 1.285156 11.53125 1.703125 C 11.070312 2.097656 10.566406 2.359375 10.015625 2.484375 C 9.460938 2.617188 8.882812 2.570312 8.28125 2.34375 C 7.6875 2.125 7.09375 1.679688 6.5 1.015625 L 5.15625 -0.515625 L 2 2.265625 Z M 6.359375 -1.578125 L 7.625 -0.140625 C 8.09375 0.378906 8.535156 0.648438 8.953125 0.671875 C 9.378906 0.703125 9.796875 0.546875 10.203125 0.203125 C 10.597656 -0.148438 10.8125 -0.539062 10.84375 -0.96875 C 10.875 -1.40625 10.65625 -1.882812 10.1875 -2.40625 L 8.921875 -3.84375 Z M 6.359375 -1.578125 "/></g></g></g><g fill="#997c50" fill-opacity="1"><g transform="translate(103.655371, 283.03278)"><g><path d="M 0.828125 0.65625 L 7.546875 -7.84375 L 10.6875 -5.359375 C 11.363281 -4.828125 11.835938 -4.269531 12.109375 -3.6875 C 12.378906 -3.113281 12.460938 -2.539062 12.359375 -1.96875 C 12.265625 -1.394531 12.023438 -0.863281 11.640625 -0.375 C 11.265625 0.09375 10.816406 0.4375 10.296875 0.65625 C 9.773438 0.882812 9.195312 0.941406 8.5625 0.828125 C 7.9375 0.722656 7.273438 0.394531 6.578125 -0.15625 L 4.984375 -1.421875 L 2.375 1.875 Z M 5.984375 -2.6875 L 7.484375 -1.5 C 8.023438 -1.070312 8.507812 -0.878906 8.9375 -0.921875 C 9.363281 -0.972656 9.738281 -1.207031 10.0625 -1.625 C 10.394531 -2.039062 10.535156 -2.460938 10.484375 -2.890625 C 10.429688 -3.328125 10.132812 -3.757812 9.59375 -4.1875 L 8.09375 -5.375 Z M 5.984375 -2.6875 "/></g></g></g><g fill="#997c50" fill-opacity="1"><g transform="translate(122.036343, 296.049709)"><g><path d="M 0.921875 0.5 L 6.0625 -9.046875 L 7.8125 -8.109375 L 3.40625 0.078125 L 7.625 2.359375 L 6.890625 3.71875 Z M 0.921875 0.5 "/></g></g></g><g fill="#997c50" fill-opacity="1"><g transform="translate(141.542942, 305.228139)"><g><path d="M 0.984375 0.34375 L 4.609375 -9.875 L 6.484375 -9.203125 L 2.859375 1.015625 Z M 0.984375 0.34375 "/></g></g></g><g fill="#997c50" fill-opacity="1"><g transform="translate(157.987525, 310.234681)"><g><path d="M 5.84375 1.234375 C 4.757812 1.035156 3.875 0.632812 3.1875 0.03125 C 2.5 -0.5625 2.019531 -1.304688 1.75 -2.203125 C 1.476562 -3.109375 1.441406 -4.109375 1.640625 -5.203125 C 1.828125 -6.285156 2.203125 -7.207031 2.765625 -7.96875 C 3.328125 -8.726562 4.035156 -9.273438 4.890625 -9.609375 C 5.753906 -9.941406 6.726562 -10.007812 7.8125 -9.8125 C 9.082031 -9.582031 10.070312 -9.078125 10.78125 -8.296875 C 11.488281 -7.515625 11.835938 -6.535156 11.828125 -5.359375 L 9.6875 -5.734375 C 9.65625 -6.335938 9.453125 -6.84375 9.078125 -7.25 C 8.703125 -7.65625 8.160156 -7.925781 7.453125 -8.0625 C 6.460938 -8.226562 5.625 -8.023438 4.9375 -7.453125 C 4.257812 -6.890625 3.820312 -6.023438 3.625 -4.859375 C 3.414062 -3.679688 3.53125 -2.707031 3.96875 -1.9375 C 4.414062 -1.164062 5.132812 -0.695312 6.125 -0.53125 C 6.832031 -0.394531 7.429688 -0.445312 7.921875 -0.6875 C 8.410156 -0.925781 8.769531 -1.304688 9 -1.828125 L 11.140625 -1.453125 C 10.742188 -0.378906 10.078125 0.390625 9.140625 0.859375 C 8.210938 1.335938 7.113281 1.460938 5.84375 1.234375 Z M 5.84375 1.234375 "/></g></g></g><g fill="#997c50" fill-opacity="1"><g transform="translate(182.414321, 313.254834)"><g><path d="M 0.359375 0 L 4.125 -10.921875 L 6.359375 -10.953125 L 10.515625 -0.171875 L 8.40625 -0.140625 L 7.5 -2.640625 L 3.265625 -2.578125 L 2.4375 -0.046875 Z M 3.796875 -4.125 L 6.9375 -4.1875 L 5.28125 -8.65625 Z M 3.796875 -4.125 "/></g></g></g><g fill="#997c50" fill-opacity="1"><g transform="translate(206.367364, 311.566945)"><g><path d="M 3.5 -0.71875 L 1.65625 -9.78125 L -1.4375 -9.140625 L -1.75 -10.703125 L 6.40625 -12.359375 L 6.71875 -10.796875 L 3.609375 -10.171875 L 5.453125 -1.109375 Z M 3.5 -0.71875 "/></g></g></g><g fill="#997c50" fill-opacity="1"><g transform="translate(227.837458, 305.974828)"><g><path d="M 0.984375 -0.359375 L -2.796875 -10.53125 L -0.9375 -11.234375 L 2.84375 -1.0625 Z M 0.984375 -0.359375 "/></g></g></g><g fill="#997c50" fill-opacity="1"><g transform="translate(243.684993, 299.271147)"><g><path d="M 5.390625 -2.90625 C 4.453125 -2.363281 3.515625 -2.09375 2.578125 -2.09375 C 1.640625 -2.101562 0.765625 -2.359375 -0.046875 -2.859375 C -0.867188 -3.367188 -1.554688 -4.097656 -2.109375 -5.046875 C -2.660156 -6.003906 -2.945312 -6.960938 -2.96875 -7.921875 C -2.988281 -8.878906 -2.769531 -9.765625 -2.3125 -10.578125 C -1.851562 -11.390625 -1.15625 -12.066406 -0.21875 -12.609375 C 0.71875 -13.148438 1.65625 -13.414062 2.59375 -13.40625 C 3.539062 -13.40625 4.421875 -13.15625 5.234375 -12.65625 C 6.046875 -12.15625 6.726562 -11.425781 7.28125 -10.46875 C 7.832031 -9.519531 8.117188 -8.5625 8.140625 -7.59375 C 8.171875 -6.632812 7.953125 -5.75 7.484375 -4.9375 C 7.023438 -4.125 6.328125 -3.445312 5.390625 -2.90625 Z M 4.5 -4.4375 C 5.40625 -4.957031 5.945312 -5.664062 6.125 -6.5625 C 6.3125 -7.46875 6.109375 -8.429688 5.515625 -9.453125 C 4.921875 -10.484375 4.191406 -11.140625 3.328125 -11.421875 C 2.460938 -11.703125 1.578125 -11.582031 0.671875 -11.0625 C -0.210938 -10.550781 -0.753906 -9.84375 -0.953125 -8.9375 C -1.148438 -8.039062 -0.953125 -7.078125 -0.359375 -6.046875 C 0.234375 -5.023438 0.96875 -4.375 1.84375 -4.09375 C 2.726562 -3.8125 3.613281 -3.925781 4.5 -4.4375 Z M 4.5 -4.4375 "/></g></g></g><g fill="#997c50" fill-opacity="1"><g transform="translate(265.020846, 285.365637)"><g><path d="M 0.78125 -0.6875 L -6.375 -8.828125 L -4.875 -10.140625 L 3.984375 -7.765625 L -1.0625 -13.5 L 0.4375 -14.8125 L 7.59375 -6.671875 L 6.09375 -5.359375 L -2.75 -7.71875 L 2.28125 -2 Z M 0.78125 -0.6875 "/></g></g></g><g fill="#997c50" fill-opacity="1"><g transform="translate(282.395283, 268.335684)"><g><path d="M 3.0625 -3.625 C 2.582031 -3.007812 2.046875 -2.539062 1.453125 -2.21875 C 0.859375 -1.90625 0.253906 -1.769531 -0.359375 -1.8125 C -0.972656 -1.863281 -1.570312 -2.109375 -2.15625 -2.546875 L -0.890625 -4.1875 C -0.472656 -3.882812 -0.0195312 -3.765625 0.46875 -3.828125 C 0.957031 -3.890625 1.390625 -4.160156 1.765625 -4.640625 C 2.085938 -5.054688 2.242188 -5.460938 2.234375 -5.859375 C 2.222656 -6.253906 2.054688 -6.582031 1.734375 -6.84375 C 1.378906 -7.113281 1.019531 -7.21875 0.65625 -7.15625 C 0.289062 -7.101562 -0.0859375 -6.945312 -0.484375 -6.6875 C -0.890625 -6.425781 -1.320312 -6.140625 -1.78125 -5.828125 C -2.519531 -5.359375 -3.207031 -5.085938 -3.84375 -5.015625 C -4.476562 -4.941406 -5.085938 -5.140625 -5.671875 -5.609375 C -6.179688 -6.003906 -6.519531 -6.46875 -6.6875 -7 C -6.851562 -7.53125 -6.867188 -8.085938 -6.734375 -8.671875 C -6.597656 -9.253906 -6.3125 -9.828125 -5.875 -10.390625 C -5.425781 -10.960938 -4.929688 -11.382812 -4.390625 -11.65625 C -3.847656 -11.9375 -3.296875 -12.054688 -2.734375 -12.015625 C -2.171875 -11.972656 -1.628906 -11.757812 -1.109375 -11.375 L -2.421875 -9.703125 C -2.734375 -9.929688 -3.09375 -10.023438 -3.5 -9.984375 C -3.90625 -9.953125 -4.265625 -9.734375 -4.578125 -9.328125 C -4.847656 -9.003906 -4.988281 -8.65625 -5 -8.28125 C -5.007812 -7.90625 -4.84375 -7.585938 -4.5 -7.328125 C -4.226562 -7.109375 -3.9375 -7.023438 -3.625 -7.078125 C -3.3125 -7.128906 -2.972656 -7.265625 -2.609375 -7.484375 C -2.253906 -7.703125 -1.859375 -7.957031 -1.421875 -8.25 C -0.953125 -8.5625 -0.476562 -8.816406 0 -9.015625 C 0.46875 -9.210938 0.941406 -9.289062 1.421875 -9.25 C 1.910156 -9.21875 2.410156 -9 2.921875 -8.59375 C 3.359375 -8.25 3.679688 -7.8125 3.890625 -7.28125 C 4.097656 -6.757812 4.140625 -6.179688 4.015625 -5.546875 C 3.898438 -4.921875 3.582031 -4.28125 3.0625 -3.625 Z M 3.0625 -3.625 "/></g></g></g><g fill="#997c50" fill-opacity="1"><g transform="translate(295.144503, 250.073739)"><g/></g></g></svg>