<svg xmlns="http://www.w3.org/2000/svg" xmlns:xlink="http://www.w3.org/1999/xlink" width="500" zoomAndPan="magnify" viewBox="0 0 375 374.999991" height="500" preserveAspectRatio="xMidYMid meet" version="1.0"><defs><filter x="0%" y="0%" width="100%" height="100%" id="1cf044289b"><feColorMatrix values="0 0 0 0 1 0 0 0 0 1 0 0 0 0 1 0 0 0 1 0" color-interpolation-filters="sRGB"/></filter><g/><mask id="66b0381fa5"><g filter="url(#1cf044289b)"><rect x="-37.5" width="450" fill="#000000" y="-37.499999" height="449.999989" fill-opacity="0.93"/></g></mask><clipPath id="129fa4d314"><path d="M 8.527344 8.902344 L 176.472656 8.902344 L 176.472656 176.847656 L 8.527344 176.847656 Z M 8.527344 8.902344 " clip-rule="nonzero"/></clipPath><clipPath id="766e15cb16"><path d="M 92.5 8.902344 C 46.125 8.902344 8.527344 46.5 8.527344 92.875 C 8.527344 139.253906 46.125 176.847656 92.5 176.847656 C 138.875 176.847656 176.472656 139.253906 176.472656 92.875 C 176.472656 46.5 138.875 8.902344 92.5 8.902344 Z M 92.5 8.902344 " clip-rule="nonzero"/></clipPath><clipPath id="b91c03135c"><path d="M 8.527344 8.902344 L 176.527344 8.902344 L 176.527344 176.902344 L 8.527344 176.902344 Z M 8.527344 8.902344 " clip-rule="nonzero"/></clipPath><clipPath id="eccc2a3205"><path d="M 92.527344 8.902344 C 46.136719 8.902344 8.527344 46.511719 8.527344 92.902344 C 8.527344 139.296875 46.136719 176.902344 92.527344 176.902344 C 138.917969 176.902344 176.527344 139.296875 176.527344 92.902344 C 176.527344 46.511719 138.917969 8.902344 92.527344 8.902344 Z M 92.527344 8.902344 " clip-rule="nonzero"/></clipPath><clipPath id="154348dbee"><rect x="0" width="185" y="0" height="185"/></clipPath><mask id="c1028a7d4e"><g filter="url(#1cf044289b)"><rect x="-37.5" width="450" fill="#000000" y="-37.499999" height="449.999989" fill-opacity="0.93"/></g></mask><clipPath id="c85585bf2b"><path d="M 0.820312 0.195312 L 154.179688 0.195312 L 154.179688 153.558594 L 0.820312 153.558594 Z M 0.820312 0.195312 " clip-rule="nonzero"/></clipPath><clipPath id="21bc71ecfe"><path d="M 77.5 0.195312 C 35.148438 0.195312 0.820312 34.527344 0.820312 76.875 C 0.820312 119.226562 35.148438 153.558594 77.5 153.558594 C 119.851562 153.558594 154.179688 119.226562 154.179688 76.875 C 154.179688 34.527344 119.851562 0.195312 77.5 0.195312 Z M 77.5 0.195312 " clip-rule="nonzero"/></clipPath><clipPath id="c3d8103a42"><rect x="0" width="155" y="0" height="154"/></clipPath><clipPath id="69a5720667"><path d="M 154.625 159.59375 L 220.375 159.59375 L 220.375 245.988281 L 154.625 245.988281 Z M 154.625 159.59375 " clip-rule="nonzero"/></clipPath><clipPath id="57724e2df2"><path d="M 218.773438 199.941406 L 212.183594 202.5625 L 207.605469 200.417969 L 202.445312 202.605469 L 197.769531 200.417969 L 192.609375 202.605469 L 187.9375 200.417969 L 182.777344 202.605469 L 178.101562 200.417969 L 172.941406 202.605469 L 168.265625 200.417969 L 163.070312 202.621094 L 156.195312 199.886719 C 155.144531 198.152344 154.714844 196.082031 155.117188 194.015625 C 155.984375 189.527344 160.503906 186.402344 165.304688 187.070312 C 165.171875 186.671875 163.96875 182.859375 166.488281 179.550781 C 168.449219 176.980469 171.875 175.738281 175.257812 176.363281 C 175.34375 175.03125 175.933594 167.929688 181.886719 163.113281 C 183.914062 161.472656 186.011719 160.542969 187.75 160.007812 C 188.832031 159.671875 189.886719 160.566406 189.753906 161.691406 C 189.6875 162.285156 189.71875 162.90625 189.9375 163.519531 C 190.898438 166.222656 194.5 166.128906 197.132812 168.953125 C 198.277344 170.183594 199.589844 172.347656 199.757812 176.347656 C 203.167969 176.117188 206.363281 176.734375 208.511719 179.550781 C 211.035156 182.863281 209.828125 186.675781 209.695312 187.070312 C 214.5 186.402344 219.015625 189.527344 219.886719 194.015625 C 220.289062 196.105469 219.847656 198.199219 218.773438 199.941406 Z M 212.148438 204.777344 C 210.625 204.066406 209.101562 203.355469 207.582031 202.640625 L 202.421875 204.828125 L 197.746094 202.640625 L 192.585938 204.828125 L 187.910156 202.640625 L 182.75 204.828125 L 178.078125 202.640625 L 172.917969 204.828125 L 168.242188 202.640625 L 163.082031 204.828125 L 157.585938 202.640625 C 161.324219 215.167969 165.066406 227.699219 168.804688 240.226562 C 169.582031 242.832031 171.832031 244.734375 174.53125 245.050781 C 178.140625 245.476562 182.105469 245.765625 186.378906 245.808594 C 191.5625 245.863281 196.324219 245.550781 200.570312 245.050781 C 203.273438 244.734375 205.519531 242.832031 206.296875 240.226562 L 217.515625 202.640625 Z M 212.148438 204.777344 " clip-rule="nonzero"/></clipPath><mask id="68a1bda229"><g filter="url(#1cf044289b)"><rect x="-37.5" width="450" fill="#000000" y="-37.499999" height="449.999989" fill-opacity="0.93"/></g></mask><clipPath id="c426c95e54"><path d="M 7.820312 8.195312 L 162.320312 8.195312 L 162.320312 162.695312 L 7.820312 162.695312 Z M 7.820312 8.195312 " clip-rule="nonzero"/></clipPath><clipPath id="a1dc4923fc"><path d="M 85.070312 8.195312 C 42.40625 8.195312 7.820312 42.78125 7.820312 85.445312 C 7.820312 128.109375 42.40625 162.695312 85.070312 162.695312 C 127.734375 162.695312 162.320312 128.109375 162.320312 85.445312 C 162.320312 42.78125 127.734375 8.195312 85.070312 8.195312 Z M 85.070312 8.195312 " clip-rule="nonzero"/></clipPath><clipPath id="590bc300e4"><rect x="0" width="170" y="0" height="170"/></clipPath></defs><g mask="url(#66b0381fa5)"><g transform="matrix(1, 0, 0, 1, 95, 110)"><g clip-path="url(#154348dbee)"><g clip-path="url(#129fa4d314)"><g clip-path="url(#766e15cb16)"><path fill="#ffffff" d="M 8.527344 8.902344 L 176.472656 8.902344 L 176.472656 176.847656 L 8.527344 176.847656 Z M 8.527344 8.902344 " fill-opacity="1" fill-rule="nonzero"/></g></g><g clip-path="url(#b91c03135c)"><g clip-path="url(#eccc2a3205)"><path fill="#854ab1" d="M 86.613281 10.613281 C 85.144531 10.714844 83.679688 10.859375 82.21875 11.042969 L 81.847656 8.0625 C 83.359375 7.875 84.878906 7.726562 86.402344 7.617188 Z M 80.753906 11.238281 C 79.296875 11.445312 77.847656 11.691406 76.40625 11.976562 L 75.824219 9.035156 C 77.316406 8.738281 78.820312 8.480469 80.328125 8.265625 Z M 74.960938 12.277344 C 73.519531 12.589844 72.085938 12.941406 70.660156 13.332031 L 69.867188 10.4375 C 71.34375 10.035156 72.828125 9.667969 74.324219 9.34375 Z M 69.246094 13.734375 C 67.832031 14.148438 66.429688 14.601562 65.039062 15.09375 L 64.039062 12.265625 C 65.480469 11.753906 66.933594 11.285156 68.402344 10.855469 Z M 63.652344 15.597656 C 62.273438 16.113281 60.910156 16.664062 59.558594 17.253906 L 58.359375 14.503906 C 59.757812 13.894531 61.171875 13.320312 62.601562 12.785156 Z M 58.210938 17.855469 C 56.871094 18.472656 55.550781 19.121094 54.246094 19.804688 L 52.851562 17.148438 C 54.203125 16.4375 55.574219 15.765625 56.960938 15.128906 Z M 52.949219 20.5 C 51.652344 21.210938 50.378906 21.953125 49.125 22.730469 L 47.542969 20.179688 C 48.84375 19.375 50.164062 18.601562 51.503906 17.867188 Z M 47.878906 23.519531 C 46.640625 24.316406 45.421875 25.148438 44.230469 26.011719 L 42.46875 23.582031 C 43.707031 22.683594 44.96875 21.824219 46.253906 20.996094 Z M 43.042969 26.886719 C 41.863281 27.773438 40.707031 28.6875 39.578125 29.636719 L 37.652344 27.335938 C 38.824219 26.351562 40.019531 25.40625 41.238281 24.488281 Z M 38.457031 30.59375 C 37.34375 31.558594 36.257812 32.554688 35.195312 33.578125 L 33.109375 31.421875 C 34.210938 30.359375 35.335938 29.328125 36.488281 28.328125 Z M 34.144531 34.613281 C 33.105469 35.65625 32.089844 36.726562 31.105469 37.824219 L 28.871094 35.820312 C 29.890625 34.683594 30.941406 33.574219 32.023438 32.492188 Z M 30.128906 38.929688 C 29.164062 40.046875 28.230469 41.1875 27.328125 42.351562 L 24.957031 40.507812 C 25.894531 39.304688 26.863281 38.121094 27.863281 36.96875 Z M 26.433594 43.523438 C 25.550781 44.703125 24.699219 45.90625 23.878906 47.132812 L 21.382812 45.46875 C 22.230469 44.195312 23.113281 42.949219 24.03125 41.722656 Z M 23.070312 48.363281 C 22.273438 49.605469 21.511719 50.867188 20.78125 52.148438 L 18.171875 50.664062 C 18.929688 49.335938 19.71875 48.027344 20.546875 46.742188 Z M 20.0625 53.4375 C 19.355469 54.730469 18.6875 56.042969 18.050781 57.371094 L 15.34375 56.074219 C 16 54.699219 16.695312 53.339844 17.425781 52 Z M 17.425781 58.707031 C 16.816406 60.046875 16.242188 61.40625 15.703125 62.777344 L 12.910156 61.679688 C 13.464844 60.257812 14.0625 58.851562 14.695312 57.460938 Z M 15.175781 64.152344 C 14.660156 65.535156 14.183594 66.933594 13.746094 68.34375 L 10.878906 67.453125 C 11.335938 65.988281 11.828125 64.539062 12.363281 63.105469 Z M 13.320312 69.75 C 12.910156 71.164062 12.535156 72.585938 12.199219 74.023438 L 9.277344 73.339844 C 9.625 71.851562 10.011719 70.375 10.441406 68.90625 Z M 11.875 75.464844 C 11.566406 76.902344 11.292969 78.347656 11.0625 79.800781 L 8.097656 79.328125 C 8.339844 77.820312 8.621094 76.324219 8.941406 74.835938 Z M 10.84375 81.257812 C 10.636719 82.71875 10.46875 84.1875 10.34375 85.660156 L 7.351562 85.398438 C 7.484375 83.875 7.660156 82.351562 7.871094 80.839844 Z M 10.226562 87.121094 C 10.125 88.59375 10.0625 90.066406 10.039062 91.546875 L 7.039062 91.5 C 7.0625 89.964844 7.128906 88.4375 7.234375 86.914062 Z M 10.027344 93.035156 C 10.03125 94.519531 10.074219 96 10.152344 97.480469 L 7.15625 97.644531 C 7.074219 96.113281 7.03125 94.578125 7.027344 93.039062 Z M 10.246094 98.945312 C 10.351562 100.417969 10.5 101.882812 10.683594 103.34375 L 7.703125 103.71875 C 7.515625 102.207031 7.363281 100.6875 7.253906 99.164062 Z M 10.878906 104.808594 C 11.089844 106.261719 11.339844 107.710938 11.628906 109.152344 L 8.683594 109.738281 C 8.386719 108.246094 8.128906 106.746094 7.910156 105.238281 Z M 11.929688 110.597656 C 12.246094 112.039062 12.597656 113.472656 12.992188 114.894531 L 10.097656 115.695312 C 9.691406 114.21875 9.324219 112.734375 9 111.238281 Z M 13.394531 116.308594 C 13.8125 117.722656 14.269531 119.125 14.761719 120.515625 L 11.933594 121.519531 C 11.421875 120.078125 10.949219 118.625 10.515625 117.160156 Z M 15.269531 121.902344 C 15.785156 123.28125 16.339844 124.644531 16.929688 125.992188 L 14.183594 127.195312 C 13.570312 125.796875 12.996094 124.386719 12.457031 122.957031 Z M 17.535156 127.339844 C 18.152344 128.675781 18.804688 130 19.492188 131.304688 L 16.835938 132.703125 C 16.125 131.351562 15.449219 129.980469 14.808594 128.59375 Z M 20.1875 132.597656 C 20.898438 133.890625 21.644531 135.164062 22.425781 136.417969 L 19.875 138.003906 C 19.066406 136.703125 18.296875 135.386719 17.558594 134.046875 Z M 23.214844 137.660156 C 24.015625 138.898438 24.847656 140.117188 25.714844 141.308594 L 23.285156 143.070312 C 22.386719 141.835938 21.523438 140.574219 20.695312 139.292969 Z M 26.589844 142.496094 C 27.476562 143.671875 28.394531 144.824219 29.34375 145.953125 L 27.046875 147.882812 C 26.0625 146.714844 25.113281 145.519531 24.195312 144.300781 Z M 30.304688 147.074219 C 31.273438 148.183594 32.269531 149.269531 33.296875 150.328125 L 31.140625 152.417969 C 30.078125 151.320312 29.042969 150.195312 28.039062 149.046875 Z M 34.332031 151.378906 C 35.375 152.417969 36.449219 153.429688 37.546875 154.414062 L 35.546875 156.648438 C 34.40625 155.632812 33.296875 154.582031 32.214844 153.503906 Z M 38.65625 155.386719 C 39.773438 156.351562 40.914062 157.28125 42.078125 158.183594 L 40.242188 160.558594 C 39.035156 159.625 37.851562 158.65625 36.695312 157.660156 Z M 43.25 159.078125 C 44.433594 159.957031 45.640625 160.808594 46.867188 161.625 L 45.203125 164.125 C 43.933594 163.277344 42.683594 162.398438 41.457031 161.480469 Z M 48.101562 162.429688 C 49.34375 163.226562 50.605469 163.988281 51.886719 164.714844 L 50.40625 167.324219 C 49.078125 166.570312 47.769531 165.78125 46.480469 164.957031 Z M 53.179688 165.433594 C 54.472656 166.136719 55.785156 166.804688 57.113281 167.4375 L 55.824219 170.144531 C 54.445312 169.492188 53.085938 168.796875 51.746094 168.070312 Z M 58.449219 168.058594 C 59.792969 168.667969 61.148438 169.242188 62.523438 169.777344 L 61.429688 172.574219 C 60.007812 172.015625 58.601562 171.421875 57.210938 170.789062 Z M 63.898438 170.300781 C 65.285156 170.8125 66.683594 171.289062 68.09375 171.726562 L 67.207031 174.589844 C 65.742188 174.140625 64.292969 173.648438 62.855469 173.113281 Z M 69.5 172.144531 C 70.914062 172.558594 72.339844 172.929688 73.773438 173.261719 L 73.097656 176.1875 C 71.609375 175.839844 70.128906 175.453125 68.664062 175.027344 Z M 75.21875 173.585938 C 76.65625 173.890625 78.101562 174.160156 79.554688 174.390625 L 79.085938 177.351562 C 77.582031 177.117188 76.082031 176.835938 74.59375 176.519531 Z M 81.015625 174.605469 C 82.476562 174.808594 83.941406 174.976562 85.414062 175.101562 L 85.160156 178.089844 C 83.632812 177.960938 82.113281 177.789062 80.597656 177.578125 Z M 86.875 175.210938 C 88.347656 175.3125 89.824219 175.371094 91.304688 175.394531 L 91.261719 178.394531 C 89.726562 178.371094 88.199219 178.308594 86.671875 178.207031 Z M 92.792969 175.402344 C 94.277344 175.398438 95.757812 175.355469 97.234375 175.269531 L 97.402344 178.265625 C 95.875 178.351562 94.339844 178.398438 92.804688 178.402344 Z M 98.703125 175.175781 C 100.171875 175.066406 101.636719 174.917969 103.097656 174.730469 L 103.480469 177.707031 C 101.964844 177.902344 100.445312 178.054688 98.921875 178.167969 Z M 104.5625 174.53125 C 106.019531 174.320312 107.464844 174.066406 108.90625 173.777344 L 109.496094 176.71875 C 108.003906 177.019531 106.503906 177.28125 104.996094 177.5 Z M 110.351562 173.472656 C 111.792969 173.15625 113.226562 172.800781 114.648438 172.40625 L 115.449219 175.296875 C 113.976562 175.707031 112.492188 176.074219 110.996094 176.402344 Z M 116.058594 172 C 117.472656 171.578125 118.875 171.121094 120.265625 170.625 L 121.273438 173.449219 C 119.832031 173.964844 118.378906 174.441406 116.914062 174.875 Z M 121.648438 170.117188 C 123.027344 169.597656 124.390625 169.039062 125.738281 168.445312 L 126.945312 171.191406 C 125.550781 171.808594 124.136719 172.386719 122.707031 172.925781 Z M 127.082031 167.839844 C 128.421875 167.222656 129.742188 166.570312 131.042969 165.878906 L 132.445312 168.53125 C 131.097656 169.246094 129.726562 169.921875 128.34375 170.5625 Z M 132.339844 165.179688 C 133.628906 164.464844 134.902344 163.71875 136.15625 162.9375 L 137.742188 165.484375 C 136.445312 166.292969 135.128906 167.066406 133.789062 167.804688 Z M 137.398438 162.144531 C 138.632812 161.34375 139.847656 160.507812 141.039062 159.640625 L 142.804688 162.066406 C 141.570312 162.964844 140.3125 163.832031 139.03125 164.664062 Z M 142.222656 158.761719 C 143.398438 157.871094 144.550781 156.953125 145.679688 156.003906 L 147.613281 158.296875 C 146.445312 159.28125 145.25 160.234375 144.035156 161.15625 Z M 146.796875 155.042969 C 147.90625 154.070312 148.992188 153.070312 150.046875 152.042969 L 152.140625 154.195312 C 151.046875 155.261719 149.921875 156.296875 148.773438 157.300781 Z M 151.09375 151.007812 C 152.132812 149.960938 153.144531 148.886719 154.125 147.785156 L 156.363281 149.78125 C 155.347656 150.921875 154.300781 152.035156 153.226562 153.121094 Z M 155.097656 146.675781 C 156.058594 145.558594 156.988281 144.417969 157.890625 143.25 L 160.265625 145.082031 C 159.332031 146.292969 158.367188 147.476562 157.371094 148.632812 Z M 158.78125 142.074219 C 159.660156 140.890625 160.507812 139.683594 161.324219 138.453125 L 163.824219 140.113281 C 162.980469 141.386719 162.101562 142.636719 161.1875 143.863281 Z M 162.125 137.21875 C 162.917969 135.976562 163.679688 134.714844 164.40625 133.429688 L 167.015625 134.90625 C 166.265625 136.234375 165.476562 137.546875 164.65625 138.835938 Z M 165.121094 132.136719 C 165.820312 130.84375 166.488281 129.53125 167.117188 128.199219 L 169.828125 129.484375 C 169.175781 130.863281 168.484375 132.222656 167.757812 133.566406 Z M 167.738281 126.859375 C 168.34375 125.519531 168.914062 124.160156 169.449219 122.785156 L 172.246094 123.875 C 171.691406 125.296875 171.101562 126.707031 170.472656 128.097656 Z M 169.96875 121.410156 C 170.480469 120.023438 170.953125 118.625 171.386719 117.210938 L 174.257812 118.09375 C 173.804688 119.558594 173.316406 121.007812 172.785156 122.445312 Z M 171.808594 115.804688 C 172.214844 114.390625 172.585938 112.964844 172.917969 111.527344 L 175.839844 112.203125 C 175.496094 113.691406 175.113281 115.171875 174.691406 116.636719 Z M 173.238281 110.082031 C 173.539062 108.644531 173.808594 107.199219 174.035156 105.746094 L 177 106.210938 C 176.761719 107.714844 176.488281 109.214844 176.171875 110.703125 Z M 174.25 104.285156 C 174.449219 102.828125 174.613281 101.359375 174.734375 99.886719 L 177.726562 100.136719 C 177.597656 101.664062 177.429688 103.183594 177.222656 104.695312 Z M 174.84375 98.425781 C 174.941406 96.953125 175 95.476562 175.019531 93.996094 L 178.019531 94.03125 C 178 95.566406 177.941406 97.097656 177.839844 98.621094 Z M 175.027344 92.503906 C 175.019531 91.019531 174.972656 89.542969 174.886719 88.066406 L 177.882812 87.890625 C 177.972656 89.421875 178.019531 90.953125 178.027344 92.492188 Z M 174.789062 86.597656 C 174.679688 85.128906 174.527344 83.664062 174.339844 82.203125 L 177.316406 81.816406 C 177.511719 83.328125 177.667969 84.847656 177.78125 86.375 Z M 174.136719 80.738281 C 173.921875 79.285156 173.667969 77.835938 173.375 76.398438 L 176.316406 75.800781 C 176.621094 77.292969 176.882812 78.792969 177.105469 80.300781 Z M 173.070312 74.949219 C 172.75 73.507812 172.390625 72.078125 171.992188 70.65625 L 174.882812 69.851562 C 175.296875 71.324219 175.667969 72.808594 176 74.300781 Z M 171.585938 69.246094 C 171.164062 67.832031 170.703125 66.429688 170.203125 65.042969 L 173.03125 64.027344 C 173.546875 65.46875 174.023438 66.921875 174.460938 68.386719 Z M 169.695312 63.660156 C 169.171875 62.28125 168.613281 60.921875 168.019531 59.574219 L 170.761719 58.359375 C 171.378906 59.757812 171.960938 61.167969 172.5 62.59375 Z M 167.410156 58.226562 C 166.789062 56.894531 166.132812 55.574219 165.441406 54.273438 L 168.09375 52.863281 C 168.808594 54.214844 169.488281 55.582031 170.132812 56.964844 Z M 164.738281 52.976562 C 164.023438 51.6875 163.277344 50.417969 162.492188 49.164062 L 165.035156 47.574219 C 165.847656 48.867188 166.625 50.1875 167.363281 51.523438 Z M 161.699219 47.925781 C 160.894531 46.691406 160.058594 45.476562 159.1875 44.285156 L 161.609375 42.515625 C 162.511719 43.75 163.378906 45.007812 164.214844 46.285156 Z M 158.304688 43.101562 C 157.414062 41.929688 156.496094 40.777344 155.542969 39.652344 L 157.832031 37.714844 C 158.820312 38.878906 159.773438 40.074219 160.699219 41.289062 Z M 154.578125 38.535156 C 153.609375 37.425781 152.605469 36.34375 151.578125 35.289062 L 153.722656 33.191406 C 154.792969 34.285156 155.828125 35.40625 156.835938 36.554688 Z M 150.539062 34.242188 C 149.488281 33.207031 148.414062 32.199219 147.3125 31.21875 L 149.304688 28.976562 C 150.449219 29.992188 151.5625 31.035156 152.648438 32.109375 Z M 146.199219 30.25 C 145.082031 29.289062 143.9375 28.359375 142.769531 27.460938 L 144.597656 25.082031 C 145.808594 26.011719 146.996094 26.976562 148.15625 27.96875 Z M 141.59375 26.574219 C 140.40625 25.695312 139.199219 24.847656 137.96875 24.035156 L 139.625 21.53125 C 140.898438 22.375 142.152344 23.25 143.378906 24.164062 Z M 136.734375 23.234375 C 135.488281 22.441406 134.222656 21.683594 132.9375 20.960938 L 134.410156 18.347656 C 135.742188 19.097656 137.054688 19.882812 138.34375 20.703125 Z M 131.648438 20.25 C 130.351562 19.550781 129.035156 18.886719 127.707031 18.257812 L 128.988281 15.542969 C 130.367188 16.195312 131.726562 16.882812 133.070312 17.609375 Z M 126.367188 17.640625 C 125.019531 17.035156 123.664062 16.464844 122.289062 15.933594 L 123.371094 13.136719 C 124.796875 13.6875 126.203125 14.277344 127.597656 14.902344 Z M 120.910156 15.414062 C 119.523438 14.90625 118.125 14.4375 116.710938 14.003906 L 117.589844 11.136719 C 119.054688 11.582031 120.503906 12.070312 121.941406 12.597656 Z M 115.304688 13.589844 C 113.886719 13.183594 112.460938 12.8125 111.023438 12.484375 L 111.695312 9.558594 C 113.183594 9.902344 114.664062 10.28125 116.132812 10.703125 Z M 109.578125 12.167969 C 108.140625 11.867188 106.695312 11.601562 105.242188 11.378906 L 105.699219 8.410156 C 107.207031 8.644531 108.703125 8.917969 110.195312 9.230469 Z M 103.78125 11.164062 C 102.320312 10.964844 100.855469 10.804688 99.382812 10.683594 L 99.628906 7.695312 C 101.152344 7.820312 102.671875 7.984375 104.1875 8.191406 Z M 97.917969 10.578125 C 96.445312 10.480469 94.96875 10.425781 93.484375 10.410156 L 93.519531 7.410156 C 95.054688 7.425781 96.585938 7.484375 98.109375 7.582031 Z M 92.527344 10.402344 C 91.042969 10.402344 89.5625 10.441406 88.082031 10.523438 L 87.925781 7.523438 C 89.453125 7.445312 90.988281 7.402344 92.527344 7.402344 Z M 92.527344 10.402344 " fill-opacity="1" fill-rule="nonzero"/></g></g></g></g></g><g mask="url(#c1028a7d4e)"><g transform="matrix(1, 0, 0, 1, 110, 126)"><g clip-path="url(#c3d8103a42)"><g clip-path="url(#c85585bf2b)"><g clip-path="url(#21bc71ecfe)"><path fill="#dc9849" d="M 0.820312 0.195312 L 154.179688 0.195312 L 154.179688 153.558594 L 0.820312 153.558594 Z M 0.820312 0.195312 " fill-opacity="1" fill-rule="nonzero"/></g></g></g></g></g><g clip-path="url(#69a5720667)"><g clip-path="url(#57724e2df2)"><path fill="#673f6c" d="M 154.96875 159.9375 L 220.03125 159.9375 L 220.03125 245.816406 L 154.96875 245.816406 Z M 154.96875 159.9375 " fill-opacity="1" fill-rule="nonzero"/></g></g><g fill="#997c50" fill-opacity="1"><g transform="translate(114.599062, 142.712688)"><g><path d="M -2.867188 -4.507812 C -0.808594 -2.425781 2.296875 -1.738281 5.933594 -5.324219 C 9.105469 -8.445312 9.191406 -11.03125 7.035156 -13.214844 C 5.226562 -15.050781 3.1875 -14.785156 0.972656 -13.160156 L -2.140625 -10.878906 C -3.320312 -10.011719 -4.363281 -10.167969 -5.171875 -10.984375 C -6.273438 -12.101562 -6.261719 -13.660156 -4.457031 -15.433594 C -2.574219 -17.292969 -0.816406 -17.28125 0.664062 -16.109375 L 2.332031 -17.753906 C 0.226562 -19.589844 -2.636719 -19.859375 -5.757812 -16.785156 C -8.726562 -13.859375 -8.679688 -11.078125 -6.855469 -9.226562 C -5.144531 -7.492188 -3.191406 -7.476562 -1.042969 -9.066406 L 1.886719 -11.230469 C 3.320312 -12.28125 4.496094 -12.324219 5.515625 -11.289062 C 6.632812 -10.152344 6.855469 -8.859375 4.621094 -6.65625 C 2.433594 -4.503906 0.511719 -4.519531 -1.195312 -6.152344 Z M -2.867188 -4.507812 "/></g></g></g><g fill="#997c50" fill-opacity="1"><g transform="translate(126.609404, 130.992309)"><g><path d="M 1.382812 -19.8125 L 5.097656 -14.375 L -1.828125 -9.644531 L -5.539062 -15.078125 L -7.53125 -13.71875 L 1.257812 -0.859375 L 3.25 -2.21875 L -0.730469 -8.039062 L 6.195312 -12.773438 L 10.171875 -6.953125 L 12.164062 -8.3125 L 3.375 -21.171875 Z M 1.382812 -19.8125 "/></g></g></g><g fill="#997c50" fill-opacity="1"><g transform="translate(141.231958, 121.219218)"><g><path d="M 2.785156 -3.390625 L 0.691406 -8.023438 L 8.570312 -11.582031 L 7.789062 -13.3125 L -0.0898438 -9.753906 L -2.027344 -14.042969 L 6.488281 -17.890625 L 5.6875 -19.660156 L -5.027344 -14.820312 L 1.386719 -0.625 L 12.167969 -5.496094 L 11.367188 -7.269531 Z M 2.785156 -3.390625 "/></g></g></g><g fill="#997c50" fill-opacity="1"><g transform="translate(156.293515, 114.827063)"><g/></g></g><g fill="#997c50" fill-opacity="1"><g transform="translate(163.486064, 112.591514)"><g><path d="M -0.238281 -5.808594 L 0.425781 -5.945312 C 1.734375 -6.214844 2.347656 -5.671875 2.640625 -4.25 L 3.453125 -0.304688 C 3.953125 2.128906 5.589844 3.800781 9.558594 2.984375 L 9.363281 2.042969 C 7.398438 2.375 6.222656 1.542969 5.703125 -0.980469 L 4.90625 -4.859375 C 4.648438 -6.121094 3.929688 -7.050781 2.441406 -7.078125 L 2.367188 -7.445312 C 3.722656 -8.058594 4.015625 -9.195312 3.753906 -10.457031 L 2.957031 -14.332031 C 2.4375 -16.855469 3.191406 -18.089844 5.125 -18.558594 L 4.933594 -19.5 C 0.964844 -18.683594 0.121094 -16.5 0.621094 -14.070312 L 1.433594 -10.121094 C 1.726562 -8.699219 1.375 -7.957031 0.0703125 -7.691406 L -0.597656 -7.554688 Z M -0.238281 -5.808594 "/></g></g></g><g fill="#997c50" fill-opacity="1"><g transform="translate(174.290992, 110.299613)"><g><path d="M 12.410156 -14.429688 L 12.289062 -16.367188 L 0.554688 -15.640625 L 1.519531 -0.09375 L 3.925781 -0.242188 L 3.5 -7.09375 L 12.128906 -7.628906 L 12.011719 -9.523438 L 3.382812 -8.988281 L 3.082031 -13.847656 Z M 12.410156 -14.429688 "/></g></g></g><g fill="#997c50" fill-opacity="1"><g transform="translate(190.118021, 109.367389)"><g><path d="M 2.140625 -5.464844 C 1.710938 -1.601562 3.589844 0.777344 7.917969 1.257812 C 12.25 1.738281 14.609375 -0.191406 15.035156 -4.03125 L 16.128906 -13.878906 L 13.730469 -14.144531 L 12.675781 -4.648438 C 12.273438 -1.015625 10.746094 -0.433594 8.140625 -0.722656 C 5.53125 -1.011719 4.171875 -1.917969 4.574219 -5.546875 L 5.632812 -15.046875 L 3.234375 -15.3125 Z M 2.140625 -5.464844 "/></g></g></g><g fill="#997c50" fill-opacity="1"><g transform="translate(207.318951, 111.365559)"><g><path d="M 16.78125 -11.1875 L 12.703125 2.261719 C 12.605469 1.375 12.480469 0.332031 12.347656 -0.367188 L 9.964844 -13.253906 L 5.976562 -14.464844 L 1.457031 0.441406 L 3.765625 1.140625 L 7.84375 -12.304688 C 7.894531 -11.507812 8.039062 -10.609375 8.207031 -9.625 L 10.578125 3.207031 L 14.570312 4.417969 L 19.089844 -10.488281 Z M 16.78125 -11.1875 "/></g></g></g><g fill="#997c50" fill-opacity="1"><g transform="translate(224.530807, 116.712519)"><g><path d="M 14.539062 -9.980469 L 8.558594 -13.101562 L 1.347656 0.703125 L 7.328125 3.828125 C 11.855469 6.191406 15.484375 4.042969 17.449219 0.285156 C 19.390625 -3.429688 19.066406 -7.617188 14.539062 -9.980469 Z M 7.8125 1.886719 L 4.386719 0.0976562 L 9.796875 -10.261719 L 13.222656 -8.472656 C 16.648438 -6.683594 17.003906 -4.332031 15.207031 -0.882812 C 13.40625 2.5625 11.238281 3.675781 7.8125 1.886719 Z M 7.8125 1.886719 "/></g></g></g><g fill="#997c50" fill-opacity="1"><g transform="translate(240.368988, 125.177804)"><g><path d="M 4.097656 -3.429688 C 2.296875 -1.121094 2.023438 2.050781 6.050781 5.191406 C 9.5625 7.925781 12.132812 7.671875 14.019531 5.25 C 15.601562 3.21875 15.074219 1.230469 13.175781 -0.753906 L 10.507812 -3.542969 C 9.492188 -4.601562 9.511719 -5.652344 10.214844 -6.558594 C 11.179688 -7.796875 12.726562 -7.988281 14.722656 -6.433594 C 16.808594 -4.808594 17.027344 -3.066406 16.058594 -1.445312 L 17.90625 -0.00390625 C 19.453125 -2.332031 19.347656 -5.207031 15.890625 -7.898438 C 12.601562 -10.460938 9.847656 -10.050781 8.25 -8 C 6.753906 -6.078125 6.996094 -4.140625 8.851562 -2.21875 L 11.382812 0.40625 C 12.609375 1.6875 12.804688 2.847656 11.910156 3.996094 C 10.933594 5.25 9.679688 5.640625 7.203125 3.710938 C 4.78125 1.824219 4.546875 -0.0820312 5.945312 -1.988281 Z M 4.097656 -3.429688 "/></g></g></g><g fill="#997c50" fill-opacity="1"><g transform="translate(253.533778, 135.843065)"><g><path d="M 10.074219 2.226562 L 11.359375 0.996094 L 10.890625 0.503906 C 9.964844 -0.460938 10.101562 -1.269531 11.148438 -2.273438 L 14.058594 -5.058594 C 15.851562 -6.777344 16.398438 -9.050781 13.597656 -11.976562 L 12.902344 -11.3125 C 14.230469 -9.828125 14.148438 -8.386719 12.289062 -6.605469 L 9.425781 -3.867188 C 8.496094 -2.976562 8.09375 -1.878906 8.859375 -0.601562 L 8.589844 -0.34375 C 7.347656 -1.164062 6.230469 -0.808594 5.300781 0.0820312 L 2.441406 2.820312 C 0.578125 4.601562 -0.863281 4.621094 -2.289062 3.230469 L -2.984375 3.894531 C -0.183594 6.820312 2.113281 6.375 3.90625 4.65625 L 6.816406 1.871094 C 7.867188 0.867188 8.679688 0.769531 9.601562 1.734375 Z M 10.074219 2.226562 "/></g></g></g><g mask="url(#68a1bda229)"><g transform="matrix(1, 0, 0, 1, 103, 118)"><g clip-path="url(#590bc300e4)"><g clip-path="url(#c426c95e54)"><g clip-path="url(#a1dc4923fc)"><path fill="#854ab1" d="M 79.175781 9.917969 C 77.707031 10.03125 76.242188 10.1875 74.789062 10.386719 L 74.382812 7.414062 C 75.898438 7.207031 77.417969 7.046875 78.945312 6.929688 Z M 73.332031 10.597656 C 71.878906 10.824219 70.4375 11.089844 69.003906 11.398438 L 68.371094 8.46875 C 69.863281 8.148438 71.359375 7.867188 72.871094 7.632812 Z M 67.5625 11.726562 C 66.132812 12.0625 64.714844 12.445312 63.308594 12.863281 L 62.449219 9.992188 C 63.910156 9.554688 65.386719 9.160156 66.875 8.808594 Z M 61.90625 13.300781 C 60.503906 13.75 59.117188 14.242188 57.742188 14.773438 L 56.660156 11.976562 C 58.089844 11.421875 59.53125 10.914062 60.988281 10.445312 Z M 56.378906 15.316406 C 55.019531 15.871094 53.671875 16.46875 52.347656 17.105469 L 51.050781 14.402344 C 52.429688 13.742188 53.828125 13.121094 55.242188 12.539062 Z M 51.027344 17.753906 C 49.714844 18.417969 48.421875 19.117188 47.148438 19.851562 L 45.644531 17.257812 C 46.96875 16.492188 48.3125 15.765625 49.675781 15.078125 Z M 45.882812 20.601562 C 44.625 21.363281 43.390625 22.164062 42.179688 22.996094 L 40.480469 20.527344 C 41.738281 19.660156 43.023438 18.832031 44.328125 18.039062 Z M 40.972656 23.84375 C 39.773438 24.703125 38.601562 25.597656 37.457031 26.523438 L 35.570312 24.191406 C 36.761719 23.230469 37.980469 22.300781 39.222656 21.40625 Z M 36.320312 27.460938 C 35.195312 28.40625 34.097656 29.386719 33.027344 30.398438 L 30.96875 28.21875 C 32.078125 27.167969 33.21875 26.152344 34.390625 25.167969 Z M 31.96875 31.421875 C 30.917969 32.453125 29.902344 33.511719 28.914062 34.601562 L 26.691406 32.589844 C 27.71875 31.457031 28.777344 30.355469 29.867188 29.28125 Z M 27.9375 35.703125 C 26.96875 36.8125 26.035156 37.949219 25.132812 39.117188 L 22.761719 37.28125 C 23.699219 36.070312 24.667969 34.886719 25.675781 33.734375 Z M 24.242188 40.289062 C 23.363281 41.472656 22.519531 42.679688 21.710938 43.910156 L 19.203125 42.265625 C 20.042969 40.984375 20.921875 39.730469 21.835938 38.5 Z M 20.914062 45.144531 C 20.128906 46.394531 19.382812 47.660156 18.671875 48.949219 L 16.046875 47.503906 C 16.785156 46.164062 17.5625 44.84375 18.375 43.546875 Z M 17.976562 50.242188 C 17.292969 51.542969 16.644531 52.863281 16.039062 54.203125 L 13.308594 52.964844 C 13.9375 51.574219 14.609375 50.199219 15.324219 48.847656 Z M 15.445312 55.550781 C 14.863281 56.902344 14.324219 58.265625 13.824219 59.648438 L 11.003906 58.625 C 11.523438 57.191406 12.085938 55.769531 12.6875 54.367188 Z M 13.335938 61.035156 C 12.863281 62.425781 12.429688 63.832031 12.039062 65.25 L 9.148438 64.449219 C 9.554688 62.976562 10.003906 61.515625 10.496094 60.070312 Z M 11.664062 66.667969 C 11.300781 68.09375 10.976562 69.53125 10.699219 70.980469 L 7.753906 70.410156 C 8.042969 68.90625 8.378906 67.410156 8.757812 65.925781 Z M 10.433594 72.417969 C 10.183594 73.867188 9.972656 75.328125 9.808594 76.792969 L 6.828125 76.453125 C 7 74.929688 7.21875 73.414062 7.480469 71.90625 Z M 9.65625 78.257812 C 9.515625 79.714844 9.421875 81.179688 9.367188 82.644531 L 6.371094 82.539062 C 6.425781 81.011719 6.527344 79.492188 6.667969 77.976562 Z M 9.328125 84.113281 L 9.316406 85.457031 C 9.316406 86.492188 9.339844 87.53125 9.382812 88.570312 L 6.386719 88.691406 C 6.339844 87.609375 6.320312 86.523438 6.320312 85.429688 L 6.332031 84.085938 Z M 9.457031 90.039062 C 9.542969 91.503906 9.671875 92.96875 9.84375 94.421875 L 6.867188 94.773438 C 6.6875 93.261719 6.554688 91.742188 6.460938 90.21875 Z M 10.03125 95.886719 C 10.234375 97.34375 10.476562 98.789062 10.757812 100.226562 L 7.816406 100.808594 C 7.523438 99.3125 7.269531 97.808594 7.0625 96.296875 Z M 11.058594 101.667969 C 11.375 103.109375 11.730469 104.535156 12.125 105.953125 L 9.238281 106.765625 C 8.828125 105.289062 8.457031 103.804688 8.128906 102.308594 Z M 12.535156 107.359375 C 12.960938 108.769531 13.429688 110.167969 13.9375 111.546875 L 11.121094 112.582031 C 10.59375 111.144531 10.109375 109.691406 9.664062 108.226562 Z M 14.457031 112.921875 C 14.988281 114.292969 15.5625 115.644531 16.175781 116.984375 L 13.449219 118.234375 C 12.8125 116.84375 12.214844 115.433594 11.660156 114.011719 Z M 16.800781 118.3125 C 17.441406 119.636719 18.117188 120.941406 18.832031 122.226562 L 16.210938 123.683594 C 15.46875 122.347656 14.765625 120.992188 14.101562 119.617188 Z M 19.558594 123.503906 C 20.300781 124.777344 21.074219 126.023438 21.890625 127.25 L 19.390625 128.90625 C 18.542969 127.632812 17.738281 126.335938 16.96875 125.015625 Z M 22.714844 128.46875 C 23.550781 129.679688 24.425781 130.867188 25.332031 132.03125 L 22.96875 133.878906 C 22.027344 132.667969 21.117188 131.433594 20.246094 130.175781 Z M 26.25 133.183594 C 27.179688 134.324219 28.140625 135.441406 29.132812 136.527344 L 26.917969 138.550781 C 25.886719 137.421875 24.890625 136.261719 23.925781 135.074219 Z M 30.136719 137.601562 C 31.148438 138.671875 32.191406 139.707031 33.265625 140.714844 L 31.214844 142.902344 C 30.097656 141.855469 29.015625 140.777344 27.960938 139.667969 Z M 34.347656 141.710938 C 35.441406 142.695312 36.5625 143.648438 37.710938 144.570312 L 35.835938 146.910156 C 34.640625 145.953125 33.476562 144.960938 32.339844 143.9375 Z M 38.871094 145.480469 C 40.039062 146.382812 41.230469 147.246094 42.449219 148.078125 L 40.761719 150.554688 C 39.492188 149.691406 38.253906 148.792969 37.039062 147.855469 Z M 43.671875 148.894531 C 44.902344 149.699219 46.15625 150.46875 47.433594 151.199219 L 45.941406 153.800781 C 44.613281 153.039062 43.3125 152.242188 42.03125 151.402344 Z M 48.71875 151.917969 C 50.003906 152.625 51.3125 153.292969 52.640625 153.921875 L 51.355469 156.632812 C 49.976562 155.976562 48.617188 155.28125 47.277344 154.546875 Z M 53.976562 154.539062 C 55.316406 155.144531 56.675781 155.710938 58.046875 156.234375 L 56.976562 159.035156 C 55.550781 158.488281 54.136719 157.902344 52.746094 157.273438 Z M 59.425781 156.746094 C 60.808594 157.242188 62.207031 157.699219 63.621094 158.117188 L 62.773438 160.992188 C 61.304688 160.558594 59.851562 160.085938 58.410156 159.566406 Z M 65.03125 158.515625 C 66.453125 158.90625 67.882812 159.253906 69.324219 159.558594 L 68.703125 162.492188 C 67.207031 162.175781 65.714844 161.8125 64.238281 161.410156 Z M 70.761719 159.847656 C 72.203125 160.121094 73.65625 160.355469 75.113281 160.546875 L 74.722656 163.519531 C 73.207031 163.320312 71.699219 163.078125 70.199219 162.792969 Z M 76.578125 160.726562 C 78.035156 160.886719 79.496094 161.007812 80.960938 161.085938 L 80.804688 164.078125 C 79.277344 164 77.761719 163.875 76.246094 163.703125 Z M 82.433594 161.148438 C 83.3125 161.179688 84.1875 161.195312 85.070312 161.195312 C 85.671875 161.195312 86.277344 161.1875 86.882812 161.171875 L 86.953125 164.171875 C 86.324219 164.1875 85.695312 164.195312 85.070312 164.195312 C 84.15625 164.195312 83.242188 164.179688 82.332031 164.148438 Z M 88.355469 161.125 C 89.824219 161.0625 91.285156 160.957031 92.738281 160.8125 L 93.039062 163.796875 C 91.527344 163.949219 90.007812 164.054688 88.484375 164.121094 Z M 94.210938 160.648438 C 95.671875 160.472656 97.128906 160.253906 98.574219 159.996094 L 99.105469 162.945312 C 97.601562 163.214844 96.089844 163.445312 94.570312 163.625 Z M 100.011719 159.722656 C 101.457031 159.433594 102.894531 159.101562 104.320312 158.726562 L 105.078125 161.628906 C 103.597656 162.015625 102.101562 162.363281 100.597656 162.664062 Z M 105.734375 158.34375 C 107.148438 157.941406 108.550781 157.5 109.941406 157.015625 L 110.925781 159.851562 C 109.480469 160.351562 108.023438 160.8125 106.550781 161.226562 Z M 111.328125 156.519531 C 112.703125 156.011719 114.066406 155.460938 115.410156 154.875 L 116.613281 157.621094 C 115.214844 158.234375 113.796875 158.804688 112.367188 159.332031 Z M 116.753906 154.269531 C 118.089844 153.65625 119.40625 153 120.703125 152.308594 L 122.113281 154.953125 C 120.765625 155.671875 119.398438 156.351562 118.011719 156.992188 Z M 121.992188 151.601562 C 123.277344 150.882812 124.539062 150.128906 125.78125 149.335938 L 127.394531 151.863281 C 126.105469 152.6875 124.792969 153.472656 123.457031 154.21875 Z M 127.011719 148.535156 C 128.238281 147.71875 129.4375 146.863281 130.617188 145.976562 L 132.421875 148.371094 C 131.195312 149.292969 129.949219 150.179688 128.671875 151.03125 Z M 131.785156 145.078125 C 132.941406 144.171875 134.074219 143.230469 135.179688 142.253906 L 137.164062 144.503906 C 136.015625 145.515625 134.839844 146.492188 133.636719 147.4375 Z M 136.273438 141.269531 C 137.355469 140.273438 138.410156 139.25 139.433594 138.195312 L 141.585938 140.28125 C 140.523438 141.378906 139.425781 142.445312 138.300781 143.480469 Z M 140.449219 137.128906 C 141.453125 136.050781 142.425781 134.949219 143.367188 133.816406 L 145.671875 135.730469 C 144.695312 136.910156 143.683594 138.054688 142.640625 139.175781 Z M 144.296875 132.675781 C 145.21875 131.523438 146.101562 130.34375 146.953125 129.140625 L 149.402344 130.871094 C 148.515625 132.125 147.597656 133.347656 146.640625 134.546875 Z M 147.792969 127.929688 C 148.621094 126.710938 149.410156 125.472656 150.164062 124.210938 L 152.738281 125.746094 C 151.953125 127.058594 151.132812 128.347656 150.273438 129.613281 Z M 150.902344 122.941406 C 151.632812 121.660156 152.324219 120.363281 152.976562 119.046875 L 155.664062 120.378906 C 154.984375 121.75 154.265625 123.097656 153.507812 124.425781 Z M 153.617188 117.726562 C 154.246094 116.394531 154.832031 115.046875 155.382812 113.679688 L 158.164062 114.800781 C 157.59375 116.21875 156.980469 117.621094 156.328125 119.003906 Z M 155.917969 112.3125 C 156.4375 110.9375 156.921875 109.542969 157.363281 108.140625 L 160.222656 109.035156 C 159.765625 110.496094 159.261719 111.945312 158.71875 113.378906 Z M 157.785156 106.738281 C 158.199219 105.324219 158.570312 103.902344 158.898438 102.46875 L 161.820312 103.140625 C 161.480469 104.632812 161.09375 106.109375 160.664062 107.578125 Z M 159.214844 101.027344 C 159.515625 99.59375 159.773438 98.148438 159.988281 96.699219 L 162.957031 97.140625 C 162.730469 98.648438 162.460938 100.148438 162.152344 101.640625 Z M 160.191406 95.238281 C 160.378906 93.78125 160.527344 92.320312 160.628906 90.851562 L 163.621094 91.0625 C 163.511719 92.589844 163.363281 94.109375 163.167969 95.621094 Z M 160.71875 89.386719 C 160.785156 88.074219 160.820312 86.761719 160.820312 85.445312 L 160.816406 84.945312 L 163.816406 84.933594 L 163.816406 85.445312 C 163.816406 86.8125 163.785156 88.179688 163.714844 89.539062 Z M 160.792969 83.46875 C 160.757812 81.996094 160.675781 80.527344 160.554688 79.066406 L 163.542969 78.816406 C 163.667969 80.335938 163.753906 81.859375 163.792969 83.390625 Z M 160.417969 77.613281 C 160.269531 76.140625 160.074219 74.679688 159.839844 73.222656 L 162.800781 72.742188 C 163.042969 74.257812 163.246094 75.777344 163.402344 77.304688 Z M 159.589844 71.777344 C 159.328125 70.332031 159.019531 68.890625 158.671875 67.460938 L 161.585938 66.753906 C 161.949219 68.238281 162.265625 69.734375 162.539062 71.242188 Z M 158.3125 66.035156 C 157.9375 64.617188 157.519531 63.210938 157.0625 61.8125 L 159.910156 60.878906 C 160.386719 62.332031 160.820312 63.792969 161.210938 65.269531 Z M 156.589844 60.417969 C 156.101562 59.03125 155.578125 57.660156 155.011719 56.304688 L 157.78125 55.152344 C 158.367188 56.558594 158.914062 57.984375 159.417969 59.425781 Z M 154.433594 54.953125 C 153.839844 53.605469 153.207031 52.277344 152.535156 50.964844 L 155.207031 49.601562 C 155.902344 50.960938 156.5625 52.34375 157.175781 53.742188 Z M 151.855469 49.667969 C 151.160156 48.371094 150.425781 47.09375 149.65625 45.839844 L 152.210938 44.269531 C 153.011719 45.574219 153.773438 46.902344 154.496094 48.25 Z M 148.875 44.597656 C 148.078125 43.355469 147.246094 42.140625 146.382812 40.949219 L 148.808594 39.1875 C 149.707031 40.425781 150.570312 41.6875 151.398438 42.976562 Z M 145.503906 39.765625 C 144.613281 38.59375 143.691406 37.445312 142.734375 36.324219 L 145.019531 34.378906 C 146.011719 35.542969 146.96875 36.734375 147.894531 37.957031 Z M 141.769531 35.210938 C 140.792969 34.113281 139.785156 33.039062 138.75 31.996094 L 140.875 29.882812 C 141.953125 30.964844 143 32.078125 144.015625 33.222656 Z M 137.699219 30.964844 C 136.640625 29.941406 135.554688 28.949219 134.441406 27.992188 L 136.394531 25.71875 C 137.554688 26.714844 138.683594 27.746094 139.785156 28.808594 Z M 133.316406 27.042969 C 132.179688 26.101562 131.015625 25.195312 129.828125 24.324219 L 131.601562 21.90625 C 132.835938 22.8125 134.046875 23.753906 135.226562 24.730469 Z M 128.632812 23.464844 C 127.429688 22.617188 126.203125 21.804688 124.953125 21.03125 L 126.53125 18.484375 C 127.832031 19.289062 129.109375 20.132812 130.359375 21.011719 Z M 123.695312 20.265625 C 122.429688 19.515625 121.144531 18.800781 119.835938 18.125 L 121.214844 15.464844 C 122.574219 16.164062 123.910156 16.90625 125.226562 17.6875 Z M 118.527344 17.464844 C 117.207031 16.8125 115.867188 16.199219 114.507812 15.628906 L 115.675781 12.863281 C 117.085938 13.460938 118.480469 14.097656 119.851562 14.773438 Z M 113.15625 15.070312 C 111.789062 14.523438 110.40625 14.019531 109.011719 13.554688 L 109.960938 10.710938 C 111.410156 11.191406 112.847656 11.71875 114.265625 12.285156 Z M 107.605469 13.101562 C 106.207031 12.667969 104.792969 12.273438 103.371094 11.917969 L 104.089844 9.007812 C 105.574219 9.375 107.042969 9.785156 108.496094 10.238281 Z M 101.9375 11.578125 C 100.503906 11.253906 99.0625 10.96875 97.613281 10.726562 L 98.105469 7.769531 C 99.613281 8.019531 101.113281 8.316406 102.601562 8.652344 Z M 96.160156 10.5 C 94.707031 10.285156 93.242188 10.113281 91.773438 9.984375 L 92.035156 7 C 93.5625 7.132812 95.082031 7.3125 96.597656 7.53125 Z M 90.316406 9.871094 C 88.847656 9.773438 87.371094 9.714844 85.894531 9.699219 L 85.925781 6.699219 C 87.460938 6.714844 88.992188 6.777344 90.519531 6.878906 Z M 85.070312 9.695312 C 83.585938 9.695312 82.109375 9.734375 80.636719 9.820312 L 80.464844 6.828125 C 81.996094 6.738281 83.53125 6.695312 85.070312 6.695312 Z M 85.070312 9.695312 " fill-opacity="1" fill-rule="nonzero"/></g></g></g></g></g><g fill="#854ab1" fill-opacity="1"><g transform="translate(97.996058, 243.851492)"><g><path d="M 0.140625 0.234375 L 9.265625 -1.484375 L 10.1875 0.046875 L 4.34375 7.25 L 3.46875 5.8125 L 4.84375 4.171875 L 3.109375 1.265625 L 1 1.671875 Z M 4.390625 0.984375 L 5.6875 3.15625 L 8.140625 0.203125 Z M 4.390625 0.984375 "/></g></g></g><g fill="#854ab1" fill-opacity="1"><g transform="translate(108.779796, 259.873339)"><g><path d="M 0.5625 0.625 L 7.09375 -5.140625 L 9.234375 -2.703125 C 9.691406 -2.179688 9.984375 -1.675781 10.109375 -1.1875 C 10.234375 -0.695312 10.21875 -0.234375 10.0625 0.203125 C 9.90625 0.640625 9.640625 1.023438 9.265625 1.359375 C 8.898438 1.679688 8.492188 1.894531 8.046875 2 C 7.609375 2.113281 7.144531 2.078125 6.65625 1.890625 C 6.175781 1.710938 5.703125 1.359375 5.234375 0.828125 L 4.140625 -0.40625 L 1.609375 1.828125 Z M 5.109375 -1.265625 L 6.125 -0.125 C 6.5 0.300781 6.859375 0.523438 7.203125 0.546875 C 7.546875 0.566406 7.878906 0.4375 8.203125 0.15625 C 8.523438 -0.125 8.695312 -0.4375 8.71875 -0.78125 C 8.738281 -1.125 8.5625 -1.507812 8.1875 -1.9375 L 7.171875 -3.078125 Z M 5.109375 -1.265625 "/></g></g></g><g fill="#854ab1" fill-opacity="1"><g transform="translate(121.468976, 272.815801)"><g><path d="M 0.65625 0.515625 L 6.0625 -6.328125 L 8.609375 -4.3125 C 9.148438 -3.882812 9.523438 -3.4375 9.734375 -2.96875 C 9.953125 -2.5 10.019531 -2.035156 9.9375 -1.578125 C 9.863281 -1.117188 9.671875 -0.695312 9.359375 -0.3125 C 9.054688 0.0703125 8.695312 0.359375 8.28125 0.546875 C 7.863281 0.734375 7.398438 0.78125 6.890625 0.6875 C 6.378906 0.59375 5.847656 0.328125 5.296875 -0.109375 L 4 -1.125 L 1.90625 1.515625 Z M 4.796875 -2.15625 L 6 -1.203125 C 6.445312 -0.859375 6.84375 -0.703125 7.1875 -0.734375 C 7.539062 -0.773438 7.847656 -0.96875 8.109375 -1.3125 C 8.367188 -1.644531 8.476562 -1.984375 8.4375 -2.328125 C 8.40625 -2.671875 8.164062 -3.015625 7.71875 -3.359375 L 6.515625 -4.3125 Z M 4.796875 -2.15625 "/></g></g></g><g fill="#854ab1" fill-opacity="1"><g transform="translate(136.249451, 283.281995)"><g><path d="M 0.75 0.40625 L 4.890625 -7.265625 L 6.28125 -6.515625 L 2.734375 0.0625 L 6.140625 1.890625 L 5.546875 2.984375 Z M 0.75 0.40625 "/></g></g></g><g fill="#854ab1" fill-opacity="1"><g transform="translate(151.935265, 290.663111)"><g><path d="M 0.796875 0.28125 L 3.71875 -7.9375 L 5.21875 -7.40625 L 2.296875 0.8125 Z M 0.796875 0.28125 "/></g></g></g><g fill="#854ab1" fill-opacity="1"><g transform="translate(165.15705, 294.688379)"><g><path d="M 4.6875 1 C 3.820312 0.84375 3.109375 0.519531 2.546875 0.03125 C 1.992188 -0.445312 1.609375 -1.050781 1.390625 -1.78125 C 1.179688 -2.507812 1.15625 -3.3125 1.3125 -4.1875 C 1.46875 -5.050781 1.769531 -5.785156 2.21875 -6.390625 C 2.664062 -7.003906 3.234375 -7.441406 3.921875 -7.703125 C 4.617188 -7.972656 5.398438 -8.03125 6.265625 -7.875 C 7.296875 -7.695312 8.097656 -7.296875 8.671875 -6.671875 C 9.242188 -6.046875 9.523438 -5.253906 9.515625 -4.296875 L 7.78125 -4.609375 C 7.757812 -5.085938 7.597656 -5.492188 7.296875 -5.828125 C 6.992188 -6.160156 6.554688 -6.378906 5.984375 -6.484375 C 5.191406 -6.617188 4.523438 -6.457031 3.984375 -6 C 3.441406 -5.539062 3.085938 -4.84375 2.921875 -3.90625 C 2.753906 -2.957031 2.84375 -2.175781 3.1875 -1.5625 C 3.539062 -0.945312 4.113281 -0.570312 4.90625 -0.4375 C 5.476562 -0.332031 5.960938 -0.375 6.359375 -0.5625 C 6.753906 -0.75 7.039062 -1.050781 7.21875 -1.46875 L 8.953125 -1.15625 C 8.640625 -0.3125 8.109375 0.300781 7.359375 0.6875 C 6.609375 1.070312 5.71875 1.175781 4.6875 1 Z M 4.6875 1 "/></g></g></g><g fill="#854ab1" fill-opacity="1"><g transform="translate(184.798916, 297.117928)"><g><path d="M 0.28125 0 L 3.328125 -8.78125 L 5.125 -8.8125 L 8.453125 -0.140625 L 6.765625 -0.109375 L 6.03125 -2.125 L 2.640625 -2.0625 L 1.953125 -0.03125 Z M 3.03125 -3.3125 L 5.5625 -3.359375 L 4.25 -6.96875 Z M 3.03125 -3.3125 "/></g></g></g><g fill="#854ab1" fill-opacity="1"><g transform="translate(204.060099, 295.760994)"><g><path d="M 2.8125 -0.578125 L 1.328125 -7.859375 L -1.140625 -7.34375 L -1.390625 -8.609375 L 5.15625 -9.9375 L 5.40625 -8.671875 L 2.890625 -8.171875 L 4.375 -0.890625 Z M 2.8125 -0.578125 "/></g></g></g><g fill="#854ab1" fill-opacity="1"><g transform="translate(221.325099, 291.264042)"><g><path d="M 0.796875 -0.296875 L -2.234375 -8.46875 L -0.75 -9.015625 L 2.28125 -0.84375 Z M 0.796875 -0.296875 "/></g></g></g><g fill="#854ab1" fill-opacity="1"><g transform="translate(234.066584, 285.873072)"><g><path d="M 4.359375 -2.328125 C 3.597656 -1.890625 2.835938 -1.675781 2.078125 -1.6875 C 1.328125 -1.695312 0.625 -1.898438 -0.03125 -2.296875 C -0.695312 -2.703125 -1.253906 -3.289062 -1.703125 -4.0625 C -2.140625 -4.820312 -2.363281 -5.585938 -2.375 -6.359375 C -2.394531 -7.140625 -2.21875 -7.851562 -1.84375 -8.5 C -1.476562 -9.15625 -0.914062 -9.703125 -0.15625 -10.140625 C 0.582031 -10.566406 1.332031 -10.78125 2.09375 -10.78125 C 2.851562 -10.78125 3.5625 -10.578125 4.21875 -10.171875 C 4.875 -9.773438 5.421875 -9.195312 5.859375 -8.4375 C 6.304688 -7.664062 6.539062 -6.890625 6.5625 -6.109375 C 6.582031 -5.335938 6.40625 -4.617188 6.03125 -3.953125 C 5.65625 -3.296875 5.097656 -2.753906 4.359375 -2.328125 Z M 3.640625 -3.578125 C 4.347656 -3.992188 4.773438 -4.5625 4.921875 -5.28125 C 5.078125 -6 4.914062 -6.773438 4.4375 -7.609375 C 3.957031 -8.429688 3.367188 -8.957031 2.671875 -9.1875 C 1.972656 -9.414062 1.269531 -9.320312 0.5625 -8.90625 C -0.164062 -8.488281 -0.609375 -7.914062 -0.765625 -7.1875 C -0.929688 -6.46875 -0.773438 -5.695312 -0.296875 -4.875 C 0.179688 -4.039062 0.773438 -3.507812 1.484375 -3.28125 C 2.191406 -3.0625 2.910156 -3.160156 3.640625 -3.578125 Z M 3.640625 -3.578125 "/></g></g></g><g fill="#854ab1" fill-opacity="1"><g transform="translate(251.223481, 274.692743)"><g><path d="M 0.640625 -0.5625 L -5.125 -7.109375 L -3.9375 -8.15625 L 3.203125 -6.25 L -0.859375 -10.859375 L 0.328125 -11.921875 L 6.09375 -5.375 L 4.90625 -4.3125 L -2.21875 -6.203125 L 1.828125 -1.609375 Z M 0.640625 -0.5625 "/></g></g></g><g fill="#854ab1" fill-opacity="1"><g transform="translate(265.193936, 260.997117)"><g><path d="M 2.484375 -2.921875 C 2.085938 -2.410156 1.648438 -2.03125 1.171875 -1.78125 C 0.691406 -1.53125 0.207031 -1.421875 -0.28125 -1.453125 C -0.78125 -1.492188 -1.265625 -1.691406 -1.734375 -2.046875 L -0.6875 -3.375 C -0.375 -3.132812 -0.0234375 -3.035156 0.359375 -3.078125 C 0.753906 -3.128906 1.101562 -3.347656 1.40625 -3.734375 C 1.675781 -4.066406 1.804688 -4.390625 1.796875 -4.703125 C 1.785156 -5.023438 1.648438 -5.289062 1.390625 -5.5 C 1.109375 -5.71875 0.820312 -5.800781 0.53125 -5.75 C 0.238281 -5.707031 -0.0664062 -5.578125 -0.390625 -5.359375 C -0.710938 -5.148438 -1.054688 -4.925781 -1.421875 -4.6875 C -2.023438 -4.3125 -2.578125 -4.097656 -3.078125 -4.046875 C -3.585938 -3.992188 -4.078125 -4.148438 -4.546875 -4.515625 C -4.960938 -4.828125 -5.238281 -5.195312 -5.375 -5.625 C -5.507812 -6.050781 -5.519531 -6.5 -5.40625 -6.96875 C -5.289062 -7.4375 -5.054688 -7.894531 -4.703125 -8.34375 C -4.347656 -8.800781 -3.953125 -9.140625 -3.515625 -9.359375 C -3.085938 -9.585938 -2.644531 -9.6875 -2.1875 -9.65625 C -1.738281 -9.632812 -1.304688 -9.460938 -0.890625 -9.140625 L -1.953125 -7.8125 C -2.191406 -8 -2.472656 -8.070312 -2.796875 -8.03125 C -3.128906 -8 -3.421875 -7.820312 -3.671875 -7.5 C -3.898438 -7.226562 -4.015625 -6.945312 -4.015625 -6.65625 C -4.015625 -6.363281 -3.878906 -6.113281 -3.609375 -5.90625 C -3.378906 -5.726562 -3.144531 -5.660156 -2.90625 -5.703125 C -2.664062 -5.742188 -2.398438 -5.847656 -2.109375 -6.015625 C -1.816406 -6.191406 -1.5 -6.398438 -1.15625 -6.640625 C -0.757812 -6.890625 -0.375 -7.09375 0 -7.25 C 0.375 -7.40625 0.753906 -7.46875 1.140625 -7.4375 C 1.535156 -7.40625 1.9375 -7.234375 2.34375 -6.921875 C 2.707031 -6.628906 2.96875 -6.269531 3.125 -5.84375 C 3.289062 -5.425781 3.328125 -4.960938 3.234375 -4.453125 C 3.140625 -3.953125 2.890625 -3.441406 2.484375 -2.921875 Z M 2.484375 -2.921875 "/></g></g></g><g fill="#854ab1" fill-opacity="1"><g transform="translate(275.445495, 246.311362)"><g/></g></g></svg>