<svg xmlns="http://www.w3.org/2000/svg" xmlns:xlink="http://www.w3.org/1999/xlink" width="80" zoomAndPan="magnify" viewBox="0 0 60 30.000001" height="40" preserveAspectRatio="xMidYMid meet" version="1.0"><defs><g/><clipPath id="3d07ee989c"><path d="M 2.710938 10.597656 L 56.128906 10.597656 L 56.128906 27.359375 L 2.710938 27.359375 Z M 2.710938 10.597656 " clip-rule="nonzero"/></clipPath><clipPath id="355aad5f0e"><path d="M 4.160156 10.597656 L 54.675781 10.597656 C 55.480469 10.597656 56.128906 11.246094 56.128906 12.046875 L 56.128906 25.910156 C 56.128906 26.710938 55.480469 27.359375 54.675781 27.359375 L 4.160156 27.359375 C 3.359375 27.359375 2.710938 26.710938 2.710938 25.910156 L 2.710938 12.046875 C 2.710938 11.246094 3.359375 10.597656 4.160156 10.597656 Z M 4.160156 10.597656 " clip-rule="nonzero"/></clipPath></defs><g clip-path="url(#3d07ee989c)"><g clip-path="url(#355aad5f0e)"><path fill="#854ab1" d="M 2.710938 10.597656 L 56.128906 10.597656 L 56.128906 27.359375 L 2.710938 27.359375 Z M 2.710938 10.597656 " fill-opacity="1" fill-rule="nonzero"/></g></g><g fill="#dc9849" fill-opacity="1"><g transform="translate(7.353724, 21.912242)"><g><path d="M 0.125 -0.515625 L 0.984375 -0.515625 L 0.984375 -4.890625 L 0.125 -4.890625 L 0.125 -5.390625 L 2.3125 -5.390625 C 2.488281 -5.390625 2.632812 -5.382812 2.75 -5.375 C 2.863281 -5.375 3.003906 -5.367188 3.171875 -5.359375 C 3.347656 -5.335938 3.5 -5.304688 3.625 -5.265625 C 3.757812 -5.222656 3.898438 -5.171875 4.046875 -5.109375 C 4.191406 -5.023438 4.304688 -4.929688 4.390625 -4.828125 C 4.484375 -4.734375 4.5625 -4.609375 4.625 -4.453125 C 4.6875 -4.304688 4.71875 -4.132812 4.71875 -3.9375 C 4.71875 -3.75 4.691406 -3.578125 4.640625 -3.421875 C 4.585938 -3.265625 4.515625 -3.128906 4.421875 -3.015625 C 4.335938 -2.921875 4.226562 -2.832031 4.09375 -2.75 C 3.957031 -2.675781 3.8125 -2.617188 3.65625 -2.578125 C 3.53125 -2.535156 3.375 -2.5 3.1875 -2.46875 C 3 -2.445312 2.820312 -2.4375 2.65625 -2.4375 C 2.5 -2.425781 2.320312 -2.421875 2.125 -2.421875 L 1.84375 -2.421875 L 1.84375 -0.515625 L 2.734375 -0.515625 L 2.734375 0 L 0.125 0 Z M 2.328125 -2.890625 C 3.335938 -2.890625 3.84375 -3.226562 3.84375 -3.90625 C 3.84375 -4.09375 3.804688 -4.265625 3.734375 -4.421875 C 3.679688 -4.523438 3.582031 -4.625 3.4375 -4.71875 C 3.351562 -4.757812 3.203125 -4.800781 2.984375 -4.84375 C 2.867188 -4.863281 2.679688 -4.875 2.421875 -4.875 C 2.367188 -4.882812 2.269531 -4.890625 2.125 -4.890625 L 1.84375 -4.890625 L 1.84375 -2.890625 Z M 2.328125 -2.890625 "/></g></g><g transform="translate(12.136278, 21.912242)"><g><path d="M 4.59375 0.125 C 4.445312 0.125 4.3125 0.0976562 4.1875 0.046875 C 4.070312 -0.00390625 3.976562 -0.078125 3.90625 -0.171875 C 3.820312 -0.253906 3.75 -0.367188 3.6875 -0.515625 C 3.625 -0.660156 3.570312 -0.820312 3.53125 -1 C 3.488281 -1.1875 3.445312 -1.378906 3.40625 -1.578125 C 3.382812 -1.710938 3.347656 -1.835938 3.296875 -1.953125 C 3.242188 -2.066406 3.191406 -2.15625 3.140625 -2.21875 C 3.078125 -2.28125 3.015625 -2.328125 2.953125 -2.359375 C 2.890625 -2.398438 2.835938 -2.429688 2.796875 -2.453125 C 2.753906 -2.453125 2.71875 -2.453125 2.6875 -2.453125 L 1.84375 -2.453125 L 1.84375 -0.515625 L 2.65625 -0.515625 L 2.65625 0 L 0.125 0 L 0.125 -0.515625 L 0.984375 -0.515625 L 0.984375 -4.890625 L 0.125 -4.890625 L 0.125 -5.390625 L 2.34375 -5.390625 C 2.5 -5.390625 2.628906 -5.382812 2.734375 -5.375 C 2.847656 -5.375 2.984375 -5.367188 3.140625 -5.359375 C 3.347656 -5.335938 3.515625 -5.3125 3.640625 -5.28125 C 3.765625 -5.25 3.90625 -5.195312 4.0625 -5.125 C 4.21875 -5.050781 4.335938 -4.96875 4.421875 -4.875 C 4.515625 -4.78125 4.59375 -4.65625 4.65625 -4.5 C 4.71875 -4.34375 4.75 -4.164062 4.75 -3.96875 C 4.75 -3.550781 4.617188 -3.238281 4.359375 -3.03125 C 4.222656 -2.9375 4.082031 -2.859375 3.9375 -2.796875 C 3.789062 -2.734375 3.613281 -2.679688 3.40625 -2.640625 C 3.539062 -2.609375 3.65625 -2.566406 3.75 -2.515625 C 3.84375 -2.472656 3.921875 -2.410156 3.984375 -2.328125 C 4.046875 -2.242188 4.09375 -2.15625 4.125 -2.0625 C 4.164062 -1.976562 4.207031 -1.863281 4.25 -1.71875 C 4.28125 -1.601562 4.328125 -1.410156 4.390625 -1.140625 C 4.398438 -1.054688 4.421875 -0.972656 4.453125 -0.890625 C 4.484375 -0.804688 4.507812 -0.738281 4.53125 -0.6875 C 4.5625 -0.632812 4.597656 -0.59375 4.640625 -0.5625 C 4.691406 -0.53125 4.75 -0.515625 4.8125 -0.515625 C 5.0625 -0.515625 5.1875 -0.738281 5.1875 -1.1875 L 5.1875 -1.6875 L 5.671875 -1.6875 L 5.671875 -1.15625 C 5.671875 -0.300781 5.3125 0.125 4.59375 0.125 Z M 2.28125 -3 C 2.664062 -3 2.976562 -3.023438 3.21875 -3.078125 C 3.457031 -3.140625 3.644531 -3.234375 3.78125 -3.359375 C 3.914062 -3.503906 3.984375 -3.6875 3.984375 -3.90625 C 3.984375 -4.101562 3.945312 -4.265625 3.875 -4.390625 C 3.8125 -4.515625 3.703125 -4.613281 3.546875 -4.6875 C 3.398438 -4.757812 3.222656 -4.8125 3.015625 -4.84375 C 2.816406 -4.875 2.5625 -4.890625 2.25 -4.890625 L 1.84375 -4.890625 L 1.84375 -3 Z M 2.28125 -3 "/></g></g><g transform="translate(17.815786, 21.912242)"><g><path d="M 2.84375 0.09375 C 2.519531 0.09375 2.21875 0.0390625 1.9375 -0.0625 C 1.65625 -0.164062 1.414062 -0.304688 1.21875 -0.484375 C 1.019531 -0.671875 0.847656 -0.882812 0.703125 -1.125 C 0.566406 -1.363281 0.46875 -1.613281 0.40625 -1.875 C 0.332031 -2.144531 0.296875 -2.421875 0.296875 -2.703125 C 0.296875 -3.285156 0.429688 -3.8125 0.703125 -4.28125 C 0.847656 -4.53125 1.019531 -4.742188 1.21875 -4.921875 C 1.414062 -5.097656 1.648438 -5.238281 1.921875 -5.34375 C 2.210938 -5.457031 2.519531 -5.515625 2.84375 -5.515625 C 3.175781 -5.515625 3.484375 -5.457031 3.765625 -5.34375 C 4.046875 -5.238281 4.285156 -5.097656 4.484375 -4.921875 C 4.679688 -4.734375 4.847656 -4.519531 4.984375 -4.28125 C 5.128906 -4.039062 5.234375 -3.789062 5.296875 -3.53125 C 5.359375 -3.257812 5.390625 -2.984375 5.390625 -2.703125 C 5.390625 -2.117188 5.253906 -1.59375 4.984375 -1.125 C 4.847656 -0.875 4.679688 -0.660156 4.484375 -0.484375 C 4.285156 -0.304688 4.046875 -0.164062 3.765625 -0.0625 C 3.484375 0.0390625 3.175781 0.09375 2.84375 0.09375 Z M 2.84375 -0.40625 C 3.101562 -0.40625 3.335938 -0.46875 3.546875 -0.59375 C 3.753906 -0.71875 3.925781 -0.894531 4.0625 -1.125 C 4.195312 -1.332031 4.300781 -1.570312 4.375 -1.84375 C 4.445312 -2.125 4.484375 -2.410156 4.484375 -2.703125 C 4.484375 -2.929688 4.457031 -3.15625 4.40625 -3.375 C 4.363281 -3.601562 4.296875 -3.8125 4.203125 -4 C 4.003906 -4.425781 3.742188 -4.71875 3.421875 -4.875 C 3.242188 -4.957031 3.050781 -5 2.84375 -5 C 2.59375 -5 2.363281 -4.9375 2.15625 -4.8125 C 1.945312 -4.6875 1.773438 -4.507812 1.640625 -4.28125 C 1.503906 -4.070312 1.398438 -3.828125 1.328125 -3.546875 C 1.253906 -3.273438 1.21875 -2.992188 1.21875 -2.703125 C 1.21875 -2.210938 1.304688 -1.78125 1.484375 -1.40625 C 1.585938 -1.195312 1.703125 -1.019531 1.828125 -0.875 C 1.953125 -0.726562 2.101562 -0.613281 2.28125 -0.53125 C 2.457031 -0.445312 2.644531 -0.40625 2.84375 -0.40625 Z M 2.84375 -0.40625 "/></g></g><g transform="translate(23.516821, 21.912242)"><g><path d="M 2.828125 0.09375 C 2.503906 0.09375 2.203125 0.0390625 1.921875 -0.0625 C 1.640625 -0.164062 1.398438 -0.3125 1.203125 -0.5 C 1.003906 -0.6875 0.835938 -0.898438 0.703125 -1.140625 C 0.566406 -1.390625 0.460938 -1.644531 0.390625 -1.90625 C 0.328125 -2.175781 0.296875 -2.445312 0.296875 -2.71875 C 0.296875 -3.082031 0.359375 -3.429688 0.484375 -3.765625 C 0.617188 -4.097656 0.800781 -4.394531 1.03125 -4.65625 C 1.269531 -4.914062 1.566406 -5.125 1.921875 -5.28125 C 2.273438 -5.4375 2.65625 -5.515625 3.0625 -5.515625 C 3.457031 -5.515625 3.8125 -5.441406 4.125 -5.296875 C 4.445312 -5.148438 4.695312 -4.953125 4.875 -4.703125 C 5.050781 -4.453125 5.140625 -4.179688 5.140625 -3.890625 C 5.140625 -3.785156 5.113281 -3.6875 5.0625 -3.59375 C 5.007812 -3.507812 4.9375 -3.4375 4.84375 -3.375 C 4.75 -3.320312 4.644531 -3.296875 4.53125 -3.296875 C 4.414062 -3.296875 4.3125 -3.320312 4.21875 -3.375 C 4.125 -3.425781 4.050781 -3.492188 4 -3.578125 C 3.945312 -3.671875 3.921875 -3.765625 3.921875 -3.859375 C 3.921875 -3.960938 3.941406 -4.054688 3.984375 -4.140625 C 4.035156 -4.234375 4.097656 -4.304688 4.171875 -4.359375 C 4.242188 -4.410156 4.3125 -4.4375 4.375 -4.4375 L 4.390625 -4.4375 C 4.296875 -4.570312 4.164062 -4.6875 4 -4.78125 C 3.84375 -4.875 3.691406 -4.9375 3.546875 -4.96875 C 3.410156 -4.988281 3.273438 -5 3.140625 -5 C 2.753906 -5 2.414062 -4.898438 2.125 -4.703125 C 1.832031 -4.503906 1.613281 -4.234375 1.46875 -3.890625 C 1.3125 -3.535156 1.234375 -3.148438 1.234375 -2.734375 C 1.234375 -2.453125 1.28125 -2.175781 1.375 -1.90625 C 1.46875 -1.644531 1.59375 -1.410156 1.75 -1.203125 C 1.90625 -1.003906 2.097656 -0.84375 2.328125 -0.71875 C 2.554688 -0.601562 2.800781 -0.546875 3.0625 -0.546875 C 3.238281 -0.546875 3.410156 -0.578125 3.578125 -0.640625 C 3.753906 -0.710938 3.898438 -0.804688 4.015625 -0.921875 C 4.140625 -1.023438 4.234375 -1.132812 4.296875 -1.25 C 4.367188 -1.375 4.40625 -1.488281 4.40625 -1.59375 L 4.40625 -2.09375 L 3.390625 -2.09375 L 3.390625 -2.640625 L 5.71875 -2.640625 L 5.71875 -2.09375 L 5.140625 -2.09375 L 5.140625 0 L 4.703125 0 L 4.53125 -0.75 C 4.445312 -0.601562 4.335938 -0.46875 4.203125 -0.34375 C 4.078125 -0.226562 3.929688 -0.140625 3.765625 -0.078125 C 3.460938 0.0351562 3.148438 0.09375 2.828125 0.09375 Z M 2.828125 0.09375 "/></g></g><g transform="translate(29.253733, 21.912242)"><g><path d="M 4.59375 0.125 C 4.445312 0.125 4.3125 0.0976562 4.1875 0.046875 C 4.070312 -0.00390625 3.976562 -0.078125 3.90625 -0.171875 C 3.820312 -0.253906 3.75 -0.367188 3.6875 -0.515625 C 3.625 -0.660156 3.570312 -0.820312 3.53125 -1 C 3.488281 -1.1875 3.445312 -1.378906 3.40625 -1.578125 C 3.382812 -1.710938 3.347656 -1.835938 3.296875 -1.953125 C 3.242188 -2.066406 3.191406 -2.15625 3.140625 -2.21875 C 3.078125 -2.28125 3.015625 -2.328125 2.953125 -2.359375 C 2.890625 -2.398438 2.835938 -2.429688 2.796875 -2.453125 C 2.753906 -2.453125 2.71875 -2.453125 2.6875 -2.453125 L 1.84375 -2.453125 L 1.84375 -0.515625 L 2.65625 -0.515625 L 2.65625 0 L 0.125 0 L 0.125 -0.515625 L 0.984375 -0.515625 L 0.984375 -4.890625 L 0.125 -4.890625 L 0.125 -5.390625 L 2.34375 -5.390625 C 2.5 -5.390625 2.628906 -5.382812 2.734375 -5.375 C 2.847656 -5.375 2.984375 -5.367188 3.140625 -5.359375 C 3.347656 -5.335938 3.515625 -5.3125 3.640625 -5.28125 C 3.765625 -5.25 3.90625 -5.195312 4.0625 -5.125 C 4.21875 -5.050781 4.335938 -4.96875 4.421875 -4.875 C 4.515625 -4.78125 4.59375 -4.65625 4.65625 -4.5 C 4.71875 -4.34375 4.75 -4.164062 4.75 -3.96875 C 4.75 -3.550781 4.617188 -3.238281 4.359375 -3.03125 C 4.222656 -2.9375 4.082031 -2.859375 3.9375 -2.796875 C 3.789062 -2.734375 3.613281 -2.679688 3.40625 -2.640625 C 3.539062 -2.609375 3.65625 -2.566406 3.75 -2.515625 C 3.84375 -2.472656 3.921875 -2.410156 3.984375 -2.328125 C 4.046875 -2.242188 4.09375 -2.15625 4.125 -2.0625 C 4.164062 -1.976562 4.207031 -1.863281 4.25 -1.71875 C 4.28125 -1.601562 4.328125 -1.410156 4.390625 -1.140625 C 4.398438 -1.054688 4.421875 -0.972656 4.453125 -0.890625 C 4.484375 -0.804688 4.507812 -0.738281 4.53125 -0.6875 C 4.5625 -0.632812 4.597656 -0.59375 4.640625 -0.5625 C 4.691406 -0.53125 4.75 -0.515625 4.8125 -0.515625 C 5.0625 -0.515625 5.1875 -0.738281 5.1875 -1.1875 L 5.1875 -1.6875 L 5.671875 -1.6875 L 5.671875 -1.15625 C 5.671875 -0.300781 5.3125 0.125 4.59375 0.125 Z M 2.28125 -3 C 2.664062 -3 2.976562 -3.023438 3.21875 -3.078125 C 3.457031 -3.140625 3.644531 -3.234375 3.78125 -3.359375 C 3.914062 -3.503906 3.984375 -3.6875 3.984375 -3.90625 C 3.984375 -4.101562 3.945312 -4.265625 3.875 -4.390625 C 3.8125 -4.515625 3.703125 -4.613281 3.546875 -4.6875 C 3.398438 -4.757812 3.222656 -4.8125 3.015625 -4.84375 C 2.816406 -4.875 2.5625 -4.890625 2.25 -4.890625 L 1.84375 -4.890625 L 1.84375 -3 Z M 2.28125 -3 "/></g></g><g transform="translate(34.933241, 21.912242)"><g><path d="M 0.03125 0 L 0.03125 -0.515625 L 0.671875 -0.515625 L 2.5625 -5.390625 L 3.40625 -5.390625 L 5.328125 -0.515625 L 5.9375 -0.515625 L 5.9375 0 L 3.609375 0 L 3.609375 -0.515625 L 4.421875 -0.515625 L 3.921875 -1.8125 L 1.84375 -1.8125 L 1.375 -0.515625 L 2.28125 -0.515625 L 2.28125 0 Z M 2.015625 -2.265625 L 3.734375 -2.265625 L 2.84375 -4.6875 Z M 2.015625 -2.265625 "/></g></g><g transform="translate(40.896186, 21.912242)"><g><path d="M 0.1875 -0.515625 L 0.96875 -0.515625 L 0.96875 -4.890625 L 0.125 -4.890625 L 0.125 -5.390625 L 2.296875 -5.390625 L 3.5625 -2 L 4.765625 -5.390625 L 6.78125 -5.390625 L 6.78125 -4.890625 L 5.9375 -4.890625 L 5.9375 -0.515625 L 6.828125 -0.515625 L 6.828125 0 L 4.34375 0 L 4.34375 -0.515625 L 5.140625 -0.515625 L 5.140625 -4.765625 L 3.734375 -0.921875 C 3.671875 -0.742188 3.582031 -0.65625 3.46875 -0.65625 C 3.414062 -0.65625 3.363281 -0.675781 3.3125 -0.71875 C 3.257812 -0.769531 3.21875 -0.832031 3.1875 -0.90625 L 1.625 -4.875 L 1.625 -0.515625 L 2.53125 -0.515625 L 2.53125 0 L 0.1875 0 Z M 0.1875 -0.515625 "/></g></g><g transform="translate(47.845779, 21.912242)"><g><path d="M 2.421875 0.09375 C 2.140625 0.09375 1.867188 0.0664062 1.609375 0.015625 C 1.359375 -0.0351562 1.125 -0.113281 0.90625 -0.21875 C 0.6875 -0.320312 0.515625 -0.457031 0.390625 -0.625 C 0.273438 -0.800781 0.21875 -0.992188 0.21875 -1.203125 C 0.21875 -1.335938 0.242188 -1.453125 0.296875 -1.546875 C 0.359375 -1.648438 0.4375 -1.734375 0.53125 -1.796875 C 0.632812 -1.859375 0.742188 -1.890625 0.859375 -1.890625 C 0.960938 -1.890625 1.054688 -1.859375 1.140625 -1.796875 C 1.234375 -1.742188 1.304688 -1.671875 1.359375 -1.578125 C 1.410156 -1.484375 1.4375 -1.390625 1.4375 -1.296875 C 1.4375 -1.140625 1.390625 -1.015625 1.296875 -0.921875 C 1.210938 -0.835938 1.085938 -0.785156 0.921875 -0.765625 C 1.097656 -0.648438 1.289062 -0.5625 1.5 -0.5 C 1.71875 -0.4375 1.988281 -0.40625 2.3125 -0.40625 C 2.84375 -0.40625 3.226562 -0.535156 3.46875 -0.796875 C 3.601562 -0.929688 3.671875 -1.097656 3.671875 -1.296875 C 3.671875 -1.515625 3.59375 -1.695312 3.4375 -1.84375 C 3.375 -1.90625 3.28125 -1.960938 3.15625 -2.015625 C 3.03125 -2.078125 2.894531 -2.132812 2.75 -2.1875 C 2.570312 -2.226562 2.390625 -2.273438 2.203125 -2.328125 C 1.722656 -2.441406 1.335938 -2.578125 1.046875 -2.734375 C 0.753906 -2.898438 0.554688 -3.082031 0.453125 -3.28125 C 0.335938 -3.476562 0.28125 -3.710938 0.28125 -3.984375 C 0.28125 -4.273438 0.363281 -4.535156 0.53125 -4.765625 C 0.707031 -4.992188 0.953125 -5.175781 1.265625 -5.3125 C 1.585938 -5.445312 1.945312 -5.515625 2.34375 -5.515625 C 2.6875 -5.515625 3.03125 -5.457031 3.375 -5.34375 C 3.570312 -5.28125 3.738281 -5.203125 3.875 -5.109375 C 4.019531 -5.023438 4.140625 -4.914062 4.234375 -4.78125 C 4.316406 -4.644531 4.359375 -4.492188 4.359375 -4.328125 C 4.359375 -4.109375 4.300781 -3.929688 4.1875 -3.796875 C 4.082031 -3.671875 3.9375 -3.609375 3.75 -3.609375 C 3.644531 -3.609375 3.546875 -3.628906 3.453125 -3.671875 C 3.359375 -3.710938 3.285156 -3.769531 3.234375 -3.84375 C 3.179688 -3.925781 3.15625 -4.015625 3.15625 -4.109375 C 3.15625 -4.296875 3.203125 -4.4375 3.296875 -4.53125 C 3.390625 -4.625 3.503906 -4.671875 3.640625 -4.671875 C 3.359375 -4.890625 2.957031 -5 2.4375 -5 C 2.195312 -5 1.976562 -4.960938 1.78125 -4.890625 C 1.59375 -4.828125 1.441406 -4.734375 1.328125 -4.609375 C 1.203125 -4.472656 1.140625 -4.316406 1.140625 -4.140625 C 1.140625 -4.046875 1.144531 -3.96875 1.15625 -3.90625 C 1.175781 -3.84375 1.210938 -3.78125 1.265625 -3.71875 C 1.304688 -3.644531 1.375 -3.578125 1.46875 -3.515625 C 1.5625 -3.453125 1.6875 -3.394531 1.84375 -3.34375 C 1.988281 -3.28125 2.171875 -3.226562 2.390625 -3.1875 C 3.078125 -3.03125 3.59375 -2.84375 3.9375 -2.625 C 4.09375 -2.519531 4.21875 -2.40625 4.3125 -2.28125 C 4.414062 -2.15625 4.488281 -2.019531 4.53125 -1.875 C 4.5625 -1.75 4.578125 -1.597656 4.578125 -1.421875 C 4.578125 -1.109375 4.492188 -0.835938 4.328125 -0.609375 C 4.160156 -0.378906 3.914062 -0.203125 3.59375 -0.078125 C 3.269531 0.0351562 2.878906 0.09375 2.421875 0.09375 Z M 2.421875 0.09375 "/></g></g></g></svg>