<svg xmlns="http://www.w3.org/2000/svg" xmlns:xlink="http://www.w3.org/1999/xlink" width="80" zoomAndPan="magnify" viewBox="0 0 60 30.000001" height="40" preserveAspectRatio="xMidYMid meet" version="1.0"><defs><g/><clipPath id="92935a9af9"><path d="M 2.710938 10.597656 L 56.128906 10.597656 L 56.128906 27.359375 L 2.710938 27.359375 Z M 2.710938 10.597656 " clip-rule="nonzero"/></clipPath><clipPath id="8f3a31de69"><path d="M 4.160156 10.597656 L 54.675781 10.597656 C 55.480469 10.597656 56.128906 11.246094 56.128906 12.046875 L 56.128906 25.910156 C 56.128906 26.710938 55.480469 27.359375 54.675781 27.359375 L 4.160156 27.359375 C 3.359375 27.359375 2.710938 26.710938 2.710938 25.910156 L 2.710938 12.046875 C 2.710938 11.246094 3.359375 10.597656 4.160156 10.597656 Z M 4.160156 10.597656 " clip-rule="nonzero"/></clipPath></defs><g clip-path="url(#92935a9af9)"><g clip-path="url(#8f3a31de69)"><path fill="#854ab1" d="M 2.710938 10.597656 L 56.128906 10.597656 L 56.128906 27.359375 L 2.710938 27.359375 Z M 2.710938 10.597656 " fill-opacity="1" fill-rule="nonzero"/></g></g><g fill="#dc9849" fill-opacity="1"><g transform="translate(7.547529, 20.33152)"><g><path d="M 1.78125 0.078125 C 1.570312 0.078125 1.375 0.0546875 1.1875 0.015625 C 1 -0.0234375 0.828125 -0.0820312 0.671875 -0.15625 C 0.515625 -0.238281 0.390625 -0.34375 0.296875 -0.46875 C 0.203125 -0.59375 0.15625 -0.734375 0.15625 -0.890625 C 0.15625 -0.984375 0.175781 -1.066406 0.21875 -1.140625 C 0.257812 -1.222656 0.316406 -1.285156 0.390625 -1.328125 C 0.460938 -1.367188 0.546875 -1.390625 0.640625 -1.390625 C 0.710938 -1.390625 0.78125 -1.367188 0.84375 -1.328125 C 0.90625 -1.285156 0.953125 -1.226562 0.984375 -1.15625 C 1.023438 -1.09375 1.046875 -1.023438 1.046875 -0.953125 C 1.046875 -0.835938 1.015625 -0.75 0.953125 -0.6875 C 0.890625 -0.625 0.800781 -0.582031 0.6875 -0.5625 C 0.8125 -0.476562 0.953125 -0.410156 1.109375 -0.359375 C 1.265625 -0.316406 1.460938 -0.296875 1.703125 -0.296875 C 2.085938 -0.296875 2.375 -0.390625 2.5625 -0.578125 C 2.65625 -0.679688 2.703125 -0.804688 2.703125 -0.953125 C 2.703125 -1.117188 2.644531 -1.253906 2.53125 -1.359375 C 2.476562 -1.398438 2.40625 -1.441406 2.3125 -1.484375 C 2.226562 -1.535156 2.128906 -1.578125 2.015625 -1.609375 C 1.890625 -1.640625 1.757812 -1.675781 1.625 -1.71875 C 1.269531 -1.800781 0.984375 -1.898438 0.765625 -2.015625 C 0.554688 -2.140625 0.410156 -2.273438 0.328125 -2.421875 C 0.242188 -2.554688 0.203125 -2.726562 0.203125 -2.9375 C 0.203125 -3.144531 0.265625 -3.332031 0.390625 -3.5 C 0.523438 -3.675781 0.707031 -3.8125 0.9375 -3.90625 C 1.164062 -4.007812 1.425781 -4.0625 1.71875 -4.0625 C 1.976562 -4.0625 2.234375 -4.019531 2.484375 -3.9375 C 2.628906 -3.882812 2.753906 -3.828125 2.859375 -3.765625 C 2.960938 -3.703125 3.046875 -3.617188 3.109375 -3.515625 C 3.179688 -3.410156 3.21875 -3.300781 3.21875 -3.1875 C 3.21875 -3.03125 3.175781 -2.898438 3.09375 -2.796875 C 3.007812 -2.703125 2.898438 -2.65625 2.765625 -2.65625 C 2.679688 -2.65625 2.601562 -2.671875 2.53125 -2.703125 C 2.46875 -2.734375 2.414062 -2.773438 2.375 -2.828125 C 2.34375 -2.890625 2.328125 -2.957031 2.328125 -3.03125 C 2.328125 -3.164062 2.359375 -3.265625 2.421875 -3.328125 C 2.492188 -3.398438 2.582031 -3.4375 2.6875 -3.4375 C 2.476562 -3.601562 2.179688 -3.6875 1.796875 -3.6875 C 1.617188 -3.6875 1.457031 -3.660156 1.3125 -3.609375 C 1.175781 -3.554688 1.0625 -3.484375 0.96875 -3.390625 C 0.882812 -3.285156 0.84375 -3.171875 0.84375 -3.046875 C 0.84375 -2.972656 0.847656 -2.914062 0.859375 -2.875 C 0.867188 -2.832031 0.890625 -2.785156 0.921875 -2.734375 C 0.960938 -2.679688 1.015625 -2.632812 1.078125 -2.59375 C 1.148438 -2.550781 1.242188 -2.503906 1.359375 -2.453125 C 1.460938 -2.410156 1.597656 -2.375 1.765625 -2.34375 C 2.273438 -2.226562 2.65625 -2.09375 2.90625 -1.9375 C 3.019531 -1.863281 3.113281 -1.773438 3.1875 -1.671875 C 3.257812 -1.578125 3.304688 -1.484375 3.328125 -1.390625 C 3.359375 -1.285156 3.375 -1.171875 3.375 -1.046875 C 3.375 -0.816406 3.3125 -0.617188 3.1875 -0.453125 C 3.0625 -0.285156 2.878906 -0.15625 2.640625 -0.0625 C 2.410156 0.03125 2.125 0.078125 1.78125 0.078125 Z M 1.78125 0.078125 "/></g></g><g transform="translate(11.080833, 20.33152)"><g><path d="M 2.09375 0.078125 C 1.832031 0.078125 1.582031 0.0195312 1.34375 -0.09375 C 1.101562 -0.207031 0.898438 -0.359375 0.734375 -0.546875 C 0.578125 -0.742188 0.453125 -0.96875 0.359375 -1.21875 C 0.265625 -1.476562 0.21875 -1.75 0.21875 -2.03125 C 0.21875 -2.3125 0.265625 -2.578125 0.359375 -2.828125 C 0.453125 -3.078125 0.582031 -3.296875 0.75 -3.484375 C 0.925781 -3.660156 1.132812 -3.800781 1.375 -3.90625 C 1.613281 -4.007812 1.875 -4.0625 2.15625 -4.0625 C 2.40625 -4.0625 2.640625 -4.007812 2.859375 -3.90625 C 3.078125 -3.800781 3.257812 -3.65625 3.40625 -3.46875 C 3.539062 -3.28125 3.609375 -3.066406 3.609375 -2.828125 C 3.609375 -2.753906 3.585938 -2.675781 3.546875 -2.59375 C 3.503906 -2.519531 3.441406 -2.460938 3.359375 -2.421875 C 3.285156 -2.378906 3.195312 -2.359375 3.09375 -2.359375 C 2.957031 -2.359375 2.847656 -2.394531 2.765625 -2.46875 C 2.691406 -2.550781 2.65625 -2.660156 2.65625 -2.796875 C 2.65625 -2.878906 2.675781 -2.953125 2.71875 -3.015625 C 2.769531 -3.078125 2.832031 -3.125 2.90625 -3.15625 C 2.976562 -3.195312 3.050781 -3.21875 3.125 -3.21875 C 3.03125 -3.351562 2.894531 -3.460938 2.71875 -3.546875 C 2.550781 -3.640625 2.363281 -3.6875 2.15625 -3.6875 C 1.914062 -3.6875 1.703125 -3.613281 1.515625 -3.46875 C 1.328125 -3.332031 1.179688 -3.140625 1.078125 -2.890625 C 0.972656 -2.640625 0.921875 -2.347656 0.921875 -2.015625 C 0.921875 -1.816406 0.953125 -1.625 1.015625 -1.4375 C 1.078125 -1.257812 1.160156 -1.09375 1.265625 -0.9375 C 1.378906 -0.769531 1.523438 -0.640625 1.703125 -0.546875 C 1.878906 -0.460938 2.066406 -0.421875 2.265625 -0.421875 C 2.410156 -0.421875 2.550781 -0.445312 2.6875 -0.5 C 2.832031 -0.5625 2.953125 -0.640625 3.046875 -0.734375 C 3.140625 -0.828125 3.21875 -0.925781 3.28125 -1.03125 C 3.34375 -1.144531 3.390625 -1.257812 3.421875 -1.375 L 3.78125 -1.203125 C 3.675781 -0.796875 3.484375 -0.476562 3.203125 -0.25 C 2.921875 -0.03125 2.550781 0.078125 2.09375 0.078125 Z M 2.09375 0.078125 "/></g></g><g transform="translate(14.904835, 20.33152)"><g><path d="M 0.09375 0 L 0.09375 -0.375 L 0.734375 -0.375 L 0.734375 -3.59375 L 0.09375 -3.59375 L 0.09375 -3.96875 L 1.953125 -3.96875 L 1.953125 -3.59375 L 1.359375 -3.59375 L 1.359375 -2.25 L 3.015625 -2.25 L 3.015625 -3.59375 L 2.40625 -3.59375 L 2.40625 -3.96875 L 4.28125 -3.96875 L 4.28125 -3.59375 L 3.640625 -3.59375 L 3.640625 -0.375 L 4.28125 -0.375 L 4.28125 0 L 2.40625 0 L 2.40625 -0.375 L 3.015625 -0.375 L 3.015625 -1.90625 L 1.359375 -1.90625 L 1.359375 -0.375 L 1.953125 -0.375 L 1.953125 0 Z M 0.09375 0 "/></g></g><g transform="translate(19.275879, 20.33152)"><g><path d="M 2.09375 0.078125 C 1.851562 0.078125 1.628906 0.0390625 1.421875 -0.03125 C 1.210938 -0.113281 1.035156 -0.222656 0.890625 -0.359375 C 0.742188 -0.492188 0.617188 -0.648438 0.515625 -0.828125 C 0.410156 -1.003906 0.335938 -1.191406 0.296875 -1.390625 C 0.242188 -1.578125 0.21875 -1.773438 0.21875 -1.984375 C 0.21875 -2.421875 0.316406 -2.8125 0.515625 -3.15625 C 0.617188 -3.332031 0.742188 -3.488281 0.890625 -3.625 C 1.046875 -3.757812 1.222656 -3.863281 1.421875 -3.9375 C 1.628906 -4.019531 1.851562 -4.0625 2.09375 -4.0625 C 2.332031 -4.0625 2.554688 -4.019531 2.765625 -3.9375 C 2.972656 -3.863281 3.15625 -3.757812 3.3125 -3.625 C 3.445312 -3.488281 3.566406 -3.332031 3.671875 -3.15625 C 3.773438 -2.976562 3.851562 -2.789062 3.90625 -2.59375 C 3.945312 -2.394531 3.96875 -2.191406 3.96875 -1.984375 C 3.96875 -1.554688 3.867188 -1.171875 3.671875 -0.828125 C 3.566406 -0.640625 3.441406 -0.476562 3.296875 -0.34375 C 3.148438 -0.21875 2.976562 -0.117188 2.78125 -0.046875 C 2.570312 0.0351562 2.34375 0.078125 2.09375 0.078125 Z M 2.09375 -0.296875 C 2.28125 -0.296875 2.453125 -0.34375 2.609375 -0.4375 C 2.765625 -0.53125 2.894531 -0.660156 3 -0.828125 C 3.09375 -0.984375 3.164062 -1.160156 3.21875 -1.359375 C 3.269531 -1.554688 3.296875 -1.765625 3.296875 -1.984375 C 3.296875 -2.160156 3.28125 -2.328125 3.25 -2.484375 C 3.21875 -2.648438 3.164062 -2.804688 3.09375 -2.953125 C 2.945312 -3.253906 2.753906 -3.46875 2.515625 -3.59375 C 2.390625 -3.65625 2.25 -3.6875 2.09375 -3.6875 C 1.914062 -3.6875 1.75 -3.640625 1.59375 -3.546875 C 1.4375 -3.453125 1.304688 -3.320312 1.203125 -3.15625 C 1.109375 -3 1.03125 -2.816406 0.96875 -2.609375 C 0.914062 -2.410156 0.890625 -2.207031 0.890625 -2 C 0.890625 -1.632812 0.957031 -1.3125 1.09375 -1.03125 C 1.164062 -0.875 1.25 -0.742188 1.34375 -0.640625 C 1.4375 -0.535156 1.546875 -0.453125 1.671875 -0.390625 C 1.804688 -0.328125 1.945312 -0.296875 2.09375 -0.296875 Z M 2.09375 -0.296875 "/></g></g><g transform="translate(23.475146, 20.33152)"><g><path d="M 0.09375 0 L 0.09375 -0.375 L 0.734375 -0.375 L 0.734375 -3.59375 L 0.09375 -3.59375 L 0.09375 -3.96875 L 1.953125 -3.96875 L 1.953125 -3.59375 L 1.359375 -3.59375 L 1.359375 -0.375 L 2.84375 -0.375 L 2.84375 -1.65625 L 3.34375 -1.65625 L 3.34375 0 Z M 0.09375 0 "/></g></g><g transform="translate(26.884242, 20.33152)"><g><path d="M 0.015625 0 L 0.015625 -0.375 L 0.5 -0.375 L 1.890625 -3.96875 L 2.515625 -3.96875 L 3.921875 -0.375 L 4.375 -0.375 L 4.375 0 L 2.65625 0 L 2.65625 -0.375 L 3.25 -0.375 L 2.875 -1.328125 L 1.359375 -1.328125 L 1.015625 -0.375 L 1.671875 -0.375 L 1.671875 0 Z M 1.484375 -1.671875 L 2.75 -1.671875 L 2.09375 -3.453125 Z M 1.484375 -1.671875 "/></g></g><g transform="translate(31.276427, 20.33152)"><g><path d="M 3.390625 0.09375 C 3.273438 0.09375 3.175781 0.0703125 3.09375 0.03125 C 3.007812 -0.0078125 2.9375 -0.0625 2.875 -0.125 C 2.8125 -0.1875 2.757812 -0.269531 2.71875 -0.375 C 2.675781 -0.488281 2.640625 -0.609375 2.609375 -0.734375 C 2.566406 -0.878906 2.535156 -1.019531 2.515625 -1.15625 C 2.492188 -1.257812 2.460938 -1.351562 2.421875 -1.4375 C 2.390625 -1.519531 2.351562 -1.585938 2.3125 -1.640625 C 2.269531 -1.679688 2.222656 -1.710938 2.171875 -1.734375 C 2.117188 -1.765625 2.078125 -1.785156 2.046875 -1.796875 C 2.023438 -1.804688 2 -1.8125 1.96875 -1.8125 L 1.359375 -1.8125 L 1.359375 -0.375 L 1.953125 -0.375 L 1.953125 0 L 0.09375 0 L 0.09375 -0.375 L 0.734375 -0.375 L 0.734375 -3.59375 L 0.09375 -3.59375 L 0.09375 -3.96875 L 1.734375 -3.96875 C 1.847656 -3.96875 1.941406 -3.96875 2.015625 -3.96875 C 2.097656 -3.96875 2.195312 -3.960938 2.3125 -3.953125 C 2.457031 -3.929688 2.578125 -3.90625 2.671875 -3.875 C 2.765625 -3.851562 2.875 -3.816406 3 -3.765625 C 3.101562 -3.722656 3.1875 -3.664062 3.25 -3.59375 C 3.320312 -3.519531 3.378906 -3.425781 3.421875 -3.3125 C 3.472656 -3.195312 3.5 -3.066406 3.5 -2.921875 C 3.5 -2.617188 3.398438 -2.390625 3.203125 -2.234375 C 3.109375 -2.160156 3.003906 -2.101562 2.890625 -2.0625 C 2.785156 -2.019531 2.65625 -1.984375 2.5 -1.953125 C 2.601562 -1.921875 2.6875 -1.882812 2.75 -1.84375 C 2.820312 -1.8125 2.882812 -1.769531 2.9375 -1.71875 C 2.976562 -1.65625 3.007812 -1.59375 3.03125 -1.53125 C 3.0625 -1.46875 3.09375 -1.378906 3.125 -1.265625 C 3.15625 -1.179688 3.191406 -1.039062 3.234375 -0.84375 C 3.242188 -0.78125 3.257812 -0.71875 3.28125 -0.65625 C 3.300781 -0.59375 3.320312 -0.546875 3.34375 -0.515625 C 3.363281 -0.472656 3.390625 -0.4375 3.421875 -0.40625 C 3.460938 -0.382812 3.503906 -0.375 3.546875 -0.375 C 3.722656 -0.375 3.8125 -0.539062 3.8125 -0.875 L 3.8125 -1.25 L 4.171875 -1.25 L 4.171875 -0.859375 C 4.171875 -0.222656 3.910156 0.09375 3.390625 0.09375 Z M 1.6875 -2.203125 C 1.96875 -2.203125 2.195312 -2.222656 2.375 -2.265625 C 2.550781 -2.304688 2.6875 -2.378906 2.78125 -2.484375 C 2.882812 -2.578125 2.9375 -2.707031 2.9375 -2.875 C 2.9375 -3.019531 2.910156 -3.140625 2.859375 -3.234375 C 2.804688 -3.328125 2.722656 -3.398438 2.609375 -3.453125 C 2.503906 -3.503906 2.375 -3.539062 2.21875 -3.5625 C 2.070312 -3.582031 1.882812 -3.59375 1.65625 -3.59375 L 1.359375 -3.59375 L 1.359375 -2.203125 Z M 1.6875 -2.203125 "/></g></g><g transform="translate(35.459838, 20.33152)"><g><path d="M 1.78125 0.078125 C 1.570312 0.078125 1.375 0.0546875 1.1875 0.015625 C 1 -0.0234375 0.828125 -0.0820312 0.671875 -0.15625 C 0.515625 -0.238281 0.390625 -0.34375 0.296875 -0.46875 C 0.203125 -0.59375 0.15625 -0.734375 0.15625 -0.890625 C 0.15625 -0.984375 0.175781 -1.066406 0.21875 -1.140625 C 0.257812 -1.222656 0.316406 -1.285156 0.390625 -1.328125 C 0.460938 -1.367188 0.546875 -1.390625 0.640625 -1.390625 C 0.710938 -1.390625 0.78125 -1.367188 0.84375 -1.328125 C 0.90625 -1.285156 0.953125 -1.226562 0.984375 -1.15625 C 1.023438 -1.09375 1.046875 -1.023438 1.046875 -0.953125 C 1.046875 -0.835938 1.015625 -0.75 0.953125 -0.6875 C 0.890625 -0.625 0.800781 -0.582031 0.6875 -0.5625 C 0.8125 -0.476562 0.953125 -0.410156 1.109375 -0.359375 C 1.265625 -0.316406 1.460938 -0.296875 1.703125 -0.296875 C 2.085938 -0.296875 2.375 -0.390625 2.5625 -0.578125 C 2.65625 -0.679688 2.703125 -0.804688 2.703125 -0.953125 C 2.703125 -1.117188 2.644531 -1.253906 2.53125 -1.359375 C 2.476562 -1.398438 2.40625 -1.441406 2.3125 -1.484375 C 2.226562 -1.535156 2.128906 -1.578125 2.015625 -1.609375 C 1.890625 -1.640625 1.757812 -1.675781 1.625 -1.71875 C 1.269531 -1.800781 0.984375 -1.898438 0.765625 -2.015625 C 0.554688 -2.140625 0.410156 -2.273438 0.328125 -2.421875 C 0.242188 -2.554688 0.203125 -2.726562 0.203125 -2.9375 C 0.203125 -3.144531 0.265625 -3.332031 0.390625 -3.5 C 0.523438 -3.675781 0.707031 -3.8125 0.9375 -3.90625 C 1.164062 -4.007812 1.425781 -4.0625 1.71875 -4.0625 C 1.976562 -4.0625 2.234375 -4.019531 2.484375 -3.9375 C 2.628906 -3.882812 2.753906 -3.828125 2.859375 -3.765625 C 2.960938 -3.703125 3.046875 -3.617188 3.109375 -3.515625 C 3.179688 -3.410156 3.21875 -3.300781 3.21875 -3.1875 C 3.21875 -3.03125 3.175781 -2.898438 3.09375 -2.796875 C 3.007812 -2.703125 2.898438 -2.65625 2.765625 -2.65625 C 2.679688 -2.65625 2.601562 -2.671875 2.53125 -2.703125 C 2.46875 -2.734375 2.414062 -2.773438 2.375 -2.828125 C 2.34375 -2.890625 2.328125 -2.957031 2.328125 -3.03125 C 2.328125 -3.164062 2.359375 -3.265625 2.421875 -3.328125 C 2.492188 -3.398438 2.582031 -3.4375 2.6875 -3.4375 C 2.476562 -3.601562 2.179688 -3.6875 1.796875 -3.6875 C 1.617188 -3.6875 1.457031 -3.660156 1.3125 -3.609375 C 1.175781 -3.554688 1.0625 -3.484375 0.96875 -3.390625 C 0.882812 -3.285156 0.84375 -3.171875 0.84375 -3.046875 C 0.84375 -2.972656 0.847656 -2.914062 0.859375 -2.875 C 0.867188 -2.832031 0.890625 -2.785156 0.921875 -2.734375 C 0.960938 -2.679688 1.015625 -2.632812 1.078125 -2.59375 C 1.148438 -2.550781 1.242188 -2.503906 1.359375 -2.453125 C 1.460938 -2.410156 1.597656 -2.375 1.765625 -2.34375 C 2.273438 -2.226562 2.65625 -2.09375 2.90625 -1.9375 C 3.019531 -1.863281 3.113281 -1.773438 3.1875 -1.671875 C 3.257812 -1.578125 3.304688 -1.484375 3.328125 -1.390625 C 3.359375 -1.285156 3.375 -1.171875 3.375 -1.046875 C 3.375 -0.816406 3.3125 -0.617188 3.1875 -0.453125 C 3.0625 -0.285156 2.878906 -0.15625 2.640625 -0.0625 C 2.410156 0.03125 2.125 0.078125 1.78125 0.078125 Z M 1.78125 0.078125 "/></g></g><g transform="translate(38.993142, 20.33152)"><g><path d="M 0.09375 0 L 0.09375 -0.375 L 0.734375 -0.375 L 0.734375 -3.59375 L 0.09375 -3.59375 L 0.09375 -3.96875 L 1.953125 -3.96875 L 1.953125 -3.59375 L 1.359375 -3.59375 L 1.359375 -2.25 L 3.015625 -2.25 L 3.015625 -3.59375 L 2.40625 -3.59375 L 2.40625 -3.96875 L 4.28125 -3.96875 L 4.28125 -3.59375 L 3.640625 -3.59375 L 3.640625 -0.375 L 4.28125 -0.375 L 4.28125 0 L 2.40625 0 L 2.40625 -0.375 L 3.015625 -0.375 L 3.015625 -1.90625 L 1.359375 -1.90625 L 1.359375 -0.375 L 1.953125 -0.375 L 1.953125 0 Z M 0.09375 0 "/></g></g><g transform="translate(43.364185, 20.33152)"><g><path d="M 0.078125 0 L 0.078125 -0.375 L 0.71875 -0.375 L 0.71875 -3.59375 L 0.078125 -3.59375 L 0.078125 -3.96875 L 1.953125 -3.96875 L 1.953125 -3.59375 L 1.34375 -3.59375 L 1.34375 -0.375 L 1.953125 -0.375 L 1.953125 0 Z M 0.078125 0 "/></g></g><g transform="translate(45.39643, 20.33152)"><g><path d="M 0.09375 -0.375 L 0.734375 -0.375 L 0.734375 -3.59375 L 0.09375 -3.59375 L 0.09375 -3.96875 L 1.703125 -3.96875 C 1.835938 -3.96875 1.945312 -3.96875 2.03125 -3.96875 C 2.113281 -3.96875 2.210938 -3.957031 2.328125 -3.9375 C 2.460938 -3.925781 2.578125 -3.90625 2.671875 -3.875 C 2.765625 -3.84375 2.863281 -3.800781 2.96875 -3.75 C 3.082031 -3.695312 3.171875 -3.632812 3.234375 -3.5625 C 3.304688 -3.488281 3.363281 -3.394531 3.40625 -3.28125 C 3.445312 -3.175781 3.46875 -3.050781 3.46875 -2.90625 C 3.46875 -2.757812 3.445312 -2.628906 3.40625 -2.515625 C 3.375 -2.398438 3.320312 -2.300781 3.25 -2.21875 C 3.1875 -2.144531 3.101562 -2.082031 3 -2.03125 C 2.90625 -1.976562 2.800781 -1.929688 2.6875 -1.890625 C 2.601562 -1.867188 2.488281 -1.847656 2.34375 -1.828125 C 2.207031 -1.804688 2.078125 -1.796875 1.953125 -1.796875 C 1.835938 -1.785156 1.707031 -1.78125 1.5625 -1.78125 L 1.359375 -1.78125 L 1.359375 -0.375 L 2.015625 -0.375 L 2.015625 0 L 0.09375 0 Z M 1.71875 -2.125 C 2.457031 -2.125 2.828125 -2.375 2.828125 -2.875 C 2.828125 -3.007812 2.800781 -3.132812 2.75 -3.25 C 2.707031 -3.332031 2.632812 -3.40625 2.53125 -3.46875 C 2.46875 -3.5 2.359375 -3.53125 2.203125 -3.5625 C 2.109375 -3.582031 1.96875 -3.59375 1.78125 -3.59375 C 1.738281 -3.59375 1.664062 -3.59375 1.5625 -3.59375 L 1.359375 -3.59375 L 1.359375 -2.125 Z M 1.71875 -2.125 "/></g></g><g transform="translate(48.919163, 20.33152)"><g><path d="M 1.78125 0.078125 C 1.570312 0.078125 1.375 0.0546875 1.1875 0.015625 C 1 -0.0234375 0.828125 -0.0820312 0.671875 -0.15625 C 0.515625 -0.238281 0.390625 -0.34375 0.296875 -0.46875 C 0.203125 -0.59375 0.15625 -0.734375 0.15625 -0.890625 C 0.15625 -0.984375 0.175781 -1.066406 0.21875 -1.140625 C 0.257812 -1.222656 0.316406 -1.285156 0.390625 -1.328125 C 0.460938 -1.367188 0.546875 -1.390625 0.640625 -1.390625 C 0.710938 -1.390625 0.78125 -1.367188 0.84375 -1.328125 C 0.90625 -1.285156 0.953125 -1.226562 0.984375 -1.15625 C 1.023438 -1.09375 1.046875 -1.023438 1.046875 -0.953125 C 1.046875 -0.835938 1.015625 -0.75 0.953125 -0.6875 C 0.890625 -0.625 0.800781 -0.582031 0.6875 -0.5625 C 0.8125 -0.476562 0.953125 -0.410156 1.109375 -0.359375 C 1.265625 -0.316406 1.460938 -0.296875 1.703125 -0.296875 C 2.085938 -0.296875 2.375 -0.390625 2.5625 -0.578125 C 2.65625 -0.679688 2.703125 -0.804688 2.703125 -0.953125 C 2.703125 -1.117188 2.644531 -1.253906 2.53125 -1.359375 C 2.476562 -1.398438 2.40625 -1.441406 2.3125 -1.484375 C 2.226562 -1.535156 2.128906 -1.578125 2.015625 -1.609375 C 1.890625 -1.640625 1.757812 -1.675781 1.625 -1.71875 C 1.269531 -1.800781 0.984375 -1.898438 0.765625 -2.015625 C 0.554688 -2.140625 0.410156 -2.273438 0.328125 -2.421875 C 0.242188 -2.554688 0.203125 -2.726562 0.203125 -2.9375 C 0.203125 -3.144531 0.265625 -3.332031 0.390625 -3.5 C 0.523438 -3.675781 0.707031 -3.8125 0.9375 -3.90625 C 1.164062 -4.007812 1.425781 -4.0625 1.71875 -4.0625 C 1.976562 -4.0625 2.234375 -4.019531 2.484375 -3.9375 C 2.628906 -3.882812 2.753906 -3.828125 2.859375 -3.765625 C 2.960938 -3.703125 3.046875 -3.617188 3.109375 -3.515625 C 3.179688 -3.410156 3.21875 -3.300781 3.21875 -3.1875 C 3.21875 -3.03125 3.175781 -2.898438 3.09375 -2.796875 C 3.007812 -2.703125 2.898438 -2.65625 2.765625 -2.65625 C 2.679688 -2.65625 2.601562 -2.671875 2.53125 -2.703125 C 2.46875 -2.734375 2.414062 -2.773438 2.375 -2.828125 C 2.34375 -2.890625 2.328125 -2.957031 2.328125 -3.03125 C 2.328125 -3.164062 2.359375 -3.265625 2.421875 -3.328125 C 2.492188 -3.398438 2.582031 -3.4375 2.6875 -3.4375 C 2.476562 -3.601562 2.179688 -3.6875 1.796875 -3.6875 C 1.617188 -3.6875 1.457031 -3.660156 1.3125 -3.609375 C 1.175781 -3.554688 1.0625 -3.484375 0.96875 -3.390625 C 0.882812 -3.285156 0.84375 -3.171875 0.84375 -3.046875 C 0.84375 -2.972656 0.847656 -2.914062 0.859375 -2.875 C 0.867188 -2.832031 0.890625 -2.785156 0.921875 -2.734375 C 0.960938 -2.679688 1.015625 -2.632812 1.078125 -2.59375 C 1.148438 -2.550781 1.242188 -2.503906 1.359375 -2.453125 C 1.460938 -2.410156 1.597656 -2.375 1.765625 -2.34375 C 2.273438 -2.226562 2.65625 -2.09375 2.90625 -1.9375 C 3.019531 -1.863281 3.113281 -1.773438 3.1875 -1.671875 C 3.257812 -1.578125 3.304688 -1.484375 3.328125 -1.390625 C 3.359375 -1.285156 3.375 -1.171875 3.375 -1.046875 C 3.375 -0.816406 3.3125 -0.617188 3.1875 -0.453125 C 3.0625 -0.285156 2.878906 -0.15625 2.640625 -0.0625 C 2.410156 0.03125 2.125 0.078125 1.78125 0.078125 Z M 1.78125 0.078125 "/></g></g></g></svg>