<svg xmlns="http://www.w3.org/2000/svg" xmlns:xlink="http://www.w3.org/1999/xlink" width="900" zoomAndPan="magnify" viewBox="0 0 675 225" height="300" preserveAspectRatio="xMidYMid meet" version="1.0"><defs><g/></defs><g fill="#854ab1" fill-opacity="0.302"><g transform="translate(36.908061, 154.249175)"><g><path d="M 30.53125 1.25 C 22.476562 1.25 16.003906 -0.789062 11.109375 -4.875 C 6.210938 -8.96875 3.703125 -14.71875 3.578125 -22.125 L 20.296875 -22.125 C 20.421875 -19.03125 21.335938 -16.628906 23.046875 -14.921875 C 24.753906 -13.222656 27.21875 -12.375 30.4375 -12.375 C 33.46875 -12.375 35.753906 -12.953125 37.296875 -14.109375 C 38.835938 -15.265625 39.609375 -16.84375 39.609375 -18.84375 C 39.609375 -21.03125 38.609375 -22.71875 36.609375 -23.90625 C 34.617188 -25.101562 31.46875 -26.378906 27.15625 -27.734375 C 22.644531 -29.148438 18.921875 -30.566406 15.984375 -31.984375 C 13.054688 -33.398438 10.546875 -35.523438 8.453125 -38.359375 C 6.359375 -41.191406 5.3125 -44.925781 5.3125 -49.5625 C 5.3125 -53.300781 6.359375 -56.632812 8.453125 -59.5625 C 10.546875 -62.5 13.457031 -64.785156 17.1875 -66.421875 C 20.925781 -68.066406 25.210938 -68.890625 30.046875 -68.890625 C 34.429688 -68.890625 38.519531 -68.082031 42.3125 -66.46875 C 46.113281 -64.863281 49.207031 -62.398438 51.59375 -59.078125 C 53.976562 -55.765625 55.203125 -51.691406 55.265625 -46.859375 L 38.84375 -46.859375 C 38.78125 -49.242188 38.023438 -51.238281 36.578125 -52.84375 C 35.128906 -54.457031 32.953125 -55.265625 30.046875 -55.265625 C 27.535156 -55.265625 25.585938 -54.71875 24.203125 -53.625 C 22.816406 -52.53125 22.125 -51.050781 22.125 -49.1875 C 22.125 -46.988281 23.125 -45.3125 25.125 -44.15625 C 27.125 -43 30.25 -41.742188 34.5 -40.390625 C 39.007812 -39.035156 42.726562 -37.648438 45.65625 -36.234375 C 48.582031 -34.816406 51.109375 -32.675781 53.234375 -29.8125 C 55.359375 -26.945312 56.421875 -23.160156 56.421875 -18.453125 C 56.421875 -14.847656 55.40625 -11.546875 53.375 -8.546875 C 51.351562 -5.554688 48.394531 -3.175781 44.5 -1.40625 C 40.601562 0.363281 35.945312 1.25 30.53125 1.25 Z M 30.53125 1.25 "/></g></g></g><g fill="#854ab1" fill-opacity="0.302"><g transform="translate(96.899538, 154.249175)"><g><path d="M 49.078125 -42.125 L 49.078125 -67.640625 L 66 -67.640625 L 66 0 L 49.078125 0 L 49.078125 -26.859375 L 24.828125 -26.859375 L 24.828125 0 L 7.921875 0 L 7.921875 -67.640625 L 24.828125 -67.640625 L 24.828125 -42.125 Z M 49.078125 -42.125 "/></g></g></g><g fill="#854ab1" fill-opacity="0.302"><g transform="translate(170.705476, 154.249175)"><g><path d="M 24.828125 -27.53125 L 24.828125 -14.390625 L 52.5625 -14.390625 L 52.5625 0 L 7.921875 0 L 7.921875 -67.640625 L 51.59375 -67.640625 L 51.59375 -53.234375 L 24.828125 -53.234375 L 24.828125 -41.546875 L 50.625 -41.546875 L 50.625 -27.53125 Z M 24.828125 -27.53125 "/></g></g></g><g fill="#854ab1" fill-opacity="0.502"><g transform="translate(32.637367, 149.978478)"><g><path d="M 30.53125 1.25 C 22.476562 1.25 16.003906 -0.789062 11.109375 -4.875 C 6.210938 -8.96875 3.703125 -14.71875 3.578125 -22.125 L 20.296875 -22.125 C 20.421875 -19.03125 21.335938 -16.628906 23.046875 -14.921875 C 24.753906 -13.222656 27.21875 -12.375 30.4375 -12.375 C 33.46875 -12.375 35.753906 -12.953125 37.296875 -14.109375 C 38.835938 -15.265625 39.609375 -16.84375 39.609375 -18.84375 C 39.609375 -21.03125 38.609375 -22.71875 36.609375 -23.90625 C 34.617188 -25.101562 31.46875 -26.378906 27.15625 -27.734375 C 22.644531 -29.148438 18.921875 -30.566406 15.984375 -31.984375 C 13.054688 -33.398438 10.546875 -35.523438 8.453125 -38.359375 C 6.359375 -41.191406 5.3125 -44.925781 5.3125 -49.5625 C 5.3125 -53.300781 6.359375 -56.632812 8.453125 -59.5625 C 10.546875 -62.5 13.457031 -64.785156 17.1875 -66.421875 C 20.925781 -68.066406 25.210938 -68.890625 30.046875 -68.890625 C 34.429688 -68.890625 38.519531 -68.082031 42.3125 -66.46875 C 46.113281 -64.863281 49.207031 -62.398438 51.59375 -59.078125 C 53.976562 -55.765625 55.203125 -51.691406 55.265625 -46.859375 L 38.84375 -46.859375 C 38.78125 -49.242188 38.023438 -51.238281 36.578125 -52.84375 C 35.128906 -54.457031 32.953125 -55.265625 30.046875 -55.265625 C 27.535156 -55.265625 25.585938 -54.71875 24.203125 -53.625 C 22.816406 -52.53125 22.125 -51.050781 22.125 -49.1875 C 22.125 -46.988281 23.125 -45.3125 25.125 -44.15625 C 27.125 -43 30.25 -41.742188 34.5 -40.390625 C 39.007812 -39.035156 42.726562 -37.648438 45.65625 -36.234375 C 48.582031 -34.816406 51.109375 -32.675781 53.234375 -29.8125 C 55.359375 -26.945312 56.421875 -23.160156 56.421875 -18.453125 C 56.421875 -14.847656 55.40625 -11.546875 53.375 -8.546875 C 51.351562 -5.554688 48.394531 -3.175781 44.5 -1.40625 C 40.601562 0.363281 35.945312 1.25 30.53125 1.25 Z M 30.53125 1.25 "/></g></g></g><g fill="#854ab1" fill-opacity="0.502"><g transform="translate(92.628844, 149.978478)"><g><path d="M 49.078125 -42.125 L 49.078125 -67.640625 L 66 -67.640625 L 66 0 L 49.078125 0 L 49.078125 -26.859375 L 24.828125 -26.859375 L 24.828125 0 L 7.921875 0 L 7.921875 -67.640625 L 24.828125 -67.640625 L 24.828125 -42.125 Z M 49.078125 -42.125 "/></g></g></g><g fill="#854ab1" fill-opacity="0.502"><g transform="translate(166.434782, 149.978478)"><g><path d="M 24.828125 -27.53125 L 24.828125 -14.390625 L 52.5625 -14.390625 L 52.5625 0 L 7.921875 0 L 7.921875 -67.640625 L 51.59375 -67.640625 L 51.59375 -53.234375 L 24.828125 -53.234375 L 24.828125 -41.546875 L 50.625 -41.546875 L 50.625 -27.53125 Z M 24.828125 -27.53125 "/></g></g></g><g fill="#854ab1" fill-opacity="1"><g transform="translate(28.366675, 145.707782)"><g><path d="M 30.53125 1.25 C 22.476562 1.25 16.003906 -0.789062 11.109375 -4.875 C 6.210938 -8.96875 3.703125 -14.71875 3.578125 -22.125 L 20.296875 -22.125 C 20.421875 -19.03125 21.335938 -16.628906 23.046875 -14.921875 C 24.753906 -13.222656 27.21875 -12.375 30.4375 -12.375 C 33.46875 -12.375 35.753906 -12.953125 37.296875 -14.109375 C 38.835938 -15.265625 39.609375 -16.84375 39.609375 -18.84375 C 39.609375 -21.03125 38.609375 -22.71875 36.609375 -23.90625 C 34.617188 -25.101562 31.46875 -26.378906 27.15625 -27.734375 C 22.644531 -29.148438 18.921875 -30.566406 15.984375 -31.984375 C 13.054688 -33.398438 10.546875 -35.523438 8.453125 -38.359375 C 6.359375 -41.191406 5.3125 -44.925781 5.3125 -49.5625 C 5.3125 -53.300781 6.359375 -56.632812 8.453125 -59.5625 C 10.546875 -62.5 13.457031 -64.785156 17.1875 -66.421875 C 20.925781 -68.066406 25.210938 -68.890625 30.046875 -68.890625 C 34.429688 -68.890625 38.519531 -68.082031 42.3125 -66.46875 C 46.113281 -64.863281 49.207031 -62.398438 51.59375 -59.078125 C 53.976562 -55.765625 55.203125 -51.691406 55.265625 -46.859375 L 38.84375 -46.859375 C 38.78125 -49.242188 38.023438 -51.238281 36.578125 -52.84375 C 35.128906 -54.457031 32.953125 -55.265625 30.046875 -55.265625 C 27.535156 -55.265625 25.585938 -54.71875 24.203125 -53.625 C 22.816406 -52.53125 22.125 -51.050781 22.125 -49.1875 C 22.125 -46.988281 23.125 -45.3125 25.125 -44.15625 C 27.125 -43 30.25 -41.742188 34.5 -40.390625 C 39.007812 -39.035156 42.726562 -37.648438 45.65625 -36.234375 C 48.582031 -34.816406 51.109375 -32.675781 53.234375 -29.8125 C 55.359375 -26.945312 56.421875 -23.160156 56.421875 -18.453125 C 56.421875 -14.847656 55.40625 -11.546875 53.375 -8.546875 C 51.351562 -5.554688 48.394531 -3.175781 44.5 -1.40625 C 40.601562 0.363281 35.945312 1.25 30.53125 1.25 Z M 30.53125 1.25 "/></g></g></g><g fill="#854ab1" fill-opacity="1"><g transform="translate(88.358152, 145.707782)"><g><path d="M 49.078125 -42.125 L 49.078125 -67.640625 L 66 -67.640625 L 66 0 L 49.078125 0 L 49.078125 -26.859375 L 24.828125 -26.859375 L 24.828125 0 L 7.921875 0 L 7.921875 -67.640625 L 24.828125 -67.640625 L 24.828125 -42.125 Z M 49.078125 -42.125 "/></g></g></g><g fill="#854ab1" fill-opacity="1"><g transform="translate(162.16409, 145.707782)"><g><path d="M 24.828125 -27.53125 L 24.828125 -14.390625 L 52.5625 -14.390625 L 52.5625 0 L 7.921875 0 L 7.921875 -67.640625 L 51.59375 -67.640625 L 51.59375 -53.234375 L 24.828125 -53.234375 L 24.828125 -41.546875 L 50.625 -41.546875 L 50.625 -27.53125 Z M 24.828125 -27.53125 "/></g></g></g><g fill="#dc9849" fill-opacity="0.302"><g transform="translate(251.566447, 154.249175)"><g><path d="M 26.09375 -39.609375 C 26.09375 -36.265625 25.382812 -33.398438 23.96875 -31.015625 C 22.550781 -28.628906 20.488281 -26.828125 17.78125 -25.609375 C 20.488281 -24.378906 22.550781 -22.570312 23.96875 -20.1875 C 25.382812 -17.8125 26.09375 -14.945312 26.09375 -11.59375 L 26.09375 -5.3125 C 26.09375 -1.644531 27.039062 1.203125 28.9375 3.234375 C 30.84375 5.265625 33.597656 6.28125 37.203125 6.28125 L 38.171875 6.28125 L 38.171875 19.328125 L 33.71875 19.328125 C 26.632812 19.328125 21.222656 17.394531 17.484375 13.53125 C 13.753906 9.664062 11.890625 4.316406 11.890625 -2.515625 L 11.890625 -9.28125 C 11.890625 -12.6875 11.082031 -15.304688 9.46875 -17.140625 C 7.851562 -18.984375 5.4375 -19.90625 2.21875 -19.90625 L 2.21875 -31.3125 C 5.4375 -31.3125 7.851562 -32.226562 9.46875 -34.0625 C 11.082031 -35.894531 11.890625 -38.519531 11.890625 -41.9375 L 11.890625 -48.796875 C 11.890625 -55.554688 13.753906 -60.867188 17.484375 -64.734375 C 21.222656 -68.597656 26.632812 -70.53125 33.71875 -70.53125 L 38.171875 -70.53125 L 38.171875 -57.484375 L 37.203125 -57.484375 C 33.597656 -57.484375 30.84375 -56.46875 28.9375 -54.4375 C 27.039062 -52.414062 26.09375 -49.566406 26.09375 -45.890625 Z M 26.09375 -39.609375 "/></g></g></g><g fill="#dc9849" fill-opacity="0.502"><g transform="translate(247.295753, 149.978478)"><g><path d="M 26.09375 -39.609375 C 26.09375 -36.265625 25.382812 -33.398438 23.96875 -31.015625 C 22.550781 -28.628906 20.488281 -26.828125 17.78125 -25.609375 C 20.488281 -24.378906 22.550781 -22.570312 23.96875 -20.1875 C 25.382812 -17.8125 26.09375 -14.945312 26.09375 -11.59375 L 26.09375 -5.3125 C 26.09375 -1.644531 27.039062 1.203125 28.9375 3.234375 C 30.84375 5.265625 33.597656 6.28125 37.203125 6.28125 L 38.171875 6.28125 L 38.171875 19.328125 L 33.71875 19.328125 C 26.632812 19.328125 21.222656 17.394531 17.484375 13.53125 C 13.753906 9.664062 11.890625 4.316406 11.890625 -2.515625 L 11.890625 -9.28125 C 11.890625 -12.6875 11.082031 -15.304688 9.46875 -17.140625 C 7.851562 -18.984375 5.4375 -19.90625 2.21875 -19.90625 L 2.21875 -31.3125 C 5.4375 -31.3125 7.851562 -32.226562 9.46875 -34.0625 C 11.082031 -35.894531 11.890625 -38.519531 11.890625 -41.9375 L 11.890625 -48.796875 C 11.890625 -55.554688 13.753906 -60.867188 17.484375 -64.734375 C 21.222656 -68.597656 26.632812 -70.53125 33.71875 -70.53125 L 38.171875 -70.53125 L 38.171875 -57.484375 L 37.203125 -57.484375 C 33.597656 -57.484375 30.84375 -56.46875 28.9375 -54.4375 C 27.039062 -52.414062 26.09375 -49.566406 26.09375 -45.890625 Z M 26.09375 -39.609375 "/></g></g></g><g fill="#dc9849" fill-opacity="1"><g transform="translate(243.025061, 145.707782)"><g><path d="M 26.09375 -39.609375 C 26.09375 -36.265625 25.382812 -33.398438 23.96875 -31.015625 C 22.550781 -28.628906 20.488281 -26.828125 17.78125 -25.609375 C 20.488281 -24.378906 22.550781 -22.570312 23.96875 -20.1875 C 25.382812 -17.8125 26.09375 -14.945312 26.09375 -11.59375 L 26.09375 -5.3125 C 26.09375 -1.644531 27.039062 1.203125 28.9375 3.234375 C 30.84375 5.265625 33.597656 6.28125 37.203125 6.28125 L 38.171875 6.28125 L 38.171875 19.328125 L 33.71875 19.328125 C 26.632812 19.328125 21.222656 17.394531 17.484375 13.53125 C 13.753906 9.664062 11.890625 4.316406 11.890625 -2.515625 L 11.890625 -9.28125 C 11.890625 -12.6875 11.082031 -15.304688 9.46875 -17.140625 C 7.851562 -18.984375 5.4375 -19.90625 2.21875 -19.90625 L 2.21875 -31.3125 C 5.4375 -31.3125 7.851562 -32.226562 9.46875 -34.0625 C 11.082031 -35.894531 11.890625 -38.519531 11.890625 -41.9375 L 11.890625 -48.796875 C 11.890625 -55.554688 13.753906 -60.867188 17.484375 -64.734375 C 21.222656 -68.597656 26.632812 -70.53125 33.71875 -70.53125 L 38.171875 -70.53125 L 38.171875 -57.484375 L 37.203125 -57.484375 C 33.597656 -57.484375 30.84375 -56.46875 28.9375 -54.4375 C 27.039062 -52.414062 26.09375 -49.566406 26.09375 -45.890625 Z M 26.09375 -39.609375 "/></g></g></g><g fill="#dc9849" fill-opacity="0.302"><g transform="translate(290.71766, 154.249175)"><g><path d="M 48.3125 -67.640625 L 48.3125 -52.859375 L 24.828125 -52.859375 L 24.828125 -39.328125 L 47.34375 -39.328125 L 47.34375 -25.21875 L 24.828125 -25.21875 L 24.828125 0 L 7.921875 0 L 7.921875 -67.640625 Z M 48.3125 -67.640625 "/></g></g></g><g fill="#dc9849" fill-opacity="0.302"><g transform="translate(343.07737, 154.249175)"><g><path d="M 35.46875 1.25 C 29.601562 1.25 24.507812 0.0625 20.1875 -2.3125 C 15.875 -4.695312 12.554688 -8.015625 10.234375 -12.265625 C 7.921875 -16.523438 6.765625 -21.421875 6.765625 -26.953125 L 6.765625 -67.640625 L 23.671875 -67.640625 L 23.671875 -27.921875 C 23.671875 -23.796875 24.648438 -20.476562 26.609375 -17.96875 C 28.578125 -15.457031 31.53125 -14.203125 35.46875 -14.203125 C 39.457031 -14.203125 42.429688 -15.457031 44.390625 -17.96875 C 46.359375 -20.476562 47.34375 -23.796875 47.34375 -27.921875 L 47.34375 -67.640625 L 64.25 -67.640625 L 64.25 -26.953125 C 64.25 -21.421875 63.085938 -16.523438 60.765625 -12.265625 C 58.453125 -8.015625 55.117188 -4.695312 50.765625 -2.3125 C 46.421875 0.0625 41.320312 1.25 35.46875 1.25 Z M 35.46875 1.25 "/></g></g></g><g fill="#dc9849" fill-opacity="0.302"><g transform="translate(414.081783, 154.249175)"><g><path d="M 55.46875 -26.859375 L 55.46875 -67.640625 L 71.703125 -67.640625 L 71.703125 0 L 59.90625 0 L 24.15625 -40.578125 L 24.15625 0 L 7.921875 0 L 7.921875 -67.640625 L 19.609375 -67.640625 Z M 55.46875 -26.859375 "/></g></g></g><g fill="#dc9849" fill-opacity="0.302"><g transform="translate(493.587385, 154.249175)"><g><path d="M 7.921875 0 L 7.921875 -67.640625 L 32.078125 -67.640625 C 39.679688 -67.640625 46.332031 -66.238281 52.03125 -63.4375 C 57.726562 -60.632812 62.140625 -56.671875 65.265625 -51.546875 C 68.390625 -46.429688 69.953125 -40.519531 69.953125 -33.8125 C 69.953125 -27.113281 68.390625 -21.203125 65.265625 -16.078125 C 62.140625 -10.960938 57.726562 -7.003906 52.03125 -4.203125 C 46.332031 -1.398438 39.679688 0 32.078125 0 Z M 31.6875 -14.78125 C 38.195312 -14.78125 43.316406 -16.503906 47.046875 -19.953125 C 50.785156 -23.398438 52.65625 -28.019531 52.65625 -33.8125 C 52.65625 -39.613281 50.785156 -44.238281 47.046875 -47.6875 C 43.316406 -51.132812 38.195312 -52.859375 31.6875 -52.859375 L 24.828125 -52.859375 L 24.828125 -14.78125 Z M 31.6875 -14.78125 "/></g></g></g><g fill="#dc9849" fill-opacity="0.302"><g transform="translate(567.393323, 154.249175)"><g><path d="M 30.53125 1.25 C 22.476562 1.25 16.003906 -0.789062 11.109375 -4.875 C 6.210938 -8.96875 3.703125 -14.71875 3.578125 -22.125 L 20.296875 -22.125 C 20.421875 -19.03125 21.335938 -16.628906 23.046875 -14.921875 C 24.753906 -13.222656 27.21875 -12.375 30.4375 -12.375 C 33.46875 -12.375 35.753906 -12.953125 37.296875 -14.109375 C 38.835938 -15.265625 39.609375 -16.84375 39.609375 -18.84375 C 39.609375 -21.03125 38.609375 -22.71875 36.609375 -23.90625 C 34.617188 -25.101562 31.46875 -26.378906 27.15625 -27.734375 C 22.644531 -29.148438 18.921875 -30.566406 15.984375 -31.984375 C 13.054688 -33.398438 10.546875 -35.523438 8.453125 -38.359375 C 6.359375 -41.191406 5.3125 -44.925781 5.3125 -49.5625 C 5.3125 -53.300781 6.359375 -56.632812 8.453125 -59.5625 C 10.546875 -62.5 13.457031 -64.785156 17.1875 -66.421875 C 20.925781 -68.066406 25.210938 -68.890625 30.046875 -68.890625 C 34.429688 -68.890625 38.519531 -68.082031 42.3125 -66.46875 C 46.113281 -64.863281 49.207031 -62.398438 51.59375 -59.078125 C 53.976562 -55.765625 55.203125 -51.691406 55.265625 -46.859375 L 38.84375 -46.859375 C 38.78125 -49.242188 38.023438 -51.238281 36.578125 -52.84375 C 35.128906 -54.457031 32.953125 -55.265625 30.046875 -55.265625 C 27.535156 -55.265625 25.585938 -54.71875 24.203125 -53.625 C 22.816406 -52.53125 22.125 -51.050781 22.125 -49.1875 C 22.125 -46.988281 23.125 -45.3125 25.125 -44.15625 C 27.125 -43 30.25 -41.742188 34.5 -40.390625 C 39.007812 -39.035156 42.726562 -37.648438 45.65625 -36.234375 C 48.582031 -34.816406 51.109375 -32.675781 53.234375 -29.8125 C 55.359375 -26.945312 56.421875 -23.160156 56.421875 -18.453125 C 56.421875 -14.847656 55.40625 -11.546875 53.375 -8.546875 C 51.351562 -5.554688 48.394531 -3.175781 44.5 -1.40625 C 40.601562 0.363281 35.945312 1.25 30.53125 1.25 Z M 30.53125 1.25 "/></g></g></g><g fill="#dc9849" fill-opacity="0.302"><g transform="translate(627.3848, 154.249175)"><g><path d="M 27.15625 -41.9375 C 27.15625 -38.519531 27.957031 -35.894531 29.5625 -34.0625 C 31.175781 -32.226562 33.59375 -31.3125 36.8125 -31.3125 L 36.8125 -19.90625 C 33.59375 -19.90625 31.175781 -18.984375 29.5625 -17.140625 C 27.957031 -15.304688 27.15625 -12.6875 27.15625 -9.28125 L 27.15625 -2.421875 C 27.15625 4.347656 25.285156 9.664062 21.546875 13.53125 C 17.804688 17.394531 12.394531 19.328125 5.3125 19.328125 L 0.96875 19.328125 L 0.96875 6.28125 L 1.9375 6.28125 C 5.539062 6.28125 8.289062 5.265625 10.1875 3.234375 C 12.09375 1.203125 13.046875 -1.644531 13.046875 -5.3125 L 13.046875 -11.59375 C 13.046875 -14.945312 13.753906 -17.8125 15.171875 -20.1875 C 16.585938 -22.570312 18.648438 -24.378906 21.359375 -25.609375 C 18.648438 -26.828125 16.585938 -28.628906 15.171875 -31.015625 C 13.753906 -33.398438 13.046875 -36.265625 13.046875 -39.609375 L 13.046875 -45.890625 C 13.046875 -49.566406 12.09375 -52.414062 10.1875 -54.4375 C 8.289062 -56.46875 5.539062 -57.484375 1.9375 -57.484375 L 0.96875 -57.484375 L 0.96875 -70.53125 L 5.3125 -70.53125 C 12.394531 -70.53125 17.804688 -68.597656 21.546875 -64.734375 C 25.285156 -60.867188 27.15625 -55.523438 27.15625 -48.703125 Z M 27.15625 -41.9375 "/></g></g></g><g fill="#dc9849" fill-opacity="0.502"><g transform="translate(286.446966, 149.978478)"><g><path d="M 48.3125 -67.640625 L 48.3125 -52.859375 L 24.828125 -52.859375 L 24.828125 -39.328125 L 47.34375 -39.328125 L 47.34375 -25.21875 L 24.828125 -25.21875 L 24.828125 0 L 7.921875 0 L 7.921875 -67.640625 Z M 48.3125 -67.640625 "/></g></g></g><g fill="#dc9849" fill-opacity="0.502"><g transform="translate(338.806676, 149.978478)"><g><path d="M 35.46875 1.25 C 29.601562 1.25 24.507812 0.0625 20.1875 -2.3125 C 15.875 -4.695312 12.554688 -8.015625 10.234375 -12.265625 C 7.921875 -16.523438 6.765625 -21.421875 6.765625 -26.953125 L 6.765625 -67.640625 L 23.671875 -67.640625 L 23.671875 -27.921875 C 23.671875 -23.796875 24.648438 -20.476562 26.609375 -17.96875 C 28.578125 -15.457031 31.53125 -14.203125 35.46875 -14.203125 C 39.457031 -14.203125 42.429688 -15.457031 44.390625 -17.96875 C 46.359375 -20.476562 47.34375 -23.796875 47.34375 -27.921875 L 47.34375 -67.640625 L 64.25 -67.640625 L 64.25 -26.953125 C 64.25 -21.421875 63.085938 -16.523438 60.765625 -12.265625 C 58.453125 -8.015625 55.117188 -4.695312 50.765625 -2.3125 C 46.421875 0.0625 41.320312 1.25 35.46875 1.25 Z M 35.46875 1.25 "/></g></g></g><g fill="#dc9849" fill-opacity="0.502"><g transform="translate(409.811089, 149.978478)"><g><path d="M 55.46875 -26.859375 L 55.46875 -67.640625 L 71.703125 -67.640625 L 71.703125 0 L 59.90625 0 L 24.15625 -40.578125 L 24.15625 0 L 7.921875 0 L 7.921875 -67.640625 L 19.609375 -67.640625 Z M 55.46875 -26.859375 "/></g></g></g><g fill="#dc9849" fill-opacity="0.502"><g transform="translate(489.316691, 149.978478)"><g><path d="M 7.921875 0 L 7.921875 -67.640625 L 32.078125 -67.640625 C 39.679688 -67.640625 46.332031 -66.238281 52.03125 -63.4375 C 57.726562 -60.632812 62.140625 -56.671875 65.265625 -51.546875 C 68.390625 -46.429688 69.953125 -40.519531 69.953125 -33.8125 C 69.953125 -27.113281 68.390625 -21.203125 65.265625 -16.078125 C 62.140625 -10.960938 57.726562 -7.003906 52.03125 -4.203125 C 46.332031 -1.398438 39.679688 0 32.078125 0 Z M 31.6875 -14.78125 C 38.195312 -14.78125 43.316406 -16.503906 47.046875 -19.953125 C 50.785156 -23.398438 52.65625 -28.019531 52.65625 -33.8125 C 52.65625 -39.613281 50.785156 -44.238281 47.046875 -47.6875 C 43.316406 -51.132812 38.195312 -52.859375 31.6875 -52.859375 L 24.828125 -52.859375 L 24.828125 -14.78125 Z M 31.6875 -14.78125 "/></g></g></g><g fill="#dc9849" fill-opacity="0.502"><g transform="translate(563.122629, 149.978478)"><g><path d="M 30.53125 1.25 C 22.476562 1.25 16.003906 -0.789062 11.109375 -4.875 C 6.210938 -8.96875 3.703125 -14.71875 3.578125 -22.125 L 20.296875 -22.125 C 20.421875 -19.03125 21.335938 -16.628906 23.046875 -14.921875 C 24.753906 -13.222656 27.21875 -12.375 30.4375 -12.375 C 33.46875 -12.375 35.753906 -12.953125 37.296875 -14.109375 C 38.835938 -15.265625 39.609375 -16.84375 39.609375 -18.84375 C 39.609375 -21.03125 38.609375 -22.71875 36.609375 -23.90625 C 34.617188 -25.101562 31.46875 -26.378906 27.15625 -27.734375 C 22.644531 -29.148438 18.921875 -30.566406 15.984375 -31.984375 C 13.054688 -33.398438 10.546875 -35.523438 8.453125 -38.359375 C 6.359375 -41.191406 5.3125 -44.925781 5.3125 -49.5625 C 5.3125 -53.300781 6.359375 -56.632812 8.453125 -59.5625 C 10.546875 -62.5 13.457031 -64.785156 17.1875 -66.421875 C 20.925781 -68.066406 25.210938 -68.890625 30.046875 -68.890625 C 34.429688 -68.890625 38.519531 -68.082031 42.3125 -66.46875 C 46.113281 -64.863281 49.207031 -62.398438 51.59375 -59.078125 C 53.976562 -55.765625 55.203125 -51.691406 55.265625 -46.859375 L 38.84375 -46.859375 C 38.78125 -49.242188 38.023438 -51.238281 36.578125 -52.84375 C 35.128906 -54.457031 32.953125 -55.265625 30.046875 -55.265625 C 27.535156 -55.265625 25.585938 -54.71875 24.203125 -53.625 C 22.816406 -52.53125 22.125 -51.050781 22.125 -49.1875 C 22.125 -46.988281 23.125 -45.3125 25.125 -44.15625 C 27.125 -43 30.25 -41.742188 34.5 -40.390625 C 39.007812 -39.035156 42.726562 -37.648438 45.65625 -36.234375 C 48.582031 -34.816406 51.109375 -32.675781 53.234375 -29.8125 C 55.359375 -26.945312 56.421875 -23.160156 56.421875 -18.453125 C 56.421875 -14.847656 55.40625 -11.546875 53.375 -8.546875 C 51.351562 -5.554688 48.394531 -3.175781 44.5 -1.40625 C 40.601562 0.363281 35.945312 1.25 30.53125 1.25 Z M 30.53125 1.25 "/></g></g></g><g fill="#dc9849" fill-opacity="0.502"><g transform="translate(623.114106, 149.978478)"><g><path d="M 27.15625 -41.9375 C 27.15625 -38.519531 27.957031 -35.894531 29.5625 -34.0625 C 31.175781 -32.226562 33.59375 -31.3125 36.8125 -31.3125 L 36.8125 -19.90625 C 33.59375 -19.90625 31.175781 -18.984375 29.5625 -17.140625 C 27.957031 -15.304688 27.15625 -12.6875 27.15625 -9.28125 L 27.15625 -2.421875 C 27.15625 4.347656 25.285156 9.664062 21.546875 13.53125 C 17.804688 17.394531 12.394531 19.328125 5.3125 19.328125 L 0.96875 19.328125 L 0.96875 6.28125 L 1.9375 6.28125 C 5.539062 6.28125 8.289062 5.265625 10.1875 3.234375 C 12.09375 1.203125 13.046875 -1.644531 13.046875 -5.3125 L 13.046875 -11.59375 C 13.046875 -14.945312 13.753906 -17.8125 15.171875 -20.1875 C 16.585938 -22.570312 18.648438 -24.378906 21.359375 -25.609375 C 18.648438 -26.828125 16.585938 -28.628906 15.171875 -31.015625 C 13.753906 -33.398438 13.046875 -36.265625 13.046875 -39.609375 L 13.046875 -45.890625 C 13.046875 -49.566406 12.09375 -52.414062 10.1875 -54.4375 C 8.289062 -56.46875 5.539062 -57.484375 1.9375 -57.484375 L 0.96875 -57.484375 L 0.96875 -70.53125 L 5.3125 -70.53125 C 12.394531 -70.53125 17.804688 -68.597656 21.546875 -64.734375 C 25.285156 -60.867188 27.15625 -55.523438 27.15625 -48.703125 Z M 27.15625 -41.9375 "/></g></g></g><g fill="#dc9849" fill-opacity="1"><g transform="translate(282.176274, 145.707782)"><g><path d="M 48.3125 -67.640625 L 48.3125 -52.859375 L 24.828125 -52.859375 L 24.828125 -39.328125 L 47.34375 -39.328125 L 47.34375 -25.21875 L 24.828125 -25.21875 L 24.828125 0 L 7.921875 0 L 7.921875 -67.640625 Z M 48.3125 -67.640625 "/></g></g></g><g fill="#dc9849" fill-opacity="1"><g transform="translate(334.535984, 145.707782)"><g><path d="M 35.46875 1.25 C 29.601562 1.25 24.507812 0.0625 20.1875 -2.3125 C 15.875 -4.695312 12.554688 -8.015625 10.234375 -12.265625 C 7.921875 -16.523438 6.765625 -21.421875 6.765625 -26.953125 L 6.765625 -67.640625 L 23.671875 -67.640625 L 23.671875 -27.921875 C 23.671875 -23.796875 24.648438 -20.476562 26.609375 -17.96875 C 28.578125 -15.457031 31.53125 -14.203125 35.46875 -14.203125 C 39.457031 -14.203125 42.429688 -15.457031 44.390625 -17.96875 C 46.359375 -20.476562 47.34375 -23.796875 47.34375 -27.921875 L 47.34375 -67.640625 L 64.25 -67.640625 L 64.25 -26.953125 C 64.25 -21.421875 63.085938 -16.523438 60.765625 -12.265625 C 58.453125 -8.015625 55.117188 -4.695312 50.765625 -2.3125 C 46.421875 0.0625 41.320312 1.25 35.46875 1.25 Z M 35.46875 1.25 "/></g></g></g><g fill="#dc9849" fill-opacity="1"><g transform="translate(405.540397, 145.707782)"><g><path d="M 55.46875 -26.859375 L 55.46875 -67.640625 L 71.703125 -67.640625 L 71.703125 0 L 59.90625 0 L 24.15625 -40.578125 L 24.15625 0 L 7.921875 0 L 7.921875 -67.640625 L 19.609375 -67.640625 Z M 55.46875 -26.859375 "/></g></g></g><g fill="#dc9849" fill-opacity="1"><g transform="translate(485.045999, 145.707782)"><g><path d="M 7.921875 0 L 7.921875 -67.640625 L 32.078125 -67.640625 C 39.679688 -67.640625 46.332031 -66.238281 52.03125 -63.4375 C 57.726562 -60.632812 62.140625 -56.671875 65.265625 -51.546875 C 68.390625 -46.429688 69.953125 -40.519531 69.953125 -33.8125 C 69.953125 -27.113281 68.390625 -21.203125 65.265625 -16.078125 C 62.140625 -10.960938 57.726562 -7.003906 52.03125 -4.203125 C 46.332031 -1.398438 39.679688 0 32.078125 0 Z M 31.6875 -14.78125 C 38.195312 -14.78125 43.316406 -16.503906 47.046875 -19.953125 C 50.785156 -23.398438 52.65625 -28.019531 52.65625 -33.8125 C 52.65625 -39.613281 50.785156 -44.238281 47.046875 -47.6875 C 43.316406 -51.132812 38.195312 -52.859375 31.6875 -52.859375 L 24.828125 -52.859375 L 24.828125 -14.78125 Z M 31.6875 -14.78125 "/></g></g></g><g fill="#dc9849" fill-opacity="1"><g transform="translate(558.851937, 145.707782)"><g><path d="M 30.53125 1.25 C 22.476562 1.25 16.003906 -0.789062 11.109375 -4.875 C 6.210938 -8.96875 3.703125 -14.71875 3.578125 -22.125 L 20.296875 -22.125 C 20.421875 -19.03125 21.335938 -16.628906 23.046875 -14.921875 C 24.753906 -13.222656 27.21875 -12.375 30.4375 -12.375 C 33.46875 -12.375 35.753906 -12.953125 37.296875 -14.109375 C 38.835938 -15.265625 39.609375 -16.84375 39.609375 -18.84375 C 39.609375 -21.03125 38.609375 -22.71875 36.609375 -23.90625 C 34.617188 -25.101562 31.46875 -26.378906 27.15625 -27.734375 C 22.644531 -29.148438 18.921875 -30.566406 15.984375 -31.984375 C 13.054688 -33.398438 10.546875 -35.523438 8.453125 -38.359375 C 6.359375 -41.191406 5.3125 -44.925781 5.3125 -49.5625 C 5.3125 -53.300781 6.359375 -56.632812 8.453125 -59.5625 C 10.546875 -62.5 13.457031 -64.785156 17.1875 -66.421875 C 20.925781 -68.066406 25.210938 -68.890625 30.046875 -68.890625 C 34.429688 -68.890625 38.519531 -68.082031 42.3125 -66.46875 C 46.113281 -64.863281 49.207031 -62.398438 51.59375 -59.078125 C 53.976562 -55.765625 55.203125 -51.691406 55.265625 -46.859375 L 38.84375 -46.859375 C 38.78125 -49.242188 38.023438 -51.238281 36.578125 -52.84375 C 35.128906 -54.457031 32.953125 -55.265625 30.046875 -55.265625 C 27.535156 -55.265625 25.585938 -54.71875 24.203125 -53.625 C 22.816406 -52.53125 22.125 -51.050781 22.125 -49.1875 C 22.125 -46.988281 23.125 -45.3125 25.125 -44.15625 C 27.125 -43 30.25 -41.742188 34.5 -40.390625 C 39.007812 -39.035156 42.726562 -37.648438 45.65625 -36.234375 C 48.582031 -34.816406 51.109375 -32.675781 53.234375 -29.8125 C 55.359375 -26.945312 56.421875 -23.160156 56.421875 -18.453125 C 56.421875 -14.847656 55.40625 -11.546875 53.375 -8.546875 C 51.351562 -5.554688 48.394531 -3.175781 44.5 -1.40625 C 40.601562 0.363281 35.945312 1.25 30.53125 1.25 Z M 30.53125 1.25 "/></g></g></g><g fill="#dc9849" fill-opacity="1"><g transform="translate(618.843414, 145.707782)"><g><path d="M 27.15625 -41.9375 C 27.15625 -38.519531 27.957031 -35.894531 29.5625 -34.0625 C 31.175781 -32.226562 33.59375 -31.3125 36.8125 -31.3125 L 36.8125 -19.90625 C 33.59375 -19.90625 31.175781 -18.984375 29.5625 -17.140625 C 27.957031 -15.304688 27.15625 -12.6875 27.15625 -9.28125 L 27.15625 -2.421875 C 27.15625 4.347656 25.285156 9.664062 21.546875 13.53125 C 17.804688 17.394531 12.394531 19.328125 5.3125 19.328125 L 0.96875 19.328125 L 0.96875 6.28125 L 1.9375 6.28125 C 5.539062 6.28125 8.289062 5.265625 10.1875 3.234375 C 12.09375 1.203125 13.046875 -1.644531 13.046875 -5.3125 L 13.046875 -11.59375 C 13.046875 -14.945312 13.753906 -17.8125 15.171875 -20.1875 C 16.585938 -22.570312 18.648438 -24.378906 21.359375 -25.609375 C 18.648438 -26.828125 16.585938 -28.628906 15.171875 -31.015625 C 13.753906 -33.398438 13.046875 -36.265625 13.046875 -39.609375 L 13.046875 -45.890625 C 13.046875 -49.566406 12.09375 -52.414062 10.1875 -54.4375 C 8.289062 -56.46875 5.539062 -57.484375 1.9375 -57.484375 L 0.96875 -57.484375 L 0.96875 -70.53125 L 5.3125 -70.53125 C 12.394531 -70.53125 17.804688 -68.597656 21.546875 -64.734375 C 25.285156 -60.867188 27.15625 -55.523438 27.15625 -48.703125 Z M 27.15625 -41.9375 "/></g></g></g></svg>