<svg xmlns="http://www.w3.org/2000/svg" xmlns:xlink="http://www.w3.org/1999/xlink" width="80" zoomAndPan="magnify" viewBox="0 0 60 30.000001" height="40" preserveAspectRatio="xMidYMid meet" version="1.0"><defs><g/><clipPath id="980be09f88"><path d="M 2.710938 10.597656 L 56.128906 10.597656 L 56.128906 27.359375 L 2.710938 27.359375 Z M 2.710938 10.597656 " clip-rule="nonzero"/></clipPath><clipPath id="20ae1a2ebb"><path d="M 4.160156 10.597656 L 54.675781 10.597656 C 55.480469 10.597656 56.128906 11.246094 56.128906 12.046875 L 56.128906 25.910156 C 56.128906 26.710938 55.480469 27.359375 54.675781 27.359375 L 4.160156 27.359375 C 3.359375 27.359375 2.710938 26.710938 2.710938 25.910156 L 2.710938 12.046875 C 2.710938 11.246094 3.359375 10.597656 4.160156 10.597656 Z M 4.160156 10.597656 " clip-rule="nonzero"/></clipPath></defs><g clip-path="url(#980be09f88)"><g clip-path="url(#20ae1a2ebb)"><path fill="#854ab1" d="M 2.710938 10.597656 L 56.128906 10.597656 L 56.128906 27.359375 L 2.710938 27.359375 Z M 2.710938 10.597656 " fill-opacity="1" fill-rule="nonzero"/></g></g><g fill="#dc9849" fill-opacity="1"><g transform="translate(8.209928, 19.726476)"><g><path d="M 0.03125 0 L 0.03125 -0.4375 L 0.578125 -0.4375 L 2.21875 -4.6875 L 2.96875 -4.6875 L 4.625 -0.4375 L 5.15625 -0.4375 L 5.15625 0 L 3.140625 0 L 3.140625 -0.4375 L 3.828125 -0.4375 L 3.40625 -1.5625 L 1.59375 -1.5625 L 1.1875 -0.4375 L 1.984375 -0.4375 L 1.984375 0 Z M 1.75 -1.96875 L 3.25 -1.96875 L 2.46875 -4.078125 Z M 1.75 -1.96875 "/></g></g><g transform="translate(13.387458, 19.726476)"><g><path d="M 0.109375 -0.4375 L 0.859375 -0.4375 L 0.859375 -4.234375 L 0.109375 -4.234375 L 0.109375 -4.6875 L 2.015625 -4.6875 C 2.160156 -4.6875 2.28125 -4.679688 2.375 -4.671875 C 2.476562 -4.671875 2.601562 -4.660156 2.75 -4.640625 C 2.90625 -4.628906 3.039062 -4.601562 3.15625 -4.5625 C 3.269531 -4.53125 3.390625 -4.484375 3.515625 -4.421875 C 3.640625 -4.359375 3.738281 -4.285156 3.8125 -4.203125 C 3.894531 -4.117188 3.960938 -4.007812 4.015625 -3.875 C 4.066406 -3.738281 4.09375 -3.585938 4.09375 -3.421875 C 4.09375 -3.253906 4.066406 -3.101562 4.015625 -2.96875 C 3.972656 -2.832031 3.914062 -2.71875 3.84375 -2.625 C 3.769531 -2.539062 3.671875 -2.460938 3.546875 -2.390625 C 3.429688 -2.328125 3.304688 -2.273438 3.171875 -2.234375 C 3.066406 -2.203125 2.929688 -2.175781 2.765625 -2.15625 C 2.609375 -2.132812 2.457031 -2.117188 2.3125 -2.109375 C 2.175781 -2.109375 2.019531 -2.109375 1.84375 -2.109375 L 1.59375 -2.109375 L 1.59375 -0.4375 L 2.375 -0.4375 L 2.375 0 L 0.109375 0 Z M 2.03125 -2.5 C 2.90625 -2.5 3.34375 -2.796875 3.34375 -3.390625 C 3.34375 -3.554688 3.3125 -3.707031 3.25 -3.84375 C 3.195312 -3.9375 3.109375 -4.019531 2.984375 -4.09375 C 2.910156 -4.132812 2.78125 -4.171875 2.59375 -4.203125 C 2.488281 -4.222656 2.328125 -4.234375 2.109375 -4.234375 C 2.054688 -4.234375 1.96875 -4.234375 1.84375 -4.234375 L 1.59375 -4.234375 L 1.59375 -2.5 Z M 2.03125 -2.5 "/></g></g><g transform="translate(17.540075, 19.726476)"><g><path d="M 0.109375 -0.4375 L 0.859375 -0.4375 L 0.859375 -4.234375 L 0.109375 -4.234375 L 0.109375 -4.6875 L 2.015625 -4.6875 C 2.160156 -4.6875 2.28125 -4.679688 2.375 -4.671875 C 2.476562 -4.671875 2.601562 -4.660156 2.75 -4.640625 C 2.90625 -4.628906 3.039062 -4.601562 3.15625 -4.5625 C 3.269531 -4.53125 3.390625 -4.484375 3.515625 -4.421875 C 3.640625 -4.359375 3.738281 -4.285156 3.8125 -4.203125 C 3.894531 -4.117188 3.960938 -4.007812 4.015625 -3.875 C 4.066406 -3.738281 4.09375 -3.585938 4.09375 -3.421875 C 4.09375 -3.253906 4.066406 -3.101562 4.015625 -2.96875 C 3.972656 -2.832031 3.914062 -2.71875 3.84375 -2.625 C 3.769531 -2.539062 3.671875 -2.460938 3.546875 -2.390625 C 3.429688 -2.328125 3.304688 -2.273438 3.171875 -2.234375 C 3.066406 -2.203125 2.929688 -2.175781 2.765625 -2.15625 C 2.609375 -2.132812 2.457031 -2.117188 2.3125 -2.109375 C 2.175781 -2.109375 2.019531 -2.109375 1.84375 -2.109375 L 1.59375 -2.109375 L 1.59375 -0.4375 L 2.375 -0.4375 L 2.375 0 L 0.109375 0 Z M 2.03125 -2.5 C 2.90625 -2.5 3.34375 -2.796875 3.34375 -3.390625 C 3.34375 -3.554688 3.3125 -3.707031 3.25 -3.84375 C 3.195312 -3.9375 3.109375 -4.019531 2.984375 -4.09375 C 2.910156 -4.132812 2.78125 -4.171875 2.59375 -4.203125 C 2.488281 -4.222656 2.328125 -4.234375 2.109375 -4.234375 C 2.054688 -4.234375 1.96875 -4.234375 1.84375 -4.234375 L 1.59375 -4.234375 L 1.59375 -2.5 Z M 2.03125 -2.5 "/></g></g><g transform="translate(21.692691, 19.726476)"><g><path d="M 0.109375 0 L 0.109375 -0.4375 L 0.859375 -0.4375 L 0.859375 -4.234375 L 0.109375 -4.234375 L 0.109375 -4.6875 L 2.3125 -4.6875 L 2.3125 -4.234375 L 1.59375 -4.234375 L 1.59375 -0.4375 L 3.359375 -0.4375 L 3.359375 -1.953125 L 3.9375 -1.953125 L 3.9375 0 Z M 0.109375 0 "/></g></g><g transform="translate(25.711352, 19.726476)"><g><path d="M 0.09375 0 L 0.09375 -0.4375 L 0.859375 -0.4375 L 0.859375 -4.234375 L 0.09375 -4.234375 L 0.09375 -4.6875 L 2.296875 -4.6875 L 2.296875 -4.234375 L 1.578125 -4.234375 L 1.578125 -0.4375 L 2.296875 -0.4375 L 2.296875 0 Z M 0.09375 0 "/></g></g><g transform="translate(28.106972, 19.726476)"><g><path d="M 2.46875 0.078125 C 2.15625 0.078125 1.859375 0.015625 1.578125 -0.109375 C 1.304688 -0.242188 1.070312 -0.425781 0.875 -0.65625 C 0.675781 -0.875 0.523438 -1.132812 0.421875 -1.4375 C 0.316406 -1.738281 0.265625 -2.054688 0.265625 -2.390625 C 0.265625 -2.734375 0.316406 -3.050781 0.421875 -3.34375 C 0.535156 -3.632812 0.691406 -3.890625 0.890625 -4.109375 C 1.085938 -4.316406 1.328125 -4.476562 1.609375 -4.59375 C 1.898438 -4.71875 2.210938 -4.78125 2.546875 -4.78125 C 2.828125 -4.78125 3.097656 -4.71875 3.359375 -4.59375 C 3.617188 -4.476562 3.835938 -4.3125 4.015625 -4.09375 C 4.179688 -3.863281 4.265625 -3.613281 4.265625 -3.34375 C 4.265625 -3.25 4.238281 -3.15625 4.1875 -3.0625 C 4.132812 -2.976562 4.0625 -2.910156 3.96875 -2.859375 C 3.875 -2.804688 3.769531 -2.78125 3.65625 -2.78125 C 3.5 -2.78125 3.367188 -2.820312 3.265625 -2.90625 C 3.171875 -3 3.125 -3.128906 3.125 -3.296875 C 3.125 -3.390625 3.148438 -3.472656 3.203125 -3.546875 C 3.265625 -3.628906 3.335938 -3.6875 3.421875 -3.71875 C 3.503906 -3.757812 3.585938 -3.78125 3.671875 -3.78125 C 3.566406 -3.945312 3.410156 -4.082031 3.203125 -4.1875 C 3.003906 -4.289062 2.78125 -4.34375 2.53125 -4.34375 C 2.25 -4.34375 2 -4.257812 1.78125 -4.09375 C 1.5625 -3.9375 1.390625 -3.707031 1.265625 -3.40625 C 1.140625 -3.113281 1.078125 -2.769531 1.078125 -2.375 C 1.078125 -2.144531 1.113281 -1.921875 1.1875 -1.703125 C 1.257812 -1.484375 1.363281 -1.28125 1.5 -1.09375 C 1.632812 -0.90625 1.800781 -0.753906 2 -0.640625 C 2.207031 -0.535156 2.429688 -0.484375 2.671875 -0.484375 C 2.847656 -0.484375 3.015625 -0.515625 3.171875 -0.578125 C 3.335938 -0.648438 3.476562 -0.742188 3.59375 -0.859375 C 3.695312 -0.972656 3.785156 -1.09375 3.859375 -1.21875 C 3.941406 -1.351562 4 -1.488281 4.03125 -1.625 L 4.453125 -1.421875 C 4.335938 -0.941406 4.109375 -0.570312 3.765625 -0.3125 C 3.429688 -0.0507812 3 0.078125 2.46875 0.078125 Z M 2.46875 0.078125 "/></g></g><g transform="translate(32.614725, 19.726476)"><g><path d="M 0.03125 0 L 0.03125 -0.4375 L 0.578125 -0.4375 L 2.21875 -4.6875 L 2.96875 -4.6875 L 4.625 -0.4375 L 5.15625 -0.4375 L 5.15625 0 L 3.140625 0 L 3.140625 -0.4375 L 3.828125 -0.4375 L 3.40625 -1.5625 L 1.59375 -1.5625 L 1.1875 -0.4375 L 1.984375 -0.4375 L 1.984375 0 Z M 1.75 -1.96875 L 3.25 -1.96875 L 2.46875 -4.078125 Z M 1.75 -1.96875 "/></g></g><g transform="translate(37.792256, 19.726476)"><g><path d="M 0.109375 0 L 0.109375 -0.4375 L 0.859375 -0.4375 L 0.859375 -4.234375 L 0.109375 -4.234375 L 0.109375 -4.6875 L 1.78125 -4.6875 L 4 -0.828125 L 4 -4.234375 L 3.234375 -4.234375 L 3.234375 -4.6875 L 5.296875 -4.6875 L 5.296875 -4.234375 L 4.59375 -4.234375 L 4.59375 0 L 3.765625 0 L 1.453125 -4.015625 L 1.453125 -0.4375 L 2.15625 -0.4375 L 2.15625 0 Z M 0.109375 0 "/></g></g><g transform="translate(43.15047, 19.726476)"><g><path d="M 1.15625 0 L 1.15625 -0.4375 L 1.875 -0.4375 L 1.875 -4.234375 L 0.6875 -4.234375 L 0.6875 -2.796875 L 0.109375 -2.796875 L 0.109375 -4.6875 L 4.359375 -4.6875 L 4.359375 -2.796875 L 3.78125 -2.796875 L 3.78125 -4.234375 L 2.609375 -4.234375 L 2.609375 -0.4375 L 3.359375 -0.4375 L 3.359375 0 Z M 1.15625 0 "/></g></g><g transform="translate(47.620841, 19.726476)"><g><path d="M 2.109375 0.078125 C 1.859375 0.078125 1.617188 0.0546875 1.390625 0.015625 C 1.171875 -0.0234375 0.972656 -0.09375 0.796875 -0.1875 C 0.597656 -0.28125 0.445312 -0.398438 0.34375 -0.546875 C 0.238281 -0.691406 0.1875 -0.859375 0.1875 -1.046875 C 0.1875 -1.160156 0.210938 -1.257812 0.265625 -1.34375 C 0.316406 -1.4375 0.382812 -1.507812 0.46875 -1.5625 C 0.550781 -1.613281 0.644531 -1.640625 0.75 -1.640625 C 0.832031 -1.640625 0.910156 -1.613281 0.984375 -1.5625 C 1.066406 -1.507812 1.128906 -1.441406 1.171875 -1.359375 C 1.210938 -1.285156 1.234375 -1.207031 1.234375 -1.125 C 1.234375 -0.988281 1.195312 -0.882812 1.125 -0.8125 C 1.050781 -0.738281 0.941406 -0.691406 0.796875 -0.671875 C 0.953125 -0.566406 1.125 -0.488281 1.3125 -0.4375 C 1.5 -0.382812 1.726562 -0.359375 2 -0.359375 C 2.46875 -0.359375 2.804688 -0.46875 3.015625 -0.6875 C 3.128906 -0.8125 3.1875 -0.957031 3.1875 -1.125 C 3.1875 -1.320312 3.117188 -1.476562 2.984375 -1.59375 C 2.929688 -1.65625 2.847656 -1.707031 2.734375 -1.75 C 2.628906 -1.800781 2.507812 -1.847656 2.375 -1.890625 C 2.226562 -1.929688 2.070312 -1.972656 1.90625 -2.015625 C 1.488281 -2.117188 1.15625 -2.238281 0.90625 -2.375 C 0.65625 -2.519531 0.484375 -2.675781 0.390625 -2.84375 C 0.296875 -3.019531 0.25 -3.226562 0.25 -3.46875 C 0.25 -3.71875 0.320312 -3.941406 0.46875 -4.140625 C 0.625 -4.335938 0.835938 -4.492188 1.109375 -4.609375 C 1.378906 -4.722656 1.6875 -4.78125 2.03125 -4.78125 C 2.332031 -4.78125 2.632812 -4.734375 2.9375 -4.640625 C 3.101562 -4.585938 3.25 -4.519531 3.375 -4.4375 C 3.5 -4.363281 3.597656 -4.269531 3.671875 -4.15625 C 3.742188 -4.03125 3.78125 -3.894531 3.78125 -3.75 C 3.78125 -3.5625 3.734375 -3.410156 3.640625 -3.296875 C 3.546875 -3.179688 3.421875 -3.125 3.265625 -3.125 C 3.171875 -3.125 3.082031 -3.140625 3 -3.171875 C 2.914062 -3.210938 2.847656 -3.265625 2.796875 -3.328125 C 2.753906 -3.398438 2.734375 -3.484375 2.734375 -3.578125 C 2.734375 -3.734375 2.773438 -3.851562 2.859375 -3.9375 C 2.941406 -4.019531 3.039062 -4.0625 3.15625 -4.0625 C 2.914062 -4.25 2.566406 -4.34375 2.109375 -4.34375 C 1.910156 -4.34375 1.726562 -4.3125 1.5625 -4.25 C 1.394531 -4.195312 1.257812 -4.113281 1.15625 -4 C 1.039062 -3.882812 0.984375 -3.75 0.984375 -3.59375 C 0.984375 -3.507812 0.988281 -3.441406 1 -3.390625 C 1.019531 -3.335938 1.050781 -3.28125 1.09375 -3.21875 C 1.132812 -3.15625 1.191406 -3.097656 1.265625 -3.046875 C 1.347656 -2.992188 1.457031 -2.945312 1.59375 -2.90625 C 1.726562 -2.851562 1.890625 -2.804688 2.078125 -2.765625 C 2.671875 -2.628906 3.117188 -2.46875 3.421875 -2.28125 C 3.554688 -2.1875 3.664062 -2.082031 3.75 -1.96875 C 3.832031 -1.863281 3.894531 -1.75 3.9375 -1.625 C 3.96875 -1.507812 3.984375 -1.378906 3.984375 -1.234375 C 3.984375 -0.960938 3.910156 -0.726562 3.765625 -0.53125 C 3.617188 -0.332031 3.40625 -0.179688 3.125 -0.078125 C 2.84375 0.0234375 2.503906 0.078125 2.109375 0.078125 Z M 2.109375 0.078125 "/></g></g></g></svg>