<svg xmlns="http://www.w3.org/2000/svg" xmlns:xlink="http://www.w3.org/1999/xlink" width="80" zoomAndPan="magnify" viewBox="0 0 60 30.000001" height="40" preserveAspectRatio="xMidYMid meet" version="1.0"><defs><g/><clipPath id="1def861b3c"><path d="M 2.710938 10.597656 L 56.128906 10.597656 L 56.128906 27.359375 L 2.710938 27.359375 Z M 2.710938 10.597656 " clip-rule="nonzero"/></clipPath><clipPath id="09032a65ed"><path d="M 4.160156 10.597656 L 54.675781 10.597656 C 55.480469 10.597656 56.128906 11.246094 56.128906 12.046875 L 56.128906 25.910156 C 56.128906 26.710938 55.480469 27.359375 54.675781 27.359375 L 4.160156 27.359375 C 3.359375 27.359375 2.710938 26.710938 2.710938 25.910156 L 2.710938 12.046875 C 2.710938 11.246094 3.359375 10.597656 4.160156 10.597656 Z M 4.160156 10.597656 " clip-rule="nonzero"/></clipPath></defs><g clip-path="url(#1def861b3c)"><g clip-path="url(#09032a65ed)"><path fill="#854ab1" d="M 2.710938 10.597656 L 56.128906 10.597656 L 56.128906 27.359375 L 2.710938 27.359375 Z M 2.710938 10.597656 " fill-opacity="1" fill-rule="nonzero"/></g></g><g fill="#dc9849" fill-opacity="1"><g transform="translate(16.845891, 21.54121)"><g><path d="M 0.171875 0 L 0.171875 -0.71875 L 1.390625 -0.71875 L 1.390625 -6.8125 L 0.171875 -6.8125 L 0.171875 -7.53125 L 6.96875 -7.53125 L 6.96875 -4.640625 L 6.0625 -4.640625 L 6.0625 -6.8125 L 2.578125 -6.8125 L 2.578125 -4.109375 L 4.4375 -4.109375 L 4.4375 -5.34375 L 5.109375 -5.34375 L 5.109375 -2.234375 L 4.4375 -2.234375 L 4.4375 -3.53125 L 2.578125 -3.53125 L 2.578125 -0.71875 L 6.0625 -0.71875 L 6.0625 -2.859375 L 6.96875 -2.859375 L 6.96875 0 Z M 0.171875 0 "/></g></g><g transform="translate(24.273857, 21.54121)"><g><path d="M 0.171875 -0.71875 L 1.375 -0.71875 L 1.375 -6.8125 L 0.171875 -6.8125 L 0.171875 -7.53125 L 2.421875 -7.53125 C 2.992188 -7.53125 3.507812 -7.492188 3.96875 -7.421875 C 4.425781 -7.359375 4.863281 -7.238281 5.28125 -7.0625 C 5.738281 -6.882812 6.117188 -6.65625 6.421875 -6.375 C 6.722656 -6.101562 6.96875 -5.753906 7.15625 -5.328125 C 7.34375 -4.878906 7.4375 -4.375 7.4375 -3.8125 C 7.4375 -3.28125 7.359375 -2.800781 7.203125 -2.375 C 7.054688 -1.945312 6.84375 -1.585938 6.5625 -1.296875 C 6.28125 -1.003906 5.9375 -0.757812 5.53125 -0.5625 C 5.132812 -0.363281 4.691406 -0.222656 4.203125 -0.140625 C 3.722656 -0.046875 3.191406 0 2.609375 0 L 0.171875 0 Z M 2.5625 -0.71875 C 3 -0.71875 3.382812 -0.75 3.71875 -0.8125 C 4.0625 -0.875 4.382812 -0.972656 4.6875 -1.109375 C 5 -1.253906 5.257812 -1.441406 5.46875 -1.671875 C 5.675781 -1.910156 5.84375 -2.207031 5.96875 -2.5625 C 6.09375 -2.914062 6.15625 -3.332031 6.15625 -3.8125 C 6.15625 -4.15625 6.117188 -4.472656 6.046875 -4.765625 C 5.984375 -5.054688 5.890625 -5.304688 5.765625 -5.515625 C 5.648438 -5.722656 5.503906 -5.898438 5.328125 -6.046875 C 5.148438 -6.203125 4.960938 -6.332031 4.765625 -6.4375 C 4.566406 -6.519531 4.34375 -6.585938 4.09375 -6.640625 C 3.851562 -6.703125 3.601562 -6.75 3.34375 -6.78125 C 3.101562 -6.800781 2.84375 -6.8125 2.5625 -6.8125 Z M 2.5625 -0.71875 "/></g></g><g transform="translate(32.122274, 21.54121)"><g><path d="M 0.15625 0 L 0.15625 -0.71875 L 1.375 -0.71875 L 1.375 -6.8125 L 0.15625 -6.8125 L 0.15625 -7.53125 L 3.703125 -7.53125 L 3.703125 -6.8125 L 2.546875 -6.8125 L 2.546875 -0.71875 L 3.703125 -0.71875 L 3.703125 0 Z M 0.15625 0 "/></g></g><g transform="translate(35.971402, 21.54121)"><g><path d="M 1.859375 0 L 1.859375 -0.71875 L 3.015625 -0.71875 L 3.015625 -6.8125 L 1.109375 -6.8125 L 1.109375 -4.484375 L 0.171875 -4.484375 L 0.171875 -7.53125 L 7.015625 -7.53125 L 7.015625 -4.484375 L 6.078125 -4.484375 L 6.078125 -6.8125 L 4.203125 -6.8125 L 4.203125 -0.71875 L 5.40625 -0.71875 L 5.40625 0 Z M 1.859375 0 "/></g></g></g></svg>