<svg xmlns="http://www.w3.org/2000/svg" xmlns:xlink="http://www.w3.org/1999/xlink" width="80" zoomAndPan="magnify" viewBox="0 0 60 60" height="80" preserveAspectRatio="xMidYMid meet" version="1.0"><defs><clipPath id="4077b7f563"><path d="M 30 0 C 13.429688 0 0 13.429688 0 30 C 0 46.570312 13.429688 60 30 60 C 46.570312 60 60 46.570312 60 30 C 60 13.429688 46.570312 0 30 0 Z M 30 0 " clip-rule="nonzero"/></clipPath><clipPath id="b70e41841d"><path d="M 13.015625 23 L 46.871094 23 L 46.871094 35 L 13.015625 35 Z M 13.015625 23 " clip-rule="nonzero"/></clipPath><clipPath id="0b1590a45b"><path d="M 21 8.085938 L 31 8.085938 L 31 18 L 21 18 Z M 21 8.085938 " clip-rule="nonzero"/></clipPath><clipPath id="05a4dc12aa"><path d="M 13.015625 31 L 46.871094 31 L 46.871094 51.835938 L 13.015625 51.835938 Z M 13.015625 31 " clip-rule="nonzero"/></clipPath><clipPath id="74075adc86"><path d="M 24 34 L 27 34 L 27 51.835938 L 24 51.835938 Z M 24 34 " clip-rule="nonzero"/></clipPath><clipPath id="1b1c8c497d"><path d="M 30 34 L 32 34 L 32 51.835938 L 30 51.835938 Z M 30 34 " clip-rule="nonzero"/></clipPath><clipPath id="9a58dc8164"><path d="M 34 34 L 37 34 L 37 51.835938 L 34 51.835938 Z M 34 34 " clip-rule="nonzero"/></clipPath><clipPath id="a91ed1d998"><path d="M 37 33 L 43 33 L 43 51.835938 L 37 51.835938 Z M 37 33 " clip-rule="nonzero"/></clipPath></defs><g clip-path="url(#4077b7f563)"><rect x="-6" width="72" fill="#854ab1" y="-6" height="72" fill-opacity="1"/></g><g clip-path="url(#b70e41841d)"><path fill="#ffffff" d="M 46.195312 32.761719 C 46.183594 33.183594 46.148438 33.609375 46.085938 34.03125 C 45.910156 34.082031 45.738281 34.132812 45.5625 34.183594 C 45.605469 33.90625 45.652344 33.628906 45.695312 33.351562 C 45.449219 33.421875 45.203125 33.492188 44.957031 33.558594 C 44.976562 33.40625 44.992188 33.257812 45 33.109375 C 45.019531 32.84375 45.027344 32.578125 45.023438 32.3125 C 44.980469 29.480469 43.664062 26.707031 41.417969 24.929688 C 37.203125 26.710938 32.675781 27.28125 28.171875 27.867188 C 26.308594 28.109375 15.039062 29.28125 14.839844 32.359375 C 14.824219 32.582031 14.867188 32.816406 14.980469 33.058594 C 15 33.109375 15.203125 33.625 15.21875 33.6875 C 14.886719 33.597656 14.558594 33.511719 14.230469 33.417969 C 14.257812 33.632812 14.285156 33.839844 14.320312 34.035156 C 14.167969 33.953125 14.035156 33.828125 13.957031 33.65625 C 13.824219 33.371094 13.746094 33.09375 13.707031 32.832031 C 13.660156 32.5 13.675781 32.1875 13.75 31.894531 C 13.964844 31.023438 14.660156 30.320312 15.5 29.789062 C 15.859375 29.558594 16.238281 29.363281 16.621094 29.199219 C 16.769531 29.132812 16.917969 29.074219 17.066406 29.019531 C 19.609375 28.0625 22.289062 27.527344 24.96875 27.125 C 30.261719 26.328125 35.746094 26.027344 40.738281 23.945312 C 40.894531 23.878906 41.050781 23.816406 41.203125 23.746094 C 41.390625 23.664062 41.625 23.613281 41.804688 23.746094 C 41.839844 23.769531 41.875 23.800781 41.90625 23.828125 C 44.394531 25.714844 45.917969 28.566406 46.164062 31.601562 C 46.195312 31.984375 46.207031 32.375 46.195312 32.761719 " fill-opacity="1" fill-rule="nonzero"/></g><path fill="#ffffff" d="M 37.578125 17.734375 C 37.578125 17.945312 37.488281 18.097656 37.355469 18.191406 C 37.316406 18.164062 37.28125 18.136719 37.242188 18.109375 C 37.171875 18.175781 37.105469 18.242188 37.03125 18.304688 C 36.71875 18.324219 36.390625 18.132812 36.394531 17.734375 C 36.394531 17.585938 36.390625 17.4375 36.378906 17.292969 C 36.300781 15.96875 35.859375 14.738281 35.054688 13.675781 C 32.957031 15.324219 30.457031 16.199219 27.898438 16.871094 C 27.582031 16.953125 27.269531 17.03125 26.953125 17.109375 C 26.902344 17.121094 26.851562 17.132812 26.800781 17.148438 C 26.566406 17.203125 26.226562 17.277344 25.816406 17.363281 C 25.816406 17.367188 25.816406 17.367188 25.816406 17.367188 C 25.570312 17.417969 25.300781 17.476562 25.007812 17.542969 C 22.125 18.199219 17.511719 19.507812 18.617188 22.035156 C 18.652344 22.121094 18.699219 22.210938 18.75 22.296875 C 19.128906 22.960938 18.109375 23.554688 17.726562 22.898438 C 17.660156 22.78125 17.601562 22.667969 17.546875 22.554688 C 15.988281 19.1875 20.929688 17.449219 23.335938 16.789062 C 23.371094 16.777344 23.402344 16.769531 23.433594 16.761719 C 24.0625 16.589844 24.695312 16.433594 25.335938 16.28125 C 25.796875 16.167969 26.261719 16.058594 26.722656 15.945312 C 27.453125 15.765625 28.183594 15.582031 28.902344 15.367188 C 31.011719 14.746094 33.027344 13.90625 34.714844 12.425781 C 34.945312 12.226562 35.332031 12.175781 35.554688 12.425781 C 36.683594 13.699219 37.363281 15.222656 37.535156 16.882812 C 37.5625 17.160156 37.578125 17.445312 37.578125 17.734375 " fill-opacity="1" fill-rule="nonzero"/><g clip-path="url(#0b1590a45b)"><path fill="#ffffff" d="M 29.609375 11.234375 C 29.386719 13.011719 28.105469 14.523438 27.003906 15.855469 C 25.621094 15.242188 24.4375 14.230469 23.648438 12.925781 C 23.226562 12.226562 22.460938 10.1875 24.113281 10.503906 C 25.035156 10.683594 25.484375 11.726562 25.859375 12.476562 C 26.144531 13.046875 26.917969 12.710938 26.964844 12.175781 C 27.046875 11.242188 27.25 9.828125 28.351562 9.550781 C 29.453125 9.277344 29.714844 10.398438 29.609375 11.234375 Z M 30.375 9.210938 C 29.730469 8.257812 28.511719 8.097656 27.53125 8.621094 C 26.75 9.039062 26.320312 9.742188 26.074219 10.527344 C 25.566406 9.863281 24.910156 9.347656 24.003906 9.300781 C 22.808594 9.234375 21.875 10.097656 21.878906 11.3125 C 21.882812 13.351562 23.539062 15.144531 25.335938 16.28125 C 25.382812 16.308594 25.429688 16.339844 25.476562 16.367188 C 25.96875 16.667969 26.472656 16.917969 26.953125 17.109375 C 27.269531 17.03125 27.582031 16.953125 27.898438 16.871094 C 27.929688 16.777344 27.941406 16.679688 27.933594 16.582031 C 28.1875 16.273438 28.472656 15.925781 28.761719 15.550781 C 28.808594 15.488281 28.855469 15.429688 28.902344 15.367188 C 30.273438 13.546875 31.667969 11.125 30.375 9.210938 " fill-opacity="1" fill-rule="nonzero"/></g><path fill="#dc9849" d="M 29.609375 11.234375 C 29.386719 13.011719 28.105469 14.523438 27.003906 15.855469 C 25.621094 15.242188 24.4375 14.230469 23.648438 12.925781 C 23.226562 12.226562 22.460938 10.1875 24.113281 10.503906 C 25.035156 10.683594 25.484375 11.726562 25.859375 12.476562 C 26.144531 13.046875 26.917969 12.710938 26.964844 12.175781 C 27.046875 11.242188 27.25 9.828125 28.351562 9.550781 C 29.453125 9.277344 29.714844 10.398438 29.609375 11.234375 " fill-opacity="1" fill-rule="nonzero"/><g clip-path="url(#05a4dc12aa)"><path fill="#ffffff" d="M 45 32.316406 C 43.957031 32.605469 42.910156 32.863281 41.855469 33.09375 C 41.855469 33.09375 41.855469 33.09375 41.851562 33.09375 C 41.589844 33.152344 41.332031 33.203125 41.070312 33.257812 C 41.050781 33.28125 41.03125 33.304688 41.015625 33.332031 C 41 33.355469 40.988281 33.378906 40.976562 33.40625 C 40.976562 33.40625 40.972656 33.410156 40.972656 33.414062 C 40.960938 33.441406 40.953125 33.46875 40.945312 33.5 C 40.9375 33.53125 40.933594 33.5625 40.929688 33.597656 C 40.898438 33.902344 40.863281 34.207031 40.832031 34.511719 C 41.238281 34.4375 41.640625 34.351562 42.042969 34.265625 C 42.972656 34.066406 43.902344 33.84375 44.824219 33.59375 C 44.871094 33.582031 44.914062 33.570312 44.957031 33.558594 C 44.976562 33.40625 44.992188 33.257812 45 33.109375 C 45.019531 32.84375 45.027344 32.578125 45.023438 32.3125 C 45.015625 32.3125 45.007812 32.316406 45 32.316406 Z M 45 32.316406 C 43.957031 32.605469 42.910156 32.863281 41.855469 33.09375 C 41.855469 33.09375 41.855469 33.09375 41.851562 33.09375 C 41.589844 33.152344 41.332031 33.203125 41.070312 33.257812 C 41.050781 33.28125 41.03125 33.304688 41.015625 33.332031 C 41 33.355469 40.988281 33.378906 40.976562 33.40625 C 40.976562 33.40625 40.972656 33.410156 40.972656 33.414062 C 40.960938 33.441406 40.953125 33.46875 40.945312 33.5 C 40.9375 33.53125 40.933594 33.5625 40.929688 33.597656 C 40.898438 33.902344 40.863281 34.207031 40.832031 34.511719 C 41.238281 34.4375 41.640625 34.351562 42.042969 34.265625 C 42.972656 34.066406 43.902344 33.84375 44.824219 33.59375 C 44.871094 33.582031 44.914062 33.570312 44.957031 33.558594 C 44.976562 33.40625 44.992188 33.257812 45 33.109375 C 45.019531 32.84375 45.027344 32.578125 45.023438 32.3125 C 45.015625 32.3125 45.007812 32.316406 45 32.316406 Z M 45 32.316406 C 43.957031 32.605469 42.910156 32.863281 41.855469 33.09375 C 41.855469 33.09375 41.855469 33.09375 41.851562 33.09375 C 41.589844 33.152344 41.332031 33.203125 41.070312 33.257812 C 41.050781 33.28125 41.03125 33.304688 41.015625 33.332031 C 41 33.355469 40.988281 33.378906 40.976562 33.40625 C 40.976562 33.40625 40.972656 33.410156 40.972656 33.414062 C 40.960938 33.441406 40.953125 33.46875 40.945312 33.5 C 40.9375 33.53125 40.933594 33.5625 40.929688 33.597656 C 40.898438 33.902344 40.863281 34.207031 40.832031 34.511719 C 41.238281 34.4375 41.640625 34.351562 42.042969 34.265625 C 42.972656 34.066406 43.902344 33.84375 44.824219 33.59375 C 44.871094 33.582031 44.914062 33.570312 44.957031 33.558594 C 44.976562 33.40625 44.992188 33.257812 45 33.109375 C 45.019531 32.84375 45.027344 32.578125 45.023438 32.3125 C 45.015625 32.3125 45.007812 32.316406 45 32.316406 Z M 41.082031 49.417969 C 40.558594 49.546875 40.03125 49.664062 39.503906 49.773438 C 39.085938 49.859375 38.660156 49.941406 38.238281 50.011719 C 37.40625 50.160156 36.570312 50.285156 35.730469 50.382812 C 35.335938 50.429688 34.9375 50.472656 34.539062 50.507812 C 33.460938 50.605469 32.375 50.667969 31.289062 50.683594 C 30.894531 50.695312 30.5 50.695312 30.105469 50.691406 C 29.03125 50.683594 27.960938 50.636719 26.890625 50.546875 C 26.492188 50.515625 26.09375 50.480469 25.699219 50.433594 C 24.789062 50.339844 23.886719 50.210938 22.984375 50.054688 C 22.542969 49.980469 22.105469 49.898438 21.667969 49.808594 C 21.324219 49.738281 20.976562 49.667969 20.636719 49.589844 C 20.117188 49.3125 19.855469 48.507812 19.625 48.03125 C 19.300781 47.367188 18.984375 46.699219 18.679688 46.027344 C 18.007812 44.5625 17.375 43.078125 16.789062 41.578125 C 16.25 40.203125 15.742188 38.816406 15.269531 37.417969 C 14.910156 36.347656 14.542969 35.363281 14.320312 34.035156 C 14.285156 33.839844 14.257812 33.632812 14.230469 33.417969 C 14.558594 33.511719 14.886719 33.597656 15.21875 33.6875 C 16.34375 33.980469 17.472656 34.238281 18.609375 34.460938 C 19.007812 34.542969 19.414062 34.617188 19.816406 34.691406 C 21.453125 34.976562 23.105469 35.191406 24.761719 35.335938 C 25.15625 35.375 25.554688 35.402344 25.949219 35.429688 C 27.328125 35.523438 28.707031 35.566406 30.082031 35.558594 C 30.476562 35.558594 30.871094 35.554688 31.265625 35.542969 C 32.621094 35.511719 33.976562 35.429688 35.328125 35.304688 C 35.726562 35.265625 36.125 35.222656 36.519531 35.175781 C 37.964844 35.011719 39.402344 34.789062 40.832031 34.511719 C 41.238281 34.4375 41.640625 34.351562 42.042969 34.265625 C 42.972656 34.066406 43.902344 33.84375 44.824219 33.59375 C 44.871094 33.582031 44.914062 33.570312 44.957031 33.558594 C 45.203125 33.492188 45.449219 33.421875 45.695312 33.351562 C 45.652344 33.628906 45.605469 33.90625 45.5625 34.183594 C 44.691406 39.421875 43.195312 44.542969 41.082031 49.417969 Z M 46.738281 31.957031 C 46.597656 31.761719 46.398438 31.613281 46.164062 31.601562 C 46.101562 31.597656 46.03125 31.605469 45.960938 31.625 C 45.820312 31.664062 45.675781 31.769531 45.605469 31.894531 C 45.5625 31.980469 45.535156 32.074219 45.527344 32.167969 C 45.359375 32.21875 45.191406 32.265625 45.023438 32.3125 C 45.015625 32.3125 45.007812 32.316406 45 32.316406 C 43.957031 32.605469 42.910156 32.863281 41.855469 33.09375 C 41.855469 33.09375 41.855469 33.09375 41.851562 33.09375 C 41.589844 33.152344 41.332031 33.203125 41.070312 33.257812 C 39.488281 33.574219 37.898438 33.828125 36.300781 34.011719 C 36.074219 34.035156 35.84375 34.058594 35.613281 34.082031 C 34.105469 34.238281 32.589844 34.332031 31.078125 34.363281 C 30.75 34.371094 30.425781 34.375 30.097656 34.375 C 28.597656 34.382812 27.097656 34.328125 25.597656 34.21875 C 25.417969 34.207031 25.238281 34.191406 25.054688 34.175781 C 25.054688 34.171875 25.054688 34.175781 25.054688 34.175781 C 21.671875 33.890625 18.316406 33.300781 15.023438 32.410156 C 14.960938 32.394531 14.902344 32.375 14.839844 32.359375 C 14.675781 32.3125 14.511719 32.269531 14.351562 32.222656 C 14.253906 32.027344 14.054688 31.878906 13.824219 31.886719 C 13.800781 31.890625 13.773438 31.890625 13.75 31.894531 C 13.03125 31.988281 13.019531 32.941406 13.046875 33.492188 C 13.121094 34.78125 13.550781 35.988281 13.953125 37.207031 C 14.550781 39.019531 15.207031 40.8125 15.917969 42.582031 C 16.582031 44.226562 17.289062 45.855469 18.042969 47.460938 C 18.417969 48.257812 18.699219 49.113281 19.230469 49.824219 C 19.914062 50.738281 20.796875 50.851562 21.855469 51.039062 C 22.667969 51.183594 23.480469 51.3125 24.300781 51.421875 C 25.933594 51.644531 27.574219 51.796875 29.222656 51.847656 C 29.503906 51.859375 29.785156 51.863281 30.066406 51.867188 C 31.597656 51.882812 33.132812 51.820312 34.660156 51.683594 C 34.980469 51.65625 35.300781 51.621094 35.617188 51.585938 C 36.414062 51.5 37.203125 51.390625 37.992188 51.257812 C 38.402344 51.191406 38.808594 51.117188 39.214844 51.039062 C 39.375 51.011719 39.53125 50.976562 39.691406 50.945312 C 40.292969 50.824219 40.941406 50.75 41.519531 50.539062 C 42.03125 50.351562 42.148438 49.925781 42.347656 49.453125 C 42.574219 48.914062 42.796875 48.371094 43.011719 47.824219 C 43.441406 46.730469 43.839844 45.628906 44.210938 44.515625 C 44.296875 44.269531 44.375 44.027344 44.453125 43.78125 C 45.148438 41.621094 45.730469 39.425781 46.195312 37.207031 C 46.429688 36.097656 46.632812 34.980469 46.808594 33.859375 C 46.867188 33.46875 46.976562 33.078125 46.984375 32.679688 C 46.988281 32.445312 46.894531 32.167969 46.738281 31.957031 Z M 45 32.316406 C 43.957031 32.605469 42.910156 32.863281 41.855469 33.09375 C 41.855469 33.09375 41.855469 33.09375 41.851562 33.09375 C 41.589844 33.152344 41.332031 33.203125 41.070312 33.257812 C 41.050781 33.28125 41.03125 33.304688 41.015625 33.332031 C 41 33.355469 40.988281 33.378906 40.976562 33.40625 C 40.976562 33.40625 40.972656 33.410156 40.972656 33.414062 C 40.960938 33.441406 40.953125 33.46875 40.945312 33.5 C 40.9375 33.53125 40.933594 33.5625 40.929688 33.597656 C 40.898438 33.902344 40.863281 34.207031 40.832031 34.511719 C 41.238281 34.4375 41.640625 34.351562 42.042969 34.265625 C 42.972656 34.066406 43.902344 33.84375 44.824219 33.59375 C 44.871094 33.582031 44.914062 33.570312 44.957031 33.558594 C 44.976562 33.40625 44.992188 33.257812 45 33.109375 C 45.019531 32.84375 45.027344 32.578125 45.023438 32.3125 C 45.015625 32.3125 45.007812 32.316406 45 32.316406 Z M 45 32.316406 C 43.957031 32.605469 42.910156 32.863281 41.855469 33.09375 C 41.855469 33.09375 41.855469 33.09375 41.851562 33.09375 C 41.589844 33.152344 41.332031 33.203125 41.070312 33.257812 C 41.050781 33.28125 41.03125 33.304688 41.015625 33.332031 C 41 33.355469 40.988281 33.378906 40.976562 33.40625 C 40.976562 33.40625 40.972656 33.410156 40.972656 33.414062 C 40.960938 33.441406 40.953125 33.46875 40.945312 33.5 C 40.9375 33.53125 40.933594 33.5625 40.929688 33.597656 C 40.898438 33.902344 40.863281 34.207031 40.832031 34.511719 C 41.238281 34.4375 41.640625 34.351562 42.042969 34.265625 C 42.972656 34.066406 43.902344 33.84375 44.824219 33.59375 C 44.871094 33.582031 44.914062 33.570312 44.957031 33.558594 C 44.976562 33.40625 44.992188 33.257812 45 33.109375 C 45.019531 32.84375 45.027344 32.578125 45.023438 32.3125 C 45.015625 32.3125 45.007812 32.316406 45 32.316406 Z M 45 32.316406 C 43.957031 32.605469 42.910156 32.863281 41.855469 33.09375 C 41.855469 33.09375 41.855469 33.09375 41.851562 33.09375 C 41.589844 33.152344 41.332031 33.203125 41.070312 33.257812 C 41.050781 33.28125 41.03125 33.304688 41.015625 33.332031 C 41 33.355469 40.988281 33.378906 40.976562 33.40625 C 40.976562 33.40625 40.972656 33.410156 40.972656 33.414062 C 40.960938 33.441406 40.953125 33.46875 40.945312 33.5 C 40.9375 33.53125 40.933594 33.5625 40.929688 33.597656 C 40.898438 33.902344 40.863281 34.207031 40.832031 34.511719 C 41.238281 34.4375 41.640625 34.351562 42.042969 34.265625 C 42.972656 34.066406 43.902344 33.84375 44.824219 33.59375 C 44.871094 33.582031 44.914062 33.570312 44.957031 33.558594 C 44.976562 33.40625 44.992188 33.257812 45 33.109375 C 45.019531 32.84375 45.027344 32.578125 45.023438 32.3125 C 45.015625 32.3125 45.007812 32.316406 45 32.316406 " fill-opacity="1" fill-rule="nonzero"/></g><path fill="#ffffff" d="M 23.039062 50.230469 C 21.359375 44.929688 20.25 39.476562 19.742188 33.9375 C 19.671875 33.1875 18.488281 33.179688 18.558594 33.9375 C 19.074219 39.582031 20.183594 45.144531 21.894531 50.546875 C 22.125 51.269531 23.269531 50.960938 23.039062 50.230469 " fill-opacity="1" fill-rule="nonzero"/><g clip-path="url(#74075adc86)"><path fill="#ffffff" d="M 26.90625 50.800781 C 26.953125 51.566406 25.769531 51.5625 25.722656 50.800781 C 25.714844 50.679688 25.707031 50.558594 25.699219 50.433594 C 25.386719 45.402344 25.070312 40.371094 24.761719 35.335938 C 24.746094 35.128906 24.734375 34.917969 24.71875 34.707031 C 24.703125 34.425781 24.855469 34.25 25.054688 34.175781 C 25.054688 34.175781 25.054688 34.171875 25.054688 34.175781 C 25.238281 34.191406 25.417969 34.207031 25.597656 34.21875 C 25.765625 34.304688 25.890625 34.46875 25.90625 34.707031 C 25.921875 34.949219 25.933594 35.1875 25.949219 35.429688 C 26.265625 40.46875 26.578125 45.507812 26.890625 50.546875 C 26.894531 50.632812 26.902344 50.71875 26.90625 50.800781 " fill-opacity="1" fill-rule="nonzero"/></g><g clip-path="url(#1b1c8c497d)"><path fill="#ffffff" d="M 31.289062 50.683594 C 31.285156 50.769531 31.28125 50.855469 31.273438 50.941406 C 31.222656 51.699219 30.039062 51.707031 30.089844 50.941406 C 30.09375 50.859375 30.097656 50.773438 30.105469 50.691406 C 30.425781 45.652344 30.417969 40.597656 30.082031 35.558594 C 30.066406 35.277344 30.046875 34.992188 30.023438 34.710938 C 30.015625 34.574219 30.042969 34.460938 30.097656 34.375 C 30.425781 34.375 30.75 34.371094 31.078125 34.363281 C 31.148438 34.453125 31.199219 34.566406 31.207031 34.710938 C 31.230469 34.988281 31.25 35.265625 31.265625 35.542969 C 31.601562 40.585938 31.609375 45.640625 31.289062 50.683594 " fill-opacity="1" fill-rule="nonzero"/></g><g clip-path="url(#9a58dc8164)"><path fill="#ffffff" d="M 36.570312 34.515625 C 36.550781 34.738281 36.535156 34.957031 36.519531 35.175781 C 36.132812 40.238281 35.871094 45.308594 35.730469 50.382812 C 35.71875 50.683594 35.710938 50.984375 35.703125 51.285156 C 35.699219 51.402344 35.667969 51.503906 35.617188 51.585938 C 35.300781 51.621094 34.980469 51.65625 34.660156 51.683594 C 34.570312 51.585938 34.515625 51.453125 34.519531 51.285156 C 34.523438 51.027344 34.53125 50.765625 34.539062 50.507812 C 34.679688 45.433594 34.941406 40.363281 35.328125 35.304688 C 35.34375 35.039062 35.367188 34.78125 35.386719 34.515625 C 35.402344 34.320312 35.492188 34.179688 35.613281 34.082031 C 35.84375 34.058594 36.074219 34.035156 36.300781 34.011719 C 36.472656 34.09375 36.589844 34.261719 36.570312 34.515625 " fill-opacity="1" fill-rule="nonzero"/></g><g clip-path="url(#a91ed1d998)"><path fill="#ffffff" d="M 42.113281 33.597656 C 42.089844 33.820312 42.066406 34.042969 42.042969 34.265625 C 41.496094 39.480469 40.652344 44.65625 39.503906 49.773438 C 39.414062 50.195312 39.316406 50.617188 39.214844 51.039062 C 38.808594 51.117188 38.402344 51.191406 37.992188 51.257812 C 37.980469 51.1875 37.984375 51.109375 38.003906 51.023438 C 38.082031 50.6875 38.160156 50.351562 38.238281 50.011719 C 39.40625 44.898438 40.273438 39.730469 40.832031 34.511719 C 40.863281 34.207031 40.898438 33.902344 40.929688 33.597656 C 40.933594 33.5625 40.9375 33.53125 40.945312 33.5 C 40.953125 33.46875 40.960938 33.441406 40.972656 33.414062 C 40.972656 33.410156 40.976562 33.40625 40.976562 33.40625 C 40.988281 33.378906 41 33.355469 41.015625 33.332031 C 41.03125 33.304688 41.050781 33.28125 41.070312 33.257812 C 41.332031 33.203125 41.589844 33.152344 41.851562 33.09375 C 41.855469 33.09375 41.855469 33.09375 41.855469 33.09375 C 42.023438 33.175781 42.140625 33.34375 42.113281 33.597656 " fill-opacity="1" fill-rule="nonzero"/></g><path fill="#ffffff" d="M 41.933594 24.007812 C 41.601562 21.066406 40.027344 18.480469 37.535156 16.882812 C 37.507812 16.863281 37.480469 16.847656 37.449219 16.828125 C 37.246094 16.699219 36.894531 16.726562 36.730469 16.921875 C 36.621094 17.054688 36.503906 17.179688 36.378906 17.292969 C 34.628906 18.945312 31.648438 19.117188 29.410156 19.496094 C 26.546875 19.980469 23.660156 20.410156 20.875 21.242188 C 20.132812 21.46875 19.359375 21.71875 18.617188 22.035156 C 18.25 22.191406 17.890625 22.363281 17.546875 22.554688 C 16.503906 23.136719 15.585938 23.902344 14.988281 24.972656 C 14.082031 26.597656 14.078125 28.875 14.835938 30.542969 C 15.152344 31.238281 16.171875 30.636719 15.859375 29.945312 C 15.636719 29.457031 15.507812 28.925781 15.480469 28.386719 C 15.382812 26.40625 16.347656 24.597656 18.082031 23.613281 C 20.175781 22.421875 22.722656 21.914062 25.066406 21.453125 C 27.445312 20.980469 29.851562 20.652344 32.230469 20.183594 C 33.929688 19.855469 35.71875 19.457031 37.03125 18.304688 C 37.105469 18.242188 37.171875 18.175781 37.242188 18.109375 C 37.28125 18.136719 37.316406 18.164062 37.355469 18.191406 C 39.234375 19.566406 40.484375 21.671875 40.746094 24.007812 C 40.828125 24.757812 42.015625 24.765625 41.933594 24.007812 " fill-opacity="1" fill-rule="nonzero"/><path fill="#ffffff" d="M 41.707031 27.390625 C 41.394531 26.835938 40.539062 27.335938 40.855469 27.886719 C 41.367188 28.796875 41.640625 29.765625 41.667969 30.808594 C 41.6875 31.445312 42.675781 31.445312 42.65625 30.808594 C 42.625 29.597656 42.304688 28.445312 41.707031 27.390625 " fill-opacity="1" fill-rule="nonzero"/></svg>