<svg viewBox="9.042553191489361 -10.650000000000034 260.6382978723404 441.975" fill="none" xmlns="http://www.w3.org/2000/svg" xmlns:xlink="http://www.w3.org/1999/xlink" overflow="visible" width="260.6382978723404px" height="441.975px"><g id="Master/Pose/Standing"><g id="Head/Front" transform="translate(82 0) scale(1 1)"><g id="Head/Front/Airy"><g id="Head"><path id="SKIN" fill-rule="evenodd" clip-rule="evenodd" d="M73.9354 75.2443C80.411 79.1475 86.7736 81.0333 89.7603 80.2635C97.2496 78.333 97.9382 50.9351 92.1433 40.1339C86.3485 29.3328 56.5583 24.625 55.0568 46.0255C54.5356 53.4529 57.6544 60.0814 62.2623 65.4901L54 104H78L73.9354 75.2443Z" fill="#dcae92"/></g><path id="hair" fill-rule="evenodd" clip-rule="evenodd" d="M78.4639 27.6853C75.3008 27.1665 66.7839 26.8099 65.2133 26.8101C64.2096 26.8101 63.1218 27.0394 62.5273 26.1178C62.0405 25.3631 62.2189 24.0867 62.0736 23.2109C61.9049 22.1935 61.6652 21.1892 61.4229 20.1874C60.7331 17.3369 59.6901 14.625 58.2308 12.0788C55.4925 7.30188 51.4811 3.56011 46.4167 1.38278C40.8243 -1.02134 34.496 -1.57183 28.4805 -1.08419C22.0431 -0.562477 16.2159 1.56259 10.138 3.56241C4.34604 5.46806 -1.7204 6.21817 -7.77811 5.28756C-13.8815 4.35004 -18.4932 1.04203 -23.6413 -2.09768C-28.9115 -5.31199 -34.9343 -7.41426 -41.1646 -6.931C-46.9804 -6.47974 -52.3406 -4.07839 -57.1497 -0.870532C-61.6491 2.13081 -65.3617 5.74181 -67.4578 10.824C-69.7127 16.2909 -69.7106 22.2918 -66.0026 27.1233C-60.6279 34.1265 -50.6501 35.9376 -42.349 35.7575C-37.5475 35.6537 -32.8318 34.7772 -28.2986 33.1828C-22.2531 31.0564 -17.0288 27.4523 -11.373 24.528C-8.71872 23.1558 -5.97516 22.0288 -3.0994 21.217C-0.308797 20.4289 2.43981 20.0675 4.96645 21.7533C7.63931 23.5367 10.0344 25.2885 13.0922 26.4049C16.0256 27.476 19.1327 28.075 22.258 28.0509C28.3386 28.0039 34.3328 26.1093 40.2385 24.8402C45.0545 23.8056 50.2074 22.7743 55.1173 23.769C57.166 24.1841 60.1586 25.041 60.8986 27.1702C48.4442 29.4274 43.5527 44.8302 47.0638 56.1372C48.9588 62.24 60.3498 69.3742 64.7788 66.1658C67.5847 64.1333 65.8812 61.4648 64.7788 59.7033C62.6676 56.3299 61.9453 51.9967 65.8518 49.648C69.2215 47.6224 72.7646 52.4327 72.8316 52.4274C73.7577 52.3544 81.7604 47.8285 87.2742 41.2241C92.7135 41.5466 93.5387 37.96 92.2399 35.0269C90.9411 32.0938 82.8344 28.4024 78.4639 27.6853Z" fill="#854ab1"/></g></g><g id="Lower Body/Standing" transform="translate(0 187) scale(1 1)"><g id="Lower Body/Standing/Sweatpants"><path id="SKIN" fill-rule="evenodd" clip-rule="evenodd" d="M128 0L164.631 126.227L181.86 221H199.153L181.891 0L128 0Z" fill="#dcae92"/><path id="Shadow" fill-rule="evenodd" clip-rule="evenodd" d="M128 0L164.631 126.227L181.86 221H199.153L181.891 0L128 0Z" fill="black" fill-opacity="0.1"/><path id="SKIN" fill-rule="evenodd" clip-rule="evenodd" d="M111.538 0C114.094 65.5742 113.086 101.34 112.514 107.298C111.942 113.256 108.694 153.156 86.5637 223H104.55C133.858 155.997 144.089 116.096 147.45 107.298C150.812 98.4996 160.739 62.7336 175.233 0H111.538Z" fill="#dcae92"/><path id="Pant" fill-rule="evenodd" clip-rule="evenodd" d="M127.214 0C136.742 43.435 153.222 112.768 176.653 208H201.946C203.814 110.254 195.867 45.9205 182.105 0L127.214 0Z" fill="#6e6254"/><path id="Pant" fill-rule="evenodd" clip-rule="evenodd" d="M111.41 0C113.913 65.5742 107.426 130.177 87.3306 209.021H114.317C143.679 143.018 164.723 78.7336 179.106 0H111.41Z" fill="#a59788"/><g id="Left [shoe]"><path id="Shoe" fill-rule="evenodd" clip-rule="evenodd" d="M84 236L84.9149 221.249C84.9546 220.609 85.5774 220.171 86.2047 220.304C94.8719 222.146 106.826 218 106.826 218C118.857 226.522 136.201 230.433 142.308 231.604C143.49 231.831 144.248 233.023 143.92 234.18L142.553 239H106.826H85.9848L84 236Z" fill="#191847"/></g><g id="Right [shoe]"><path id="Shoe_2" fill-rule="evenodd" clip-rule="evenodd" d="M178 236L178.915 221.249C178.955 220.609 179.577 220.171 180.205 220.304C188.872 222.146 200.826 218 200.826 218C212.857 226.522 230.201 230.433 236.308 231.604C237.49 231.831 238.248 233.023 237.92 234.18L236.553 239H200.826H179.985L178 236Z" fill="#191847"/></g></g></g><g id="Upper Body" transform="translate(22 82) scale(1 1)"><g id="Upper Body/Hoodie"><path id="SKIN" fill-rule="evenodd" clip-rule="evenodd" d="M222.68 115.635L190.781 92.2115L183.73 109.642L215.318 122.741C224.251 133.235 229.246 137.61 230.304 135.865C231.195 134.394 230.499 133.017 229.857 131.749C229.357 130.76 228.89 129.838 229.233 128.989C230.018 127.049 236.019 127.254 241.705 127.691C247.392 128.128 245.735 125.598 244.364 124.349C238.559 120.874 231.331 117.97 222.68 115.635ZM55.398 156.908C58.3285 150.963 68.308 93.0199 68.308 93.0199L89.2054 93.1021C89.2054 93.1021 69.8506 155.583 68.308 159.406C66.3041 164.372 69.708 171.587 72.0162 176.48C72.3733 177.237 72.7041 177.938 72.9847 178.567C69.782 180 68.2435 178.268 66.6216 176.442C64.7896 174.379 62.8512 172.197 58.288 174.319C56.525 175.14 54.8568 176.109 53.2269 177.057C47.5969 180.329 42.4249 183.336 35.3891 178.994C34.2737 178.306 33.0514 175.715 36.0047 173.69C43.3624 168.645 53.9654 159.815 55.398 156.908Z" fill="#dcae92"/><path id="Coat Back" fill-rule="evenodd" clip-rule="evenodd" d="M127.695 5.33203L136.342 3.84886C168.425 31.5643 181.603 84.8089 220.929 113.015L211.464 124.748C143.24 116.3 126.33 51.3548 127.695 5.33203Z" fill="#34103a"/><path id="Shirt" fill-rule="evenodd" clip-rule="evenodd" d="M90 114C90 114 142.008 114 166.511 114C170.008 114 169.349 108.952 168.843 106.404C163.011 77.0038 140.241 45.3115 140.241 3.46073L118.172 0C99.9175 29.3584 93.6048 65.5046 90 114Z" fill="#C7D1D9"/><path id="Coat Front" fill-rule="evenodd" clip-rule="evenodd" d="M81.3968 135C77.9582 143.259 74.5862 150.465 71.4089 156H54.9999C53.2345 98.9186 74.8454 54.9964 92.9315 28.5129C88.9158 28.2259 85.2911 26.5455 82.9999 22.4112C74.9335 7.85608 77.8467 -0.157593 86.4671 -2.79173C91.2074 -4.24021 95.6656 -3.25154 101.002 -2.06804C105.369 -1.09961 110.325 -0.000719281 116.504 2.76336e-08C116.506 2.76336e-08 116.508 2.76336e-08 116.51 2.76336e-08C117.109 2.76336e-08 117.654 0.0401216 118.148 0.116866L125.472 0.53474C125.472 0.53474 155.205 101.305 141.872 135H81.3968Z" fill="#673f6c"/><path id="Shade" fill-rule="evenodd" clip-rule="evenodd" d="M81.397 135C85.9087 124.164 90.5352 111.516 94.9874 98.4544C96.6448 112.839 99.4048 127.286 104 135H81.397Z" fill="black" fill-opacity="0.1"/></g></g></g></svg>