<svg viewBox="3.7234042553191387 90.52500000000003 303.19148936170217 346.12499999999994" fill="none" xmlns="http://www.w3.org/2000/svg" xmlns:xlink="http://www.w3.org/1999/xlink" overflow="visible" width="303.19148936170217px" height="346.12499999999994px"><g id="Master/Pose/Sitting"><g id="Head/Front" transform="translate(38 73) scale(1 1)"><g id="Head/Front/Turban2"><g id="Head"><path id="SKIN" fill-rule="evenodd" clip-rule="evenodd" d="M92.1433 40.1339C97.9382 50.9351 97.2496 78.333 89.7603 80.2635C86.7737 81.0333 80.4113 79.1476 73.9359 75.2446L78 104H54L62.2616 65.4893C57.6541 60.0807 54.5357 53.4525 55.0568 46.0255C56.5583 24.625 86.3485 29.3328 92.1433 40.1339Z" fill="#dcae92"/></g><g id="Turban"><path id="Path" fill-rule="evenodd" clip-rule="evenodd" d="M91.4175 34.0509C91.8499 32.8052 94.7963 28.9459 89.5488 25.2691C88.6058 24.6083 87.048 25.2669 85.6982 24.8499C84.6826 24.5361 84.3402 23.1192 83.1761 22.8721C81.9684 22.6156 80.6526 23.7778 79.2877 23.6757C78.4513 23.6131 77.1608 22.3097 76.2901 22.2395C74.7357 22.1142 73.3237 23.5813 71.8056 23.6757C70.9256 23.7304 69.9045 22.3144 69.0311 22.2395C66.9053 22.0572 64.9691 23.0482 63.0958 23.3488C61.3693 23.6258 60.5665 27.1639 59.2947 28.0001C55.3039 30.6241 52.1771 31.3578 48.9387 34.0509C45.089 37.2524 44.3522 39.6342 42.7574 41.7676C41.1626 43.901 40.1775 51.4174 41.1075 56.2345C41.6562 59.076 43.0858 66.8362 46.2797 69.8407C50.6512 73.9531 59.5447 75.1715 60.3342 74.6228C63.9906 72.0817 72.1869 58.027 78 53.0597C82.2747 49.4071 88.7394 41.7676 91.4175 34.0509Z" fill="#FFA434"/><mask id="mask0_410_62157ac7f765-8c2c-4bee-b697-9c7ebcebd221" style="mask-type:luminance" maskUnits="userSpaceOnUse" x="40" y="22" width="53" height="53" fill="#ffffff"><path id="Path_2" fill-rule="evenodd" clip-rule="evenodd" d="M91.4175 34.0509C91.8499 32.8052 94.7963 28.9459 89.5488 25.2691C88.6058 24.6083 87.048 25.2669 85.6982 24.8499C84.6826 24.5361 84.3402 23.1192 83.1761 22.8721C81.9684 22.6156 80.6526 23.7778 79.2877 23.6757C78.4513 23.6131 77.1608 22.3097 76.2901 22.2395C74.7357 22.1142 73.3237 23.5813 71.8056 23.6757C70.9256 23.7304 69.9045 22.3144 69.0311 22.2395C66.9053 22.0572 64.9691 23.0482 63.0958 23.3488C61.3693 23.6258 60.5665 27.1639 59.2947 28.0001C55.3039 30.6241 52.1771 31.3578 48.9387 34.0509C45.089 37.2524 44.3522 39.6342 42.7574 41.7676C41.1626 43.901 40.1775 51.4174 41.1075 56.2345C41.6562 59.076 43.0858 66.8362 46.2797 69.8407C50.6512 73.9531 59.5447 75.1715 60.3342 74.6228C63.9906 72.0817 72.1869 58.027 78 53.0597C82.2747 49.4071 88.7394 41.7676 91.4175 34.0509Z" fill="#ffffff"/></mask><g mask="url(#mask0_410_62157ac7f765-8c2c-4bee-b697-9c7ebcebd221)"><path id="Shade" fill-rule="evenodd" clip-rule="evenodd" d="M66.5347 49.6465C69.2278 41.3804 74.1201 20.741 74.1201 20.741L71.1644 21.0516C71.1644 21.0516 68.8241 34.2206 66.4179 42.7516C64.218 50.551 61.6887 58.198 59.7 64.2103C56.9525 72.517 55.2371 77.7034 56.8486 75.8603C57.0415 75.6397 57.2343 75.3828 57.4281 75.0898C57.4462 75.1289 57.474 75.1517 57.5118 75.1576C57.3979 75.383 57.556 75.2813 58.0295 74.8425L58.0336 74.8388C60.7882 72.2847 68.6692 63.2857 76.9227 48.3707C80.7208 41.5071 87.6869 24.1179 87.6869 24.1179L84.9208 22.9346C84.9208 22.9346 80.3196 36.6734 76.9227 43.3353C70.9498 55.0492 65.3469 63.7601 61.7039 69.1002C63.2137 66.0874 64.9909 62.0497 67.2077 57.0132C68.1839 54.7954 69.2454 52.3839 70.4067 49.781C73.9491 41.8417 80.972 21.8267 80.972 21.8267H78C78 21.8267 74.296 34.6789 71.0112 42.9117C68.0082 50.4384 64.6934 57.7791 62.0872 63.5506L62.0872 63.5507C62.0431 63.6483 61.9993 63.7454 61.9556 63.8421C62.6126 61.8469 63.3245 59.6238 64.1092 57.1734C64.8482 54.8657 65.6518 52.3565 66.5347 49.6465Z" fill="black" fill-opacity="0.2"/></g></g></g></g><g id="Lower Body/Sitting" transform="translate(-44 260) scale(1 1)"><g id="Lower Body/Sitting/Baggy Pants"><g id="Seat"><path id="Seat_2" fill-rule="evenodd" clip-rule="evenodd" d="M69 42C60.1634 42 53 49.1634 53 58V150C53 158.837 60.1634 166 69 166H184C192.837 166 200 158.837 200 150V58C200 49.1634 192.837 42 184 42H69ZM85 70C82.7909 70 81 71.7909 81 74V134C81 136.209 82.7909 138 85 138H168C170.209 138 172 136.209 172 134V74C172 71.7909 170.209 70 168 70H85Z" fill="#C5CFD6"/></g><path id="SKIN" fill-rule="evenodd" clip-rule="evenodd" d="M299.159 161C279.443 136.924 266.103 119.075 259.138 107.454C247.213 87.5547 237.453 69.8482 234.373 63.0844C227.028 46.9552 251.282 39.4026 256.771 46.9258C265.079 58.3124 282.822 94.143 310 154.417L299.159 161Z" fill="#dcae92"/><path id="LegLower" fill-rule="evenodd" clip-rule="evenodd" d="M258.758 154L222.065 61.6368C214.217 44.7996 252.116 33.7321 257.883 41.5678C270.977 59.3572 302.099 129.534 306 134.834L258.758 154Z" fill="#34103a"/><path id="SKIN" fill-rule="evenodd" clip-rule="evenodd" d="M161.033 135.477C168.181 125.051 194.179 89.9744 208.339 75.4611C212.408 71.2905 216.379 67.2876 220.134 63.5574C231.296 52.4698 253.524 71.1057 242.382 81.2046C214.635 106.355 174.151 140.307 170.769 143.334C166.028 147.577 156.541 142.029 161.033 135.477Z" fill="#dcae92"/><g id="Left [shoe]"><path id="shoe" fill-rule="evenodd" clip-rule="evenodd" d="M165.664 131.185C164.971 130.241 163.63 130.017 162.734 130.771C161.099 132.146 158.748 134.264 157.899 135.734C156.547 138.076 154.733 143.021 154.733 143.021C157.45 144.59 203.578 171.222 203.578 171.222C203.578 171.222 209.116 166.027 205.304 163.157C201.491 160.286 199.012 158.315 199.012 158.315L182.152 135.087C181.821 134.631 181.179 134.538 180.733 134.882L177.23 137.579C177.23 137.579 172.409 137.159 170.035 135.788C168.589 134.953 166.824 132.767 165.664 131.185Z" fill="#E4E4E4"/></g><g id="Right [shoe]"><path id="shoe_2" fill-rule="evenodd" clip-rule="evenodd" d="M293.45 156.284C292.378 155.813 291.104 156.29 290.705 157.391C289.977 159.398 289 162.409 289 164.106C289 166.811 289.901 172 289.901 172C293.039 172 346.303 172 346.303 172C346.303 172 348.502 164.732 343.765 164.152C339.028 163.573 335.895 163.106 335.895 163.106L309.68 151.419C309.165 151.189 308.563 151.43 308.348 151.951L306.663 156.039C306.663 156.039 302.278 158.085 299.537 158.085C297.868 158.085 295.246 157.074 293.45 156.284Z" fill="#E4E4E4"/></g><path id="Leg and Butt" fill-rule="evenodd" clip-rule="evenodd" d="M208.862 66.2501C208.862 66.2501 163.117 58.7976 147.58 56.0581C118.057 50.8524 109.448 34.9653 114.538 0.302229L168.934 0.302229C179.732 3.42038 259.167 38.8717 259.167 38.8717C268.695 43.6015 266.921 57.5475 265.18 62.1421C265.073 62.4232 216.992 144.713 216.992 144.713L172.494 116.365L208.946 69.5904C208.946 69.5904 210.39 66.682 208.862 66.2501Z" fill="#673f6c"/></g></g><g id="Upper Body" transform="translate(-22 155) scale(1 1)"><g id="Upper Body/Pregnant"><path id="Shirt" fill-rule="evenodd" clip-rule="evenodd" d="M181.729 118.264C162.738 157.816 82.7913 131.11 82.7913 131.11C82.7913 124.256 85.5096 117.385 88.3646 110.169C91.4258 102.431 94.6441 94.2962 94.8366 85.3605C95.1907 68.9211 98.2646 19.1125 111.093 2.28693C111.327 1.52679 111.564 0.764491 111.804 0L112.692 0.417788C112.831 0.274815 112.97 0.135529 113.111 0L141.101 4.32798C141.101 16.9883 149.203 28.9933 156.497 39.8002C158.271 42.4297 159.998 44.9882 161.549 47.468C163.58 50.7162 165.871 54.0224 168.22 57.4104C180.115 74.5688 193.464 93.8252 181.729 118.264Z" fill="#ffa434"/><path id="SKIN" fill-rule="evenodd" clip-rule="evenodd" d="M145.863 110.787C147.735 101.127 148.949 94.6775 149.506 91.4391C164.418 108.29 173.033 116.813 175.35 117.009C179.709 117.376 182.93 113.511 183.847 114.598C185.362 119.098 181.081 130.362 172.898 132C168.991 132.782 162.944 124.724 160.453 121.869C159.473 120.746 154.61 117.052 145.863 110.787V110.787ZM171.621 59.2822C175.487 59.2822 177.563 60.8803 179.849 64.1045C182.134 67.3288 184.297 82.5349 180.628 82.5349C176.958 82.5349 161.583 76.6567 161.583 72.7049C161.583 68.7531 172.074 67.0796 172.074 64.1045C172.074 61.1295 167.756 59.2822 171.621 59.2822Z" fill="#dcae92"/><path id="Shade" fill-rule="evenodd" clip-rule="evenodd" d="M106.565 18.7186C96.7476 59.6506 100.747 94.1728 138.058 125.487C137.62 127.06 137.357 128 137.357 128C93.5608 97.3906 93.5398 60.2965 106.565 18.7186Z" fill="black" fill-opacity="0.2"/></g></g></g></svg>