<svg viewBox="-1.5957446808510838 -10.650000000000034 281.9148936170213 441.975" fill="none" xmlns="http://www.w3.org/2000/svg" xmlns:xlink="http://www.w3.org/1999/xlink" overflow="visible" width="281.9148936170213px" height="441.975px"><g id="Master/Pose/Standing"><g id="Head/Front" transform="translate(82 0) scale(1 1)"><g id="Head/Front/Airy"><g id="Head"><path id="SKIN" fill-rule="evenodd" clip-rule="evenodd" d="M73.9354 75.2443C80.411 79.1475 86.7736 81.0333 89.7603 80.2635C97.2496 78.333 97.9382 50.9351 92.1433 40.1339C86.3485 29.3328 56.5583 24.625 55.0568 46.0255C54.5356 53.4529 57.6544 60.0814 62.2623 65.4901L54 104H78L73.9354 75.2443Z" fill="#915b3c"/></g><path id="hair" fill-rule="evenodd" clip-rule="evenodd" d="M78.4639 27.6853C75.3008 27.1665 66.7839 26.8099 65.2133 26.8101C64.2096 26.8101 63.1218 27.0394 62.5273 26.1178C62.0405 25.3631 62.2189 24.0867 62.0736 23.2109C61.9049 22.1935 61.6652 21.1892 61.4229 20.1874C60.7331 17.3369 59.6901 14.625 58.2308 12.0788C55.4925 7.30188 51.4811 3.56011 46.4167 1.38278C40.8243 -1.02134 34.496 -1.57183 28.4805 -1.08419C22.0431 -0.562477 16.2159 1.56259 10.138 3.56241C4.34604 5.46806 -1.7204 6.21817 -7.77811 5.28756C-13.8815 4.35004 -18.4932 1.04203 -23.6413 -2.09768C-28.9115 -5.31199 -34.9343 -7.41426 -41.1646 -6.931C-46.9804 -6.47974 -52.3406 -4.07839 -57.1497 -0.870532C-61.6491 2.13081 -65.3617 5.74181 -67.4578 10.824C-69.7127 16.2909 -69.7106 22.2918 -66.0026 27.1233C-60.6279 34.1265 -50.6501 35.9376 -42.349 35.7575C-37.5475 35.6537 -32.8318 34.7772 -28.2986 33.1828C-22.2531 31.0564 -17.0288 27.4523 -11.373 24.528C-8.71872 23.1558 -5.97516 22.0288 -3.0994 21.217C-0.308797 20.4289 2.43981 20.0675 4.96645 21.7533C7.63931 23.5367 10.0344 25.2885 13.0922 26.4049C16.0256 27.476 19.1327 28.075 22.258 28.0509C28.3386 28.0039 34.3328 26.1093 40.2385 24.8402C45.0545 23.8056 50.2074 22.7743 55.1173 23.769C57.166 24.1841 60.1586 25.041 60.8986 27.1702C48.4442 29.4274 43.5527 44.8302 47.0638 56.1372C48.9588 62.24 60.3498 69.3742 64.7788 66.1658C67.5847 64.1333 65.8812 61.4648 64.7788 59.7033C62.6676 56.3299 61.9453 51.9967 65.8518 49.648C69.2215 47.6224 72.7646 52.4327 72.8316 52.4274C73.7577 52.3544 81.7604 47.8285 87.2742 41.2241C92.7135 41.5466 93.5387 37.96 92.2399 35.0269C90.9411 32.0938 82.8344 28.4024 78.4639 27.6853Z" fill="#dc9849"/></g></g><g id="Lower Body/Standing" transform="translate(0 187) scale(1 1)"><g id="Lower Body/Standing/Skirt"><path id="Skirt Shadow" fill-rule="evenodd" clip-rule="evenodd" d="M97.4077 98.0881C97.4077 98.0881 133.392 108.153 159.5 108.153C185.607 108.153 208 92.6533 208 92.6533C208 92.6533 172.786 82.3228 150 82.3228C127.214 82.3228 97.4077 98.0881 97.4077 98.0881Z" fill="#9e6312"/><path id="SKIN" fill-rule="evenodd" clip-rule="evenodd" d="M180.267 117.824C180.036 117.477 179.84 117.098 179.685 116.689C176.479 108.208 125.117 16.7255 120 0H177.826C181.717 12.7167 199.227 92.5198 201.691 108.442C209.467 133.557 225.475 214.895 227.519 220.53C229.669 226.458 217.572 232.633 214.349 225.346C209.22 213.75 196.999 181.665 191.557 162.074C186.456 143.708 182.302 127.184 180.267 117.824Z" fill="#915b3c"/><path id="Shadow" fill-rule="evenodd" clip-rule="evenodd" d="M180.267 117.824C180.036 117.477 179.84 117.098 179.685 116.689C176.479 108.208 125.117 16.7255 120 0H177.826C181.717 12.7167 199.227 92.5198 201.691 108.442C209.467 133.557 225.475 214.895 227.519 220.53C229.669 226.458 217.572 232.633 214.349 225.346C209.22 213.75 196.999 181.665 191.557 162.074C186.456 143.708 182.302 127.184 180.267 117.824Z" fill="black" fill-opacity="0.1"/><path id="SKIN" fill-rule="evenodd" clip-rule="evenodd" d="M132.957 128.994C109.475 134.928 23.5841 145.658 17.6899 147.341C11.6265 149.072 6.31016 136.574 13.8048 133.867C25.7299 129.559 58.5892 119.606 78.5119 115.544C94.5365 112.277 109.159 109.611 118.976 108.05C118.145 80.4734 114.343 14.2935 116.835 0H168C165.61 13.7065 145.41 113.718 141.656 123.729C140.464 127.302 136.909 128.882 132.957 128.994V128.994Z" fill="#915b3c"/><g id="Left [shoe]"><path id="shoe" fill-rule="evenodd" clip-rule="evenodd" d="M15.9311 133.074C16.2095 131.937 15.5182 130.765 14.3648 130.563C12.2611 130.195 9.12692 129.756 7.45574 130.05C4.7919 130.52 -0.162158 132.309 -0.162158 132.309C0.382733 135.399 9.63191 187.854 9.63191 187.854C9.63191 187.854 17.1715 188.757 16.9197 183.991C16.6679 179.226 16.5838 176.059 16.5838 176.059L23.5408 148.213C23.6774 147.667 23.3357 147.115 22.7854 146.994L18.4673 146.044C18.4673 146.044 15.691 142.081 15.215 139.381C14.9252 137.738 15.4647 134.98 15.9311 133.074Z" fill="#E4E4E4"/></g><g id="Right [shoe]"><path id="shoe_2" fill-rule="evenodd" clip-rule="evenodd" d="M213.45 223.284C212.378 222.813 211.104 223.29 210.705 224.391C209.977 226.398 209 229.409 209 231.106C209 233.811 209.901 239 209.901 239C213.039 239 266.303 239 266.303 239C266.303 239 268.502 231.732 263.765 231.152C259.028 230.573 255.895 230.106 255.895 230.106L229.68 218.419C229.165 218.189 228.563 218.43 228.348 218.951L226.663 223.039C226.663 223.039 222.278 225.085 219.537 225.085C217.868 225.085 215.246 224.074 213.45 223.284Z" fill="#E4E4E4"/></g><path id="Skirt" fill-rule="evenodd" clip-rule="evenodd" d="M117 4.14848e-05C117 4.14848e-05 150.82 -9.67607 181 4.14848e-05C188 31.9375 205.009 44.6135 208 93.579C174 110.473 132 81.5305 97.0001 98.0054C87.0001 74.9612 101 19.4646 117 4.14848e-05Z" fill="#dc9849"/></g></g><g id="Upper Body" transform="translate(22 82) scale(1 1)"><g id="Upper Body/Long Sleeve"><path id="SKIN" fill-rule="evenodd" clip-rule="evenodd" d="M231.483 59.9252L192 65.3108L199.084 83L231.121 70.2987C244.93 71.6611 251.607 71.3331 251.153 69.3149C250.77 67.6131 249.302 67.0993 247.95 66.6261C246.897 66.2574 245.914 65.9134 245.569 65.0515C244.78 63.0832 249.269 59.0033 253.693 55.3152C258.117 51.6271 255.148 50.9484 253.281 51.0029C246.647 52.5579 239.381 55.532 231.483 59.9252ZM39.398 156.908C42.3285 150.963 67.9699 74.4497 67.9699 74.4497L89.8673 74.5319C89.8673 74.5319 53.8506 155.583 52.308 159.406C50.3041 164.372 53.708 171.587 56.0162 176.48C56.3733 177.237 56.7041 177.938 56.9847 178.567C53.782 180 52.2435 178.268 50.6216 176.442C48.7896 174.379 46.8512 172.197 42.288 174.319C40.525 175.14 38.8568 176.109 37.2269 177.057C31.5969 180.329 26.4249 183.336 19.3891 178.994C18.2737 178.306 17.0514 175.715 20.0047 173.69C27.3624 168.645 37.9654 159.815 39.398 156.908Z" fill="#784931"/><path id="Clothes Back" fill-rule="evenodd" clip-rule="evenodd" d="M127.949 5.00001L145.094 6.14217C149.317 44.3434 172.316 68.4728 223.811 60.304L230.652 109.499C182.523 115.719 140.313 96.4498 131.662 44.2785C129.423 30.7729 127.655 16.7178 127.949 5.00001Z" fill="#4d1579"/><path id="Clothes" fill-rule="evenodd" clip-rule="evenodd" d="M42.4016 147C54.3053 83.664 79.4301 34.664 117.776 0H119.421H119.477L119.491 0.0159384L145.468 5.96528C145.468 37.1692 152.41 60.4845 159.084 82.9002C161.966 92.5803 164.798 102.093 167 112H96.8436C95.8554 123.351 95.2485 135.018 94.9322 147H42.4016Z" fill="#854ab1"/><path id="Shade" fill-rule="evenodd" clip-rule="evenodd" d="M96.8438 112C98.8558 88.8905 102.449 67.0899 108.388 46.5981C107.086 68.5123 106.725 95.6979 111.103 112H96.8438Z" fill="black" fill-opacity="0.1"/></g></g></g></svg>