<svg viewBox="-1.5957446808510838 26.625 313.8297872340426 404.6999999999999" fill="none" xmlns="http://www.w3.org/2000/svg" xmlns:xlink="http://www.w3.org/1999/xlink" overflow="visible" width="313.8297872340426px" height="404.6999999999999px"><g id="Master/Pose/Standing"><g id="Head/Front" transform="translate(82 0) scale(1 1)"><g id="Head/Front/Long"><path id="Hair Back" fill-rule="evenodd" clip-rule="evenodd" d="M72.5 27C60.6259 27 51 36.6259 51 48.5V69.5C51 80.5658 59.3599 89.679 70.1086 90.8685C70.1114 90.9197 70.1143 90.971 70.1173 91.0225H99.1173C103.701 86.5438 99.209 57.9923 95.762 45.2902C94.2125 34.9385 85.2833 27 74.5 27H72.5Z" fill="#997c50"/><g id="Head"><path id="SKIN" fill-rule="evenodd" clip-rule="evenodd" d="M73.9354 75.2443C80.411 79.1475 86.7736 81.0333 89.7603 80.2635C97.2496 78.333 97.9382 50.9351 92.1433 40.1339C86.3485 29.3328 56.5583 24.625 55.0568 46.0255C54.5356 53.4529 57.6544 60.0814 62.2623 65.4901L54 104H78L73.9354 75.2443Z" fill="#dcae92"/></g><path id="Hair Front" fill-rule="evenodd" clip-rule="evenodd" d="M51.8812 46.1504C52.578 45.4614 53.2522 44.7947 53.9211 44.1981L53.8889 43.4207C53.8889 43.4207 61.4214 28 73.0014 28C84.5711 28 88.23 33.3787 91.3403 37.9508L91.3487 37.9631C89.7218 43.5452 84.8187 45.8037 79.2736 48.3579C76.8866 49.4574 74.3806 50.6117 71.9657 52.1095C71.0199 51.341 69.8137 50.8804 68.5 50.8804C65.4624 50.8804 63 53.3428 63 56.3804C63 59.418 65.4624 61.8804 68.5 61.8804C68.5838 61.8804 68.6671 61.8785 68.75 61.8748C69.8557 73.7528 69.4127 87.3173 66.1173 90.5371H37.1173C36.2848 76.0731 40.0264 71.947 43.8498 67.7307C47.4474 63.7635 51.1173 59.7166 51.1173 46.9028C51.3754 46.6506 51.6298 46.3991 51.8812 46.1505L51.8812 46.1504Z" fill="#997c50"/></g></g><g id="Lower Body/Standing" transform="translate(0 187) scale(1 1)"><g id="Lower Body/Standing/Jogging"><path id="SKIN" fill-rule="evenodd" clip-rule="evenodd" d="M130 0L204.306 124.227L260.015 229.25H272.014L178.674 0L130 0Z" fill="#cccccc"/><g id="Right [shoe]"><path id="shoe" fill-rule="evenodd" clip-rule="evenodd" d="M255.45 223.284C254.378 222.813 253.104 223.29 252.705 224.391C251.977 226.398 251 229.409 251 231.106C251 233.811 251.901 239 251.901 239C255.039 239 308.303 239 308.303 239C308.303 239 310.502 231.732 305.765 231.152C301.028 230.573 297.895 230.106 297.895 230.106L271.68 218.419C271.165 218.189 270.563 218.43 270.348 218.951L268.663 223.039C268.663 223.039 264.278 225.085 261.537 225.085C259.868 225.085 257.246 224.074 255.45 223.284Z" fill="#E4E4E4"/></g><path id="Pant" fill-rule="evenodd" clip-rule="evenodd" d="M244.543 212.433L267.683 205.433C267.683 205.433 252.476 159.971 230.405 105.374C208.335 50.7778 183 0 183 0H117.644C117.644 0 145.811 64.2315 177.366 116.725C208.921 169.219 244.543 212.433 244.543 212.433Z" fill="#614920"/><path id="SKIN" fill-rule="evenodd" clip-rule="evenodd" d="M125.117 0C118.104 43.6542 104.577 99.4275 103.301 101.149C102.45 102.296 71.8127 112.562 11.3899 131.947L13.9818 142.528C86.0359 132.132 124.002 124.066 127.881 118.331C133.699 109.728 162.749 41.7631 174 0H125.117Z" fill="#dcae92"/><path id="Pant" fill-rule="evenodd" clip-rule="evenodd" d="M32.6294 122.8L37.1948 139.842C91.087 144.569 124.108 141.153 136.258 129.596C148.407 118.039 162.254 74.84 177.799 0H115.478C105.629 61.2839 100.123 93.2121 98.96 95.7848C97.7966 98.3574 75.6864 107.363 32.6294 122.8Z" fill="#997c50"/><g id="Left [shoe]"><path id="shoe_2" fill-rule="evenodd" clip-rule="evenodd" d="M15.9311 130.074C16.2095 128.937 15.5182 127.765 14.3648 127.563C12.2611 127.195 9.12692 126.756 7.45574 127.05C4.7919 127.52 -0.162158 129.309 -0.162158 129.309C0.382733 132.399 9.63191 184.854 9.63191 184.854C9.63191 184.854 17.1715 185.757 16.9197 180.991C16.6679 176.226 16.5838 173.059 16.5838 173.059L23.5408 145.213C23.6774 144.667 23.3357 144.115 22.7854 143.994L18.4673 143.044C18.4673 143.044 15.691 139.081 15.215 136.381C14.9252 134.738 15.4647 131.98 15.9311 130.074Z" fill="#E4E4E4"/></g></g></g><g id="Upper Body" transform="translate(22 82) scale(1 1)"><g id="Upper Body/Lab Coat"><path id="SKIN" fill-rule="evenodd" clip-rule="evenodd" d="M28.3643 141.284C32.0937 135.804 53.6671 77.5359 53.6671 77.5359L71.3788 80.1081C71.3788 80.1081 42.8608 141.982 40.8011 145.554C38.1255 150.193 40.4921 157.812 42.0969 162.978C42.3452 163.777 42.5752 164.518 42.7655 165.179C39.3945 166.153 38.1121 164.223 36.7601 162.189C35.2331 159.892 33.6173 157.461 28.803 158.928C26.943 159.495 25.1561 160.223 23.4102 160.934C17.3796 163.391 11.8395 165.648 5.47637 160.37C4.46758 159.533 3.6178 156.797 6.82419 155.203C14.8125 151.231 26.5411 143.963 28.3643 141.284ZM220.545 114.202L190.359 88.61L182.109 105.507L212.706 120.777C220.885 131.868 225.563 136.581 226.74 134.914C227.732 133.509 227.133 132.087 226.581 130.776C226.151 129.756 225.75 128.803 226.152 127.98C227.07 126.1 233.042 126.722 238.684 127.555C244.326 128.388 242.849 125.748 241.569 124.406C236.021 120.536 229.013 117.134 220.545 114.202Z" fill="#dcae92"/><path id="Coat Back" fill-rule="evenodd" clip-rule="evenodd" d="M127.695 5.33206L138.67 1.70266C153.557 38.8929 175.761 74.8764 212.857 105.27L203.684 121.097C171.081 101.892 140.219 86.9728 127.695 58.1547C123.492 48.4826 127.352 16.897 127.695 5.33206Z" fill="#4d1579"/><path id="Shirt" fill-rule="evenodd" clip-rule="evenodd" d="M90 110C90 110 137.157 115 164.236 110C166.473 109.587 166.826 105.842 165.788 103.301C149.636 63.7244 138.56 29.1916 138.56 1.70264C134.115 3.94386 123 2.37439 123 2.37439C103.086 30.7027 93.9325 63.2061 90 110Z" fill="#181F31"/><path id="Coat Front" fill-rule="evenodd" clip-rule="evenodd" d="M117.293 -5.36442e-07C117.807 -0.346371 118.079 -0.518677 118.079 -0.518677L118.049 -5.36442e-07H126.349C126.766 2.45256 127.376 11.543 128.267 24.798C131.504 72.9652 138.436 176.127 153.191 215.606H51.3854C53.5334 170.722 70.0818 117.047 87.2243 71.4703C74.5746 84.0558 59.8014 105.153 47.862 140.273L28.7927 135.378C48.226 51.6382 105.162 8.45168 116.21 0.743822C116.318 0.494546 116.425 0.246602 116.532 -5.36442e-07H117.293Z" fill="#854ab1"/></g></g></g></svg>