<svg xmlns="http://www.w3.org/2000/svg" xmlns:xlink="http://www.w3.org/1999/xlink" width="500" zoomAndPan="magnify" viewBox="0 0 375 374.999991" height="500" preserveAspectRatio="xMidYMid meet" version="1.0"><defs><g/><clipPath id="e40339bc35"><path d="M 9.238281 8.925781 L 366.386719 8.925781 L 366.386719 366.074219 L 9.238281 366.074219 Z M 9.238281 8.925781 " clip-rule="nonzero"/></clipPath><clipPath id="c8c7a0dae7"><path d="M 187.8125 8.925781 C 89.1875 8.925781 9.238281 88.875 9.238281 187.5 C 9.238281 286.125 89.1875 366.074219 187.8125 366.074219 C 286.4375 366.074219 366.386719 286.125 366.386719 187.5 C 366.386719 88.875 286.4375 8.925781 187.8125 8.925781 Z M 187.8125 8.925781 " clip-rule="nonzero"/></clipPath></defs><rect x="-37.5" width="450" fill="#ffffff" y="-37.499999" height="449.999989" fill-opacity="1"/><rect x="-37.5" width="450" fill="#ffffff" y="-37.499999" height="449.999989" fill-opacity="1"/><g clip-path="url(#e40339bc35)"><g clip-path="url(#c8c7a0dae7)"><path fill="#854ab1" d="M 9.238281 8.925781 L 366.386719 8.925781 L 366.386719 366.074219 L 9.238281 366.074219 Z M 9.238281 8.925781 " fill-opacity="1" fill-rule="nonzero"/></g></g><g fill="#ffffff" fill-opacity="1"><g transform="translate(69.678706, 125.39143)"><g><path d="M 7.65625 -15.84375 C 8.90625 -15.84375 10 -15.625 10.9375 -15.1875 C 11.875 -14.75 12.597656 -14.128906 13.109375 -13.328125 C 13.617188 -12.535156 13.875 -11.609375 13.875 -10.546875 C 13.875 -9.492188 13.617188 -8.566406 13.109375 -7.765625 C 12.609375 -6.960938 11.882812 -6.335938 10.9375 -5.890625 C 10 -5.453125 8.90625 -5.234375 7.65625 -5.234375 L 5.8125 -5.234375 L 5.8125 0 L 1.859375 0 L 1.859375 -15.84375 Z M 7.46875 -8.609375 C 8.226562 -8.609375 8.8125 -8.785156 9.21875 -9.140625 C 9.632812 -9.503906 9.84375 -9.972656 9.84375 -10.546875 C 9.84375 -11.109375 9.632812 -11.566406 9.21875 -11.921875 C 8.8125 -12.285156 8.226562 -12.46875 7.46875 -12.46875 L 5.8125 -12.46875 L 5.8125 -8.609375 Z M 7.46875 -8.609375 "/></g></g></g><g fill="#ffffff" fill-opacity="1"><g transform="translate(84.168892, 125.39143)"><g><path d="M 8.3125 0.296875 C 6.9375 0.296875 5.742188 0.0195312 4.734375 -0.53125 C 3.722656 -1.09375 2.941406 -1.875 2.390625 -2.875 C 1.847656 -3.875 1.578125 -5.019531 1.578125 -6.3125 L 1.578125 -15.84375 L 5.546875 -15.84375 L 5.546875 -6.546875 C 5.546875 -5.578125 5.773438 -4.796875 6.234375 -4.203125 C 6.691406 -3.617188 7.382812 -3.328125 8.3125 -3.328125 C 9.25 -3.328125 9.945312 -3.617188 10.40625 -4.203125 C 10.863281 -4.796875 11.09375 -5.578125 11.09375 -6.546875 L 11.09375 -15.84375 L 15.0625 -15.84375 L 15.0625 -6.3125 C 15.0625 -5.019531 14.785156 -3.875 14.234375 -2.875 C 13.691406 -1.875 12.910156 -1.09375 11.890625 -0.53125 C 10.878906 0.0195312 9.6875 0.296875 8.3125 0.296875 Z M 8.3125 0.296875 "/></g></g></g><g fill="#ffffff" fill-opacity="1"><g transform="translate(100.809968, 125.39143)"><g><path d="M 8.3125 0 L 4.34375 0 L 4.34375 -12.265625 L 0.453125 -12.265625 L 0.453125 -15.84375 L 12.15625 -15.84375 L 12.15625 -12.265625 L 8.3125 -12.265625 Z M 8.3125 0 "/></g></g></g><g fill="#ffffff" fill-opacity="1"><g transform="translate(113.420958, 125.39143)"><g><path d="M 8.3125 0 L 4.34375 0 L 4.34375 -12.265625 L 0.453125 -12.265625 L 0.453125 -15.84375 L 12.15625 -15.84375 L 12.15625 -12.265625 L 8.3125 -12.265625 Z M 8.3125 0 "/></g></g></g><g fill="#ffffff" fill-opacity="1"><g transform="translate(126.031948, 125.39143)"><g><path d="M 5.9375 0 L 1.96875 0 L 1.96875 -15.84375 L 5.9375 -15.84375 Z M 5.9375 0 "/></g></g></g><g fill="#ffffff" fill-opacity="1"><g transform="translate(133.91099, 125.39143)"><g><path d="M 13 -6.296875 L 13 -15.84375 L 16.796875 -15.84375 L 16.796875 0 L 14.03125 0 L 5.65625 -9.515625 L 5.65625 0 L 1.859375 0 L 1.859375 -15.84375 L 4.59375 -15.84375 Z M 13 -6.296875 "/></g></g></g><g fill="#ffffff" fill-opacity="1"><g transform="translate(152.544461, 125.39143)"><g><path d="M 9.03125 -8.828125 L 17.703125 -8.828125 L 17.703125 -7.875 C 17.703125 -6.332031 17.359375 -4.9375 16.671875 -3.6875 C 15.984375 -2.445312 15.007812 -1.472656 13.75 -0.765625 C 12.488281 -0.0546875 11.019531 0.296875 9.34375 0.296875 C 7.84375 0.296875 6.445312 -0.0390625 5.15625 -0.71875 C 3.863281 -1.40625 2.832031 -2.375 2.0625 -3.625 C 1.289062 -4.875 0.90625 -6.304688 0.90625 -7.921875 C 0.90625 -9.535156 1.289062 -10.96875 2.0625 -12.21875 C 2.832031 -13.476562 3.863281 -14.445312 5.15625 -15.125 C 6.445312 -15.800781 7.84375 -16.140625 9.34375 -16.140625 C 11.3125 -16.140625 13.035156 -15.632812 14.515625 -14.625 C 15.992188 -13.613281 17.007812 -12.210938 17.5625 -10.421875 L 13.359375 -10.421875 C 12.441406 -11.878906 11.117188 -12.609375 9.390625 -12.609375 C 8.535156 -12.609375 7.765625 -12.398438 7.078125 -11.984375 C 6.398438 -11.566406 5.875 -11 5.5 -10.28125 C 5.125 -9.570312 4.9375 -8.769531 4.9375 -7.875 C 4.9375 -6.96875 5.125 -6.160156 5.5 -5.453125 C 5.875 -4.742188 6.40625 -4.1875 7.09375 -3.78125 C 7.78125 -3.375 8.570312 -3.171875 9.46875 -3.171875 C 10.476562 -3.171875 11.335938 -3.394531 12.046875 -3.84375 C 12.765625 -4.300781 13.285156 -4.921875 13.609375 -5.703125 L 9.03125 -5.703125 Z M 9.03125 -8.828125 "/></g></g></g><g fill="#ffffff" fill-opacity="1"><g transform="translate(171.132655, 125.39143)"><g/></g></g><g fill="#ffffff" fill-opacity="1"><g transform="translate(178.015491, 125.39143)"><g><path d="M 8.3125 0 L 4.34375 0 L 4.34375 -12.265625 L 0.453125 -12.265625 L 0.453125 -15.84375 L 12.15625 -15.84375 L 12.15625 -12.265625 L 8.3125 -12.265625 Z M 8.3125 0 "/></g></g></g><g fill="#ffffff" fill-opacity="1"><g transform="translate(190.626474, 125.39143)"><g><path d="M 11.5 -9.875 L 11.5 -15.84375 L 15.46875 -15.84375 L 15.46875 0 L 11.5 0 L 11.5 -6.296875 L 5.8125 -6.296875 L 5.8125 0 L 1.859375 0 L 1.859375 -15.84375 L 5.8125 -15.84375 L 5.8125 -9.875 Z M 11.5 -9.875 "/></g></g></g><g fill="#ffffff" fill-opacity="1"><g transform="translate(207.924127, 125.39143)"><g><path d="M 5.8125 -6.453125 L 5.8125 -3.375 L 12.3125 -3.375 L 12.3125 0 L 1.859375 0 L 1.859375 -15.84375 L 12.09375 -15.84375 L 12.09375 -12.46875 L 5.8125 -12.46875 L 5.8125 -9.734375 L 11.859375 -9.734375 L 11.859375 -6.453125 Z M 5.8125 -6.453125 "/></g></g></g><g fill="#ffffff" fill-opacity="1"><g transform="translate(221.421185, 125.39143)"><g/></g></g><g fill="#dc9849" fill-opacity="1"><g transform="translate(90.123237, 173.477696)"><g><path d="M 14.96875 -22.734375 C 14.96875 -20.816406 14.5625 -19.171875 13.75 -17.796875 C 12.9375 -16.429688 11.753906 -15.394531 10.203125 -14.6875 C 11.753906 -13.988281 12.9375 -12.953125 13.75 -11.578125 C 14.5625 -10.210938 14.96875 -8.570312 14.96875 -6.65625 L 14.96875 -3.046875 C 14.96875 -0.941406 15.515625 0.691406 16.609375 1.859375 C 17.703125 3.023438 19.28125 3.609375 21.34375 3.609375 L 21.90625 3.609375 L 21.90625 11.09375 L 19.359375 11.09375 C 15.285156 11.09375 12.175781 9.984375 10.03125 7.765625 C 7.894531 5.546875 6.828125 2.476562 6.828125 -1.4375 L 6.828125 -5.328125 C 6.828125 -7.285156 6.363281 -8.789062 5.4375 -9.84375 C 4.507812 -10.894531 3.125 -11.421875 1.28125 -11.421875 L 1.28125 -17.96875 C 3.125 -17.96875 4.507812 -18.492188 5.4375 -19.546875 C 6.363281 -20.597656 6.828125 -22.101562 6.828125 -24.0625 L 6.828125 -28 C 6.828125 -31.882812 7.894531 -34.9375 10.03125 -37.15625 C 12.175781 -39.375 15.285156 -40.484375 19.359375 -40.484375 L 21.90625 -40.484375 L 21.90625 -33 L 21.34375 -33 C 19.28125 -33 17.703125 -32.414062 16.609375 -31.25 C 15.515625 -30.082031 14.96875 -28.445312 14.96875 -26.34375 Z M 14.96875 -22.734375 "/></g></g></g><g fill="#dc9849" fill-opacity="1"><g transform="translate(112.589351, 173.477696)"><g><path d="M 27.71875 -38.8125 L 27.71875 -30.328125 L 14.25 -30.328125 L 14.25 -22.5625 L 27.171875 -22.5625 L 27.171875 -14.46875 L 14.25 -14.46875 L 14.25 0 L 4.546875 0 L 4.546875 -38.8125 Z M 27.71875 -38.8125 "/></g></g></g><g fill="#dc9849" fill-opacity="1"><g transform="translate(142.642314, 173.477696)"><g><path d="M 20.34375 0.71875 C 16.988281 0.71875 14.070312 0.0351562 11.59375 -1.328125 C 9.113281 -2.691406 7.207031 -4.59375 5.875 -7.03125 C 4.539062 -9.476562 3.875 -12.289062 3.875 -15.46875 L 3.875 -38.8125 L 13.59375 -38.8125 L 13.59375 -16.03125 C 13.59375 -13.664062 14.15625 -11.757812 15.28125 -10.3125 C 16.40625 -8.875 18.09375 -8.15625 20.34375 -8.15625 C 22.644531 -8.15625 24.359375 -8.875 25.484375 -10.3125 C 26.609375 -11.757812 27.171875 -13.664062 27.171875 -16.03125 L 27.171875 -38.8125 L 36.875 -38.8125 L 36.875 -15.46875 C 36.875 -12.289062 36.207031 -9.476562 34.875 -7.03125 C 33.550781 -4.59375 31.640625 -2.691406 29.140625 -1.328125 C 26.640625 0.0351562 23.707031 0.71875 20.34375 0.71875 Z M 20.34375 0.71875 "/></g></g></g><g fill="#dc9849" fill-opacity="1"><g transform="translate(183.396791, 173.477696)"><g><path d="M 31.828125 -15.421875 L 31.828125 -38.8125 L 41.140625 -38.8125 L 41.140625 0 L 34.375 0 L 13.859375 -23.296875 L 13.859375 0 L 4.546875 0 L 4.546875 -38.8125 L 11.25 -38.8125 Z M 31.828125 -15.421875 "/></g></g></g><g fill="#dc9849" fill-opacity="1"><g transform="translate(229.03071, 173.477696)"><g><path d="M 15.578125 -24.0625 C 15.578125 -22.101562 16.039062 -20.597656 16.96875 -19.546875 C 17.894531 -18.492188 19.28125 -17.96875 21.125 -17.96875 L 21.125 -11.421875 C 19.28125 -11.421875 17.894531 -10.894531 16.96875 -9.84375 C 16.039062 -8.789062 15.578125 -7.285156 15.578125 -5.328125 L 15.578125 -1.390625 C 15.578125 2.492188 14.503906 5.546875 12.359375 7.765625 C 10.222656 9.984375 7.117188 11.09375 3.046875 11.09375 L 0.546875 11.09375 L 0.546875 3.609375 L 1.109375 3.609375 C 3.179688 3.609375 4.757812 3.023438 5.84375 1.859375 C 6.9375 0.691406 7.484375 -0.941406 7.484375 -3.046875 L 7.484375 -6.65625 C 7.484375 -8.570312 7.890625 -10.210938 8.703125 -11.578125 C 9.515625 -12.953125 10.695312 -13.988281 12.25 -14.6875 C 10.695312 -15.394531 9.515625 -16.429688 8.703125 -17.796875 C 7.890625 -19.171875 7.484375 -20.816406 7.484375 -22.734375 L 7.484375 -26.34375 C 7.484375 -28.445312 6.9375 -30.082031 5.84375 -31.25 C 4.757812 -32.414062 3.179688 -33 1.109375 -33 L 0.546875 -33 L 0.546875 -40.484375 L 3.046875 -40.484375 C 7.117188 -40.484375 10.222656 -39.375 12.359375 -37.15625 C 14.503906 -34.9375 15.578125 -31.867188 15.578125 -27.953125 Z M 15.578125 -24.0625 "/></g></g></g><g fill="#dc9849" fill-opacity="1"><g transform="translate(76.113884, 254.247917)"><g/></g></g><g fill="#dc9849" fill-opacity="1"><g transform="translate(85.184196, 254.247917)"><g><path d="M 7.671875 -8.5 L 7.671875 -4.4375 L 16.21875 -4.4375 L 16.21875 0 L 2.453125 0 L 2.453125 -20.875 L 15.921875 -20.875 L 15.921875 -16.4375 L 7.671875 -16.4375 L 7.671875 -12.828125 L 15.625 -12.828125 L 15.625 -8.5 Z M 7.671875 -8.5 "/></g></g></g><g fill="#dc9849" fill-opacity="1"><g transform="translate(102.959421, 254.247917)"><g><path d="M 2.453125 0 L 2.453125 -20.875 L 9.90625 -20.875 C 12.25 -20.875 14.300781 -20.441406 16.0625 -19.578125 C 17.820312 -18.710938 19.179688 -17.488281 20.140625 -15.90625 C 21.109375 -14.332031 21.59375 -12.507812 21.59375 -10.4375 C 21.59375 -8.375 21.109375 -6.550781 20.140625 -4.96875 C 19.179688 -3.382812 17.820312 -2.160156 16.0625 -1.296875 C 14.300781 -0.429688 12.25 0 9.90625 0 Z M 9.78125 -4.5625 C 11.789062 -4.5625 13.367188 -5.09375 14.515625 -6.15625 C 15.671875 -7.21875 16.25 -8.644531 16.25 -10.4375 C 16.25 -12.226562 15.671875 -13.65625 14.515625 -14.71875 C 13.367188 -15.78125 11.789062 -16.3125 9.78125 -16.3125 L 7.671875 -16.3125 L 7.671875 -4.5625 Z M 9.78125 -4.5625 "/></g></g></g><g fill="#dc9849" fill-opacity="1"><g transform="translate(125.74511, 254.247917)"><g><path d="M 10.953125 0.390625 C 9.140625 0.390625 7.566406 0.0234375 6.234375 -0.703125 C 4.898438 -1.441406 3.875 -2.46875 3.15625 -3.78125 C 2.445312 -5.09375 2.09375 -6.609375 2.09375 -8.328125 L 2.09375 -20.875 L 7.3125 -20.875 L 7.3125 -8.625 C 7.3125 -7.351562 7.613281 -6.328125 8.21875 -5.546875 C 8.820312 -4.773438 9.734375 -4.390625 10.953125 -4.390625 C 12.179688 -4.390625 13.097656 -4.773438 13.703125 -5.546875 C 14.304688 -6.328125 14.609375 -7.351562 14.609375 -8.625 L 14.609375 -20.875 L 19.828125 -20.875 L 19.828125 -8.328125 C 19.828125 -6.609375 19.46875 -5.09375 18.75 -3.78125 C 18.039062 -2.46875 17.015625 -1.441406 15.671875 -0.703125 C 14.328125 0.0234375 12.753906 0.390625 10.953125 0.390625 Z M 10.953125 0.390625 "/></g></g></g><g fill="#dc9849" fill-opacity="1"><g transform="translate(147.665889, 254.247917)"><g><path d="M 12.3125 0.390625 C 10.332031 0.390625 8.488281 -0.0546875 6.78125 -0.953125 C 5.082031 -1.847656 3.722656 -3.117188 2.703125 -4.765625 C 1.691406 -6.421875 1.1875 -8.3125 1.1875 -10.4375 C 1.1875 -12.5625 1.691406 -14.445312 2.703125 -16.09375 C 3.722656 -17.75 5.082031 -19.023438 6.78125 -19.921875 C 8.488281 -20.816406 10.332031 -21.265625 12.3125 -21.265625 C 14.03125 -21.265625 15.625 -20.9375 17.09375 -20.28125 C 18.5625 -19.625 19.816406 -18.671875 20.859375 -17.421875 C 21.910156 -16.179688 22.644531 -14.726562 23.0625 -13.0625 L 17.625 -13.0625 C 17.1875 -14.09375 16.503906 -14.921875 15.578125 -15.546875 C 14.660156 -16.179688 13.582031 -16.5 12.34375 -16.5 C 11.25 -16.5 10.253906 -16.234375 9.359375 -15.703125 C 8.472656 -15.171875 7.773438 -14.445312 7.265625 -13.53125 C 6.753906 -12.625 6.5 -11.59375 6.5 -10.4375 C 6.5 -9.28125 6.753906 -8.242188 7.265625 -7.328125 C 7.773438 -6.421875 8.472656 -5.703125 9.359375 -5.171875 C 10.253906 -4.648438 11.25 -4.390625 12.34375 -4.390625 C 13.625 -4.390625 14.71875 -4.703125 15.625 -5.328125 C 16.539062 -5.953125 17.21875 -6.789062 17.65625 -7.84375 L 23.0625 -7.84375 C 22.644531 -6.15625 21.914062 -4.6875 20.875 -3.4375 C 19.84375 -2.195312 18.585938 -1.25 17.109375 -0.59375 C 15.640625 0.0625 14.039062 0.390625 12.3125 0.390625 Z M 12.3125 0.390625 "/></g></g></g><g fill="#dc9849" fill-opacity="1"><g transform="translate(171.734014, 254.247917)"><g><path d="M 21.5625 0 L 16.171875 0 L 14.734375 -4.09375 L 6.921875 -4.09375 L 5.515625 0 L 0.203125 0 L 8.140625 -20.875 L 13.609375 -20.875 Z M 8.296875 -8.4375 L 13.421875 -8.4375 L 10.859375 -15.6875 Z M 8.296875 -8.4375 "/></g></g></g><g fill="#dc9849" fill-opacity="1"><g transform="translate(193.475853, 254.247917)"><g><path d="M 10.953125 0 L 5.734375 0 L 5.734375 -16.171875 L 0.59375 -16.171875 L 0.59375 -20.875 L 16.015625 -20.875 L 16.015625 -16.171875 L 10.953125 -16.171875 Z M 10.953125 0 "/></g></g></g><g fill="#dc9849" fill-opacity="1"><g transform="translate(210.087935, 254.247917)"><g><path d="M 7.8125 0 L 2.59375 0 L 2.59375 -20.875 L 7.8125 -20.875 Z M 7.8125 0 "/></g></g></g><g fill="#dc9849" fill-opacity="1"><g transform="translate(220.466753, 254.247917)"><g><path d="M 12.40625 0.390625 C 10.394531 0.390625 8.53125 -0.0625 6.8125 -0.96875 C 5.09375 -1.875 3.722656 -3.148438 2.703125 -4.796875 C 1.691406 -6.453125 1.1875 -8.332031 1.1875 -10.4375 C 1.1875 -12.550781 1.691406 -14.429688 2.703125 -16.078125 C 3.722656 -17.722656 5.09375 -19 6.8125 -19.90625 C 8.53125 -20.8125 10.394531 -21.265625 12.40625 -21.265625 C 14.414062 -21.265625 16.28125 -20.8125 18 -19.90625 C 19.71875 -19 21.082031 -17.722656 22.09375 -16.078125 C 23.113281 -14.429688 23.625 -12.550781 23.625 -10.4375 C 23.625 -8.332031 23.113281 -6.453125 22.09375 -4.796875 C 21.082031 -3.148438 19.71875 -1.875 18 -0.96875 C 16.28125 -0.0625 14.414062 0.390625 12.40625 0.390625 Z M 12.40625 -4.390625 C 13.519531 -4.390625 14.53125 -4.644531 15.4375 -5.15625 C 16.34375 -5.675781 17.046875 -6.394531 17.546875 -7.3125 C 18.054688 -8.226562 18.3125 -9.269531 18.3125 -10.4375 C 18.3125 -11.613281 18.054688 -12.65625 17.546875 -13.5625 C 17.046875 -14.476562 16.34375 -15.195312 15.4375 -15.71875 C 14.53125 -16.238281 13.519531 -16.5 12.40625 -16.5 C 11.289062 -16.5 10.28125 -16.238281 9.375 -15.71875 C 8.476562 -15.195312 7.773438 -14.476562 7.265625 -13.5625 C 6.753906 -12.65625 6.5 -11.613281 6.5 -10.4375 C 6.5 -9.269531 6.753906 -8.226562 7.265625 -7.3125 C 7.773438 -6.394531 8.476562 -5.675781 9.375 -5.15625 C 10.28125 -4.644531 11.289062 -4.390625 12.40625 -4.390625 Z M 12.40625 -4.390625 "/></g></g></g><g fill="#dc9849" fill-opacity="1"><g transform="translate(245.280484, 254.247917)"><g><path d="M 17.125 -8.296875 L 17.125 -20.875 L 22.125 -20.875 L 22.125 0 L 18.5 0 L 7.453125 -12.53125 L 7.453125 0 L 2.453125 0 L 2.453125 -20.875 L 6.0625 -20.875 Z M 17.125 -8.296875 "/></g></g></g><g fill="#dc9849" fill-opacity="1"><g transform="translate(269.825793, 254.247917)"><g/></g></g><g fill="#dc9849" fill-opacity="1"><g transform="translate(278.892351, 254.247917)"><g><path d="M 20.671875 -9.9375 L 16.34375 -4.625 L 20.671875 0 L 15.421875 0 L 13.75 -1.796875 C 12 -0.335938 9.953125 0.390625 7.609375 0.390625 C 5.597656 0.390625 4 -0.113281 2.8125 -1.125 C 1.632812 -2.144531 1.046875 -3.5 1.046875 -5.1875 C 1.046875 -6.238281 1.3125 -7.195312 1.84375 -8.0625 C 2.382812 -8.925781 3.171875 -9.757812 4.203125 -10.5625 L 5.078125 -11.25 L 4.109375 -12.296875 C 3.578125 -12.890625 3.15625 -13.488281 2.84375 -14.09375 C 2.539062 -14.695312 2.390625 -15.40625 2.390625 -16.21875 C 2.390625 -17.132812 2.617188 -17.972656 3.078125 -18.734375 C 3.546875 -19.503906 4.234375 -20.117188 5.140625 -20.578125 C 6.046875 -21.035156 7.109375 -21.265625 8.328125 -21.265625 C 9.535156 -21.265625 10.582031 -21.039062 11.46875 -20.59375 C 12.351562 -20.144531 13.03125 -19.550781 13.5 -18.8125 C 13.96875 -18.082031 14.203125 -17.28125 14.203125 -16.40625 C 14.203125 -15.46875 13.988281 -14.617188 13.5625 -13.859375 C 13.132812 -13.109375 12.441406 -12.367188 11.484375 -11.640625 L 10.5 -10.859375 L 13.65625 -7.484375 L 15.65625 -9.9375 Z M 8.03125 -13.546875 L 8.6875 -14.046875 C 9.15625 -14.421875 9.507812 -14.765625 9.75 -15.078125 C 9.988281 -15.390625 10.109375 -15.734375 10.109375 -16.109375 C 10.109375 -16.566406 9.945312 -16.953125 9.625 -17.265625 C 9.3125 -17.585938 8.867188 -17.75 8.296875 -17.75 C 7.753906 -17.75 7.3125 -17.578125 6.96875 -17.234375 C 6.632812 -16.898438 6.46875 -16.503906 6.46875 -16.046875 C 6.46875 -15.648438 6.554688 -15.304688 6.734375 -15.015625 C 6.921875 -14.722656 7.242188 -14.34375 7.703125 -13.875 Z M 8.078125 -3.515625 C 9.097656 -3.515625 10.101562 -3.90625 11.09375 -4.6875 L 7.578125 -8.53125 L 7.046875 -8.109375 C 6.523438 -7.691406 6.148438 -7.300781 5.921875 -6.9375 C 5.691406 -6.570312 5.578125 -6.160156 5.578125 -5.703125 C 5.578125 -5.066406 5.796875 -4.539062 6.234375 -4.125 C 6.671875 -3.71875 7.285156 -3.515625 8.078125 -3.515625 Z M 8.078125 -3.515625 "/></g></g></g><g fill="#dc9849" fill-opacity="1"><g transform="translate(63.516229, 287.997915)"><g><path d="M 7.671875 -8.5 L 7.671875 -4.4375 L 16.21875 -4.4375 L 16.21875 0 L 2.453125 0 L 2.453125 -20.875 L 15.921875 -20.875 L 15.921875 -16.4375 L 7.671875 -16.4375 L 7.671875 -12.828125 L 15.625 -12.828125 L 15.625 -8.5 Z M 7.671875 -8.5 "/></g></g></g><g fill="#dc9849" fill-opacity="1"><g transform="translate(81.291454, 287.997915)"><g><path d="M 24.703125 -20.875 L 27.734375 0 L 22.609375 0 L 21 -11.65625 L 15.984375 0 L 13.25 0 L 8.234375 -11.71875 L 6.59375 0 L 1.484375 0 L 4.53125 -20.875 L 9.03125 -20.875 L 14.640625 -7.75 L 20.25 -20.875 Z M 24.703125 -20.875 "/></g></g></g><g fill="#dc9849" fill-opacity="1"><g transform="translate(110.51917, 287.997915)"><g><path d="M 10.078125 -20.875 C 11.734375 -20.875 13.175781 -20.585938 14.40625 -20.015625 C 15.632812 -19.441406 16.585938 -18.625 17.265625 -17.5625 C 17.941406 -16.507812 18.28125 -15.289062 18.28125 -13.90625 C 18.28125 -12.507812 17.945312 -11.285156 17.28125 -10.234375 C 16.613281 -9.179688 15.660156 -8.359375 14.421875 -7.765625 C 13.179688 -7.179688 11.734375 -6.890625 10.078125 -6.890625 L 7.671875 -6.890625 L 7.671875 0 L 2.453125 0 L 2.453125 -20.875 Z M 9.84375 -11.328125 C 10.832031 -11.328125 11.597656 -11.566406 12.140625 -12.046875 C 12.691406 -12.523438 12.96875 -13.144531 12.96875 -13.90625 C 12.96875 -14.632812 12.691406 -15.238281 12.140625 -15.71875 C 11.597656 -16.195312 10.832031 -16.4375 9.84375 -16.4375 L 7.671875 -16.4375 L 7.671875 -11.328125 Z M 9.84375 -11.328125 "/></g></g></g><g fill="#dc9849" fill-opacity="1"><g transform="translate(129.606656, 287.997915)"><g><path d="M 12.40625 0.390625 C 10.394531 0.390625 8.53125 -0.0625 6.8125 -0.96875 C 5.09375 -1.875 3.722656 -3.148438 2.703125 -4.796875 C 1.691406 -6.453125 1.1875 -8.332031 1.1875 -10.4375 C 1.1875 -12.550781 1.691406 -14.429688 2.703125 -16.078125 C 3.722656 -17.722656 5.09375 -19 6.8125 -19.90625 C 8.53125 -20.8125 10.394531 -21.265625 12.40625 -21.265625 C 14.414062 -21.265625 16.28125 -20.8125 18 -19.90625 C 19.71875 -19 21.082031 -17.722656 22.09375 -16.078125 C 23.113281 -14.429688 23.625 -12.550781 23.625 -10.4375 C 23.625 -8.332031 23.113281 -6.453125 22.09375 -4.796875 C 21.082031 -3.148438 19.71875 -1.875 18 -0.96875 C 16.28125 -0.0625 14.414062 0.390625 12.40625 0.390625 Z M 12.40625 -4.390625 C 13.519531 -4.390625 14.53125 -4.644531 15.4375 -5.15625 C 16.34375 -5.675781 17.046875 -6.394531 17.546875 -7.3125 C 18.054688 -8.226562 18.3125 -9.269531 18.3125 -10.4375 C 18.3125 -11.613281 18.054688 -12.65625 17.546875 -13.5625 C 17.046875 -14.476562 16.34375 -15.195312 15.4375 -15.71875 C 14.53125 -16.238281 13.519531 -16.5 12.40625 -16.5 C 11.289062 -16.5 10.28125 -16.238281 9.375 -15.71875 C 8.476562 -15.195312 7.773438 -14.476562 7.265625 -13.5625 C 6.753906 -12.65625 6.5 -11.613281 6.5 -10.4375 C 6.5 -9.269531 6.753906 -8.226562 7.265625 -7.3125 C 7.773438 -6.394531 8.476562 -5.675781 9.375 -5.15625 C 10.28125 -4.644531 11.289062 -4.390625 12.40625 -4.390625 Z M 12.40625 -4.390625 "/></g></g></g><g fill="#dc9849" fill-opacity="1"><g transform="translate(154.420386, 287.997915)"><g><path d="M 21.890625 -7.9375 L 25.59375 -20.875 L 31.078125 -20.875 L 24.28125 0 L 19.75 0 L 15.71875 -13.390625 L 11.65625 0 L 7.15625 0 L 0.359375 -20.875 L 5.875 -20.875 L 9.578125 -8 L 13.578125 -20.875 L 17.890625 -20.875 Z M 21.890625 -7.9375 "/></g></g></g><g fill="#dc9849" fill-opacity="1"><g transform="translate(185.855084, 287.997915)"><g><path d="M 7.671875 -8.5 L 7.671875 -4.4375 L 16.21875 -4.4375 L 16.21875 0 L 2.453125 0 L 2.453125 -20.875 L 15.921875 -20.875 L 15.921875 -16.4375 L 7.671875 -16.4375 L 7.671875 -12.828125 L 15.625 -12.828125 L 15.625 -8.5 Z M 7.671875 -8.5 "/></g></g></g><g fill="#dc9849" fill-opacity="1"><g transform="translate(203.630309, 287.997915)"><g><path d="M 14.46875 0 L 8.765625 -7.09375 L 7.671875 -7.09375 L 7.671875 0 L 2.453125 0 L 2.453125 -20.875 L 10.078125 -20.875 C 11.734375 -20.875 13.175781 -20.585938 14.40625 -20.015625 C 15.632812 -19.441406 16.585938 -18.625 17.265625 -17.5625 C 17.941406 -16.507812 18.28125 -15.300781 18.28125 -13.9375 C 18.28125 -12.5625 17.941406 -11.351562 17.265625 -10.3125 C 16.585938 -9.28125 15.625 -8.488281 14.375 -7.9375 L 20.796875 0 Z M 7.671875 -16.5 L 7.671875 -11.390625 L 9.84375 -11.390625 C 10.832031 -11.390625 11.597656 -11.628906 12.140625 -12.109375 C 12.691406 -12.585938 12.96875 -13.195312 12.96875 -13.9375 C 12.96875 -14.6875 12.691406 -15.300781 12.140625 -15.78125 C 11.597656 -16.257812 10.832031 -16.5 9.84375 -16.5 Z M 7.671875 -16.5 "/></g></g></g><g fill="#dc9849" fill-opacity="1"><g transform="translate(223.940584, 287.997915)"><g><path d="M 24.703125 -20.875 L 27.734375 0 L 22.609375 0 L 21 -11.65625 L 15.984375 0 L 13.25 0 L 8.234375 -11.71875 L 6.59375 0 L 1.484375 0 L 4.53125 -20.875 L 9.03125 -20.875 L 14.640625 -7.75 L 20.25 -20.875 Z M 24.703125 -20.875 "/></g></g></g><g fill="#dc9849" fill-opacity="1"><g transform="translate(253.1683, 287.997915)"><g><path d="M 7.671875 -8.5 L 7.671875 -4.4375 L 16.21875 -4.4375 L 16.21875 0 L 2.453125 0 L 2.453125 -20.875 L 15.921875 -20.875 L 15.921875 -16.4375 L 7.671875 -16.4375 L 7.671875 -12.828125 L 15.625 -12.828125 L 15.625 -8.5 Z M 7.671875 -8.5 "/></g></g></g><g fill="#dc9849" fill-opacity="1"><g transform="translate(270.943537, 287.997915)"><g><path d="M 17.125 -8.296875 L 17.125 -20.875 L 22.125 -20.875 L 22.125 0 L 18.5 0 L 7.453125 -12.53125 L 7.453125 0 L 2.453125 0 L 2.453125 -20.875 L 6.0625 -20.875 Z M 17.125 -8.296875 "/></g></g></g><g fill="#dc9849" fill-opacity="1"><g transform="translate(295.488846, 287.997915)"><g><path d="M 10.953125 0 L 5.734375 0 L 5.734375 -16.171875 L 0.59375 -16.171875 L 0.59375 -20.875 L 16.015625 -20.875 L 16.015625 -16.171875 L 10.953125 -16.171875 Z M 10.953125 0 "/></g></g></g><g fill="#ffffff" fill-opacity="1"><g transform="translate(252.364858, 173.477696)"><g><path d="M 4.546875 0 L 4.546875 -38.8125 L 18.40625 -38.8125 C 22.769531 -38.8125 26.585938 -38.007812 29.859375 -36.40625 C 33.128906 -34.800781 35.660156 -32.523438 37.453125 -29.578125 C 39.242188 -26.640625 40.140625 -23.25 40.140625 -19.40625 C 40.140625 -15.5625 39.242188 -12.171875 37.453125 -9.234375 C 35.660156 -6.296875 33.128906 -4.019531 29.859375 -2.40625 C 26.585938 -0.800781 22.769531 0 18.40625 0 Z M 18.1875 -8.484375 C 21.925781 -8.484375 24.863281 -9.472656 27 -11.453125 C 29.144531 -13.429688 30.21875 -16.082031 30.21875 -19.40625 C 30.21875 -22.738281 29.144531 -25.390625 27 -27.359375 C 24.863281 -29.335938 21.925781 -30.328125 18.1875 -30.328125 L 14.25 -30.328125 L 14.25 -8.484375 Z M 18.1875 -8.484375 "/></g></g></g><g fill="#ffffff" fill-opacity="1"><g transform="translate(294.727337, 173.477696)"><g><path d="M 17.515625 0.71875 C 12.898438 0.71875 9.1875 -0.453125 6.375 -2.796875 C 3.5625 -5.148438 2.117188 -8.453125 2.046875 -12.703125 L 11.640625 -12.703125 C 11.710938 -10.921875 12.238281 -9.539062 13.21875 -8.5625 C 14.195312 -7.582031 15.613281 -7.09375 17.46875 -7.09375 C 19.207031 -7.09375 20.519531 -7.425781 21.40625 -8.09375 C 22.289062 -8.757812 22.734375 -9.664062 22.734375 -10.8125 C 22.734375 -12.070312 22.160156 -13.039062 21.015625 -13.71875 C 19.867188 -14.40625 18.054688 -15.140625 15.578125 -15.921875 C 12.992188 -16.734375 10.859375 -17.546875 9.171875 -18.359375 C 7.492188 -19.171875 6.050781 -20.390625 4.84375 -22.015625 C 3.644531 -23.640625 3.046875 -25.785156 3.046875 -28.453125 C 3.046875 -30.585938 3.644531 -32.492188 4.84375 -34.171875 C 6.050781 -35.859375 7.726562 -37.171875 9.875 -38.109375 C 12.019531 -39.054688 14.476562 -39.53125 17.25 -39.53125 C 19.757812 -39.53125 22.101562 -39.066406 24.28125 -38.140625 C 26.46875 -37.222656 28.242188 -35.8125 29.609375 -33.90625 C 30.972656 -32 31.675781 -29.660156 31.71875 -26.890625 L 22.296875 -26.890625 C 22.253906 -28.265625 21.816406 -29.410156 20.984375 -30.328125 C 20.148438 -31.253906 18.90625 -31.71875 17.25 -31.71875 C 15.800781 -31.71875 14.679688 -31.398438 13.890625 -30.765625 C 13.097656 -30.140625 12.703125 -29.289062 12.703125 -28.21875 C 12.703125 -26.96875 13.273438 -26.007812 14.421875 -25.34375 C 15.566406 -24.675781 17.359375 -23.953125 19.796875 -23.171875 C 22.378906 -22.398438 24.507812 -21.609375 26.1875 -20.796875 C 27.875 -19.984375 29.328125 -18.753906 30.546875 -17.109375 C 31.773438 -15.460938 32.390625 -13.289062 32.390625 -10.59375 C 32.390625 -8.519531 31.804688 -6.625 30.640625 -4.90625 C 29.472656 -3.1875 27.769531 -1.816406 25.53125 -0.796875 C 23.300781 0.210938 20.628906 0.71875 17.515625 0.71875 Z M 17.515625 0.71875 "/></g></g></g><g fill="#ffffff" fill-opacity="1"><g transform="translate(329.16738, 173.477696)"><g/></g></g><g fill="#ffffff" fill-opacity="1"><g transform="translate(93.280382, 203.893881)"><g><path d="M 5.9375 0 L 1.96875 0 L 1.96875 -15.84375 L 5.9375 -15.84375 Z M 5.9375 0 "/></g></g></g><g fill="#ffffff" fill-opacity="1"><g transform="translate(101.159424, 203.893881)"><g><path d="M 13 -6.296875 L 13 -15.84375 L 16.796875 -15.84375 L 16.796875 0 L 14.03125 0 L 5.65625 -9.515625 L 5.65625 0 L 1.859375 0 L 1.859375 -15.84375 L 4.59375 -15.84375 Z M 13 -6.296875 "/></g></g></g><g fill="#ffffff" fill-opacity="1"><g transform="translate(119.792896, 203.893881)"><g><path d="M 8.3125 0 L 4.34375 0 L 4.34375 -12.265625 L 0.453125 -12.265625 L 0.453125 -15.84375 L 12.15625 -15.84375 L 12.15625 -12.265625 L 8.3125 -12.265625 Z M 8.3125 0 "/></g></g></g><g fill="#ffffff" fill-opacity="1"><g transform="translate(132.403886, 203.893881)"><g><path d="M 9.421875 0.296875 C 7.890625 0.296875 6.472656 -0.046875 5.171875 -0.734375 C 3.867188 -1.421875 2.832031 -2.390625 2.0625 -3.640625 C 1.289062 -4.898438 0.90625 -6.328125 0.90625 -7.921875 C 0.90625 -9.523438 1.289062 -10.953125 2.0625 -12.203125 C 2.832031 -13.453125 3.867188 -14.421875 5.171875 -15.109375 C 6.472656 -15.796875 7.890625 -16.140625 9.421875 -16.140625 C 10.941406 -16.140625 12.351562 -15.796875 13.65625 -15.109375 C 14.96875 -14.421875 16.007812 -13.453125 16.78125 -12.203125 C 17.550781 -10.953125 17.9375 -9.523438 17.9375 -7.921875 C 17.9375 -6.328125 17.550781 -4.898438 16.78125 -3.640625 C 16.007812 -2.390625 14.96875 -1.421875 13.65625 -0.734375 C 12.351562 -0.046875 10.941406 0.296875 9.421875 0.296875 Z M 9.421875 -3.328125 C 10.265625 -3.328125 11.03125 -3.519531 11.71875 -3.90625 C 12.40625 -4.300781 12.941406 -4.847656 13.328125 -5.546875 C 13.710938 -6.242188 13.90625 -7.035156 13.90625 -7.921875 C 13.90625 -8.816406 13.710938 -9.609375 13.328125 -10.296875 C 12.941406 -10.992188 12.40625 -11.535156 11.71875 -11.921875 C 11.03125 -12.316406 10.265625 -12.515625 9.421875 -12.515625 C 8.578125 -12.515625 7.8125 -12.316406 7.125 -11.921875 C 6.4375 -11.535156 5.898438 -10.992188 5.515625 -10.296875 C 5.128906 -9.609375 4.9375 -8.816406 4.9375 -7.921875 C 4.9375 -7.035156 5.128906 -6.242188 5.515625 -5.546875 C 5.898438 -4.847656 6.4375 -4.300781 7.125 -3.90625 C 7.8125 -3.519531 8.578125 -3.328125 9.421875 -3.328125 Z M 9.421875 -3.328125 "/></g></g></g><g fill="#ffffff" fill-opacity="1"><g transform="translate(151.241129, 203.893881)"><g/></g></g><g fill="#ffffff" fill-opacity="1"><g transform="translate(158.123966, 203.893881)"><g><path d="M 11.328125 -15.84375 L 11.328125 -12.390625 L 5.8125 -12.390625 L 5.8125 -9.21875 L 11.09375 -9.21875 L 11.09375 -5.90625 L 5.8125 -5.90625 L 5.8125 0 L 1.859375 0 L 1.859375 -15.84375 Z M 11.328125 -15.84375 "/></g></g></g><g fill="#ffffff" fill-opacity="1"><g transform="translate(170.395342, 203.893881)"><g><path d="M 5.8125 -6.453125 L 5.8125 -3.375 L 12.3125 -3.375 L 12.3125 0 L 1.859375 0 L 1.859375 -15.84375 L 12.09375 -15.84375 L 12.09375 -12.46875 L 5.8125 -12.46875 L 5.8125 -9.734375 L 11.859375 -9.734375 L 11.859375 -6.453125 Z M 5.8125 -6.453125 "/></g></g></g><g fill="#ffffff" fill-opacity="1"><g transform="translate(183.889331, 203.893881)"><g><path d="M 18.75 -15.84375 L 21.0625 0 L 17.15625 0 L 15.9375 -8.859375 L 12.140625 0 L 10.046875 0 L 6.25 -8.890625 L 5 0 L 1.125 0 L 3.4375 -15.84375 L 6.859375 -15.84375 L 11.109375 -5.890625 L 15.375 -15.84375 Z M 18.75 -15.84375 "/></g></g></g><g fill="#ffffff" fill-opacity="1"><g transform="translate(206.077431, 203.893881)"><g><path d="M 16.375 0 L 12.265625 0 L 11.1875 -3.109375 L 5.25 -3.109375 L 4.1875 0 L 0.15625 0 L 6.1875 -15.84375 L 10.328125 -15.84375 Z M 6.296875 -6.40625 L 10.1875 -6.40625 L 8.234375 -11.90625 Z M 6.296875 -6.40625 "/></g></g></g><g fill="#ffffff" fill-opacity="1"><g transform="translate(222.58265, 203.893881)"><g><path d="M 11.703125 0 L 1.859375 0 L 1.859375 -15.84375 L 5.8125 -15.84375 L 5.8125 -3.578125 L 11.703125 -3.578125 Z M 11.703125 0 "/></g></g></g><g fill="#ffffff" fill-opacity="1"><g transform="translate(234.831384, 203.893881)"><g><path d="M 5.8125 -6.453125 L 5.8125 -3.375 L 12.3125 -3.375 L 12.3125 0 L 1.859375 0 L 1.859375 -15.84375 L 12.09375 -15.84375 L 12.09375 -12.46875 L 5.8125 -12.46875 L 5.8125 -9.734375 L 11.859375 -9.734375 L 11.859375 -6.453125 Z M 5.8125 -6.453125 "/></g></g></g></svg>