<svg xmlns="http://www.w3.org/2000/svg" xmlns:xlink="http://www.w3.org/1999/xlink" width="80" zoomAndPan="magnify" viewBox="0 0 60 60" height="80" preserveAspectRatio="xMidYMid meet" version="1.0"><defs><g/><clipPath id="1f8cfa75f3"><path d="M 3.835938 3.835938 L 56.164062 3.835938 L 56.164062 56.164062 L 3.835938 56.164062 Z M 3.835938 3.835938 " clip-rule="nonzero"/></clipPath><clipPath id="9e5160f09c"><path d="M 30 3.835938 C 15.550781 3.835938 3.835938 15.550781 3.835938 30 C 3.835938 44.449219 15.550781 56.164062 30 56.164062 C 44.449219 56.164062 56.164062 44.449219 56.164062 30 C 56.164062 15.550781 44.449219 3.835938 30 3.835938 Z M 30 3.835938 " clip-rule="nonzero"/></clipPath><clipPath id="71d3379d1b"><path d="M 24 20.871094 L 36 20.871094 L 36 35 L 24 35 Z M 24 20.871094 " clip-rule="nonzero"/></clipPath><clipPath id="edea770bd5"><path d="M 19.226562 35 L 40.976562 35 L 40.976562 49.371094 L 19.226562 49.371094 Z M 19.226562 35 " clip-rule="nonzero"/></clipPath></defs><g clip-path="url(#1f8cfa75f3)"><g clip-path="url(#9e5160f09c)"><path fill="#673f6c" d="M 3.835938 3.835938 L 56.164062 3.835938 L 56.164062 56.164062 L 3.835938 56.164062 Z M 3.835938 3.835938 " fill-opacity="1" fill-rule="nonzero"/></g></g><g clip-path="url(#71d3379d1b)"><path fill="#ffffff" d="M 30.101562 34.808594 C 33.28125 34.808594 35.859375 31.691406 35.859375 27.847656 C 35.859375 24 35.011719 20.882812 30.101562 20.882812 C 25.191406 20.882812 24.34375 24 24.34375 27.847656 C 24.34375 31.691406 26.921875 34.808594 30.101562 34.808594 Z M 30.101562 34.808594 " fill-opacity="1" fill-rule="nonzero"/></g><g clip-path="url(#edea770bd5)"><path fill="#ffffff" d="M 40.964844 45.160156 C 40.855469 38.460938 39.976562 36.550781 33.253906 35.34375 C 33.253906 35.34375 32.308594 36.542969 30.101562 36.542969 C 27.894531 36.542969 26.949219 35.34375 26.949219 35.34375 C 20.300781 36.539062 19.367188 38.417969 19.246094 44.941406 C 19.234375 45.472656 19.230469 45.5 19.226562 45.441406 C 19.226562 45.554688 19.230469 45.769531 19.230469 46.144531 C 19.230469 46.144531 20.828125 49.355469 30.101562 49.355469 C 39.375 49.355469 40.976562 46.144531 40.976562 46.144531 C 40.976562 45.902344 40.976562 45.738281 40.976562 45.625 C 40.972656 45.660156 40.96875 45.585938 40.964844 45.160156 Z M 40.964844 45.160156 " fill-opacity="1" fill-rule="nonzero"/></g><g fill="#ffffff" fill-opacity="1"><g transform="translate(17.14292, 28.951037)"><g><path d="M -0.015625 -0.140625 L -0.625 -0.078125 L -0.71875 -1.09375 L -5.8125 -0.59375 L -5.71875 0.421875 L -6.328125 0.484375 L -6.625 -2.484375 L -6.015625 -2.546875 L -5.921875 -1.578125 L -0.828125 -2.078125 L -1.0625 -4.453125 L -3.0625 -4.25 L -3.140625 -5.03125 L -0.53125 -5.296875 Z M -0.015625 -0.140625 "/></g></g></g><g fill="#ffffff" fill-opacity="1"><g transform="translate(16.412842, 24.239278)"><g><path d="M 1.078125 -3.171875 C 0.960938 -2.804688 0.800781 -2.484375 0.59375 -2.203125 C 0.382812 -1.921875 0.140625 -1.695312 -0.140625 -1.53125 C -0.410156 -1.363281 -0.703125 -1.238281 -1.015625 -1.15625 C -1.328125 -1.082031 -1.648438 -1.0625 -1.984375 -1.09375 C -2.296875 -1.101562 -2.609375 -1.160156 -2.921875 -1.265625 C -3.585938 -1.460938 -4.140625 -1.789062 -4.578125 -2.25 C -4.804688 -2.488281 -4.984375 -2.75 -5.109375 -3.03125 C -5.242188 -3.320312 -5.328125 -3.640625 -5.359375 -3.984375 C -5.378906 -4.335938 -5.332031 -4.703125 -5.21875 -5.078125 C -5.101562 -5.441406 -4.9375 -5.765625 -4.71875 -6.046875 C -4.507812 -6.335938 -4.273438 -6.5625 -4.015625 -6.71875 C -3.734375 -6.882812 -3.429688 -7 -3.109375 -7.0625 C -2.796875 -7.132812 -2.484375 -7.164062 -2.171875 -7.15625 C -1.847656 -7.144531 -1.523438 -7.09375 -1.203125 -7 C -0.546875 -6.800781 0 -6.460938 0.4375 -5.984375 C 0.664062 -5.742188 0.847656 -5.484375 0.984375 -5.203125 C 1.117188 -4.921875 1.191406 -4.609375 1.203125 -4.265625 C 1.234375 -3.910156 1.191406 -3.546875 1.078125 -3.171875 Z M 0.515625 -3.34375 C 0.597656 -3.632812 0.601562 -3.914062 0.53125 -4.1875 C 0.46875 -4.46875 0.332031 -4.722656 0.125 -4.953125 C -0.0703125 -5.179688 -0.3125 -5.378906 -0.59375 -5.546875 C -0.882812 -5.722656 -1.191406 -5.863281 -1.515625 -5.96875 C -1.773438 -6.039062 -2.035156 -6.085938 -2.296875 -6.109375 C -2.554688 -6.140625 -2.816406 -6.132812 -3.078125 -6.09375 C -3.609375 -6.007812 -4.023438 -5.8125 -4.328125 -5.5 C -4.472656 -5.34375 -4.582031 -5.144531 -4.65625 -4.90625 C -4.738281 -4.625 -4.742188 -4.34375 -4.671875 -4.0625 C -4.597656 -3.78125 -4.457031 -3.523438 -4.25 -3.296875 C -4.0625 -3.066406 -3.828125 -2.867188 -3.546875 -2.703125 C -3.265625 -2.535156 -2.957031 -2.398438 -2.625 -2.296875 C -2.070312 -2.128906 -1.554688 -2.078125 -1.078125 -2.140625 C -0.796875 -2.191406 -0.550781 -2.265625 -0.34375 -2.359375 C -0.144531 -2.453125 0.0234375 -2.582031 0.171875 -2.75 C 0.328125 -2.914062 0.441406 -3.113281 0.515625 -3.34375 Z M 0.515625 -3.34375 "/></g></g></g><g fill="#ffffff" fill-opacity="1"><g transform="translate(17.969819, 18.500273)"><g><path d="M 2.28125 -2.390625 C 2.03125 -2.109375 1.75 -1.882812 1.4375 -1.71875 C 1.125 -1.5625 0.8125 -1.46875 0.5 -1.4375 C 0.175781 -1.414062 -0.140625 -1.4375 -0.453125 -1.5 C -0.765625 -1.570312 -1.066406 -1.6875 -1.359375 -1.84375 C -1.648438 -2 -1.914062 -2.179688 -2.15625 -2.390625 C -2.476562 -2.679688 -2.734375 -3.007812 -2.921875 -3.375 C -3.117188 -3.75 -3.234375 -4.140625 -3.265625 -4.546875 C -3.328125 -4.960938 -3.285156 -5.378906 -3.140625 -5.796875 C -2.992188 -6.222656 -2.757812 -6.617188 -2.4375 -6.984375 C -2.125 -7.328125 -1.773438 -7.582031 -1.390625 -7.75 C -1.015625 -7.925781 -0.65625 -7.992188 -0.3125 -7.953125 C 0.0390625 -7.921875 0.347656 -7.785156 0.609375 -7.546875 C 0.691406 -7.472656 0.753906 -7.378906 0.796875 -7.265625 C 0.835938 -7.148438 0.847656 -7.023438 0.828125 -6.890625 C 0.804688 -6.765625 0.742188 -6.648438 0.640625 -6.546875 C 0.554688 -6.441406 0.453125 -6.367188 0.328125 -6.328125 C 0.210938 -6.296875 0.0976562 -6.289062 -0.015625 -6.3125 C -0.140625 -6.332031 -0.238281 -6.378906 -0.3125 -6.453125 C -0.40625 -6.535156 -0.46875 -6.628906 -0.5 -6.734375 C -0.539062 -6.847656 -0.554688 -6.957031 -0.546875 -7.0625 C -0.546875 -7.164062 -0.519531 -7.25 -0.46875 -7.3125 L -0.453125 -7.3125 C -0.660156 -7.332031 -0.863281 -7.3125 -1.0625 -7.25 C -1.257812 -7.1875 -1.425781 -7.097656 -1.5625 -6.984375 C -1.707031 -6.878906 -1.832031 -6.769531 -1.9375 -6.65625 C -2.238281 -6.320312 -2.410156 -5.945312 -2.453125 -5.53125 C -2.503906 -5.125 -2.441406 -4.71875 -2.265625 -4.3125 C -2.078125 -3.90625 -1.796875 -3.535156 -1.421875 -3.203125 C -1.179688 -2.992188 -0.910156 -2.820312 -0.609375 -2.6875 C -0.304688 -2.5625 0 -2.5 0.3125 -2.5 C 0.613281 -2.46875 0.90625 -2.503906 1.1875 -2.609375 C 1.46875 -2.710938 1.707031 -2.878906 1.90625 -3.109375 C 2.039062 -3.265625 2.144531 -3.441406 2.21875 -3.640625 C 2.300781 -3.847656 2.335938 -4.046875 2.328125 -4.234375 C 2.335938 -4.421875 2.3125 -4.59375 2.25 -4.75 C 2.195312 -4.90625 2.125 -5.023438 2.03125 -5.109375 L 1.59375 -5.5 L 0.796875 -4.609375 L 0.3125 -5.03125 L 2.140625 -7.078125 L 2.625 -6.65625 L 2.171875 -6.140625 L 4.015625 -4.5 L 3.671875 -4.125 L 2.859375 -4.5625 C 2.941406 -4.363281 2.976562 -4.160156 2.96875 -3.953125 C 2.96875 -3.753906 2.9375 -3.554688 2.875 -3.359375 C 2.738281 -3.003906 2.539062 -2.679688 2.28125 -2.390625 Z M 2.28125 -2.390625 "/></g></g></g><g fill="#ffffff" fill-opacity="1"><g transform="translate(21.827545, 13.921878)"><g><path d="M 3.09375 -1.21875 C 2.75 -1.070312 2.398438 -0.988281 2.046875 -0.96875 C 1.691406 -0.957031 1.363281 -1.003906 1.0625 -1.109375 C 0.757812 -1.210938 0.476562 -1.363281 0.21875 -1.5625 C -0.0390625 -1.757812 -0.265625 -1.988281 -0.453125 -2.25 C -0.648438 -2.507812 -0.8125 -2.785156 -0.9375 -3.078125 C -1.101562 -3.472656 -1.195312 -3.878906 -1.21875 -4.296875 C -1.238281 -4.710938 -1.175781 -5.113281 -1.03125 -5.5 C -0.90625 -5.894531 -0.6875 -6.253906 -0.375 -6.578125 C -0.0703125 -6.910156 0.296875 -7.171875 0.734375 -7.359375 C 1.171875 -7.546875 1.59375 -7.632812 2 -7.625 C 2.414062 -7.613281 2.773438 -7.515625 3.078125 -7.328125 C 3.378906 -7.148438 3.597656 -6.898438 3.734375 -6.578125 C 3.785156 -6.472656 3.800781 -6.359375 3.78125 -6.234375 C 3.769531 -6.117188 3.726562 -6.007812 3.65625 -5.90625 C 3.582031 -5.800781 3.476562 -5.722656 3.34375 -5.671875 C 3.21875 -5.609375 3.09375 -5.582031 2.96875 -5.59375 C 2.851562 -5.613281 2.742188 -5.660156 2.640625 -5.734375 C 2.546875 -5.804688 2.476562 -5.890625 2.4375 -5.984375 C 2.394531 -6.097656 2.378906 -6.210938 2.390625 -6.328125 C 2.398438 -6.453125 2.429688 -6.554688 2.484375 -6.640625 C 2.535156 -6.722656 2.59375 -6.78125 2.65625 -6.8125 L 2.671875 -6.828125 C 2.503906 -6.929688 2.316406 -6.992188 2.109375 -7.015625 C 1.898438 -7.046875 1.703125 -7.046875 1.515625 -7.015625 C 1.359375 -6.960938 1.207031 -6.90625 1.0625 -6.84375 C 0.644531 -6.664062 0.328125 -6.398438 0.109375 -6.046875 C -0.109375 -5.703125 -0.222656 -5.3125 -0.234375 -4.875 C -0.234375 -4.425781 -0.132812 -3.972656 0.0625 -3.515625 C 0.1875 -3.222656 0.359375 -2.953125 0.578125 -2.703125 C 0.804688 -2.460938 1.054688 -2.269531 1.328125 -2.125 C 1.597656 -1.96875 1.882812 -1.878906 2.1875 -1.859375 C 2.488281 -1.847656 2.773438 -1.898438 3.046875 -2.015625 C 3.242188 -2.097656 3.414062 -2.210938 3.5625 -2.359375 C 3.71875 -2.503906 3.832031 -2.664062 3.90625 -2.84375 C 3.976562 -3.019531 4.023438 -3.1875 4.046875 -3.34375 C 4.066406 -3.507812 4.054688 -3.648438 4.015625 -3.765625 L 3.765625 -4.3125 L 2.65625 -3.828125 L 2.40625 -4.421875 L 4.9375 -5.515625 L 5.1875 -4.921875 L 4.5625 -4.65625 L 5.546875 -2.390625 L 5.0625 -2.1875 L 4.515625 -2.921875 C 4.515625 -2.710938 4.46875 -2.515625 4.375 -2.328125 C 4.28125 -2.140625 4.164062 -1.976562 4.03125 -1.84375 C 3.757812 -1.582031 3.445312 -1.375 3.09375 -1.21875 Z M 3.09375 -1.21875 "/></g></g></g><g fill="#ffffff" fill-opacity="1"><g transform="translate(27.288549, 11.452876)"><g><path d="M 0.140625 0 L 0.15625 -0.609375 L 1.1875 -0.59375 L 1.25 -5.71875 L 0.21875 -5.734375 L 0.234375 -6.34375 L 5.953125 -6.265625 L 5.90625 -3.828125 L 5.15625 -3.84375 L 5.1875 -5.671875 L 2.25 -5.703125 L 2.21875 -3.421875 L 3.78125 -3.40625 L 3.796875 -4.453125 L 4.359375 -4.4375 L 4.328125 -1.8125 L 3.765625 -1.828125 L 3.78125 -2.9375 L 2.21875 -2.953125 L 2.1875 -0.578125 L 5.125 -0.546875 L 5.140625 -2.34375 L 5.890625 -2.328125 L 5.859375 0.078125 Z M 0.140625 0 "/></g></g></g><g fill="#ffffff" fill-opacity="1"><g transform="translate(32.821644, 11.339696)"><g><path d="M 0.375 -0.484375 L 1.296875 -0.0625 L 3.4375 -4.734375 L 2.515625 -5.15625 L 2.765625 -5.703125 L 4.5 -4.90625 C 4.9375 -4.707031 5.3125 -4.5 5.625 -4.28125 C 5.945312 -4.070312 6.25 -3.828125 6.53125 -3.546875 C 6.8125 -3.253906 7.015625 -2.945312 7.140625 -2.625 C 7.273438 -2.3125 7.34375 -1.960938 7.34375 -1.578125 C 7.332031 -1.160156 7.222656 -0.734375 7.015625 -0.296875 C 6.835938 0.0976562 6.613281 0.429688 6.34375 0.703125 C 6.082031 0.984375 5.789062 1.179688 5.46875 1.296875 C 5.15625 1.429688 4.8125 1.5 4.4375 1.5 C 4.0625 1.507812 3.664062 1.46875 3.25 1.375 C 2.851562 1.269531 2.4375 1.117188 2 0.921875 L 0.125 0.0625 Z M 2.203125 0.359375 C 2.535156 0.503906 2.84375 0.609375 3.125 0.671875 C 3.40625 0.742188 3.6875 0.78125 3.96875 0.78125 C 4.269531 0.789062 4.539062 0.742188 4.78125 0.640625 C 5.019531 0.535156 5.25 0.367188 5.46875 0.140625 C 5.6875 -0.0976562 5.875 -0.394531 6.03125 -0.75 C 6.15625 -1.019531 6.242188 -1.28125 6.296875 -1.53125 C 6.347656 -1.78125 6.367188 -2 6.359375 -2.1875 C 6.328125 -2.394531 6.269531 -2.585938 6.1875 -2.765625 C 6.113281 -2.941406 6.015625 -3.101562 5.890625 -3.25 C 5.785156 -3.394531 5.644531 -3.53125 5.46875 -3.65625 C 5.300781 -3.78125 5.125 -3.898438 4.9375 -4.015625 C 4.757812 -4.117188 4.5625 -4.21875 4.34375 -4.3125 Z M 2.203125 0.359375 "/></g></g></g><g fill="#ffffff" fill-opacity="1"><g transform="translate(38.202008, 14.071481)"><g/></g></g><g fill="#ffffff" fill-opacity="1"><g transform="translate(39.538186, 15.108325)"><g><path d="M 0.078125 0.09375 L 0.546875 -0.296875 L 1.203125 0.5 L 5.15625 -2.765625 L 4.5 -3.5625 L 4.96875 -3.953125 L 6.875 -1.65625 L 6.40625 -1.265625 L 5.78125 -2 L 1.828125 1.265625 L 2.453125 2 L 1.984375 2.390625 Z M 0.078125 0.09375 "/></g></g></g><g fill="#ffffff" fill-opacity="1"><g transform="translate(41.580217, 16.889865)"><g><path d="M 0.046875 0.125 L 0.625 -0.078125 L 0.984375 0.875 L 5.78125 -0.90625 L 5.421875 -1.859375 L 6 -2.0625 L 6.78125 0.078125 L 2.921875 4.6875 L 7.234375 3.09375 L 6.890625 2.125 L 7.46875 1.921875 L 8.421875 4.546875 L 7.84375 4.75 L 7.515625 3.859375 L 2.140625 5.84375 L 1.75 4.78125 L 5.78125 -0.046875 L 1.25 1.625 L 1.578125 2.546875 L 1 2.75 Z M 0.046875 0.125 "/></g></g></g><g fill="#ffffff" fill-opacity="1"><g transform="translate(43.581294, 23.209307)"><g/></g></g><g fill="#ffffff" fill-opacity="1"><g transform="translate(43.68999, 24.96673)"><g/></g></g><g fill="#ffffff" fill-opacity="1"><g transform="translate(43.568367, 26.7233)"><g/></g></g></svg>