<svg xmlns="http://www.w3.org/2000/svg" xmlns:xlink="http://www.w3.org/1999/xlink" width="80" zoomAndPan="magnify" viewBox="0 0 60 60" height="80" preserveAspectRatio="xMidYMid meet" version="1.0"><path fill="#854ab1" d="M 30 0 C 13.457031 0 0 13.457031 0 30 C 0 46.542969 13.457031 60 30 60 C 46.542969 60 60 46.542969 60 30 C 60 13.457031 46.542969 0 30 0 Z M 48.980469 47.742188 C 45.070312 41.054688 37.894531 36.867188 30 36.867188 C 22.105469 36.867188 14.933594 41.054688 11.019531 47.742188 C 6.671875 43.09375 4 36.851562 4 30 C 4 15.664062 15.664062 4 30 4 C 44.335938 4 56 15.664062 56 30 C 56 36.851562 53.328125 43.09375 48.980469 47.742188 Z M 48.980469 47.742188 " fill-opacity="1" fill-rule="nonzero"/><path fill="#854ab1" d="M 30 8.867188 C 23.257812 8.867188 17.769531 14.355469 17.769531 21.097656 C 17.769531 27.839844 23.257812 33.328125 30 33.328125 C 36.742188 33.328125 42.230469 27.839844 42.230469 21.097656 C 42.230469 14.355469 36.742188 8.867188 30 8.867188 Z M 30 8.867188 " fill-opacity="1" fill-rule="nonzero"/></svg>